%
T1C.012F095S300
X023350Y017000
X032500Y016750
X041600Y016750
X042300Y021950
X042350Y025300
X042200Y027250
X041350Y022750
X028550Y027950
X027250Y026800
X026800Y027350
X021400Y026250
X021050Y026600
X020700Y026100
X020700Y026450
X018500Y031300
X020100Y032750
X020300Y033750
X021700Y032000
X028000Y030900
X028950Y031350
X029300Y031750
X030400Y032100
X032250Y030200
X032250Y031150
X033350Y030300
X034050Y034000
X035000Y032800
X035200Y032400
X036650Y030750
X041750Y032950
X045850Y036000
X034700Y038050
X033500Y038950
X033000Y037950
X032700Y038250
X026100Y034700
X026050Y038850
X025800Y039100
X025500Y039350
X025150Y036150
X025100Y036900
X024950Y035400
X024750Y036100
X024700Y039150
X024650Y036900
X021950Y035800
X020250Y038550
X020150Y035300
X019950Y034500
X019750Y039100
X018800Y038400
X016000Y036250
X017400Y043100
X018800Y043950
X018900Y042400
X019300Y041300
X019950Y044350
X020500Y044050
X020650Y041050
X020650Y043400
X020900Y041350
X021250Y041000
X022700Y040800
X024200Y042100
X025200Y043250
X025200Y042500
X027000Y040500
X027350Y040450
X030050Y040050
X030250Y039700
X031250Y041900
X031600Y041850
X032450Y039650
X032800Y041950
X021000Y046700
T2C.016F095S300
X042250Y024750
X045450Y032500
X045500Y039500
T3C.03071F197S550
X012957Y018669
X013744Y018669
X014531Y018669
X015319Y018669
X016106Y018669
X016894Y018669
X017681Y018669
X018469Y018669
X019256Y018669
X020043Y018669
X020043Y027331
X019256Y027331
X018469Y027331
X017681Y027331
X016894Y027331
X016106Y027331
X015319Y027331
X014531Y027331
X013744Y027331
X012957Y027331
T4C.035F197S550
X026750Y021750
X027750Y021750
X028750Y021750
X029750Y021750
X033500Y021750
X034500Y021750
X035500Y021750
X036500Y021750
X036500Y022750
X036500Y023750
X035500Y022750
X035500Y023750
X034500Y022750
X034500Y023750
X033500Y023750
X033500Y022750
X029750Y022750
X029750Y023750
X028750Y022750
X028750Y023750
X027750Y023750
X027750Y022750
X026750Y023750
X026750Y022750
T5C.04F139S550
X016000Y013750
X016000Y012750
X016000Y014750
X017000Y012750
X017000Y013750
X017000Y014750
X019000Y014750
X019000Y013750
X019000Y012750
X020000Y013750
X020000Y012750
X020000Y014750
X021000Y014750
X021000Y013750
X021000Y012750
X038500Y033500
X038500Y032500
X037500Y032500
X037500Y033500
X015500Y033500
X015500Y032500
X014500Y032500
X014500Y033500
X014500Y036500
X014500Y035500
X014500Y034500
X014500Y038500
X014500Y037500
X015500Y036500
X015500Y035500
X015500Y034500
X015500Y038500
X015500Y037500
X037500Y035500
X037500Y034500
X037500Y036500
X037500Y038500
X037500Y037500
X038500Y035500
X038500Y036500
X038500Y038500
X038500Y034500
X038500Y037500
X038500Y040500
X038500Y039500
X038500Y041500
X038500Y043500
X038500Y042500
X037500Y040500
X037500Y039500
X037500Y041500
X037500Y043500
X037500Y042500
X015500Y043500
X015500Y042500
X015500Y039500
X015500Y040500
X015500Y041500
X014500Y040500
X014500Y043500
X014500Y041500
X014500Y042500
X014500Y039500
X014500Y044500
X014500Y045500
X015500Y044500
X015500Y045500
X037500Y044500
X037500Y045500
X038500Y044500
X038500Y045500
T6C.042F139S550
X025000Y013000
X026000Y013000
X028000Y013000
X029000Y013000
X031000Y013000
X032000Y013000
X035000Y013000
X036000Y013000
X037000Y013000
X039500Y013000
X040500Y013000
X041500Y013000
X042500Y013000
X046000Y016000
X046000Y018000
X046000Y017000
X046000Y019500
X046000Y020500
X046000Y021500
X046000Y023000
X046000Y024000
X046000Y025000
T7C.064F089S550
X046670Y029000
X046670Y036000
T8C.067F089S550
X045000Y028220
X045000Y029780
X045000Y035220
X045000Y036780
T9C.07087F081S550
X041000Y039500
X041000Y041665
T10C.11811F069S658
X041000Y044539
T11C.126F035S794
X012000Y012000
X047000Y012000
X047000Y047000
X012000Y047000
M30
