*
*
G04 PADS 9.5 Build Number: 522968 generated Gerber (RS-274-X) file*
G04 PC Version=2.1*
*
%IN "Drive Board.pcb"*%
*
%MOIN*%
*
%FSLAX35Y35*%
*
*
*
*
G04 PC Standard Apertures*
*
*
G04 Thermal Relief Aperture macro.*
%AMTER*
1,1,$1,0,0*
1,0,$1-$2,0,0*
21,0,$3,$4,0,0,45*
21,0,$3,$4,0,0,135*
%
*
*
G04 Annular Aperture macro.*
%AMANN*
1,1,$1,0,0*
1,0,$2,0,0*
%
*
*
G04 Odd Aperture macro.*
%AMODD*
1,1,$1,0,0*
1,0,$1-0.005,0,0*
%
*
*
G04 PC Custom Aperture Macros*
*
*
*
*
*
*
G04 PC Aperture Table*
*
%ADD010C,0.001*%
%ADD018C,0.01*%
*
*
*
*
G04 PC Circuitry*
G04 Layer Name Drive Board.pcb - circuitry*
%LPD*%
*
*
G04 PC Custom Flashes*
G04 Layer Name Drive Board.pcb - flashes*
%LPD*%
*
*
G04 PC Circuitry*
G04 Layer Name Drive Board.pcb - circuitry*
%LPD*%
*
G54D10*
G54D18*
G01X323364Y480375D02*
X323909Y480000D01*
X324455Y479250*
X324727Y478500*
X325000Y477375*
Y475500*
X324727Y474375*
X324455Y473625*
X323909Y472875*
X323364Y472500*
X322273*
X321727Y472875*
X321182Y473625*
X320909Y474375*
X320636Y475500*
Y477375*
X320909Y478500*
X321182Y479250*
X321727Y480000*
X322273Y480375*
X323364*
X314364Y479250D02*
X314909Y480000D01*
X315727Y480375*
X316818*
X317636Y480000*
X318182Y479250*
Y478500*
X317909Y477750*
X317636Y477375*
X317091Y477000*
X315455Y476250*
X314909Y475875*
X314636Y475500*
X314364Y474750*
Y473625*
X314909Y472875*
X315727Y472500*
X316818*
X317636Y472875*
X318182Y473625*
X311909Y480375D02*
Y474750D01*
X311636Y473625*
X311091Y472875*
X310273Y472500*
X309727*
X308909Y472875*
X308364Y473625*
X308091Y474750*
Y480375*
X305636D02*
Y472500D01*
Y480375D02*
X303182D01*
X302364Y480000*
X302091Y479625*
X301818Y478875*
Y478125*
X302091Y477375*
X302364Y477000*
X303182Y476625*
X305636*
X303727D02*
X301818Y472500D01*
X295273Y478500D02*
X295545Y479250D01*
X296091Y480000*
X296636Y480375*
X297727*
X298273Y480000*
X298818Y479250*
X299091Y478500*
X299364Y477375*
Y475500*
X299091Y474375*
X298818Y473625*
X298273Y472875*
X297727Y472500*
X296636*
X296091Y472875*
X295545Y473625*
X295273Y474375*
X286545Y480375D02*
Y472500D01*
Y480375D02*
X284091D01*
X283273Y480000*
X283000Y479625*
X282727Y478875*
Y478125*
X283000Y477375*
X283273Y477000*
X284091Y476625*
X286545*
X284636D02*
X282727Y472500D01*
X278909Y477750D02*
X279455Y477375D01*
X280000Y476625*
X280273Y475500*
Y474750*
X280000Y473625*
X279455Y472875*
X278909Y472500*
X278091*
X277545Y472875*
X277000Y473625*
X276727Y474750*
Y475500*
X277000Y476625*
X277545Y477375*
X278091Y477750*
X278909*
X274273D02*
X272636Y472500D01*
X271000Y477750D02*
X272636Y472500D01*
X268545Y475500D02*
X265273D01*
Y476250*
X265545Y477000*
X265818Y477375*
X266364Y477750*
X267182*
X267727Y477375*
X268273Y476625*
X268545Y475500*
Y474750*
X268273Y473625*
X267727Y472875*
X267182Y472500*
X266364*
X265818Y472875*
X265273Y473625*
X262818Y477750D02*
Y472500D01*
Y475500D02*
X262545Y476625D01*
X262000Y477375*
X261455Y477750*
X260636*
X251636Y478500D02*
Y478875D01*
X251364Y479625*
X251091Y480000*
X250545Y480375*
X249455*
X248909Y480000*
X248636Y479625*
X248364Y478875*
Y478125*
X248636Y477375*
X249182Y476250*
X251909Y472500*
X248091*
X244000Y480375D02*
X244818Y480000D01*
X245364Y478875*
X245636Y477000*
Y475875*
X245364Y474000*
X244818Y472875*
X244000Y472500*
X243455*
X242636Y472875*
X242091Y474000*
X241818Y475875*
Y477000*
X242091Y478875*
X242636Y480000*
X243455Y480375*
X244000*
X239364Y478875D02*
X238818Y479250D01*
X238000Y480375*
Y472500*
X232000Y480375D02*
X234727D01*
X235000Y477000*
X234727Y477375*
X233909Y477750*
X233091*
X232273Y477375*
X231727Y476625*
X231455Y475500*
X231727Y474750*
X232000Y473625*
X232545Y472875*
X233364Y472500*
X234182*
X235000Y472875*
X235273Y473250*
X235545Y474000*
X222727Y480375D02*
Y472500D01*
Y480375D02*
X220818D01*
X220000Y480000*
X219455Y479250*
X219182Y478500*
X218909Y477375*
Y475500*
X219182Y474375*
X219455Y473625*
X220000Y472875*
X220818Y472500*
X222727*
X216455Y477750D02*
Y472500D01*
Y475500D02*
X216182Y476625D01*
X215636Y477375*
X215091Y477750*
X214273*
X211818Y480375D02*
X211545Y480000D01*
X211273Y480375*
X211545Y480750*
X211818Y480375*
X211545Y477750D02*
Y472500D01*
X208818Y477750D02*
X207182Y472500D01*
X205545Y477750D02*
X207182Y472500D01*
X203091Y475500D02*
X199818D01*
Y476250*
X200091Y477000*
X200364Y477375*
X200909Y477750*
X201727*
X202273Y477375*
X202818Y476625*
X203091Y475500*
Y474750*
X202818Y473625*
X202273Y472875*
X201727Y472500*
X200909*
X200364Y472875*
X199818Y473625*
X191091Y480375D02*
Y472500D01*
Y480375D02*
X188636D01*
X187818Y480000*
X187545Y479625*
X187273Y478875*
Y478125*
X187545Y477375*
X187818Y477000*
X188636Y476625*
X191091D02*
X188636D01*
X187818Y476250*
X187545Y475875*
X187273Y475125*
Y474000*
X187545Y473250*
X187818Y472875*
X188636Y472500*
X191091*
X183455Y477750D02*
X184000Y477375D01*
X184545Y476625*
X184818Y475500*
Y474750*
X184545Y473625*
X184000Y472875*
X183455Y472500*
X182636*
X182091Y472875*
X181545Y473625*
X181273Y474750*
Y475500*
X181545Y476625*
X182091Y477375*
X182636Y477750*
X183455*
X175545D02*
Y472500D01*
Y476625D02*
X176091Y477375D01*
X176636Y477750*
X177455*
X178000Y477375*
X178545Y476625*
X178818Y475500*
Y474750*
X178545Y473625*
X178000Y472875*
X177455Y472500*
X176636*
X176091Y472875*
X175545Y473625*
X173091Y477750D02*
Y472500D01*
Y475500D02*
X172818Y476625D01*
X172273Y477375*
X171727Y477750*
X170909*
X165182Y480375D02*
Y472500D01*
Y476625D02*
X165727Y477375D01*
X166273Y477750*
X167091*
X167636Y477375*
X168182Y476625*
X168455Y475500*
Y474750*
X168182Y473625*
X167636Y472875*
X167091Y472500*
X166273*
X165727Y472875*
X165182Y473625*
X325000Y467875D02*
Y460000D01*
Y467875D02*
X321182Y460000D01*
Y467875D02*
Y460000D01*
X318727Y467875D02*
X318455Y467500D01*
X318182Y467875*
X318455Y468250*
X318727Y467875*
X318455Y465250D02*
Y460000D01*
X312455Y464125D02*
X313000Y464875D01*
X313545Y465250*
X314364*
X314909Y464875*
X315455Y464125*
X315727Y463000*
Y462250*
X315455Y461125*
X314909Y460375*
X314364Y460000*
X313545*
X313000Y460375*
X312455Y461125*
X310000Y467875D02*
Y460000D01*
X307273Y465250D02*
X310000Y461500D01*
X308909Y463000D02*
X307000Y460000D01*
X296091Y467875D02*
X298273Y460000D01*
X296091Y467875D02*
X293909Y460000D01*
X297455Y462625D02*
X294727D01*
X291455Y465250D02*
Y460000D01*
Y463750D02*
X290636Y464875D01*
X290091Y465250*
X289273*
X288727Y464875*
X288455Y463750*
Y460000*
Y463750D02*
X287636Y464875D01*
X287091Y465250*
X286273*
X285727Y464875*
X285455Y463750*
Y460000*
X283000Y463000D02*
X279727D01*
Y463750*
X280000Y464500*
X280273Y464875*
X280818Y465250*
X281636*
X282182Y464875*
X282727Y464125*
X283000Y463000*
Y462250*
X282727Y461125*
X282182Y460375*
X281636Y460000*
X280818*
X280273Y460375*
X279727Y461125*
X274273Y464125D02*
X274545Y464875D01*
X275364Y465250*
X276182*
X277000Y464875*
X277273Y464125*
X277000Y463375*
X276455Y463000*
X275091Y462625*
X274545Y462250*
X274273Y461500*
Y461125*
X274545Y460375*
X275364Y460000*
X276182*
X277000Y460375*
X277273Y461125*
X265273Y466000D02*
Y466375D01*
X265000Y467125*
X264727Y467500*
X264182Y467875*
X263091*
X262545Y467500*
X262273Y467125*
X262000Y466375*
Y465625*
X262273Y464875*
X262818Y463750*
X265545Y460000*
X261727*
X257636Y467875D02*
X258455Y467500D01*
X259000Y466375*
X259273Y464500*
Y463375*
X259000Y461500*
X258455Y460375*
X257636Y460000*
X257091*
X256273Y460375*
X255727Y461500*
X255455Y463375*
Y464500*
X255727Y466375*
X256273Y467500*
X257091Y467875*
X257636*
X253000Y466375D02*
X252455Y466750D01*
X251636Y467875*
Y460000*
X246455Y467875D02*
X249182Y462625D01*
X245091*
X246455Y467875D02*
Y460000D01*
X0Y0D02*
M02*
