*
*
G04 PADS 9.5 Build Number: 522968 generated Gerber (RS-274-X) file*
G04 PC Version=2.1*
*
%IN "Drive Board.pcb"*%
*
%MOIN*%
*
%FSLAX35Y35*%
*
*
*
*
G04 PC Standard Apertures*
*
*
G04 Thermal Relief Aperture macro.*
%AMTER*
1,1,$1,0,0*
1,0,$1-$2,0,0*
21,0,$3,$4,0,0,45*
21,0,$3,$4,0,0,135*
%
*
*
G04 Annular Aperture macro.*
%AMANN*
1,1,$1,0,0*
1,0,$2,0,0*
%
*
*
G04 Odd Aperture macro.*
%AMODD*
1,1,$1,0,0*
1,0,$1-0.005,0,0*
%
*
*
G04 PC Custom Aperture Macros*
*
*
*
*
*
*
G04 PC Aperture Table*
*
%ADD010C,0.001*%
%ADD012C,0.07*%
%ADD034C,0.06112*%
%ADD035C,0.076*%
%ADD036C,0.12017*%
%ADD037R,0.044X0.036*%
%ADD038C,0.106*%
%ADD039R,0.042X0.042*%
%ADD040R,0.056X0.042*%
%ADD041R,0.03356X0.01781*%
%ADD042R,0.01781X0.03356*%
%ADD043R,0.08868X0.06112*%
%ADD044C,0.066*%
%ADD045R,0.036X0.044*%
%ADD046C,0.071*%
%ADD047R,0.066X0.066*%
%ADD048R,0.097X0.227*%
%ADD049R,0.04931X0.02096*%
*
*
*
*
G04 PC Circuitry*
G04 Layer Name Drive Board.pcb - circuitry*
%LPD*%
*
*
G04 PC Custom Flashes*
G04 Layer Name Drive Board.pcb - flashes*
%LPD*%
*
*
G04 PC Circuitry*
G04 Layer Name Drive Board.pcb - circuitry*
%LPD*%
*
G54D10*
G54D12*
G01X466700Y360000D03*
Y290000D03*
G54D34*
X129567Y186693D03*
X137441D03*
X145315D03*
X153189D03*
X161063D03*
X168937D03*
X176811D03*
X184685D03*
X192559D03*
X200433D03*
Y273307D03*
X192559D03*
X184685D03*
X176811D03*
X168937D03*
X161063D03*
X153189D03*
X145315D03*
X137441D03*
X129567D03*
G54D35*
X460000Y180000D03*
Y170000D03*
Y160000D03*
Y215000D03*
Y205000D03*
Y195000D03*
Y250000D03*
Y240000D03*
Y230000D03*
X425000Y130000D03*
X415000D03*
X405000D03*
X395000D03*
X290000D03*
X280000D03*
X320000D03*
X310000D03*
X260000D03*
X250000D03*
X370000D03*
X360000D03*
X350000D03*
G54D36*
X410000Y395000D03*
Y416654D03*
G54D37*
X241900Y402500D03*
X248100D03*
Y395000D03*
X241900D03*
X248100Y387500D03*
X241900D03*
X411900Y342500D03*
X418100D03*
X411900Y350000D03*
X418100D03*
X421900Y360000D03*
X428100D03*
X411900Y272500D03*
X418100D03*
X411900Y280000D03*
X418100D03*
X421900Y290000D03*
X428100D03*
X241900Y425000D03*
X248100D03*
X241900Y417500D03*
X248100D03*
X241900Y410000D03*
X248100D03*
X241900Y447500D03*
X248100D03*
X241900Y440000D03*
X248100D03*
X241900Y432500D03*
X248100D03*
X241900Y380000D03*
X248100D03*
X241900Y372500D03*
X248100D03*
X241900Y365000D03*
X248100D03*
X189400Y337500D03*
X195600D03*
X189400Y330000D03*
X195600D03*
X189400Y322500D03*
X195600D03*
X189400Y360000D03*
X195600D03*
X189400Y352500D03*
X195600D03*
X189400Y345000D03*
X195600D03*
X189400Y380000D03*
X195600D03*
X380600Y300000D03*
X374400D03*
Y307500D03*
X380600D03*
X189400Y370000D03*
X195600D03*
X166900Y200000D03*
X173100D03*
X241900Y327500D03*
X248100D03*
X241900Y335000D03*
X248100D03*
X241900Y342500D03*
X248100D03*
X241900Y350000D03*
X248100D03*
X241900Y357500D03*
X248100D03*
X330600Y400000D03*
X324400D03*
G54D38*
X450000Y367800D03*
Y352200D03*
Y297800D03*
Y282200D03*
G54D39*
X413600Y336250D03*
Y328750D03*
X421100Y266250D03*
Y258750D03*
G54D40*
X421600Y332500D03*
X429100Y262500D03*
G54D41*
X416850Y227559D03*
Y225000D03*
Y222441D03*
X423150Y227559D03*
Y225000D03*
Y222441D03*
X425650Y162441D03*
Y165000D03*
Y167559D03*
X419350Y162441D03*
Y165000D03*
Y167559D03*
G54D42*
X337559Y155650D03*
X335000D03*
X332441D03*
X337559Y149350D03*
X335000D03*
X332441D03*
X177441Y169350D03*
X180000D03*
X182559D03*
X177441Y175650D03*
X180000D03*
X182559D03*
G54D43*
X455000Y436161D03*
Y418839D03*
G54D44*
X267500Y217500D03*
Y227500D03*
Y237500D03*
X277500Y217500D03*
Y227500D03*
Y237500D03*
X335000Y217500D03*
Y227500D03*
Y237500D03*
X345000Y217500D03*
Y227500D03*
Y237500D03*
X355000Y217500D03*
Y227500D03*
Y237500D03*
X365000Y217500D03*
Y227500D03*
Y237500D03*
X287500Y217500D03*
Y227500D03*
Y237500D03*
X297500Y217500D03*
Y227500D03*
Y237500D03*
X375000Y455000D03*
X385000D03*
X375000Y445000D03*
X385000D03*
X375000Y435000D03*
X385000D03*
X375000Y425000D03*
X385000D03*
X375000Y415000D03*
X385000D03*
X375000Y405000D03*
X385000D03*
X375000Y395000D03*
X385000D03*
X375000Y385000D03*
X385000D03*
X375000Y375000D03*
X385000D03*
X375000Y365000D03*
X385000D03*
X375000Y355000D03*
X385000D03*
X375000Y345000D03*
X385000D03*
X375000Y335000D03*
X385000D03*
X375000Y325000D03*
X385000D03*
X145000Y455000D03*
X155000D03*
X145000Y445000D03*
X155000D03*
X145000Y435000D03*
X155000D03*
X145000Y425000D03*
X155000D03*
X145000Y415000D03*
X155000D03*
X145000Y405000D03*
X155000D03*
X145000Y395000D03*
X155000D03*
X145000Y385000D03*
X155000D03*
X145000Y375000D03*
X155000D03*
X145000Y365000D03*
X155000D03*
X145000Y355000D03*
X155000D03*
X145000Y345000D03*
X155000D03*
X145000Y335000D03*
X155000D03*
X145000Y325000D03*
X155000D03*
G54D45*
X245000Y225600D03*
Y219400D03*
X140000Y165600D03*
Y159400D03*
X227500Y165600D03*
Y159400D03*
G54D46*
X160000Y147500D03*
Y137500D03*
Y127500D03*
X170000Y147500D03*
Y137500D03*
Y127500D03*
X190000Y147500D03*
Y137500D03*
Y127500D03*
X200000Y147500D03*
Y137500D03*
Y127500D03*
X210000Y147500D03*
Y137500D03*
Y127500D03*
G54D47*
X280000Y300750D03*
Y314250D03*
X300000D03*
Y300750D03*
G54D48*
X440400Y395000D03*
X469600D03*
X440400Y325000D03*
X469600D03*
G54D49*
X187913Y416339D03*
Y413780D03*
Y411220D03*
Y408661D03*
X202087D03*
Y411220D03*
Y413780D03*
Y416339D03*
X187913Y436339D03*
Y433780D03*
Y431220D03*
Y428661D03*
X202087D03*
Y431220D03*
Y433780D03*
Y436339D03*
X187913Y453839D03*
Y451280D03*
Y448720D03*
Y446161D03*
X202087D03*
Y448720D03*
Y451280D03*
Y453839D03*
X187913Y396339D03*
Y393780D03*
Y391220D03*
Y388661D03*
X202087D03*
Y391220D03*
Y393780D03*
Y396339D03*
X320413Y423839D03*
Y421280D03*
Y418720D03*
Y416161D03*
X334587D03*
Y418720D03*
Y421280D03*
Y423839D03*
X320413Y386339D03*
Y383780D03*
Y381220D03*
Y378661D03*
X334587D03*
Y381220D03*
Y383780D03*
Y386339D03*
X0Y0D02*
M02*
