*
*
G04 PADS 9.5 Build Number: 522968 generated Gerber (RS-274-X) file*
G04 PC Version=2.1*
*
%IN "Drive Board.pcb"*%
*
%MOIN*%
*
%FSLAX35Y35*%
*
*
*
*
G04 PC Standard Apertures*
*
*
G04 Thermal Relief Aperture macro.*
%AMTER*
1,1,$1,0,0*
1,0,$1-$2,0,0*
21,0,$3,$4,0,0,45*
21,0,$3,$4,0,0,135*
%
*
*
G04 Annular Aperture macro.*
%AMANN*
1,1,$1,0,0*
1,0,$2,0,0*
%
*
*
G04 Odd Aperture macro.*
%AMODD*
1,1,$1,0,0*
1,0,$1-0.005,0,0*
%
*
*
G04 PC Custom Aperture Macros*
*
*
*
*
*
*
G04 PC Aperture Table*
*
%ADD010C,0.001*%
%ADD012C,0.07*%
%ADD034C,0.06112*%
%ADD035C,0.076*%
%ADD036C,0.12017*%
%ADD038C,0.106*%
%ADD044C,0.066*%
%ADD046C,0.071*%
*
*
*
*
G04 PC Circuitry*
G04 Layer Name Drive Board.pcb - circuitry*
%LPD*%
*
*
G04 PC Custom Flashes*
G04 Layer Name Drive Board.pcb - flashes*
%LPD*%
*
*
G04 PC Circuitry*
G04 Layer Name Drive Board.pcb - circuitry*
%LPD*%
*
G54D10*
G54D12*
G01X466700Y360000D03*
Y290000D03*
G54D34*
X129567Y186693D03*
X137441D03*
X145315D03*
X153189D03*
X161063D03*
X168937D03*
X176811D03*
X184685D03*
X192559D03*
X200433D03*
Y273307D03*
X192559D03*
X184685D03*
X176811D03*
X168937D03*
X161063D03*
X153189D03*
X145315D03*
X137441D03*
X129567D03*
G54D35*
X460000Y180000D03*
Y170000D03*
Y160000D03*
Y215000D03*
Y205000D03*
Y195000D03*
Y250000D03*
Y240000D03*
Y230000D03*
X425000Y130000D03*
X415000D03*
X405000D03*
X395000D03*
X290000D03*
X280000D03*
X320000D03*
X310000D03*
X260000D03*
X250000D03*
X370000D03*
X360000D03*
X350000D03*
G54D36*
X410000Y395000D03*
Y416654D03*
G54D38*
X450000Y367800D03*
Y352200D03*
Y297800D03*
Y282200D03*
G54D44*
X267500Y217500D03*
Y227500D03*
Y237500D03*
X277500Y217500D03*
Y227500D03*
Y237500D03*
X335000Y217500D03*
Y227500D03*
Y237500D03*
X345000Y217500D03*
Y227500D03*
Y237500D03*
X355000Y217500D03*
Y227500D03*
Y237500D03*
X365000Y217500D03*
Y227500D03*
Y237500D03*
X287500Y217500D03*
Y227500D03*
Y237500D03*
X297500Y217500D03*
Y227500D03*
Y237500D03*
X375000Y455000D03*
X385000D03*
X375000Y445000D03*
X385000D03*
X375000Y435000D03*
X385000D03*
X375000Y425000D03*
X385000D03*
X375000Y415000D03*
X385000D03*
X375000Y405000D03*
X385000D03*
X375000Y395000D03*
X385000D03*
X375000Y385000D03*
X385000D03*
X375000Y375000D03*
X385000D03*
X375000Y365000D03*
X385000D03*
X375000Y355000D03*
X385000D03*
X375000Y345000D03*
X385000D03*
X375000Y335000D03*
X385000D03*
X375000Y325000D03*
X385000D03*
X145000Y455000D03*
X155000D03*
X145000Y445000D03*
X155000D03*
X145000Y435000D03*
X155000D03*
X145000Y425000D03*
X155000D03*
X145000Y415000D03*
X155000D03*
X145000Y405000D03*
X155000D03*
X145000Y395000D03*
X155000D03*
X145000Y385000D03*
X155000D03*
X145000Y375000D03*
X155000D03*
X145000Y365000D03*
X155000D03*
X145000Y355000D03*
X155000D03*
X145000Y345000D03*
X155000D03*
X145000Y335000D03*
X155000D03*
X145000Y325000D03*
X155000D03*
G54D46*
X160000Y147500D03*
Y137500D03*
Y127500D03*
X170000Y147500D03*
Y137500D03*
Y127500D03*
X190000Y147500D03*
Y137500D03*
Y127500D03*
X200000Y147500D03*
Y137500D03*
Y127500D03*
X210000Y147500D03*
Y137500D03*
Y127500D03*
X0Y0D02*
M02*
