*
*
G04 PADS 9.5 Build Number: 522968 generated Gerber (RS-274-X) file*
G04 PC Version=2.1*
*
%IN "Drive Board.pcb"*%
*
%MOIN*%
*
%FSLAX35Y35*%
*
*
*
*
G04 PC Standard Apertures*
*
*
G04 Thermal Relief Aperture macro.*
%AMTER*
1,1,$1,0,0*
1,0,$1-$2,0,0*
21,0,$3,$4,0,0,45*
21,0,$3,$4,0,0,135*
%
*
*
G04 Annular Aperture macro.*
%AMANN*
1,1,$1,0,0*
1,0,$2,0,0*
%
*
*
G04 Odd Aperture macro.*
%AMODD*
1,1,$1,0,0*
1,0,$1-0.005,0,0*
%
*
*
G04 PC Custom Aperture Macros*
*
*
*
*
*
*
G04 PC Aperture Table*
*
%ADD010C,0.001*%
%ADD023R,0.038X0.03*%
%ADD024R,0.036X0.036*%
%ADD025R,0.05X0.036*%
%ADD026R,0.04331X0.01496*%
%ADD027R,0.02756X0.01181*%
%ADD028R,0.01181X0.02756*%
%ADD029R,0.08268X0.05512*%
%ADD030R,0.03X0.038*%
%ADD031R,0.06X0.06*%
%ADD032R,0.091X0.221*%
*
*
*
*
G04 PC Circuitry*
G04 Layer Name Drive Board.pcb - circuitry*
%LPD*%
*
*
G04 PC Custom Flashes*
G04 Layer Name Drive Board.pcb - flashes*
%LPD*%
*
*
G04 PC Circuitry*
G04 Layer Name Drive Board.pcb - circuitry*
%LPD*%
*
G54D10*
G54D23*
G01X241900Y402500D03*
X248100D03*
Y395000D03*
X241900D03*
X248100Y387500D03*
X241900D03*
X411900Y342500D03*
X418100D03*
X411900Y350000D03*
X418100D03*
X421900Y360000D03*
X428100D03*
X411900Y272500D03*
X418100D03*
X411900Y280000D03*
X418100D03*
X421900Y290000D03*
X428100D03*
X241900Y425000D03*
X248100D03*
X241900Y417500D03*
X248100D03*
X241900Y410000D03*
X248100D03*
X241900Y447500D03*
X248100D03*
X241900Y440000D03*
X248100D03*
X241900Y432500D03*
X248100D03*
X241900Y380000D03*
X248100D03*
X241900Y372500D03*
X248100D03*
X241900Y365000D03*
X248100D03*
X189400Y337500D03*
X195600D03*
X189400Y330000D03*
X195600D03*
X189400Y322500D03*
X195600D03*
X189400Y360000D03*
X195600D03*
X189400Y352500D03*
X195600D03*
X189400Y345000D03*
X195600D03*
X189400Y380000D03*
X195600D03*
X380600Y300000D03*
X374400D03*
Y307500D03*
X380600D03*
X189400Y370000D03*
X195600D03*
X166900Y200000D03*
X173100D03*
X241900Y327500D03*
X248100D03*
X241900Y335000D03*
X248100D03*
X241900Y342500D03*
X248100D03*
X241900Y350000D03*
X248100D03*
X241900Y357500D03*
X248100D03*
X330600Y400000D03*
X324400D03*
G54D24*
X413600Y336250D03*
Y328750D03*
X421100Y266250D03*
Y258750D03*
G54D25*
X421600Y332500D03*
X429100Y262500D03*
G54D26*
X187913Y416339D03*
Y413780D03*
Y411220D03*
Y408661D03*
X202087D03*
Y411220D03*
Y413780D03*
Y416339D03*
X187913Y436339D03*
Y433780D03*
Y431220D03*
Y428661D03*
X202087D03*
Y431220D03*
Y433780D03*
Y436339D03*
X187913Y453839D03*
Y451280D03*
Y448720D03*
Y446161D03*
X202087D03*
Y448720D03*
Y451280D03*
Y453839D03*
X187913Y396339D03*
Y393780D03*
Y391220D03*
Y388661D03*
X202087D03*
Y391220D03*
Y393780D03*
Y396339D03*
X320413Y423839D03*
Y421280D03*
Y418720D03*
Y416161D03*
X334587D03*
Y418720D03*
Y421280D03*
Y423839D03*
X320413Y386339D03*
Y383780D03*
Y381220D03*
Y378661D03*
X334587D03*
Y381220D03*
Y383780D03*
Y386339D03*
G54D27*
X416850Y227559D03*
Y225000D03*
Y222441D03*
X423150Y227559D03*
Y225000D03*
Y222441D03*
X425650Y162441D03*
Y165000D03*
Y167559D03*
X419350Y162441D03*
Y165000D03*
Y167559D03*
G54D28*
X337559Y155650D03*
X335000D03*
X332441D03*
X337559Y149350D03*
X335000D03*
X332441D03*
X177441Y169350D03*
X180000D03*
X182559D03*
X177441Y175650D03*
X180000D03*
X182559D03*
G54D29*
X455000Y436161D03*
Y418839D03*
G54D30*
X245000Y225600D03*
Y219400D03*
X140000Y165600D03*
Y159400D03*
X227500Y165600D03*
Y159400D03*
G54D31*
X280000Y300750D03*
Y314250D03*
X300000D03*
Y300750D03*
G54D32*
X440400Y395000D03*
X469600D03*
X440400Y325000D03*
X469600D03*
X0Y0D02*
M02*
