<?xml version="1.0" encoding="utf-8" ?>
<svg baseProfile="full" height="1.810in" version="1.1" width="1.570in" xmlns="http://www.w3.org/2000/svg" xmlns:ev="http://www.w3.org/2001/xml-events" xmlns:xlink="http://www.w3.org/1999/xlink"><defs /><line stroke="black" stroke-linecap="square" stroke-width="0.010in" x1="0.635in" x2="0.935in" y1="0.005in" y2="0.005in" /><line stroke="black" stroke-linecap="square" stroke-width="0.010in" x1="0.635in" x2="0.935in" y1="1.805in" y2="1.805in" /><line stroke="black" stroke-linecap="square" stroke-width="0.010in" x1="0.935in" x2="0.935in" y1="0.005in" y2="1.805in" /><line stroke="black" stroke-linecap="square" stroke-width="0.010in" x1="0.635in" x2="0.635in" y1="0.005in" y2="0.805in" /><line stroke="black" stroke-linecap="square" stroke-width="0.010in" x1="0.635in" x2="0.635in" y1="1.805in" y2="1.005in" /><rect fill="brown" height="0.08in" stroke="#888888" stroke-width="0.003in" width="0.08in" x="0.695in" y="0.065in" /><text fill="black" font-size=".055in" text-anchor="middle" x="0.735in" y="0.125in">1</text><text font-size=".07in" font-style="normal" text-anchor="end" x="0.605in" y="0.128in">Stepper 1-A1</text><rect fill="red" height="0.08in" stroke="#888888" stroke-width="0.003in" width="0.08in" x="0.795in" y="0.065in" /><text fill="black" font-size=".055in" text-anchor="middle" x="0.835in" y="0.125in">2</text><text font-size=".07in" font-style="normal" text-anchor="start" x="0.965in" y="0.128in">Stepper 1-A2</text><rect fill="orange" height="0.08in" stroke="#888888" stroke-width="0.003in" width="0.08in" x="0.695in" y="0.165in" /><text fill="black" font-size=".055in" text-anchor="middle" x="0.735in" y="0.225in">3</text><text font-size=".07in" font-style="normal" text-anchor="end" x="0.605in" y="0.228in">Stepper 1-B2</text><rect fill="yellow" height="0.08in" stroke="#888888" stroke-width="0.003in" width="0.08in" x="0.795in" y="0.165in" /><text fill="black" font-size=".055in" text-anchor="middle" x="0.835in" y="0.225in">4</text><text font-size=".07in" font-style="normal" text-anchor="start" x="0.965in" y="0.228in">Stepper 1-B1</text><rect fill="green" height="0.08in" stroke="#888888" stroke-width="0.003in" width="0.08in" x="0.695in" y="0.265in" /><text fill="black" font-size=".055in" text-anchor="middle" x="0.735in" y="0.325in">5</text><text font-size=".07in" font-style="normal" text-anchor="end" x="0.605in" y="0.328in">Stepper 2-A1</text><rect fill="blue" height="0.08in" stroke="#888888" stroke-width="0.003in" width="0.08in" x="0.795in" y="0.265in" /><text fill="black" font-size=".055in" text-anchor="middle" x="0.835in" y="0.325in">6</text><text font-size=".07in" font-style="normal" text-anchor="start" x="0.965in" y="0.328in">Stepper 2-A2</text><rect fill="violet" height="0.08in" stroke="#888888" stroke-width="0.003in" width="0.08in" x="0.695in" y="0.365in" /><text fill="black" font-size=".055in" text-anchor="middle" x="0.735in" y="0.425in">7</text><text font-size=".07in" font-style="normal" text-anchor="end" x="0.605in" y="0.428in">Stepper 2-B2</text><rect fill="grey" height="0.08in" stroke="#888888" stroke-width="0.003in" width="0.08in" x="0.795in" y="0.365in" /><text fill="black" font-size=".055in" text-anchor="middle" x="0.835in" y="0.425in">8</text><text font-size=".07in" font-style="normal" text-anchor="start" x="0.965in" y="0.428in">Stepper 2-B1</text><rect fill="white" height="0.08in" stroke="#888888" stroke-width="0.003in" width="0.08in" x="0.695in" y="0.465in" /><text fill="black" font-size=".055in" text-anchor="middle" x="0.735in" y="0.525in">9</text><text font-size=".07in" font-style="normal" text-anchor="end" x="0.605in" y="0.528in">Stepper 3-A1</text><rect fill="black" height="0.08in" stroke="#888888" stroke-width="0.003in" width="0.08in" x="0.795in" y="0.465in" /><text fill="white" font-size=".055in" text-anchor="middle" x="0.835in" y="0.525in">10</text><text font-size=".07in" font-style="normal" text-anchor="start" x="0.965in" y="0.528in">Stepper 3-A2</text><rect fill="brown" height="0.08in" stroke="#888888" stroke-width="0.003in" width="0.08in" x="0.695in" y="0.565in" /><text fill="black" font-size=".055in" text-anchor="middle" x="0.735in" y="0.625in">11</text><text font-size=".07in" font-style="normal" text-anchor="end" x="0.605in" y="0.628in">Stepper 3-B2</text><rect fill="red" height="0.08in" stroke="#888888" stroke-width="0.003in" width="0.08in" x="0.795in" y="0.565in" /><text fill="black" font-size=".055in" text-anchor="middle" x="0.835in" y="0.625in">12</text><text font-size=".07in" font-style="normal" text-anchor="start" x="0.965in" y="0.628in">Stepper 3-B1</text><rect fill="orange" height="0.08in" stroke="#888888" stroke-width="0.003in" width="0.08in" x="0.695in" y="0.665in" /><text fill="black" font-size=".055in" text-anchor="middle" x="0.735in" y="0.725in">13</text><text font-size=".07in" font-style="normal" text-anchor="end" x="0.605in" y="0.728in">Stepper 4-A1</text><rect fill="yellow" height="0.08in" stroke="#888888" stroke-width="0.003in" width="0.08in" x="0.795in" y="0.665in" /><text fill="black" font-size=".055in" text-anchor="middle" x="0.835in" y="0.725in">14</text><text font-size=".07in" font-style="normal" text-anchor="start" x="0.965in" y="0.728in">Stepper 4-A2</text><rect fill="green" height="0.08in" stroke="#888888" stroke-width="0.003in" width="0.08in" x="0.695in" y="0.765in" /><text fill="black" font-size=".055in" text-anchor="middle" x="0.735in" y="0.825in">15</text><text font-size=".07in" font-style="normal" text-anchor="end" x="0.605in" y="0.828in">Stepper 4-B2</text><rect fill="blue" height="0.08in" stroke="#888888" stroke-width="0.003in" width="0.08in" x="0.795in" y="0.765in" /><text fill="black" font-size=".055in" text-anchor="middle" x="0.835in" y="0.825in">16</text><text font-size=".07in" font-style="normal" text-anchor="start" x="0.965in" y="0.828in">Stepper 4-B1</text><rect fill="violet" height="0.08in" stroke="#888888" stroke-width="0.003in" width="0.08in" x="0.695in" y="0.865in" /><text fill="black" font-size=".055in" text-anchor="middle" x="0.735in" y="0.925in">17</text><text font-size=".07in" font-style="normal" text-anchor="end" x="0.605in" y="0.928in">Stepper 5-A1</text><rect fill="grey" height="0.08in" stroke="#888888" stroke-width="0.003in" width="0.08in" x="0.795in" y="0.865in" /><text fill="black" font-size=".055in" text-anchor="middle" x="0.835in" y="0.925in">18</text><text font-size=".07in" font-style="normal" text-anchor="start" x="0.965in" y="0.928in">Stepper 5-A2</text><rect fill="white" height="0.08in" stroke="#888888" stroke-width="0.003in" width="0.08in" x="0.695in" y="0.965in" /><text fill="black" font-size=".055in" text-anchor="middle" x="0.735in" y="1.025in">19</text><text font-size=".07in" font-style="normal" text-anchor="end" x="0.605in" y="1.028in">Stepper 5-B2</text><rect fill="black" height="0.08in" stroke="#888888" stroke-width="0.003in" width="0.08in" x="0.795in" y="0.965in" /><text fill="white" font-size=".055in" text-anchor="middle" x="0.835in" y="1.025in">20</text><text font-size=".07in" font-style="normal" text-anchor="start" x="0.965in" y="1.028in">Stepper 5-B1</text><rect fill="brown" height="0.08in" stroke="#888888" stroke-width="0.003in" width="0.08in" x="0.695in" y="1.065in" /><text fill="black" font-size=".055in" text-anchor="middle" x="0.735in" y="1.125in">21</text><text font-size=".07in" font-style="normal" text-anchor="end" x="0.605in" y="1.128in">GND</text><rect fill="red" height="0.08in" stroke="#888888" stroke-width="0.003in" width="0.08in" x="0.795in" y="1.065in" /><text fill="black" font-size=".055in" text-anchor="middle" x="0.835in" y="1.125in">22</text><text font-size=".07in" font-style="normal" text-anchor="start" x="0.965in" y="1.128in">Limit 1</text><rect fill="orange" height="0.08in" stroke="#888888" stroke-width="0.003in" width="0.08in" x="0.695in" y="1.165in" /><text fill="black" font-size=".055in" text-anchor="middle" x="0.735in" y="1.225in">23</text><text font-size=".07in" font-style="normal" text-anchor="end" x="0.605in" y="1.228in">GND</text><rect fill="yellow" height="0.08in" stroke="#888888" stroke-width="0.003in" width="0.08in" x="0.795in" y="1.165in" /><text fill="black" font-size=".055in" text-anchor="middle" x="0.835in" y="1.225in">24</text><text font-size=".07in" font-style="normal" text-anchor="start" x="0.965in" y="1.228in">Limit 2</text><rect fill="green" height="0.08in" stroke="#888888" stroke-width="0.003in" width="0.08in" x="0.695in" y="1.265in" /><text fill="black" font-size=".055in" text-anchor="middle" x="0.735in" y="1.325in">25</text><text font-size=".07in" font-style="normal" text-anchor="end" x="0.605in" y="1.328in">GND</text><rect fill="blue" height="0.08in" stroke="#888888" stroke-width="0.003in" width="0.08in" x="0.795in" y="1.265in" /><text fill="black" font-size=".055in" text-anchor="middle" x="0.835in" y="1.325in">26</text><text font-size=".07in" font-style="normal" text-anchor="start" x="0.965in" y="1.328in">Limit 3</text><rect fill="violet" height="0.08in" stroke="#888888" stroke-width="0.003in" width="0.08in" x="0.695in" y="1.365in" /><text fill="black" font-size=".055in" text-anchor="middle" x="0.735in" y="1.425in">27</text><text font-size=".07in" font-style="normal" text-anchor="end" x="0.605in" y="1.428in">GND</text><rect fill="grey" height="0.08in" stroke="#888888" stroke-width="0.003in" width="0.08in" x="0.795in" y="1.365in" /><text fill="black" font-size=".055in" text-anchor="middle" x="0.835in" y="1.425in">28</text><text font-size=".07in" font-style="normal" text-anchor="start" x="0.965in" y="1.428in">Limit 4</text><rect fill="white" height="0.08in" stroke="#888888" stroke-width="0.003in" width="0.08in" x="0.695in" y="1.465in" /><text fill="black" font-size=".055in" text-anchor="middle" x="0.735in" y="1.525in">29</text><text font-size=".07in" font-style="normal" text-anchor="end" x="0.605in" y="1.528in">GND</text><rect fill="black" height="0.08in" stroke="#888888" stroke-width="0.003in" width="0.08in" x="0.795in" y="1.465in" /><text fill="white" font-size=".055in" text-anchor="middle" x="0.835in" y="1.525in">30</text><text font-size=".07in" font-style="normal" text-anchor="start" x="0.965in" y="1.528in">Limit 5</text><rect fill="brown" height="0.08in" stroke="#888888" stroke-width="0.003in" width="0.08in" x="0.695in" y="1.565in" /><text fill="black" font-size=".055in" text-anchor="middle" x="0.735in" y="1.625in">31</text><text font-size=".07in" font-style="normal" text-anchor="end" x="0.605in" y="1.628in">Force 1</text><rect fill="red" height="0.08in" stroke="#888888" stroke-width="0.003in" width="0.08in" x="0.795in" y="1.565in" /><text fill="black" font-size=".055in" text-anchor="middle" x="0.835in" y="1.625in">32</text><text font-size=".07in" font-style="normal" text-anchor="start" x="0.965in" y="1.628in">Force 2</text><rect fill="orange" height="0.08in" stroke="#888888" stroke-width="0.003in" width="0.08in" x="0.695in" y="1.665in" /><text fill="black" font-size=".055in" text-anchor="middle" x="0.735in" y="1.725in">33</text><text font-size=".07in" font-style="normal" text-anchor="end" x="0.605in" y="1.728in">Force 3</text><rect fill="yellow" height="0.08in" stroke="#888888" stroke-width="0.003in" width="0.08in" x="0.795in" y="1.665in" /><text fill="black" font-size=".055in" text-anchor="middle" x="0.835in" y="1.725in">34</text><text font-size=".07in" font-style="normal" text-anchor="start" x="0.965in" y="1.728in">Force 4</text></svg>