*
*
G04 PADS 9.5 Build Number: 522968 generated Gerber (RS-274-X) file*
G04 PC Version=2.1*
*
%IN "Arm Board r1.pcb"*%
*
%MOIN*%
*
%FSLAX35Y35*%
*
*
*
*
G04 PC Standard Apertures*
*
*
G04 Thermal Relief Aperture macro.*
%AMTER*
1,1,$1,0,0*
1,0,$1-$2,0,0*
21,0,$3,$4,0,0,45*
21,0,$3,$4,0,0,135*
%
*
*
G04 Annular Aperture macro.*
%AMANN*
1,1,$1,0,0*
1,0,$2,0,0*
%
*
*
G04 Odd Aperture macro.*
%AMODD*
1,1,$1,0,0*
1,0,$1-0.005,0,0*
%
*
*
G04 PC Custom Aperture Macros*
*
*
*
*
*
*
G04 PC Aperture Table*
*
%ADD010C,0.001*%
%ADD043C,0.071*%
%ADD044R,0.044X0.036*%
%ADD045C,0.066*%
%ADD046C,0.12017*%
%ADD047R,0.06112X0.08868*%
%ADD048R,0.1438X0.06899*%
%ADD049R,0.03356X0.01781*%
%ADD050R,0.066X0.029*%
%ADD051C,0.076*%
%ADD052R,0.01781X0.03356*%
%ADD053R,0.076X0.076*%
%ADD054R,0.073X0.073*%
%ADD055C,0.073*%
*
*
*
*
G04 PC Circuitry*
G04 Layer Name Arm Board r1.pcb - circuitry*
%LPD*%
*
*
G04 PC Custom Flashes*
G04 Layer Name Arm Board r1.pcb - flashes*
%LPD*%
*
*
G04 PC Circuitry*
G04 Layer Name Arm Board r1.pcb - circuitry*
%LPD*%
*
G54D10*
G54D43*
G01X450000Y375000D03*
X460000D03*
X450000Y365000D03*
X460000D03*
X450000Y355000D03*
X460000D03*
X450000Y345000D03*
X460000D03*
X450000Y335000D03*
X460000D03*
X450000Y325000D03*
X460000D03*
X450000Y315000D03*
X460000D03*
X450000Y305000D03*
X460000D03*
X450000Y295000D03*
X460000D03*
X450000Y285000D03*
X460000D03*
X450000Y275000D03*
X460000D03*
X450000Y265000D03*
X460000D03*
X450000Y255000D03*
X460000D03*
X450000Y245000D03*
X460000D03*
X450000Y235000D03*
X460000D03*
X450000Y225000D03*
X460000D03*
X450000Y215000D03*
X460000D03*
G54D44*
X251900Y365000D03*
X258100D03*
X240600Y232500D03*
X234400D03*
X240600Y225000D03*
X234400D03*
X251900Y255000D03*
X258100D03*
X251900Y247500D03*
X258100D03*
X251900Y240000D03*
X258100D03*
X251900Y232500D03*
X258100D03*
X251900Y225000D03*
X258100D03*
X240600Y255000D03*
X234400D03*
X240600Y247500D03*
X234400D03*
X240600Y240000D03*
X234400D03*
X251900Y290000D03*
X258100D03*
X251900Y305000D03*
X258100D03*
X251900Y320000D03*
X258100D03*
X251900Y335000D03*
X258100D03*
X251900Y297500D03*
X258100D03*
X251900Y312500D03*
X258100D03*
X251900Y327500D03*
X258100D03*
X251900Y342500D03*
X258100D03*
X240600Y297500D03*
X234400D03*
X240600Y312500D03*
X234400D03*
X240600Y327500D03*
X234400D03*
X240600Y342500D03*
X234400D03*
X151900Y140000D03*
X158100D03*
X151900Y132500D03*
X158100D03*
X151900Y125000D03*
X158100D03*
X146900Y295000D03*
X153100D03*
G54D45*
X135000Y395000D03*
Y405000D03*
X145000Y395000D03*
Y405000D03*
X155000Y395000D03*
Y405000D03*
X165000Y395000D03*
Y405000D03*
X175000Y395000D03*
Y405000D03*
X185000Y395000D03*
Y405000D03*
X195000Y395000D03*
Y405000D03*
X205000Y395000D03*
Y405000D03*
X215000Y395000D03*
Y405000D03*
X225000Y395000D03*
Y405000D03*
X235000Y395000D03*
Y405000D03*
X245000Y395000D03*
Y405000D03*
X255000Y395000D03*
Y405000D03*
X265000Y395000D03*
Y405000D03*
X135000Y165000D03*
Y175000D03*
X145000Y165000D03*
Y175000D03*
X155000Y165000D03*
Y175000D03*
X165000Y165000D03*
Y175000D03*
X175000Y165000D03*
Y175000D03*
X185000Y165000D03*
Y175000D03*
X195000Y165000D03*
Y175000D03*
X205000Y165000D03*
Y175000D03*
X215000Y165000D03*
Y175000D03*
X225000Y165000D03*
Y175000D03*
X235000Y165000D03*
Y175000D03*
X245000Y165000D03*
Y175000D03*
X255000Y165000D03*
Y175000D03*
X265000Y165000D03*
Y175000D03*
G54D46*
X195000Y430000D03*
X173346D03*
G54D47*
X216339Y445000D03*
X233661D03*
G54D48*
X369370D03*
X390630D03*
X369370Y375000D03*
X390630D03*
X369370Y305000D03*
X390630D03*
X369370Y235000D03*
X390630D03*
X369370Y165000D03*
X390630D03*
G54D49*
X460650Y167441D03*
Y170000D03*
Y172559D03*
X454350Y167441D03*
Y170000D03*
Y172559D03*
Y192559D03*
Y190000D03*
Y187441D03*
X460650Y192559D03*
Y190000D03*
Y187441D03*
G54D50*
X140000Y350000D03*
Y345000D03*
Y340000D03*
Y335000D03*
Y330000D03*
Y325000D03*
Y320000D03*
X160000D03*
Y325000D03*
Y330000D03*
Y335000D03*
Y340000D03*
Y345000D03*
Y350000D03*
G54D51*
X220000Y130000D03*
X210000D03*
X200000D03*
X190000D03*
X335000Y425000D03*
Y435000D03*
X305000D03*
Y425000D03*
Y415000D03*
X335000Y355000D03*
Y365000D03*
X305000D03*
Y355000D03*
Y345000D03*
X335000Y285000D03*
Y295000D03*
X305000D03*
Y285000D03*
Y275000D03*
X335000Y215000D03*
Y225000D03*
X305000D03*
Y215000D03*
Y205000D03*
X335000Y145000D03*
Y155000D03*
X305000D03*
Y145000D03*
Y135000D03*
G54D52*
X177559Y143150D03*
X175000D03*
X172441D03*
X177559Y136850D03*
X175000D03*
X172441D03*
G54D53*
X335000Y415000D03*
Y345000D03*
Y275000D03*
Y205000D03*
Y135000D03*
G54D54*
X350000Y415000D03*
Y345000D03*
Y275000D03*
Y205000D03*
Y135000D03*
G54D55*
X360000Y415000D03*
X370000D03*
X380000D03*
X390000D03*
X400000D03*
X410000D03*
X420000D03*
Y475000D03*
X410000D03*
X400000D03*
X390000D03*
X380000D03*
X370000D03*
X360000D03*
X350000D03*
X360000Y345000D03*
X370000D03*
X380000D03*
X390000D03*
X400000D03*
X410000D03*
X420000D03*
Y405000D03*
X410000D03*
X400000D03*
X390000D03*
X380000D03*
X370000D03*
X360000D03*
X350000D03*
X360000Y275000D03*
X370000D03*
X380000D03*
X390000D03*
X400000D03*
X410000D03*
X420000D03*
Y335000D03*
X410000D03*
X400000D03*
X390000D03*
X380000D03*
X370000D03*
X360000D03*
X350000D03*
X360000Y205000D03*
X370000D03*
X380000D03*
X390000D03*
X400000D03*
X410000D03*
X420000D03*
Y265000D03*
X410000D03*
X400000D03*
X390000D03*
X380000D03*
X370000D03*
X360000D03*
X350000D03*
X360000Y135000D03*
X370000D03*
X380000D03*
X390000D03*
X400000D03*
X410000D03*
X420000D03*
Y195000D03*
X410000D03*
X400000D03*
X390000D03*
X380000D03*
X370000D03*
X360000D03*
X350000D03*
X0Y0D02*
M02*
