*
*
G04 PADS 9.5 Build Number: 522968 generated Gerber (RS-274-X) file*
G04 PC Version=2.1*
*
%IN "Arm Board r1.pcb"*%
*
%MOIN*%
*
%FSLAX35Y35*%
*
*
*
*
G04 PC Standard Apertures*
*
*
G04 Thermal Relief Aperture macro.*
%AMTER*
1,1,$1,0,0*
1,0,$1-$2,0,0*
21,0,$3,$4,0,0,45*
21,0,$3,$4,0,0,135*
%
*
*
G04 Annular Aperture macro.*
%AMANN*
1,1,$1,0,0*
1,0,$2,0,0*
%
*
*
G04 Odd Aperture macro.*
%AMODD*
1,1,$1,0,0*
1,0,$1-0.005,0,0*
%
*
*
G04 PC Custom Aperture Macros*
*
*
*
*
*
*
G04 PC Aperture Table*
*
%ADD010C,0.001*%
%ADD043C,0.071*%
%ADD045C,0.066*%
%ADD046C,0.12017*%
%ADD051C,0.076*%
%ADD053R,0.076X0.076*%
%ADD054R,0.073X0.073*%
%ADD055C,0.073*%
*
*
*
*
G04 PC Circuitry*
G04 Layer Name Arm Board r1.pcb - circuitry*
%LPD*%
*
*
G04 PC Custom Flashes*
G04 Layer Name Arm Board r1.pcb - flashes*
%LPD*%
*
*
G04 PC Circuitry*
G04 Layer Name Arm Board r1.pcb - circuitry*
%LPD*%
*
G54D10*
G54D43*
G01X450000Y375000D03*
X460000D03*
X450000Y365000D03*
X460000D03*
X450000Y355000D03*
X460000D03*
X450000Y345000D03*
X460000D03*
X450000Y335000D03*
X460000D03*
X450000Y325000D03*
X460000D03*
X450000Y315000D03*
X460000D03*
X450000Y305000D03*
X460000D03*
X450000Y295000D03*
X460000D03*
X450000Y285000D03*
X460000D03*
X450000Y275000D03*
X460000D03*
X450000Y265000D03*
X460000D03*
X450000Y255000D03*
X460000D03*
X450000Y245000D03*
X460000D03*
X450000Y235000D03*
X460000D03*
X450000Y225000D03*
X460000D03*
X450000Y215000D03*
X460000D03*
G54D45*
X135000Y395000D03*
Y405000D03*
X145000Y395000D03*
Y405000D03*
X155000Y395000D03*
Y405000D03*
X165000Y395000D03*
Y405000D03*
X175000Y395000D03*
Y405000D03*
X185000Y395000D03*
Y405000D03*
X195000Y395000D03*
Y405000D03*
X205000Y395000D03*
Y405000D03*
X215000Y395000D03*
Y405000D03*
X225000Y395000D03*
Y405000D03*
X235000Y395000D03*
Y405000D03*
X245000Y395000D03*
Y405000D03*
X255000Y395000D03*
Y405000D03*
X265000Y395000D03*
Y405000D03*
X135000Y165000D03*
Y175000D03*
X145000Y165000D03*
Y175000D03*
X155000Y165000D03*
Y175000D03*
X165000Y165000D03*
Y175000D03*
X175000Y165000D03*
Y175000D03*
X185000Y165000D03*
Y175000D03*
X195000Y165000D03*
Y175000D03*
X205000Y165000D03*
Y175000D03*
X215000Y165000D03*
Y175000D03*
X225000Y165000D03*
Y175000D03*
X235000Y165000D03*
Y175000D03*
X245000Y165000D03*
Y175000D03*
X255000Y165000D03*
Y175000D03*
X265000Y165000D03*
Y175000D03*
G54D46*
X195000Y430000D03*
X173346D03*
G54D51*
X220000Y130000D03*
X210000D03*
X200000D03*
X190000D03*
X335000Y425000D03*
Y435000D03*
X305000D03*
Y425000D03*
Y415000D03*
X335000Y355000D03*
Y365000D03*
X305000D03*
Y355000D03*
Y345000D03*
X335000Y285000D03*
Y295000D03*
X305000D03*
Y285000D03*
Y275000D03*
X335000Y215000D03*
Y225000D03*
X305000D03*
Y215000D03*
Y205000D03*
X335000Y145000D03*
Y155000D03*
X305000D03*
Y145000D03*
Y135000D03*
G54D53*
X335000Y415000D03*
Y345000D03*
Y275000D03*
Y205000D03*
Y135000D03*
G54D54*
X350000Y415000D03*
Y345000D03*
Y275000D03*
Y205000D03*
Y135000D03*
G54D55*
X360000Y415000D03*
X370000D03*
X380000D03*
X390000D03*
X400000D03*
X410000D03*
X420000D03*
Y475000D03*
X410000D03*
X400000D03*
X390000D03*
X380000D03*
X370000D03*
X360000D03*
X350000D03*
X360000Y345000D03*
X370000D03*
X380000D03*
X390000D03*
X400000D03*
X410000D03*
X420000D03*
Y405000D03*
X410000D03*
X400000D03*
X390000D03*
X380000D03*
X370000D03*
X360000D03*
X350000D03*
X360000Y275000D03*
X370000D03*
X380000D03*
X390000D03*
X400000D03*
X410000D03*
X420000D03*
Y335000D03*
X410000D03*
X400000D03*
X390000D03*
X380000D03*
X370000D03*
X360000D03*
X350000D03*
X360000Y205000D03*
X370000D03*
X380000D03*
X390000D03*
X400000D03*
X410000D03*
X420000D03*
Y265000D03*
X410000D03*
X400000D03*
X390000D03*
X380000D03*
X370000D03*
X360000D03*
X350000D03*
X360000Y135000D03*
X370000D03*
X380000D03*
X390000D03*
X400000D03*
X410000D03*
X420000D03*
Y195000D03*
X410000D03*
X400000D03*
X390000D03*
X380000D03*
X370000D03*
X360000D03*
X350000D03*
X0Y0D02*
M02*
