%
T1C.012F095S300
X015600Y015550
X017050Y012500
X045750Y016250
X045750Y018300
X042350Y024950
X024650Y022500
X024600Y024000
X024600Y024750
X024600Y023250
X024550Y025500
X013250Y033500
X014000Y029500
X016000Y029500
X016750Y033500
X024600Y032750
X024600Y029750
X024600Y034250
X024650Y031250
X042200Y031900
X042300Y038800
X033400Y040450
X031200Y040450
X029900Y040450
X025200Y037300
X042300Y043450
X042300Y045850
T2C.02F197S550
X043050Y015700
X043050Y016300
X043050Y016900
X043050Y017500
T3C.036F197S550
X030500Y013500
X030500Y015500
X030500Y014500
X033500Y014500
X033500Y015500
X033500Y013500
X035000Y013500
X036000Y013500
X037000Y013500
X038000Y013500
X039000Y013500
X040000Y013500
X041000Y013500
X042000Y013500
X042000Y018500
X042000Y020500
X041000Y020500
X041000Y018500
X040000Y020500
X040000Y018500
X039000Y020500
X039000Y018500
X038000Y020500
X038000Y018500
X037000Y020500
X037000Y018500
X036000Y018500
X036000Y020500
X035000Y020500
X035000Y018500
X033500Y020500
X033500Y021500
X030500Y021500
X030500Y020500
X030500Y022500
X033500Y022500
X035000Y025500
X036000Y025500
X037000Y025500
X038000Y025500
X039000Y025500
X040000Y025500
X041000Y025500
X042000Y025500
X042000Y027500
X041000Y027500
X040000Y027500
X039000Y027500
X038000Y027500
X037000Y027500
X036000Y027500
X035000Y027500
X033500Y027500
X033500Y028500
X033500Y029500
X030500Y027500
X030500Y028500
X030500Y029500
X030500Y035500
X030500Y034500
X030500Y036500
X033500Y034500
X033500Y035500
X033500Y036500
X035000Y032500
X035000Y034500
X036000Y032500
X036000Y034500
X037000Y034500
X037000Y032500
X038000Y034500
X038000Y032500
X039000Y032500
X039000Y034500
X040000Y034500
X040000Y032500
X041000Y032500
X041000Y034500
X042000Y032500
X042000Y034500
X042000Y041500
X042000Y039500
X041000Y041500
X041000Y039500
X040000Y039500
X040000Y041500
X039000Y039500
X039000Y041500
X038000Y039500
X038000Y041500
X037000Y041500
X037000Y039500
X036000Y041500
X036000Y039500
X035000Y039500
X035000Y041500
X033500Y041500
X030500Y041500
X030500Y043500
X030500Y042500
X033500Y042500
X033500Y043500
X035000Y046500
X036000Y046500
X037000Y046500
X038000Y046500
X039000Y046500
X040000Y046500
X041000Y046500
X042000Y046500
T4C.04F139S550
X013500Y016500
X014500Y016500
X015500Y016500
X016500Y016500
X017500Y016500
X018500Y016500
X019500Y016500
X020500Y016500
X021500Y016500
X022500Y016500
X023500Y016500
X024500Y016500
X025500Y016500
X026500Y016500
X046000Y021500
X045000Y021500
X026500Y017500
X025500Y017500
X024500Y017500
X023500Y017500
X022500Y017500
X021500Y017500
X020500Y017500
X019500Y017500
X018500Y017500
X017500Y017500
X016500Y017500
X015500Y017500
X014500Y017500
X013500Y017500
X045000Y022500
X045000Y023500
X045000Y026500
X045000Y025500
X045000Y024500
X046000Y026500
X046000Y023500
X046000Y025500
X046000Y022500
X046000Y024500
X046000Y028500
X046000Y027500
X046000Y030500
X046000Y029500
X046000Y031500
X045000Y027500
X045000Y029500
X045000Y028500
X045000Y031500
X045000Y030500
X045000Y033500
X045000Y032500
X045000Y036500
X045000Y035500
X045000Y034500
X046000Y036500
X046000Y032500
X046000Y035500
X046000Y033500
X046000Y034500
X046000Y037500
X045000Y037500
X026500Y039500
X026500Y040500
X025500Y039500
X025500Y040500
X024500Y039500
X024500Y040500
X023500Y040500
X023500Y039500
X022500Y039500
X022500Y040500
X021500Y039500
X021500Y040500
X020500Y039500
X020500Y040500
X019500Y039500
X019500Y040500
X018500Y040500
X018500Y039500
X017500Y040500
X017500Y039500
X016500Y040500
X016500Y039500
X015500Y039500
X015500Y040500
X014500Y039500
X014500Y040500
X013500Y040500
X013500Y039500
T5C.042F139S550
X019000Y013000
X020000Y013000
X021000Y013000
X022000Y013000
T6C.07087F081S550
X017335Y043000
X019500Y043000
T7C.11811F069S658
X014461Y043000
T8C.126F035S794
X012000Y012000
X047000Y012000
X047000Y047000
X012000Y047000
M30
