*
*
G04 PADS 9.5 Build Number: 522968 generated Gerber (RS-274-X) file*
G04 PC Version=2.1*
*
%IN "Arm Board r1.pcb"*%
*
%MOIN*%
*
%FSLAX35Y35*%
*
*
*
*
G04 PC Standard Apertures*
*
*
G04 Thermal Relief Aperture macro.*
%AMTER*
1,1,$1,0,0*
1,0,$1-$2,0,0*
21,0,$3,$4,0,0,45*
21,0,$3,$4,0,0,135*
%
*
*
G04 Annular Aperture macro.*
%AMANN*
1,1,$1,0,0*
1,0,$2,0,0*
%
*
*
G04 Odd Aperture macro.*
%AMODD*
1,1,$1,0,0*
1,0,$1-0.005,0,0*
%
*
*
G04 PC Custom Aperture Macros*
*
*
*
*
*
*
G04 PC Aperture Table*
*
%ADD010C,0.001*%
%ADD018C,0.01*%
%ADD022C,0.015*%
%ADD056C,0.02*%
%ADD057C,0.008*%
%ADD058C,0.01969*%
%ADD059C,0.00984*%
%ADD060C,0.007*%
%ADD061C,0.013*%
%ADD062C,0.25*%
*
*
*
*
G04 PC Circuitry*
G04 Layer Name Arm Board r1.pcb - circuitry*
%LPD*%
*
*
G04 PC Custom Flashes*
G04 Layer Name Arm Board r1.pcb - flashes*
%LPD*%
*
*
G04 PC Circuitry*
G04 Layer Name Arm Board r1.pcb - circuitry*
%LPD*%
*
G54D10*
G54D18*
G01X261299Y367362D02*
X248701D01*
Y362638*
X261299*
Y367362D02*
Y362638D01*
X255675*
X205000Y414000D02*
Y446000D01*
X118622*
Y414000*
X205000*
X120197Y414252D02*
Y445748D01*
X237000Y440000D02*
X213000D01*
Y450000*
X237000*
Y440000*
X231201Y230138D02*
X243799D01*
Y234862*
X231201*
Y230138D02*
Y234862D01*
X236825*
X231201Y222638D02*
X243799D01*
Y227362*
X231201*
Y222638D02*
Y227362D01*
X236825*
X261299Y257362D02*
X248701D01*
Y252638*
X261299*
Y257362D02*
Y252638D01*
X255675*
X261299Y249862D02*
X248701D01*
Y245138*
X261299*
Y249862D02*
Y245138D01*
X255675*
X261299Y242362D02*
X248701D01*
Y237638*
X261299*
Y242362D02*
Y237638D01*
X255675*
X261299Y234862D02*
X248701D01*
Y230138*
X261299*
Y234862D02*
Y230138D01*
X255675*
X261299Y227362D02*
X248701D01*
Y222638*
X261299*
Y227362D02*
Y222638D01*
X255675*
X231201Y252638D02*
X243799D01*
Y257362*
X231201*
Y252638D02*
Y257362D01*
X236825*
X231201Y245138D02*
X243799D01*
Y249862*
X231201*
Y245138D02*
Y249862D01*
X236825*
X231201Y237638D02*
X243799D01*
Y242362*
X231201*
Y237638D02*
Y242362D01*
X236825*
X463012Y166063D02*
X451988D01*
Y173937*
X463012*
Y166063*
X465187Y165000D02*
G75*
G03X465187I-600J0D01*
G01X261299Y292362D02*
X248701D01*
Y287638*
X261299*
Y292362D02*
Y287638D01*
X255675*
X261299Y307362D02*
X248701D01*
Y302638*
X261299*
Y307362D02*
Y302638D01*
X255675*
X261299Y322362D02*
X248701D01*
Y317638*
X261299*
Y322362D02*
Y317638D01*
X255675*
X261299Y337362D02*
X248701D01*
Y332638*
X261299*
Y337362D02*
Y332638D01*
X255675*
X136000Y345000D02*
Y318000D01*
X164000*
Y352000*
X136000*
Y345000*
X261299Y299862D02*
X248701D01*
Y295138*
X261299*
Y299862D02*
Y295138D01*
X255675*
X261299Y314862D02*
X248701D01*
Y310138*
X261299*
Y314862D02*
Y310138D01*
X255675*
X261299Y329862D02*
X248701D01*
Y325138*
X261299*
Y329862D02*
Y325138D01*
X255675*
X261299Y344862D02*
X248701D01*
Y340138*
X261299*
Y344862D02*
Y340138D01*
X255675*
X231201Y295138D02*
X243799D01*
Y299862*
X231201*
Y295138D02*
Y299862D01*
X236825*
X231201Y310138D02*
X243799D01*
Y314862*
X231201*
Y310138D02*
Y314862D01*
X236825*
X231201Y325138D02*
X243799D01*
Y329862*
X231201*
Y325138D02*
Y329862D01*
X236825*
X231201Y340138D02*
X243799D01*
Y344862*
X231201*
Y340138D02*
Y344862D01*
X236825*
X451988Y193937D02*
X463012D01*
Y186063*
X451988*
Y193937*
X451013Y195000D02*
G03X451013I-600J0D01*
G01X161299Y142362D02*
X148701D01*
Y137638*
X161299*
Y142362D02*
Y137638D01*
X155675*
X161299Y134862D02*
X148701D01*
Y130138*
X161299*
Y134862D02*
Y130138D01*
X155675*
X161299Y127362D02*
X148701D01*
Y122638*
X161299*
Y127362D02*
Y122638D01*
X155675*
X178937Y145512D02*
Y134488D01*
X171063*
Y145512*
X178937*
X180600Y147087D02*
G03X180600I-600J0D01*
G01X156299Y297362D02*
X143701D01*
Y292638*
X156299*
Y297362D02*
Y292638D01*
X150675*
X110500Y437886D02*
X110813D01*
X110813D02*
X111438Y437659D01*
X111438D02*
X111750Y437432D01*
X112063Y436977*
X112063D02*
Y436068D01*
X112063D02*
X111750Y435614D01*
X111438Y435386*
X111438D02*
X110813Y435159D01*
X110813D02*
X110188D01*
X110188D02*
X109563Y435386D01*
X109563D02*
X108625Y435841D01*
X105500Y438114*
Y434932*
X112063Y430614D02*
X107688Y432886D01*
X107688D02*
Y429477D01*
X112063Y430614D02*
X105500D01*
X112063Y427432D02*
X105500Y425614D01*
X112063Y423795D02*
X105500Y425614D01*
X158094Y457000D02*
Y461091D01*
X145281Y459045D02*
X150906D01*
X148094Y457000D02*
Y461091D01*
X180591Y112875D02*
Y105000D01*
Y112875D02*
X182500D01*
X183318Y112500*
X183864Y111750*
X184136Y111000*
X184409Y109875*
Y108000*
X184136Y106875*
X183864Y106125*
X183318Y105375*
X182500Y105000*
X180591*
X186864Y110250D02*
Y105000D01*
Y108000D02*
X187136Y109125D01*
X187682Y109875*
X188227Y110250*
X189045*
X191500Y112875D02*
X191773Y112500D01*
X192045Y112875*
X191773Y113250*
X191500Y112875*
X191773Y110250D02*
Y105000D01*
X194500Y110250D02*
X196136Y105000D01*
X197773Y110250D02*
X196136Y105000D01*
X200227Y108000D02*
X203500D01*
Y108750*
X203227Y109500*
X202955Y109875*
X202409Y110250*
X201591*
X201045Y109875*
X200500Y109125*
X200227Y108000*
Y107250*
X200500Y106125*
X201045Y105375*
X201591Y105000*
X202409*
X202955Y105375*
X203500Y106125*
X212227Y112875D02*
Y105000D01*
Y112875D02*
X214136D01*
X214955Y112500*
X215500Y111750*
X215773Y111000*
X216045Y109875*
Y108000*
X215773Y106875*
X215500Y106125*
X214955Y105375*
X214136Y105000*
X212227*
X218773Y105750D02*
X218500Y105375D01*
X218773Y105000*
X219045Y105375*
X218773Y105750*
X221500Y112875D02*
Y105000D01*
Y112875D02*
X223955D01*
X224773Y112500*
X225045Y112125*
X225318Y111375*
Y110625*
X225045Y109875*
X224773Y109500*
X223955Y109125*
X221500D02*
X223955D01*
X224773Y108750*
X225045Y108375*
X225318Y107625*
Y106500*
X225045Y105750*
X224773Y105375*
X223955Y105000*
X221500*
X228045Y105750D02*
X227773Y105375D01*
X228045Y105000*
X228318Y105375*
X228045Y105750*
X168864Y481563D02*
X168409Y481250D01*
X167955Y480625*
X167727Y480000*
X167500Y479063*
X167500D02*
Y477500D01*
X167727Y476563*
X167727D02*
X167955Y475938D01*
X167955D02*
X168409Y475313D01*
X168409D02*
X168864Y475000D01*
X169773*
X170227Y475313*
X170227D02*
X170682Y475938D01*
X170682D02*
X170909Y476563D01*
X170909D02*
X171136Y477500D01*
Y479063*
X171136D02*
X170909Y480000D01*
X170682Y480625*
X170227Y481250*
X169773Y481563*
X169773D02*
X168864D01*
X176364Y480625D02*
X175909Y481250D01*
X175227Y481563*
X175227D02*
X174318D01*
X174318D02*
X173636Y481250D01*
X173182Y480625*
Y480000*
X173409Y479375*
X173636Y479063*
X173636D02*
X174091Y478750D01*
X175455Y478125*
X175909Y477813*
X175909D02*
X176136Y477500D01*
X176364Y476875*
Y475938*
X176364D02*
X175909Y475313D01*
X175909D02*
X175227Y475000D01*
X174318*
X173636Y475313*
X173636D02*
X173182Y475938D01*
X178409Y481563D02*
Y476875D01*
X178636Y475938*
X178636D02*
X179091Y475313D01*
X179091D02*
X179773Y475000D01*
X180227*
X180909Y475313*
X180909D02*
X181364Y475938D01*
X181364D02*
X181591Y476875D01*
Y481563*
X183636D02*
Y475000D01*
Y481563D02*
X185682D01*
X185682D02*
X186364Y481250D01*
X186591Y480938*
X186591D02*
X186818Y480313D01*
X186818D02*
Y479688D01*
X186818D02*
X186591Y479063D01*
X186591D02*
X186364Y478750D01*
X185682Y478438*
X185682D02*
X183636D01*
X185227D02*
X186818Y475000D01*
X192273Y480000D02*
X192045Y480625D01*
X191591Y481250*
X191136Y481563*
X191136D02*
X190227D01*
X190227D02*
X189773Y481250D01*
X189318Y480625*
X189091Y480000*
X188864Y479063*
X188864D02*
Y477500D01*
X189091Y476563*
X189091D02*
X189318Y475938D01*
X189318D02*
X189773Y475313D01*
X189773D02*
X190227Y475000D01*
X191136*
X191591Y475313*
X191591D02*
X192045Y475938D01*
X192045D02*
X192273Y476563D01*
X199545Y481563D02*
Y475000D01*
Y481563D02*
X201591D01*
X201591D02*
X202273Y481250D01*
X202500Y480938*
X202500D02*
X202727Y480313D01*
X202727D02*
Y479688D01*
X202727D02*
X202500Y479063D01*
X202500D02*
X202273Y478750D01*
X201591Y478438*
X201591D02*
X199545D01*
X201136D02*
X202727Y475000D01*
X205909Y479375D02*
X205455Y479063D01*
X205455D02*
X205000Y478438D01*
X205000D02*
X204773Y477500D01*
Y476875*
X205000Y475938*
X205000D02*
X205455Y475313D01*
X205455D02*
X205909Y475000D01*
X206591*
X207045Y475313*
X207045D02*
X207500Y475938D01*
X207500D02*
X207727Y476875D01*
Y477500*
X207500Y478438*
X207500D02*
X207045Y479063D01*
X207045D02*
X206591Y479375D01*
X205909*
X209773D02*
X211136Y475000D01*
X212500Y479375D02*
X211136Y475000D01*
X214545Y477500D02*
X217273D01*
Y478125*
X217045Y478750*
X216818Y479063*
X216818D02*
X216364Y479375D01*
X215682*
X215227Y479063*
X215227D02*
X214773Y478438D01*
X214773D02*
X214545Y477500D01*
Y476875*
X214773Y475938*
X214773D02*
X215227Y475313D01*
X215227D02*
X215682Y475000D01*
X216364*
X216818Y475313*
X216818D02*
X217273Y475938D01*
X219318Y479375D02*
Y475000D01*
Y477500D02*
X219545Y478438D01*
X219545D02*
X220000Y479063D01*
X220000D02*
X220455Y479375D01*
X221136*
X228636Y480000D02*
Y480313D01*
X228636D02*
X228864Y480938D01*
X228864D02*
X229091Y481250D01*
X229545Y481563*
X229545D02*
X230455D01*
X230455D02*
X230909Y481250D01*
X231136Y480938*
X231136D02*
X231364Y480313D01*
X231364D02*
Y479688D01*
X231364D02*
X231136Y479063D01*
X231136D02*
X230682Y478125D01*
X228409Y475000*
X231591*
X235000Y481563D02*
X234318Y481250D01*
X233864Y480313*
X233864D02*
X233636Y478750D01*
Y477813*
X233636D02*
X233864Y476250D01*
X234318Y475313*
X234318D02*
X235000Y475000D01*
X235455*
X236136Y475313*
X236136D02*
X236591Y476250D01*
X236818Y477813*
X236818D02*
Y478750D01*
X236591Y480313*
X236591D02*
X236136Y481250D01*
X235455Y481563*
X235455D02*
X235000D01*
X238864Y480313D02*
X239318Y480625D01*
X240000Y481563*
X240000D02*
Y475000D01*
X245000Y481563D02*
X242727D01*
X242727D02*
X242500Y478750D01*
X242727Y479063*
X242727D02*
X243409Y479375D01*
X244091*
X244773Y479063*
X244773D02*
X245227Y478438D01*
X245227D02*
X245455Y477500D01*
X245227Y476875*
X245000Y475938*
X245000D02*
X244545Y475313D01*
X244545D02*
X243864Y475000D01*
X243182*
X242500Y475313*
X242500D02*
X242273Y475625D01*
X242045Y476250*
X254545Y481563D02*
X252727Y475000D01*
X254545Y481563D02*
X256364Y475000D01*
X253409Y477188D02*
X255682D01*
X258409Y479375D02*
Y475000D01*
Y477500D02*
X258636Y478438D01*
X258636D02*
X259091Y479063D01*
X259091D02*
X259545Y479375D01*
X260227*
X262273D02*
Y475000D01*
Y478125D02*
X262955Y479063D01*
X262955D02*
X263409Y479375D01*
X264091*
X264545Y479063*
X264545D02*
X264773Y478125D01*
Y475000*
Y478125D02*
X265455Y479063D01*
X265455D02*
X265909Y479375D01*
X266591*
X267045Y479063*
X267045D02*
X267273Y478125D01*
Y475000*
X274545Y481563D02*
Y475000D01*
Y481563D02*
X276136D01*
X276136D02*
X276818Y481250D01*
X277273Y480625*
X277500Y480000*
X277727Y479063*
X277727D02*
Y477500D01*
X277500Y476563*
X277500D02*
X277273Y475938D01*
X277273D02*
X276818Y475313D01*
X276818D02*
X276136Y475000D01*
X274545*
X282500Y479375D02*
Y475000D01*
Y478438D02*
X282045Y479063D01*
X282045D02*
X281591Y479375D01*
X280909*
X280455Y479063*
X280455D02*
X280000Y478438D01*
X280000D02*
X279773Y477500D01*
Y476875*
X280000Y475938*
X280000D02*
X280455Y475313D01*
X280455D02*
X280909Y475000D01*
X281591*
X282045Y475313*
X282045D02*
X282500Y475938D01*
X284545Y479375D02*
Y476250D01*
X284773Y475313*
X284773D02*
X285227Y475000D01*
X285909*
X286364Y475313*
X286364D02*
X287045Y476250D01*
Y479375D02*
Y475000D01*
X291818Y479375D02*
Y474375D01*
X291591Y473437*
X291591D02*
X291364Y473125D01*
X290909Y472812*
X290909D02*
X290227D01*
X290227D02*
X289773Y473125D01*
X291818Y478438D02*
X291364Y479063D01*
X291364D02*
X290909Y479375D01*
X290227*
X289773Y479063*
X289773D02*
X289318Y478438D01*
X289318D02*
X289091Y477500D01*
Y476875*
X289318Y475938*
X289318D02*
X289773Y475313D01*
X289773D02*
X290227Y475000D01*
X290909*
X291364Y475313*
X291364D02*
X291818Y475938D01*
X293864Y481563D02*
Y475000D01*
Y478125D02*
X294545Y479063D01*
X294545D02*
X295000Y479375D01*
X295682*
X296136Y479063*
X296136D02*
X296364Y478125D01*
Y475000*
X299091Y481563D02*
Y476250D01*
X299318Y475313*
X299318D02*
X299773Y475000D01*
X300227*
X298409Y479375D02*
X300000D01*
X302273Y477500D02*
X305000D01*
Y478125*
X304773Y478750*
X304545Y479063*
X304545D02*
X304091Y479375D01*
X303409*
X302955Y479063*
X302955D02*
X302500Y478438D01*
X302500D02*
X302273Y477500D01*
Y476875*
X302500Y475938*
X302500D02*
X302955Y475313D01*
X302955D02*
X303409Y475000D01*
X304091*
X304545Y475313*
X304545D02*
X305000Y475938D01*
X307045Y479375D02*
Y475000D01*
Y477500D02*
X307273Y478438D01*
X307273D02*
X307727Y479063D01*
X307727D02*
X308182Y479375D01*
X308864*
X310909Y481563D02*
Y475000D01*
Y478438D02*
X311364Y479063D01*
X311364D02*
X311818Y479375D01*
X312500*
X312955Y479063*
X312955D02*
X313409Y478438D01*
X313409D02*
X313636Y477500D01*
Y476875*
X313409Y475938*
X313409D02*
X312955Y475313D01*
X312955D02*
X312500Y475000D01*
X311818*
X311364Y475313*
X311364D02*
X310909Y475938D01*
X316818Y479375D02*
X316364Y479063D01*
X316364D02*
X315909Y478438D01*
X315909D02*
X315682Y477500D01*
Y476875*
X315909Y475938*
X315909D02*
X316364Y475313D01*
X316364D02*
X316818Y475000D01*
X317500*
X317955Y475313*
X317955D02*
X318409Y475938D01*
X318409D02*
X318636Y476875D01*
Y477500*
X318409Y478438*
X318409D02*
X317955Y479063D01*
X317955D02*
X317500Y479375D01*
X316818*
X323409D02*
Y475000D01*
Y478438D02*
X322955Y479063D01*
X322955D02*
X322500Y479375D01*
X321818*
X321364Y479063*
X321364D02*
X320909Y478438D01*
X320909D02*
X320682Y477500D01*
Y476875*
X320909Y475938*
X320909D02*
X321364Y475313D01*
X321364D02*
X321818Y475000D01*
X322500*
X322955Y475313*
X322955D02*
X323409Y475938D01*
X325455Y479375D02*
Y475000D01*
Y477500D02*
X325682Y478438D01*
X325682D02*
X326136Y479063D01*
X326136D02*
X326591Y479375D01*
X327273*
X332045Y481563D02*
Y475000D01*
Y478438D02*
X331591Y479063D01*
X331591D02*
X331136Y479375D01*
X330455*
X330000Y479063*
X330000D02*
X329545Y478438D01*
X329545D02*
X329318Y477500D01*
Y476875*
X329545Y475938*
X329545D02*
X330000Y475313D01*
X330000D02*
X330455Y475000D01*
X331136*
X331591Y475313*
X331591D02*
X332045Y475938D01*
X339318Y479375D02*
Y475000D01*
Y477500D02*
X339545Y478438D01*
X339545D02*
X340000Y479063D01*
X340000D02*
X340455Y479375D01*
X341136*
X343409Y480000D02*
Y480313D01*
X343409D02*
X343636Y480938D01*
X343636D02*
X343864Y481250D01*
X344318Y481563*
X344318D02*
X345227D01*
X345227D02*
X345682Y481250D01*
X345909Y480938*
X345909D02*
X346136Y480313D01*
X346136D02*
Y479688D01*
X346136D02*
X345909Y479063D01*
X345909D02*
X345455Y478125D01*
X343182Y475000*
X346364*
X167500Y469063D02*
Y462500D01*
Y469063D02*
X170682Y462500D01*
Y469063D02*
Y462500D01*
X172727Y469063D02*
X172955Y468750D01*
X173182Y469063*
X173182D02*
X172955Y469375D01*
X172727Y469063*
X172955Y466875D02*
Y462500D01*
X177955Y465938D02*
X177500Y466563D01*
X177500D02*
X177045Y466875D01*
X176364*
X175909Y466563*
X175909D02*
X175455Y465938D01*
X175455D02*
X175227Y465000D01*
Y464375*
X175455Y463438*
X175455D02*
X175909Y462813D01*
X175909D02*
X176364Y462500D01*
X177045*
X177500Y462813*
X177500D02*
X177955Y463438D01*
X180000Y469063D02*
Y462500D01*
X182273Y466875D02*
X180000Y463750D01*
X180909Y465000D02*
X182500Y462500D01*
X191591Y469063D02*
X189773Y462500D01*
X191591Y469063D02*
X193409Y462500D01*
X190455Y464688D02*
X192727D01*
X195455Y466875D02*
Y462500D01*
Y465625D02*
X196136Y466563D01*
X196136D02*
X196591Y466875D01*
X197273*
X197727Y466563*
X197727D02*
X197955Y465625D01*
Y462500*
Y465625D02*
X198636Y466563D01*
X198636D02*
X199091Y466875D01*
X199773*
X200227Y466563*
X200227D02*
X200455Y465625D01*
Y462500*
X202500Y465000D02*
X205227D01*
Y465625*
X205000Y466250*
X204773Y466563*
X204773D02*
X204318Y466875D01*
X203636*
X203182Y466563*
X203182D02*
X202727Y465938D01*
X202727D02*
X202500Y465000D01*
Y464375*
X202727Y463438*
X202727D02*
X203182Y462813D01*
X203182D02*
X203636Y462500D01*
X204318*
X204773Y462813*
X204773D02*
X205227Y463438D01*
X209773Y465938D02*
X209545Y466563D01*
X209545D02*
X208864Y466875D01*
X208182*
X207500Y466563*
X207500D02*
X207273Y465938D01*
X207273D02*
X207500Y465313D01*
X207500D02*
X207955Y465000D01*
X209091Y464688*
X209091D02*
X209545Y464375D01*
X209773Y463750*
Y463438*
X209773D02*
X209545Y462813D01*
X209545D02*
X208864Y462500D01*
X208182*
X207500Y462813*
X207500D02*
X207273Y463438D01*
X217273Y467500D02*
Y467813D01*
X217273D02*
X217500Y468438D01*
X217500D02*
X217727Y468750D01*
X218182Y469063*
X218182D02*
X219091D01*
X219091D02*
X219545Y468750D01*
X219773Y468438*
X219773D02*
X220000Y467813D01*
X220000D02*
Y467188D01*
X220000D02*
X219773Y466563D01*
X219773D02*
X219318Y465625D01*
X217045Y462500*
X220227*
X223636Y469063D02*
X222955Y468750D01*
X222500Y467813*
X222500D02*
X222273Y466250D01*
Y465313*
X222273D02*
X222500Y463750D01*
X222955Y462813*
X222955D02*
X223636Y462500D01*
X224091*
X224773Y462813*
X224773D02*
X225227Y463750D01*
X225455Y465313*
X225455D02*
Y466250D01*
X225227Y467813*
X225227D02*
X224773Y468750D01*
X224091Y469063*
X224091D02*
X223636D01*
X227500Y467813D02*
X227955Y468125D01*
X228636Y469063*
X228636D02*
Y462500D01*
X232955Y469063D02*
X230682Y464688D01*
X230682D02*
X234091D01*
X232955Y469063D02*
Y462500D01*
X477625Y259182D02*
X485500Y257000D01*
X477625Y259182D02*
X485500Y261364D01*
X482875Y257818D02*
Y260545D01*
X480250Y263818D02*
X485500D01*
X482500D02*
X481375Y264091D01*
X480625Y264636*
X480250Y265182*
Y266000*
Y268455D02*
X485500D01*
X481750D02*
X480625Y269273D01*
X480250Y269818*
Y270636*
X480625Y271182*
X481750Y271455*
X485500*
X481750D02*
X480625Y272273D01*
X480250Y272818*
Y273636*
X480625Y274182*
X481750Y274455*
X485500*
X479500Y287273D02*
X478750Y287000D01*
X478000Y286455*
X477625Y285909*
Y284818*
X478000Y284273*
X478750Y283727*
X479500Y283455*
X480625Y283182*
X482500*
X483625Y283455*
X484375Y283727*
X485125Y284273*
X485500Y284818*
Y285909*
X485125Y286455*
X484375Y287000*
X483625Y287273*
X480250Y291091D02*
X480625Y290545D01*
X481375Y290000*
X482500Y289727*
X483250*
X484375Y290000*
X485125Y290545*
X485500Y291091*
Y291909*
X485125Y292455*
X484375Y293000*
X483250Y293273*
X482500*
X481375Y293000*
X480625Y292455*
X480250Y291909*
Y291091*
Y295727D02*
X485500D01*
X481750D02*
X480625Y296545D01*
X480250Y297091*
Y297909*
X480625Y298455*
X481750Y298727*
X485500*
X480250Y301182D02*
X485500D01*
X481750D02*
X480625Y302000D01*
X480250Y302545*
Y303364*
X480625Y303909*
X481750Y304182*
X485500*
X482500Y306636D02*
Y309909D01*
X481750*
X481000Y309636*
X480625Y309364*
X480250Y308818*
Y308000*
X480625Y307455*
X481375Y306909*
X482500Y306636*
X483250*
X484375Y306909*
X485125Y307455*
X485500Y308000*
Y308818*
X485125Y309364*
X484375Y309909*
X481375Y315636D02*
X480625Y315091D01*
X480250Y314545*
Y313727*
X480625Y313182*
X481375Y312636*
X482500Y312364*
X483250*
X484375Y312636*
X485125Y313182*
X485500Y313727*
Y314545*
X485125Y315091*
X484375Y315636*
X477625Y318909D02*
X484000D01*
X485125Y319182*
X485500Y319727*
Y320273*
X480250Y318091D02*
Y320000D01*
Y324091D02*
X480625Y323545D01*
X481375Y323000*
X482500Y322727*
X483250*
X484375Y323000*
X485125Y323545*
X485500Y324091*
Y324909*
X485125Y325455*
X484375Y326000*
X483250Y326273*
X482500*
X481375Y326000*
X480625Y325455*
X480250Y324909*
Y324091*
Y328727D02*
X485500D01*
X482500D02*
X481375Y329000D01*
X480625Y329545*
X480250Y330091*
Y330909*
X259659Y468125D02*
X259205Y468750D01*
X258523Y469063*
X258523D02*
X257614D01*
X257614D02*
X256932Y468750D01*
X256477Y468125*
Y467500*
X256705Y466875*
X256932Y466563*
X256932D02*
X257386Y466250D01*
X258750Y465625*
X259205Y465313*
X259205D02*
X259432Y465000D01*
X259659Y464375*
Y463438*
X259659D02*
X259205Y462813D01*
X259205D02*
X258523Y462500D01*
X257614*
X256932Y462813*
X256932D02*
X256477Y463438D01*
X261705Y465000D02*
X264432D01*
Y465625*
X264205Y466250*
X263977Y466563*
X263977D02*
X263523Y466875D01*
X262841*
X262386Y466563*
X262386D02*
X261932Y465938D01*
X261932D02*
X261705Y465000D01*
Y464375*
X261932Y463438*
X261932D02*
X262386Y462813D01*
X262386D02*
X262841Y462500D01*
X263523*
X263977Y462813*
X263977D02*
X264432Y463438D01*
X266477Y466875D02*
Y462500D01*
Y465000D02*
X266705Y465938D01*
X266705D02*
X267159Y466563D01*
X267159D02*
X267614Y466875D01*
X268295*
X270341Y469063D02*
X270568Y468750D01*
X270795Y469063*
X270795D02*
X270568Y469375D01*
X270341Y469063*
X270568Y466875D02*
Y462500D01*
X275568Y466875D02*
Y462500D01*
Y465938D02*
X275114Y466563D01*
X275114D02*
X274659Y466875D01*
X273977*
X273523Y466563*
X273523D02*
X273068Y465938D01*
X273068D02*
X272841Y465000D01*
Y464375*
X273068Y463438*
X273068D02*
X273523Y462813D01*
X273523D02*
X273977Y462500D01*
X274659*
X275114Y462813*
X275114D02*
X275568Y463438D01*
X277614Y469063D02*
Y462500D01*
X312500Y119063D02*
Y112500D01*
Y119063D02*
X314318Y112500D01*
X316136Y119063D02*
X314318Y112500D01*
X316136Y119063D02*
Y112500D01*
X320909Y116875D02*
Y112500D01*
Y115938D02*
X320455Y116563D01*
X320455D02*
X320000Y116875D01*
X319318*
X318864Y116563*
X318864D02*
X318409Y115938D01*
X318409D02*
X318182Y115000D01*
Y114375*
X318409Y113438*
X318409D02*
X318864Y112813D01*
X318864D02*
X319318Y112500D01*
X320000*
X320455Y112813*
X320455D02*
X320909Y113438D01*
X322955Y116875D02*
X325455Y112500D01*
Y116875D02*
X322955Y112500D01*
X327727Y113125D02*
X327500Y112813D01*
X327500D02*
X327727Y112500D01*
X327955Y112813*
X327955D02*
X327727Y113125D01*
X337955Y115938D02*
X337500Y116563D01*
X337500D02*
X337045Y116875D01*
X336364*
X335909Y116563*
X335909D02*
X335455Y115938D01*
X335455D02*
X335227Y115000D01*
Y114375*
X335455Y113438*
X335455D02*
X335909Y112813D01*
X335909D02*
X336364Y112500D01*
X337045*
X337500Y112813*
X337500D02*
X337955Y113438D01*
X341136Y116875D02*
X340682Y116563D01*
X340682D02*
X340227Y115938D01*
X340227D02*
X340000Y115000D01*
Y114375*
X340227Y113438*
X340227D02*
X340682Y112813D01*
X340682D02*
X341136Y112500D01*
X341818*
X342273Y112813*
X342273D02*
X342727Y113438D01*
X342727D02*
X342955Y114375D01*
Y115000*
X342727Y115938*
X342727D02*
X342273Y116563D01*
X342273D02*
X341818Y116875D01*
X341136*
X345000Y119063D02*
X345227Y118750D01*
X345455Y119063*
X345455D02*
X345227Y119375D01*
X345000Y119063*
X345227Y116875D02*
Y112500D01*
X347500Y119063D02*
Y112500D01*
X357500Y115938D02*
X357045Y116563D01*
X357045D02*
X356591Y116875D01*
X355909*
X355455Y116563*
X355455D02*
X355000Y115938D01*
X355000D02*
X354773Y115000D01*
Y114375*
X355000Y113438*
X355000D02*
X355455Y112813D01*
X355455D02*
X355909Y112500D01*
X356591*
X357045Y112813*
X357045D02*
X357500Y113438D01*
X359545Y116875D02*
Y113750D01*
X359773Y112813*
X359773D02*
X360227Y112500D01*
X360909*
X361364Y112813*
X361364D02*
X362045Y113750D01*
Y116875D02*
Y112500D01*
X364091Y116875D02*
Y112500D01*
Y115000D02*
X364318Y115938D01*
X364318D02*
X364773Y116563D01*
X364773D02*
X365227Y116875D01*
X365909*
X367955D02*
Y112500D01*
Y115000D02*
X368182Y115938D01*
X368182D02*
X368636Y116563D01*
X368636D02*
X369091Y116875D01*
X369773*
X371818Y115000D02*
X374545D01*
Y115625*
X374318Y116250*
X374091Y116563*
X374091D02*
X373636Y116875D01*
X372955*
X372500Y116563*
X372500D02*
X372045Y115938D01*
X372045D02*
X371818Y115000D01*
Y114375*
X372045Y113438*
X372045D02*
X372500Y112813D01*
X372500D02*
X372955Y112500D01*
X373636*
X374091Y112813*
X374091D02*
X374545Y113438D01*
X376591Y116875D02*
Y112500D01*
Y115625D02*
X377273Y116563D01*
X377273D02*
X377727Y116875D01*
X378409*
X378864Y116563*
X378864D02*
X379091Y115625D01*
Y112500*
X381818Y119063D02*
Y113750D01*
X382045Y112813*
X382045D02*
X382500Y112500D01*
X382955*
X381136Y116875D02*
X382727D01*
X390227Y117813D02*
X390682Y118125D01*
X391364Y119063*
X391364D02*
Y112500D01*
X393636Y113125D02*
X393409Y112813D01*
X393409D02*
X393636Y112500D01*
X393864Y112813*
X393864D02*
X393636Y113125D01*
X398864Y119063D02*
X396591D01*
X396591D02*
X396364Y116250D01*
X396591Y116563*
X396591D02*
X397273Y116875D01*
X397955*
X398636Y116563*
X398636D02*
X399091Y115938D01*
X399091D02*
X399318Y115000D01*
X399091Y114375*
X398864Y113438*
X398864D02*
X398409Y112813D01*
X398409D02*
X397727Y112500D01*
X397045*
X396364Y112813*
X396364D02*
X396136Y113125D01*
X395909Y113750*
X403182Y119063D02*
X401364Y112500D01*
X403182Y119063D02*
X405000Y112500D01*
X402045Y114688D02*
X404318D01*
X407273Y113125D02*
X407045Y112813D01*
X407045D02*
X407273Y112500D01*
X407500Y112813*
X407500D02*
X407273Y113125D01*
X105000Y191563D02*
Y185000D01*
Y191563D02*
X107045D01*
X107045D02*
X107727Y191250D01*
X107955Y190938*
X107955D02*
X108182Y190313D01*
X108182D02*
Y189688D01*
X108182D02*
X107955Y189063D01*
X107955D02*
X107727Y188750D01*
X107045Y188438*
X105000D02*
X107045D01*
X107045D02*
X107727Y188125D01*
X107955Y187813*
X107955D02*
X108182Y187188D01*
X108182D02*
Y186250D01*
X107955Y185625*
X107727Y185313*
X107727D02*
X107045Y185000D01*
X105000*
X110227Y189375D02*
Y185000D01*
Y187500D02*
X110455Y188438D01*
X110455D02*
X110909Y189063D01*
X110909D02*
X111364Y189375D01*
X112045*
X116818D02*
Y185000D01*
Y188438D02*
X116364Y189063D01*
X116364D02*
X115909Y189375D01*
X115227*
X114773Y189063*
X114773D02*
X114318Y188438D01*
X114318D02*
X114091Y187500D01*
Y186875*
X114318Y185938*
X114318D02*
X114773Y185313D01*
X114773D02*
X115227Y185000D01*
X115909*
X116364Y185313*
X116364D02*
X116818Y185938D01*
X118864Y191563D02*
X119091Y191250D01*
X119318Y191563*
X119318D02*
X119091Y191875D01*
X118864Y191563*
X119091Y189375D02*
Y185000D01*
X121364Y189375D02*
Y185000D01*
Y188125D02*
X122045Y189063D01*
X122045D02*
X122500Y189375D01*
X123182*
X123636Y189063*
X123636D02*
X123864Y188125D01*
Y185000*
X125909Y191563D02*
Y185000D01*
Y188438D02*
X126364Y189063D01*
X126364D02*
X126818Y189375D01*
X127500*
X127955Y189063*
X127955D02*
X128409Y188438D01*
X128409D02*
X128636Y187500D01*
Y186875*
X128409Y185938*
X128409D02*
X127955Y185313D01*
X127955D02*
X127500Y185000D01*
X126818*
X126364Y185313*
X126364D02*
X125909Y185938D01*
X131818Y189375D02*
X131364Y189063D01*
X131364D02*
X130909Y188438D01*
X130909D02*
X130682Y187500D01*
Y186875*
X130909Y185938*
X130909D02*
X131364Y185313D01*
X131364D02*
X131818Y185000D01*
X132500*
X132955Y185313*
X132955D02*
X133409Y185938D01*
X133409D02*
X133636Y186875D01*
Y187500*
X133409Y188438*
X133409D02*
X132955Y189063D01*
X132955D02*
X132500Y189375D01*
X131818*
X138409D02*
Y185000D01*
Y188438D02*
X137955Y189063D01*
X137955D02*
X137500Y189375D01*
X136818*
X136364Y189063*
X136364D02*
X135909Y188438D01*
X135909D02*
X135682Y187500D01*
Y186875*
X135909Y185938*
X135909D02*
X136364Y185313D01*
X136364D02*
X136818Y185000D01*
X137500*
X137955Y185313*
X137955D02*
X138409Y185938D01*
X140455Y189375D02*
Y185000D01*
Y187500D02*
X140682Y188438D01*
X140682D02*
X141136Y189063D01*
X141136D02*
X141591Y189375D01*
X142273*
X147045Y191563D02*
Y185000D01*
Y188438D02*
X146591Y189063D01*
X146591D02*
X146136Y189375D01*
X145455*
X145000Y189063*
X145000D02*
X144545Y188438D01*
X144545D02*
X144318Y187500D01*
Y186875*
X144545Y185938*
X144545D02*
X145000Y185313D01*
X145000D02*
X145455Y185000D01*
X146136*
X146591Y185313*
X146591D02*
X147045Y185938D01*
X162000Y454000D02*
X142000D01*
Y464000*
X162000*
Y454000*
X141500Y450000D02*
Y468000D01*
X229000Y221500D02*
Y219500D01*
X263000*
Y221500*
X278000Y154000D02*
Y112000D01*
X264000Y105000D02*
Y155000D01*
X299000*
Y105000*
X264000*
Y149000D02*
X299000D01*
X264000Y112000D02*
X298000D01*
X299000D02*
X297000D01*
X278000Y155000D02*
Y154000D01*
G54D22*
X380000Y427205D02*
X392795D01*
Y436063*
Y443937D02*
Y452795D01*
X380000*
X367205Y443937D02*
Y448858D01*
X371142Y452795*
X380000*
X367205Y436063D02*
Y431142D01*
X371142Y427205*
X380000*
Y357205D02*
X392795D01*
Y366063*
Y373937D02*
Y382795D01*
X380000*
X367205Y373937D02*
Y378858D01*
X371142Y382795*
X380000*
X367205Y366063D02*
Y361142D01*
X371142Y357205*
X380000*
Y287205D02*
X392795D01*
Y296063*
Y303937D02*
Y312795D01*
X380000*
X367205Y303937D02*
Y308858D01*
X371142Y312795*
X380000*
X367205Y296063D02*
Y291142D01*
X371142Y287205*
X380000*
Y217205D02*
X392795D01*
Y226063*
Y233937D02*
Y242795D01*
X380000*
X367205Y233937D02*
Y238858D01*
X371142Y242795*
X380000*
X367205Y226063D02*
Y221142D01*
X371142Y217205*
X380000*
Y147205D02*
X392795D01*
Y156063*
Y163937D02*
Y172795D01*
X380000*
X367205Y163937D02*
Y168858D01*
X371142Y172795*
X380000*
X367205Y156063D02*
Y151142D01*
X371142Y147205*
X380000*
G54D56*
X440000Y305000D02*
Y390000D01*
X470000*
Y200000*
X440000*
Y285000*
X329516Y410000D02*
X310484D01*
Y440000*
X329516*
Y410000*
Y340000D02*
X310484D01*
Y370000*
X329516*
Y340000*
Y270000D02*
X310484D01*
Y300000*
X329516*
Y270000*
Y200000D02*
X310484D01*
Y230000*
X329516*
Y200000*
Y130000D02*
X310484D01*
Y160000*
X329516*
Y130000*
X185000Y160000D02*
X195000D01*
Y410000D02*
X205000D01*
X100000Y165000D02*
Y170000D01*
X300000Y165000D02*
Y175000D01*
X100000Y160000D02*
X300000D01*
Y410000*
X100000*
Y160000*
X105000Y350000D02*
X125000D01*
Y325000*
X105000*
X130000Y410000D02*
Y390000D01*
X275000*
Y410000*
X130000Y160000D02*
Y180000D01*
X270000*
Y160000*
X136000Y120000D02*
G03X136000I-16000J0D01*
G01X120000Y136000D02*
Y126000D01*
X136000Y120000D02*
X126000D01*
X120000Y104000D02*
Y114000D01*
X104000Y120000D02*
X114000D01*
X136000Y470000D02*
G03X136000I-16000J0D01*
G01X120000Y486000D02*
Y476000D01*
X136000Y470000D02*
X126000D01*
X120000Y454000D02*
Y464000D01*
X104000Y470000D02*
X114000D01*
X486000D02*
G03X486000I-16000J0D01*
G01X470000Y486000D02*
Y476000D01*
X486000Y470000D02*
X476000D01*
X470000Y454000D02*
Y464000D01*
X454000Y470000D02*
X464000D01*
X486000Y120000D02*
G03X486000I-16000J0D01*
G01X470000Y136000D02*
Y126000D01*
X486000Y120000D02*
X476000D01*
X470000Y104000D02*
Y114000D01*
X454000Y120000D02*
X464000D01*
X135000Y354000D02*
G03X135000I-1000J0D01*
G01X225000Y120000D02*
Y143000D01*
X185000*
Y120000*
X225000*
Y139000D02*
X185000D01*
Y143000*
X225000*
Y139000*
X345000Y420484D02*
Y438000D01*
X350000*
Y443000*
X345000*
Y459516*
X425000*
Y420484*
X345000*
X405000Y425000D02*
X420000D01*
Y455000*
X405000*
Y425000*
X345000Y350484D02*
Y368000D01*
X350000*
Y373000*
X345000*
Y389516*
X425000*
Y350484*
X345000*
X405000Y355000D02*
X420000D01*
Y385000*
X405000*
Y355000*
X345000Y280484D02*
Y298000D01*
X350000*
Y303000*
X345000*
Y319516*
X425000*
Y280484*
X345000*
X405000Y285000D02*
X420000D01*
Y315000*
X405000*
Y285000*
X345000Y210484D02*
Y228000D01*
X350000*
Y233000*
X345000*
Y249516*
X425000*
Y210484*
X345000*
X405000Y215000D02*
X420000D01*
Y245000*
X405000*
Y215000*
X345000Y140484D02*
Y158000D01*
X350000*
Y163000*
X345000*
Y179516*
X425000*
Y140484*
X345000*
X405000Y145000D02*
X420000D01*
Y175000*
X405000*
Y145000*
G54D57*
X319016Y413884D02*
X318797Y414202D01*
X318141Y414680*
X322734*
X319234Y423327D02*
X319016D01*
X318578Y423486*
X318359Y423645*
X318141Y423964*
Y424600*
X318359Y424918*
X318578Y425077*
X319016Y425236*
X319453*
X319891Y425077*
X320547Y424759*
X322734Y423168*
Y425395*
X318141Y433486D02*
Y435236D01*
X319891Y434282*
Y434759*
X320109Y435077*
X320328Y435236*
X320984Y435395*
X321422*
X322078Y435236*
X322516Y434918*
X322734Y434441*
Y433964*
X322516Y433486*
X322297Y433327*
X321859Y433168*
X319016Y343884D02*
X318797Y344202D01*
X318141Y344680*
X322734*
X319234Y353327D02*
X319016D01*
X318578Y353486*
X318359Y353645*
X318141Y353964*
Y354600*
X318359Y354918*
X318578Y355077*
X319016Y355236*
X319453*
X319891Y355077*
X320547Y354759*
X322734Y353168*
Y355395*
X318141Y363486D02*
Y365236D01*
X319891Y364282*
Y364759*
X320109Y365077*
X320328Y365236*
X320984Y365395*
X321422*
X322078Y365236*
X322516Y364918*
X322734Y364441*
Y363964*
X322516Y363486*
X322297Y363327*
X321859Y363168*
X319016Y273884D02*
X318797Y274202D01*
X318141Y274680*
X322734*
X319234Y283327D02*
X319016D01*
X318578Y283486*
X318359Y283645*
X318141Y283964*
Y284600*
X318359Y284918*
X318578Y285077*
X319016Y285236*
X319453*
X319891Y285077*
X320547Y284759*
X322734Y283168*
Y285395*
X318141Y293486D02*
Y295236D01*
X319891Y294282*
Y294759*
X320109Y295077*
X320328Y295236*
X320984Y295395*
X321422*
X322078Y295236*
X322516Y294918*
X322734Y294441*
Y293964*
X322516Y293486*
X322297Y293327*
X321859Y293168*
X319016Y203884D02*
X318797Y204202D01*
X318141Y204680*
X322734*
X319234Y213327D02*
X319016D01*
X318578Y213486*
X318359Y213645*
X318141Y213964*
Y214600*
X318359Y214918*
X318578Y215077*
X319016Y215236*
X319453*
X319891Y215077*
X320547Y214759*
X322734Y213168*
Y215395*
X318141Y223486D02*
Y225236D01*
X319891Y224282*
Y224759*
X320109Y225077*
X320328Y225236*
X320984Y225395*
X321422*
X322078Y225236*
X322516Y224918*
X322734Y224441*
Y223964*
X322516Y223486*
X322297Y223327*
X321859Y223168*
X319016Y133884D02*
X318797Y134202D01*
X318141Y134680*
X322734*
X319234Y143327D02*
X319016D01*
X318578Y143486*
X318359Y143645*
X318141Y143964*
Y144600*
X318359Y144918*
X318578Y145077*
X319016Y145236*
X319453*
X319891Y145077*
X320547Y144759*
X322734Y143168*
Y145395*
X318141Y153486D02*
Y155236D01*
X319891Y154282*
Y154759*
X320109Y155077*
X320328Y155236*
X320984Y155395*
X321422*
X322078Y155236*
X322516Y154918*
X322734Y154441*
Y153964*
X322516Y153486*
X322297Y153327*
X321859Y153168*
X105406Y330000D02*
X108687D01*
X108687D02*
X109344Y330159D01*
X109781Y330477*
X110000Y330955*
Y331273*
X109781Y331750*
X109344Y332068*
X108687Y332227*
X108687D02*
X105406D01*
X106062Y335886D02*
X105625Y335568D01*
X105406Y335091*
Y334455*
X105625Y333977*
X106062Y333659*
X106062D02*
X106500D01*
X106937Y333818*
X106937D02*
X107156Y333977D01*
X107375Y334295*
X107812Y335250*
X107812D02*
X108031Y335568D01*
X108250Y335727*
X108687Y335886*
X108687D02*
X109344D01*
X109781Y335568*
X110000Y335091*
Y334455*
X109781Y333977*
X109344Y333659*
X105406Y337318D02*
X110000D01*
X105406D02*
Y338750D01*
X105625Y339227*
X105844Y339386*
X106281Y339545*
X106719*
X107156Y339386*
X107375Y339227*
X107594Y338750*
Y337318D02*
Y338750D01*
X107812Y339227*
X107812D02*
X108031Y339386D01*
X108469Y339545*
X109125*
X109562Y339386*
X109562D02*
X109781Y339227D01*
X110000Y338750*
Y337318*
X115406Y330000D02*
X120000D01*
X115406Y332227D02*
X120000D01*
X117594Y330000D02*
Y332227D01*
X115406Y333659D02*
X120000D01*
X115406D02*
Y335727D01*
X117594Y333659D02*
Y334932D01*
X120000Y333659D02*
Y335727D01*
X115406Y337159D02*
X120000D01*
X115406D02*
Y338591D01*
X115625Y339068*
X115844Y339227*
X116281Y339386*
X116719*
X117156Y339227*
X117375Y339068*
X117594Y338591*
Y337159*
Y338273D02*
X120000Y339386D01*
X115406Y340818D02*
X120000D01*
X115406D02*
Y342886D01*
X117594Y340818D02*
Y342091D01*
X120000Y340818D02*
Y342886D01*
X165000Y189594D02*
Y185000D01*
Y189594D02*
X166273Y185000D01*
X167545Y189594D02*
X166273Y185000D01*
X167545Y189594D02*
Y185000D01*
X169773Y188063D02*
X169455Y187844D01*
X169136Y187406*
X168977Y186750*
Y186313*
X168977D02*
X169136Y185656D01*
X169455Y185219*
X169773Y185000*
X170250*
X170568Y185219*
X170886Y185656*
X171045Y186313*
X171045D02*
Y186750D01*
X170886Y187406*
X170568Y187844*
X170250Y188063*
X170250D02*
X169773D01*
X172477D02*
Y185875D01*
X172636Y185219*
X172955Y185000*
X173432*
X173750Y185219*
X174227Y185875*
Y188063D02*
Y185000D01*
X175659Y188063D02*
Y185000D01*
Y187188D02*
X176136Y187844D01*
X176455Y188063*
X176455D02*
X176932D01*
X176932D02*
X177250Y187844D01*
X177409Y187188*
X177409D02*
Y185000D01*
X179318Y189594D02*
Y185875D01*
X179477Y185219*
X179795Y185000*
X180114*
X178841Y188063D02*
X179955D01*
X185205Y189594D02*
Y185000D01*
Y189594D02*
X187273D01*
X185205Y187406D02*
X186477D01*
X188705Y189594D02*
Y185000D01*
Y189594D02*
X190773D01*
X188705Y187406D02*
X189977D01*
X188705Y185000D02*
X190773D01*
X192205Y189594D02*
Y185000D01*
Y189594D02*
X193477Y185000D01*
X194750Y189594D02*
X193477Y185000D01*
X194750Y189594D02*
Y185000D01*
X197455Y189594D02*
X196182Y185000D01*
X197455Y189594D02*
X198727Y185000D01*
X196659Y186531D02*
X198250D01*
X200159Y189594D02*
Y185000D01*
X202068*
X203500Y189594D02*
Y185000D01*
Y189594D02*
X205568D01*
X203500Y187406D02*
X204773D01*
X203500Y185000D02*
X205568D01*
X210659Y189594D02*
Y185000D01*
X212886Y189594D02*
Y185000D01*
X210659Y187406D02*
X212886D01*
X214318Y186750D02*
X216227D01*
Y187188*
X216227D02*
X216068Y187625D01*
X215909Y187844*
X215591Y188063*
X215591D02*
X215114D01*
X215114D02*
X214795Y187844D01*
X214477Y187406*
X214318Y186750*
Y186313*
X214318D02*
X214477Y185656D01*
X214795Y185219*
X215114Y185000*
X215591*
X215909Y185219*
X216227Y185656*
X219568Y188063D02*
Y185000D01*
Y187406D02*
X219250Y187844D01*
X218932Y188063*
X218932D02*
X218455D01*
X218455D02*
X218136Y187844D01*
X217818Y187406*
X217659Y186750*
Y186313*
X217659D02*
X217818Y185656D01*
X218136Y185219*
X218455Y185000*
X218932*
X219250Y185219*
X219568Y185656*
X222909Y189594D02*
Y185000D01*
Y187406D02*
X222591Y187844D01*
X222273Y188063*
X222273D02*
X221795D01*
X221795D02*
X221477Y187844D01*
X221159Y187406*
X221000Y186750*
Y186313*
X221000D02*
X221159Y185656D01*
X221477Y185219*
X221795Y185000*
X222273*
X222591Y185219*
X222909Y185656*
X224341Y186750D02*
X226250D01*
Y187188*
X226250D02*
X226091Y187625D01*
X225932Y187844*
X225614Y188063*
X225614D02*
X225136D01*
X225136D02*
X224818Y187844D01*
X224500Y187406*
X224341Y186750*
Y186313*
X224341D02*
X224500Y185656D01*
X224818Y185219*
X225136Y185000*
X225614*
X225932Y185219*
X226250Y185656*
X227682Y188063D02*
Y185000D01*
Y186750D02*
X227841Y187406D01*
X228159Y187844*
X228477Y188063*
X228477D02*
X228955D01*
X165000Y384594D02*
Y380000D01*
Y384594D02*
X166273Y380000D01*
X167545Y384594D02*
X166273Y380000D01*
X167545Y384594D02*
Y380000D01*
X169773Y383063D02*
X169455Y382844D01*
X169136Y382406*
X168977Y381750*
Y381313*
X168977D02*
X169136Y380656D01*
X169455Y380219*
X169773Y380000*
X170250*
X170568Y380219*
X170886Y380656*
X171045Y381313*
X171045D02*
Y381750D01*
X170886Y382406*
X170568Y382844*
X170250Y383063*
X170250D02*
X169773D01*
X172477D02*
Y380875D01*
X172636Y380219*
X172955Y380000*
X173432*
X173750Y380219*
X174227Y380875*
Y383063D02*
Y380000D01*
X175659Y383063D02*
Y380000D01*
Y382188D02*
X176136Y382844D01*
X176455Y383063*
X176455D02*
X176932D01*
X176932D02*
X177250Y382844D01*
X177409Y382188*
X177409D02*
Y380000D01*
X179318Y384594D02*
Y380875D01*
X179477Y380219*
X179795Y380000*
X180114*
X178841Y383063D02*
X179955D01*
X185205Y384594D02*
Y380000D01*
Y384594D02*
X186477Y380000D01*
X187750Y384594D02*
X186477Y380000D01*
X187750Y384594D02*
Y380000D01*
X190455Y384594D02*
X189182Y380000D01*
X190455Y384594D02*
X191727Y380000D01*
X189659Y381531D02*
X191250D01*
X193159Y384594D02*
Y380000D01*
X195068*
X196500Y384594D02*
Y380000D01*
Y384594D02*
X198568D01*
X196500Y382406D02*
X197773D01*
X196500Y380000D02*
X198568D01*
X203659Y384594D02*
Y380000D01*
X205886Y384594D02*
Y380000D01*
X203659Y382406D02*
X205886D01*
X207318Y381750D02*
X209227D01*
Y382188*
X209227D02*
X209068Y382625D01*
X208909Y382844*
X208591Y383063*
X208591D02*
X208114D01*
X208114D02*
X207795Y382844D01*
X207477Y382406*
X207318Y381750*
Y381313*
X207318D02*
X207477Y380656D01*
X207795Y380219*
X208114Y380000*
X208591*
X208909Y380219*
X209227Y380656*
X212568Y383063D02*
Y380000D01*
Y382406D02*
X212250Y382844D01*
X211932Y383063*
X211932D02*
X211455D01*
X211455D02*
X211136Y382844D01*
X210818Y382406*
X210659Y381750*
Y381313*
X210659D02*
X210818Y380656D01*
X211136Y380219*
X211455Y380000*
X211932*
X212250Y380219*
X212568Y380656*
X215909Y384594D02*
Y380000D01*
Y382406D02*
X215591Y382844D01*
X215273Y383063*
X215273D02*
X214795D01*
X214795D02*
X214477Y382844D01*
X214159Y382406*
X214000Y381750*
Y381313*
X214000D02*
X214159Y380656D01*
X214477Y380219*
X214795Y380000*
X215273*
X215591Y380219*
X215909Y380656*
X217341Y381750D02*
X219250D01*
Y382188*
X219250D02*
X219091Y382625D01*
X218932Y382844*
X218614Y383063*
X218614D02*
X218136D01*
X218136D02*
X217818Y382844D01*
X217500Y382406*
X217341Y381750*
Y381313*
X217341D02*
X217500Y380656D01*
X217818Y380219*
X218136Y380000*
X218614*
X218932Y380219*
X219250Y380656*
X220682Y383063D02*
Y380000D01*
Y381750D02*
X220841Y382406D01*
X221159Y382844*
X221477Y383063*
X221477D02*
X221955D01*
X188250Y149234D02*
X191114D01*
X206739Y151859D02*
Y147266D01*
Y151859D02*
X208170D01*
X208648Y151641*
X208807Y151422*
X208966Y150984*
Y150547*
X208807Y150109*
X208648Y149891*
X208170Y149672*
X206739*
X207852D02*
X208966Y147266D01*
X210398Y151859D02*
X212625Y147266D01*
Y151859D02*
X210398Y147266D01*
X197852Y151859D02*
Y147266D01*
X196739Y151859D02*
X198966D01*
X200398D02*
X202625Y147266D01*
Y151859D02*
X200398Y147266D01*
X218568Y151859D02*
Y147266D01*
Y151859D02*
X220000D01*
X220477Y151641*
X220636Y151422*
X220795Y150984*
Y150328*
X220636Y149891*
X220477Y149672*
X220000Y149453*
X218568*
X147475Y322527D02*
X152725D01*
X147475D02*
X152725Y323982D01*
X147475Y325436D02*
X152725Y323982D01*
X147475Y325436D02*
X152725D01*
X148725Y329800D02*
X148225Y329618D01*
X147725Y329255*
X147475Y328891*
Y328164*
X147725Y327800*
X148225Y327436*
X148725Y327255*
X149475Y327073*
X150725*
X151475Y327255*
X151975Y327436*
X152475Y327800*
X152725Y328164*
Y328891*
X152475Y329255*
X151975Y329618*
X151475Y329800*
X147475Y331436D02*
X152725D01*
X147475D02*
Y333073D01*
X147725Y333618*
X147975Y333800*
X148475Y333982*
X149225*
X149725Y333800*
X149975Y333618*
X150225Y333073*
Y331436*
X148225Y337800D02*
X147725Y337618D01*
X147475Y337073*
Y336709*
X147725Y336164*
X148475Y335800*
X149725Y335618*
X150975*
X151975Y335800*
X152475Y336164*
X152725Y336709*
Y336891*
X152475Y337436*
X151975Y337800*
X151225Y337982*
X150975*
X150225Y337800*
X149725Y337436*
X149475Y336891*
Y336709*
X149725Y336164*
X150225Y335800*
X150975Y335618*
X147475Y339618D02*
X152725D01*
Y341800*
X147475Y344527D02*
X147725Y343982D01*
X148475Y343618*
X149725Y343436*
X150475*
X151725Y343618*
X152475Y343982*
X152725Y344527*
Y344891*
X152475Y345436*
X151725Y345800*
X150475Y345982*
X149725*
X148475Y345800*
X147725Y345436*
X147475Y344891*
Y344527*
Y349436D02*
X150975Y347618D01*
Y350345*
X147475Y349436D02*
X152725D01*
G54D58*
X229331Y441063D02*
Y448937D01*
X227362Y441063D02*
Y448937D01*
G54D59*
X372126Y431142D02*
Y435079D01*
X370157Y433110D02*
X374094D01*
X372126Y361142D02*
Y365079D01*
X370157Y363110D02*
X374094D01*
X372126Y291142D02*
Y295079D01*
X370157Y293110D02*
X374094D01*
X372126Y221142D02*
Y225079D01*
X370157Y223110D02*
X374094D01*
X372126Y151142D02*
Y155079D01*
X370157Y153110D02*
X374094D01*
G54D60*
X434505Y296594D02*
Y293594D01*
X434368Y293031*
X434232Y292844*
X433959Y292656*
X433686*
X433414Y292844*
X433277Y293031*
X433141Y293594*
Y293969*
X435732Y295844D02*
X436005Y296031D01*
X436414Y296594*
Y292656*
X265318Y366594D02*
Y362656D01*
Y366594D02*
X266545D01*
X266955Y366406*
X267091Y366219*
X267227Y365844*
Y365469*
X267091Y365094*
X266955Y364906*
X266545Y364719*
X265318*
X266273D02*
X267227Y362656D01*
X268455Y365844D02*
X268727Y366031D01*
X269136Y366594*
Y362656*
X319027Y446031D02*
X318755Y446406D01*
X318345Y446594*
X317800*
X317391Y446406*
X317118Y446031*
Y445656*
X317255Y445281*
X317391Y445094*
X317664Y444906*
X318482Y444531*
X318755Y444344*
X318891Y444156*
X319027Y443781*
Y443219*
X318755Y442844*
X318345Y442656*
X317800*
X317391Y442844*
X317118Y443219*
X320255Y445844D02*
X320527Y446031D01*
X320936Y446594*
Y442656*
X317800Y376031D02*
X317527Y376406D01*
X317118Y376594*
X316573*
X316164Y376406*
X315891Y376031*
Y375656*
X316027Y375281*
X316164Y375094*
X316436Y374906*
X317255Y374531*
X317527Y374344*
X317664Y374156*
X317800Y373781*
Y373219*
X317527Y372844*
X317118Y372656*
X316573*
X316164Y372844*
X315891Y373219*
X319164Y375656D02*
Y375844D01*
X319300Y376219*
X319436Y376406*
X319709Y376594*
X320255*
X320527Y376406*
X320664Y376219*
X320800Y375844*
Y375469*
X320664Y375094*
X320391Y374531*
X319027Y372656*
X320936*
X317800Y306031D02*
X317527Y306406D01*
X317118Y306594*
X316573*
X316164Y306406*
X315891Y306031*
Y305656*
X316027Y305281*
X316164Y305094*
X316436Y304906*
X317255Y304531*
X317527Y304344*
X317664Y304156*
X317800Y303781*
Y303219*
X317527Y302844*
X317118Y302656*
X316573*
X316164Y302844*
X315891Y303219*
X319300Y306594D02*
X320800D01*
X319982Y305094*
X320391*
X320664Y304906*
X320800Y304719*
X320936Y304156*
Y303781*
X320800Y303219*
X320527Y302844*
X320118Y302656*
X319709*
X319300Y302844*
X319164Y303031*
X319027Y303406*
X317664Y236031D02*
X317391Y236406D01*
X316982Y236594*
X316436*
X316027Y236406*
X315755Y236031*
Y235656*
X315891Y235281*
X316027Y235094*
X316300Y234906*
X317118Y234531*
X317391Y234344*
X317527Y234156*
X317664Y233781*
Y233219*
X317391Y232844*
X316982Y232656*
X316436*
X316027Y232844*
X315755Y233219*
X320255Y236594D02*
X318891Y233969D01*
X320936*
X320255Y236594D02*
Y232656D01*
X317664Y166031D02*
X317391Y166406D01*
X316982Y166594*
X316436*
X316027Y166406*
X315755Y166031*
Y165656*
X315891Y165281*
X316027Y165094*
X316300Y164906*
X317118Y164531*
X317391Y164344*
X317527Y164156*
X317664Y163781*
Y163219*
X317391Y162844*
X316982Y162656*
X316436*
X316027Y162844*
X315755Y163219*
X320664Y166594D02*
X319300D01*
X319164Y164906*
X319300Y165094*
X319709Y165281*
X320118*
X320527Y165094*
X320800Y164719*
X320936Y164156*
X320800Y163781*
X320664Y163219*
X320391Y162844*
X319982Y162656*
X319573*
X319164Y162844*
X319027Y163031*
X318891Y163406*
X112273Y174094D02*
Y171281D01*
X112409Y170719*
X112682Y170344*
X113091Y170156*
X113364*
X113773Y170344*
X114045Y170719*
X114182Y171281*
Y174094*
X117045Y173531D02*
X116909Y173906D01*
X116500Y174094*
X116227*
X115818Y173906*
X115545Y173344*
X115409Y172406*
Y171469*
X115545Y170719*
X115818Y170344*
X116227Y170156*
X116364*
X116773Y170344*
X117045Y170719*
X117182Y171281*
Y171469*
X117045Y172031*
X116773Y172406*
X116364Y172594*
X116227*
X115818Y172406*
X115545Y172031*
X115409Y171469*
X208491Y431944D02*
Y428944D01*
X208355Y428381*
X208218Y428194*
X207945Y428006*
X207673*
X207400Y428194*
X207264Y428381*
X207127Y428944*
Y429319*
X209855Y431006D02*
Y431194D01*
X209991Y431569*
X210127Y431756*
X210400Y431944*
X210945*
X211218Y431756*
X211355Y431569*
X211491Y431194*
Y430819*
X211355Y430444*
X211082Y429881*
X209718Y428006*
X211627*
X222468Y456944D02*
Y453006D01*
Y456944D02*
X223423D01*
X223832Y456756*
X224105Y456381*
X224241Y456006*
X224377Y455444*
Y454506*
X224241Y453944*
X224105Y453569*
X223832Y453194*
X223423Y453006*
X222468*
X225605Y456194D02*
X225877Y456381D01*
X226286Y456944*
Y453006*
X364445Y456006D02*
X364309Y456381D01*
X364036Y456756*
X363764Y456944*
X363218*
X362945Y456756*
X362673Y456381*
X362536Y456006*
X362400Y455444*
Y454506*
X362536Y453944*
X362673Y453569*
X362945Y453194*
X363218Y453006*
X363764*
X364036Y453194*
X364309Y453569*
X364445Y453944*
X365673Y456194D02*
X365945Y456381D01*
X366355Y456944*
Y453006*
X363832Y386006D02*
X363695Y386381D01*
X363423Y386756*
X363150Y386944*
X362605*
X362332Y386756*
X362059Y386381*
X361923Y386006*
X361786Y385444*
Y384506*
X361923Y383944*
X362059Y383569*
X362332Y383194*
X362605Y383006*
X363150*
X363423Y383194*
X363695Y383569*
X363832Y383944*
X365195Y386006D02*
Y386194D01*
X365332Y386569*
X365468Y386756*
X365741Y386944*
X366286*
X366559Y386756*
X366695Y386569*
X366832Y386194*
Y385819*
X366695Y385444*
X366423Y384881*
X365059Y383006*
X366968*
X363832Y316006D02*
X363695Y316381D01*
X363423Y316756*
X363150Y316944*
X362605*
X362332Y316756*
X362059Y316381*
X361923Y316006*
X361786Y315444*
Y314506*
X361923Y313944*
X362059Y313569*
X362332Y313194*
X362605Y313006*
X363150*
X363423Y313194*
X363695Y313569*
X363832Y313944*
X365332Y316944D02*
X366832D01*
X366014Y315444*
X366423*
X366695Y315256*
X366832Y315069*
X366968Y314506*
Y314131*
X366832Y313569*
X366559Y313194*
X366150Y313006*
X365741*
X365332Y313194*
X365195Y313381*
X365059Y313756*
X363764Y246006D02*
X363627Y246381D01*
X363355Y246756*
X363082Y246944*
X362536*
X362264Y246756*
X361991Y246381*
X361855Y246006*
X361718Y245444*
Y244506*
X361855Y243944*
X361991Y243569*
X362264Y243194*
X362536Y243006*
X363082*
X363355Y243194*
X363627Y243569*
X363764Y243944*
X366355Y246944D02*
X364991Y244319D01*
X367036*
X366355Y246944D02*
Y243006D01*
X363764Y176006D02*
X363627Y176381D01*
X363355Y176756*
X363082Y176944*
X362536*
X362264Y176756*
X361991Y176381*
X361855Y176006*
X361718Y175444*
Y174506*
X361855Y173944*
X361991Y173569*
X362264Y173194*
X362536Y173006*
X363082*
X363355Y173194*
X363627Y173569*
X363764Y173944*
X366764Y176944D02*
X365400D01*
X365264Y175256*
X365400Y175444*
X365809Y175631*
X366218*
X366627Y175444*
X366900Y175069*
X367036Y174506*
X366900Y174131*
X366764Y173569*
X366491Y173194*
X366082Y173006*
X365673*
X365264Y173194*
X365127Y173381*
X364991Y173756*
X220550Y234094D02*
Y230156D01*
Y234094D02*
X221777D01*
X222186Y233906*
X222323Y233719*
X222459Y233344*
Y232969*
X222323Y232594*
X222186Y232406*
X221777Y232219*
X220550*
X221505D02*
X222459Y230156D01*
X223686Y233344D02*
X223959Y233531D01*
X224368Y234094*
Y230156*
X226414Y234094D02*
X226005Y233906D01*
X225732Y233344*
X225595Y232406*
Y231844*
X225732Y230906*
X226005Y230344*
X226414Y230156*
X226686*
X227095Y230344*
X227368Y230906*
X227505Y231844*
Y232406*
X227368Y233344*
X227095Y233906*
X226686Y234094*
X226414*
X221164Y226594D02*
Y222656D01*
Y226594D02*
X222391D01*
X222800Y226406*
X222936Y226219*
X223073Y225844*
Y225469*
X222936Y225094*
X222800Y224906*
X222391Y224719*
X221164*
X222118D02*
X223073Y222656D01*
X224300Y225844D02*
X224573Y226031D01*
X224982Y226594*
Y222656*
X226209Y225844D02*
X226482Y226031D01*
X226891Y226594*
Y222656*
X264705Y256594D02*
Y252656D01*
Y256594D02*
X265932D01*
X266341Y256406*
X266477Y256219*
X266614Y255844*
Y255469*
X266477Y255094*
X266341Y254906*
X265932Y254719*
X264705*
X265659D02*
X266614Y252656D01*
X267977Y255656D02*
Y255844D01*
X268114Y256219*
X268250Y256406*
X268523Y256594*
X269068*
X269341Y256406*
X269477Y256219*
X269614Y255844*
Y255469*
X269477Y255094*
X269205Y254531*
X267841Y252656*
X269750*
X264705Y249094D02*
Y245156D01*
Y249094D02*
X265932D01*
X266341Y248906*
X266477Y248719*
X266614Y248344*
Y247969*
X266477Y247594*
X266341Y247406*
X265932Y247219*
X264705*
X265659D02*
X266614Y245156D01*
X268114Y249094D02*
X269614D01*
X268795Y247594*
X269205*
X269477Y247406*
X269614Y247219*
X269750Y246656*
Y246281*
X269614Y245719*
X269341Y245344*
X268932Y245156*
X268523*
X268114Y245344*
X267977Y245531*
X267841Y245906*
X264636Y241594D02*
Y237656D01*
Y241594D02*
X265864D01*
X266273Y241406*
X266409Y241219*
X266545Y240844*
Y240469*
X266409Y240094*
X266273Y239906*
X265864Y239719*
X264636*
X265591D02*
X266545Y237656D01*
X269136Y241594D02*
X267773Y238969D01*
X269818*
X269136Y241594D02*
Y237656D01*
X264636Y234094D02*
Y230156D01*
Y234094D02*
X265864D01*
X266273Y233906*
X266409Y233719*
X266545Y233344*
Y232969*
X266409Y232594*
X266273Y232406*
X265864Y232219*
X264636*
X265591D02*
X266545Y230156D01*
X269545Y234094D02*
X268182D01*
X268045Y232406*
X268182Y232594*
X268591Y232781*
X269000*
X269409Y232594*
X269682Y232219*
X269818Y231656*
X269682Y231281*
X269545Y230719*
X269273Y230344*
X268864Y230156*
X268455*
X268045Y230344*
X267909Y230531*
X267773Y230906*
X264773Y226594D02*
Y222656D01*
Y226594D02*
X266000D01*
X266409Y226406*
X266545Y226219*
X266682Y225844*
Y225469*
X266545Y225094*
X266409Y224906*
X266000Y224719*
X264773*
X265727D02*
X266682Y222656D01*
X269545Y226031D02*
X269409Y226406D01*
X269000Y226594*
X268727*
X268318Y226406*
X268045Y225844*
X267909Y224906*
Y223969*
X268045Y223219*
X268318Y222844*
X268727Y222656*
X268864*
X269273Y222844*
X269545Y223219*
X269682Y223781*
Y223969*
X269545Y224531*
X269273Y224906*
X268864Y225094*
X268727*
X268318Y224906*
X268045Y224531*
X267909Y223969*
X221505Y256594D02*
Y252656D01*
Y256594D02*
X222732D01*
X223141Y256406*
X223277Y256219*
X223414Y255844*
Y255469*
X223277Y255094*
X223141Y254906*
X222732Y254719*
X221505*
X222459D02*
X223414Y252656D01*
X226550Y256594D02*
X225186Y252656D01*
X224641Y256594D02*
X226550D01*
X221505Y249094D02*
Y245156D01*
Y249094D02*
X222732D01*
X223141Y248906*
X223277Y248719*
X223414Y248344*
Y247969*
X223277Y247594*
X223141Y247406*
X222732Y247219*
X221505*
X222459D02*
X223414Y245156D01*
X225323Y249094D02*
X224914Y248906D01*
X224777Y248531*
Y248156*
X224914Y247781*
X225186Y247594*
X225732Y247406*
X226141Y247219*
X226414Y246844*
X226550Y246469*
Y245906*
X226414Y245531*
X226277Y245344*
X225868Y245156*
X225323*
X224914Y245344*
X224777Y245531*
X224641Y245906*
Y246469*
X224777Y246844*
X225050Y247219*
X225459Y247406*
X226005Y247594*
X226277Y247781*
X226414Y248156*
Y248531*
X226277Y248906*
X225868Y249094*
X225323*
X221573Y241594D02*
Y237656D01*
Y241594D02*
X222800D01*
X223209Y241406*
X223345Y241219*
X223482Y240844*
Y240469*
X223345Y240094*
X223209Y239906*
X222800Y239719*
X221573*
X222527D02*
X223482Y237656D01*
X226482Y240281D02*
X226345Y239719D01*
X226073Y239344*
X225664Y239156*
X225527*
X225118Y239344*
X224845Y239719*
X224709Y240281*
Y240469*
X224845Y241031*
X225118Y241406*
X225527Y241594*
X225664*
X226073Y241406*
X226345Y241031*
X226482Y240281*
Y239344*
X226345Y238406*
X226073Y237844*
X225664Y237656*
X225391*
X224982Y237844*
X224845Y238219*
X443505Y172094D02*
Y168156D01*
Y172094D02*
X444459D01*
X444868Y171906*
X445141Y171531*
X445277Y171156*
X445414Y170594*
Y169656*
X445277Y169094*
X445141Y168719*
X444868Y168344*
X444459Y168156*
X443505*
X446777Y171156D02*
Y171344D01*
X446914Y171719*
X447050Y171906*
X447323Y172094*
X447868*
X448141Y171906*
X448277Y171719*
X448414Y171344*
Y170969*
X448277Y170594*
X448005Y170031*
X446641Y168156*
X448550*
X266750Y290656D02*
X266614Y291031D01*
X266341Y291406*
X266068Y291594*
X265523*
X265250Y291406*
X264977Y291031*
X264841Y290656*
X264705Y290094*
Y289156*
X264841Y288594*
X264977Y288219*
X265250Y287844*
X265523Y287656*
X266068*
X266341Y287844*
X266614Y288219*
X266750Y288594*
X269614Y291031D02*
X269477Y291406D01*
X269068Y291594*
X268795*
X268386Y291406*
X268114Y290844*
X267977Y289906*
Y288969*
X268114Y288219*
X268386Y287844*
X268795Y287656*
X268932*
X269341Y287844*
X269614Y288219*
X269750Y288781*
Y288969*
X269614Y289531*
X269341Y289906*
X268932Y290094*
X268795*
X268386Y289906*
X268114Y289531*
X267977Y288969*
X266632Y305656D02*
X266495Y306031D01*
X266223Y306406*
X265950Y306594*
X265405*
X265132Y306406*
X264859Y306031*
X264723Y305656*
X264586Y305094*
Y304156*
X264723Y303594*
X264859Y303219*
X265132Y302844*
X265405Y302656*
X265950*
X266223Y302844*
X266495Y303219*
X266632Y303594*
X269768Y306594D02*
X268405Y302656D01*
X267859Y306594D02*
X269768D01*
X266682Y320656D02*
X266545Y321031D01*
X266273Y321406*
X266000Y321594*
X265455*
X265182Y321406*
X264909Y321031*
X264773Y320656*
X264636Y320094*
Y319156*
X264773Y318594*
X264909Y318219*
X265182Y317844*
X265455Y317656*
X266000*
X266273Y317844*
X266545Y318219*
X266682Y318594*
X268591Y321594D02*
X268182Y321406D01*
X268045Y321031*
Y320656*
X268182Y320281*
X268455Y320094*
X269000Y319906*
X269409Y319719*
X269682Y319344*
X269818Y318969*
Y318406*
X269682Y318031*
X269545Y317844*
X269136Y317656*
X268591*
X268182Y317844*
X268045Y318031*
X267909Y318406*
Y318969*
X268045Y319344*
X268318Y319719*
X268727Y319906*
X269273Y320094*
X269545Y320281*
X269682Y320656*
Y321031*
X269545Y321406*
X269136Y321594*
X268591*
X266750Y335656D02*
X266614Y336031D01*
X266341Y336406*
X266068Y336594*
X265523*
X265250Y336406*
X264977Y336031*
X264841Y335656*
X264705Y335094*
Y334156*
X264841Y333594*
X264977Y333219*
X265250Y332844*
X265523Y332656*
X266068*
X266341Y332844*
X266614Y333219*
X266750Y333594*
X269750Y335281D02*
X269614Y334719D01*
X269341Y334344*
X268932Y334156*
X268795*
X268386Y334344*
X268114Y334719*
X267977Y335281*
Y335469*
X268114Y336031*
X268386Y336406*
X268795Y336594*
X268932*
X269341Y336406*
X269614Y336031*
X269750Y335281*
Y334344*
X269614Y333406*
X269341Y332844*
X268932Y332656*
X268659*
X268250Y332844*
X268114Y333219*
X147205Y314094D02*
Y311281D01*
X147341Y310719*
X147614Y310344*
X148023Y310156*
X148295*
X148705Y310344*
X148977Y310719*
X149114Y311281*
Y314094*
X152250D02*
X150886Y310156D01*
X150341Y314094D02*
X152250D01*
X263750Y299094D02*
Y295156D01*
Y299094D02*
X264977D01*
X265386Y298906*
X265523Y298719*
X265659Y298344*
Y297969*
X265523Y297594*
X265386Y297406*
X264977Y297219*
X263750*
X264705D02*
X265659Y295156D01*
X266886Y298344D02*
X267159Y298531D01*
X267568Y299094*
Y295156*
X268932Y298156D02*
Y298344D01*
X269068Y298719*
X269205Y298906*
X269477Y299094*
X270023*
X270295Y298906*
X270432Y298719*
X270568Y298344*
Y297969*
X270432Y297594*
X270159Y297031*
X268795Y295156*
X270705*
X263750Y314094D02*
Y310156D01*
Y314094D02*
X264977D01*
X265386Y313906*
X265523Y313719*
X265659Y313344*
Y312969*
X265523Y312594*
X265386Y312406*
X264977Y312219*
X263750*
X264705D02*
X265659Y310156D01*
X266886Y313344D02*
X267159Y313531D01*
X267568Y314094*
Y310156*
X269068Y314094D02*
X270568D01*
X269750Y312594*
X270159*
X270432Y312406*
X270568Y312219*
X270705Y311656*
Y311281*
X270568Y310719*
X270295Y310344*
X269886Y310156*
X269477*
X269068Y310344*
X268932Y310531*
X268795Y310906*
X263682Y329094D02*
Y325156D01*
Y329094D02*
X264909D01*
X265318Y328906*
X265455Y328719*
X265591Y328344*
Y327969*
X265455Y327594*
X265318Y327406*
X264909Y327219*
X263682*
X264636D02*
X265591Y325156D01*
X266818Y328344D02*
X267091Y328531D01*
X267500Y329094*
Y325156*
X270091Y329094D02*
X268727Y326469D01*
X270773*
X270091Y329094D02*
Y325156D01*
X263682Y344094D02*
Y340156D01*
Y344094D02*
X264909D01*
X265318Y343906*
X265455Y343719*
X265591Y343344*
Y342969*
X265455Y342594*
X265318Y342406*
X264909Y342219*
X263682*
X264636D02*
X265591Y340156D01*
X266818Y343344D02*
X267091Y343531D01*
X267500Y344094*
Y340156*
X270500Y344094D02*
X269136D01*
X269000Y342406*
X269136Y342594*
X269545Y342781*
X269955*
X270364Y342594*
X270636Y342219*
X270773Y341656*
X270636Y341281*
X270500Y340719*
X270227Y340344*
X269818Y340156*
X269409*
X269000Y340344*
X268864Y340531*
X268727Y340906*
X220618Y299094D02*
Y295156D01*
Y299094D02*
X221845D01*
X222255Y298906*
X222391Y298719*
X222527Y298344*
Y297969*
X222391Y297594*
X222255Y297406*
X221845Y297219*
X220618*
X221573D02*
X222527Y295156D01*
X223755Y298344D02*
X224027Y298531D01*
X224436Y299094*
Y295156*
X227300Y298531D02*
X227164Y298906D01*
X226755Y299094*
X226482*
X226073Y298906*
X225800Y298344*
X225664Y297406*
Y296469*
X225800Y295719*
X226073Y295344*
X226482Y295156*
X226618*
X227027Y295344*
X227300Y295719*
X227436Y296281*
Y296469*
X227300Y297031*
X227027Y297406*
X226618Y297594*
X226482*
X226073Y297406*
X225800Y297031*
X225664Y296469*
X220550Y314094D02*
Y310156D01*
Y314094D02*
X221777D01*
X222186Y313906*
X222323Y313719*
X222459Y313344*
Y312969*
X222323Y312594*
X222186Y312406*
X221777Y312219*
X220550*
X221505D02*
X222459Y310156D01*
X223686Y313344D02*
X223959Y313531D01*
X224368Y314094*
Y310156*
X227505Y314094D02*
X226141Y310156D01*
X225595Y314094D02*
X227505D01*
X220550Y329094D02*
Y325156D01*
Y329094D02*
X221777D01*
X222186Y328906*
X222323Y328719*
X222459Y328344*
Y327969*
X222323Y327594*
X222186Y327406*
X221777Y327219*
X220550*
X221505D02*
X222459Y325156D01*
X223686Y328344D02*
X223959Y328531D01*
X224368Y329094*
Y325156*
X226277Y329094D02*
X225868Y328906D01*
X225732Y328531*
Y328156*
X225868Y327781*
X226141Y327594*
X226686Y327406*
X227095Y327219*
X227368Y326844*
X227505Y326469*
Y325906*
X227368Y325531*
X227232Y325344*
X226823Y325156*
X226277*
X225868Y325344*
X225732Y325531*
X225595Y325906*
Y326469*
X225732Y326844*
X226005Y327219*
X226414Y327406*
X226959Y327594*
X227232Y327781*
X227368Y328156*
Y328531*
X227232Y328906*
X226823Y329094*
X226277*
X220618Y344094D02*
Y340156D01*
Y344094D02*
X221845D01*
X222255Y343906*
X222391Y343719*
X222527Y343344*
Y342969*
X222391Y342594*
X222255Y342406*
X221845Y342219*
X220618*
X221573D02*
X222527Y340156D01*
X223755Y343344D02*
X224027Y343531D01*
X224436Y344094*
Y340156*
X227436Y342781D02*
X227300Y342219D01*
X227027Y341844*
X226618Y341656*
X226482*
X226073Y341844*
X225800Y342219*
X225664Y342781*
Y342969*
X225800Y343531*
X226073Y343906*
X226482Y344094*
X226618*
X227027Y343906*
X227300Y343531*
X227436Y342781*
Y341844*
X227300Y340906*
X227027Y340344*
X226618Y340156*
X226345*
X225936Y340344*
X225800Y340719*
X444705Y191594D02*
Y187656D01*
Y191594D02*
X445659D01*
X446068Y191406*
X446341Y191031*
X446477Y190656*
X446614Y190094*
Y189156*
X446477Y188594*
X446341Y188219*
X446068Y187844*
X445659Y187656*
X444705*
X448114Y191594D02*
X449614D01*
X448795Y190094*
X449205*
X449477Y189906*
X449614Y189719*
X449750Y189156*
Y188781*
X449614Y188219*
X449341Y187844*
X448932Y187656*
X448523*
X448114Y187844*
X447977Y188031*
X447841Y188406*
X203491Y156944D02*
Y153944D01*
X203355Y153381*
X203218Y153194*
X202945Y153006*
X202673*
X202400Y153194*
X202264Y153381*
X202127Y153944*
Y154319*
X204991Y156944D02*
X206491D01*
X205673Y155444*
X206082*
X206355Y155256*
X206491Y155069*
X206627Y154506*
Y154131*
X206491Y153569*
X206218Y153194*
X205809Y153006*
X205400*
X204991Y153194*
X204855Y153381*
X204718Y153756*
X138136Y141594D02*
Y137656D01*
Y141594D02*
X139364D01*
X139773Y141406*
X139909Y141219*
X140045Y140844*
Y140469*
X139909Y140094*
X139773Y139906*
X139364Y139719*
X138136*
X139091D02*
X140045Y137656D01*
X141409Y140656D02*
Y140844D01*
X141545Y141219*
X141682Y141406*
X141955Y141594*
X142500*
X142773Y141406*
X142909Y141219*
X143045Y140844*
Y140469*
X142909Y140094*
X142636Y139531*
X141273Y137656*
X143182*
X145227Y141594D02*
X144818Y141406D01*
X144545Y140844*
X144409Y139906*
Y139344*
X144545Y138406*
X144818Y137844*
X145227Y137656*
X145500*
X145909Y137844*
X146182Y138406*
X146318Y139344*
Y139906*
X146182Y140844*
X145909Y141406*
X145500Y141594*
X145227*
X138750Y134094D02*
Y130156D01*
Y134094D02*
X139977D01*
X140386Y133906*
X140523Y133719*
X140659Y133344*
Y132969*
X140523Y132594*
X140386Y132406*
X139977Y132219*
X138750*
X139705D02*
X140659Y130156D01*
X142023Y133156D02*
Y133344D01*
X142159Y133719*
X142295Y133906*
X142568Y134094*
X143114*
X143386Y133906*
X143523Y133719*
X143659Y133344*
Y132969*
X143523Y132594*
X143250Y132031*
X141886Y130156*
X143795*
X145023Y133344D02*
X145295Y133531D01*
X145705Y134094*
Y130156*
X138136Y126594D02*
Y122656D01*
Y126594D02*
X139364D01*
X139773Y126406*
X139909Y126219*
X140045Y125844*
Y125469*
X139909Y125094*
X139773Y124906*
X139364Y124719*
X138136*
X139091D02*
X140045Y122656D01*
X141409Y125656D02*
Y125844D01*
X141545Y126219*
X141682Y126406*
X141955Y126594*
X142500*
X142773Y126406*
X142909Y126219*
X143045Y125844*
Y125469*
X142909Y125094*
X142636Y124531*
X141273Y122656*
X143182*
X144545Y125656D02*
Y125844D01*
X144682Y126219*
X144818Y126406*
X145091Y126594*
X145636*
X145909Y126406*
X146045Y126219*
X146182Y125844*
Y125469*
X146045Y125094*
X145773Y124531*
X144409Y122656*
X146318*
X171786Y151244D02*
Y147306D01*
Y151244D02*
X172741D01*
X173150Y151056*
X173423Y150681*
X173559Y150306*
X173695Y149744*
Y148806*
X173559Y148244*
X173423Y147869*
X173150Y147494*
X172741Y147306*
X171786*
X176286Y151244D02*
X174923Y148619D01*
X176968*
X176286Y151244D02*
Y147306D01*
X148227Y303156D02*
X148091Y303531D01*
X147818Y303906*
X147545Y304094*
X147000*
X146727Y303906*
X146455Y303531*
X146318Y303156*
X146182Y302594*
Y301656*
X146318Y301094*
X146455Y300719*
X146727Y300344*
X147000Y300156*
X147545*
X147818Y300344*
X148091Y300719*
X148227Y301094*
X149455Y303344D02*
X149727Y303531D01*
X150136Y304094*
Y300156*
X152182Y304094D02*
X151773Y303906D01*
X151500Y303344*
X151364Y302406*
Y301844*
X151500Y300906*
X151773Y300344*
X152182Y300156*
X152455*
X152864Y300344*
X153136Y300906*
X153273Y301844*
Y302406*
X153136Y303344*
X152864Y303906*
X152455Y304094*
X152182*
X337468Y446944D02*
Y444131D01*
X337605Y443569*
X337877Y443194*
X338286Y443006*
X338559*
X338968Y443194*
X339241Y443569*
X339377Y444131*
Y446944*
X340605Y446194D02*
X340877Y446381D01*
X341286Y446944*
Y443006*
X336855Y377557D02*
Y374745D01*
X336991Y374182*
X337264Y373807*
X337673Y373620*
X337945*
X338355Y373807*
X338627Y374182*
X338764Y374745*
Y377557*
X340127Y376620D02*
Y376807D01*
X340264Y377182*
X340400Y377370*
X340673Y377557*
X341218*
X341491Y377370*
X341627Y377182*
X341764Y376807*
Y376432*
X341627Y376057*
X341355Y375495*
X339991Y373620*
X341900*
X336855Y307557D02*
Y304745D01*
X336991Y304182*
X337264Y303807*
X337673Y303620*
X337945*
X338355Y303807*
X338627Y304182*
X338764Y304745*
Y307557*
X340264D02*
X341764D01*
X340945Y306057*
X341355*
X341627Y305870*
X341764Y305682*
X341900Y305120*
Y304745*
X341764Y304182*
X341491Y303807*
X341082Y303620*
X340673*
X340264Y303807*
X340127Y303995*
X339991Y304370*
X336786Y237626D02*
Y234813D01*
X336923Y234251*
X337195Y233876*
X337605Y233688*
X337877*
X338286Y233876*
X338559Y234251*
X338695Y234813*
Y237626*
X341286D02*
X339923Y235001D01*
X341968*
X341286Y237626D02*
Y233688D01*
X336786Y167626D02*
Y164813D01*
X336923Y164251*
X337195Y163876*
X337605Y163688*
X337877*
X338286Y163876*
X338559Y164251*
X338695Y164813*
Y167626*
X341695D02*
X340332D01*
X340195Y165938*
X340332Y166126*
X340741Y166313*
X341150*
X341559Y166126*
X341832Y165751*
X341968Y165188*
X341832Y164813*
X341695Y164251*
X341423Y163876*
X341014Y163688*
X340605*
X340195Y163876*
X340059Y164063*
X339923Y164438*
X245173Y215844D02*
X245445Y216031D01*
X245855Y216594*
Y212656*
X247082Y216594D02*
Y212656D01*
X248445Y215281D02*
X247082Y213406D01*
X247627Y214156D02*
X248582Y212656D01*
X268773Y153594D02*
X270273D01*
X269455Y152094*
X269864*
X270136Y151906*
X270273Y151719*
X270409Y151156*
Y150781*
X270273Y150219*
X270000Y149844*
X269591Y149656*
X269182*
X268773Y149844*
X268636Y150031*
X268500Y150406*
X271773Y152656D02*
Y152844D01*
X271909Y153219*
X272045Y153406*
X272318Y153594*
X272864*
X273136Y153406*
X273273Y153219*
X273409Y152844*
Y152469*
X273273Y152094*
X273000Y151531*
X271636Y149656*
X273545*
X274773Y152844D02*
X275045Y153031D01*
X275455Y153594*
Y149656*
X268091Y147594D02*
X267682Y147406D01*
X267409Y146844*
X267273Y145906*
Y145344*
X267409Y144406*
X267682Y143844*
X268091Y143656*
X268364*
X268773Y143844*
X269045Y144406*
X269182Y145344*
Y145906*
X269045Y146844*
X268773Y147406*
X268364Y147594*
X268091*
X271227D02*
X270818Y147406D01*
X270545Y146844*
X270409Y145906*
Y145344*
X270545Y144406*
X270818Y143844*
X271227Y143656*
X271500*
X271909Y143844*
X272182Y144406*
X272318Y145344*
Y145906*
X272182Y146844*
X271909Y147406*
X271500Y147594*
X271227*
X274364D02*
X273955Y147406D01*
X273682Y146844*
X273545Y145906*
Y145344*
X273682Y144406*
X273955Y143844*
X274364Y143656*
X274636*
X275045Y143844*
X275318Y144406*
X275455Y145344*
Y145906*
X275318Y146844*
X275045Y147406*
X274636Y147594*
X274364*
X269318Y141594D02*
X268909Y141406D01*
X268636Y140844*
X268500Y139906*
Y139344*
X268636Y138406*
X268909Y137844*
X269318Y137656*
X269591*
X270000Y137844*
X270273Y138406*
X270409Y139344*
Y139906*
X270273Y140844*
X270000Y141406*
X269591Y141594*
X269318*
X272455D02*
X272045Y141406D01*
X271773Y140844*
X271636Y139906*
Y139344*
X271773Y138406*
X272045Y137844*
X272455Y137656*
X272727*
X273136Y137844*
X273409Y138406*
X273545Y139344*
Y139906*
X273409Y140844*
X273136Y141406*
X272727Y141594*
X272455*
X274773Y140844D02*
X275045Y141031D01*
X275455Y141594*
Y137656*
X269318Y135594D02*
X268909Y135406D01*
X268636Y134844*
X268500Y133906*
Y133344*
X268636Y132406*
X268909Y131844*
X269318Y131656*
X269591*
X270000Y131844*
X270273Y132406*
X270409Y133344*
Y133906*
X270273Y134844*
X270000Y135406*
X269591Y135594*
X269318*
X271636Y134844D02*
X271909Y135031D01*
X272318Y135594*
Y131656*
X274364Y135594D02*
X273955Y135406D01*
X273682Y134844*
X273545Y133906*
Y133344*
X273682Y132406*
X273955Y131844*
X274364Y131656*
X274636*
X275045Y131844*
X275318Y132406*
X275455Y133344*
Y133906*
X275318Y134844*
X275045Y135406*
X274636Y135594*
X274364*
X270545Y129594D02*
X270136Y129406D01*
X269864Y128844*
X269727Y127906*
Y127344*
X269864Y126406*
X270136Y125844*
X270545Y125656*
X270818*
X271227Y125844*
X271500Y126406*
X271636Y127344*
Y127906*
X271500Y128844*
X271227Y129406*
X270818Y129594*
X270545*
X272864Y128844D02*
X273136Y129031D01*
X273545Y129594*
Y125656*
X274773Y128844D02*
X275045Y129031D01*
X275455Y129594*
Y125656*
X269000Y122844D02*
X269273Y123031D01*
X269682Y123594*
Y119656*
X271727Y123594D02*
X271318Y123406D01*
X271045Y122844*
X270909Y121906*
Y121344*
X271045Y120406*
X271318Y119844*
X271727Y119656*
X272000*
X272409Y119844*
X272682Y120406*
X272818Y121344*
Y121906*
X272682Y122844*
X272409Y123406*
X272000Y123594*
X271727*
X274864D02*
X274455Y123406D01*
X274182Y122844*
X274045Y121906*
Y121344*
X274182Y120406*
X274455Y119844*
X274864Y119656*
X275136*
X275545Y119844*
X275818Y120406*
X275955Y121344*
Y121906*
X275818Y122844*
X275545Y123406*
X275136Y123594*
X274864*
X269727Y116844D02*
X270000Y117031D01*
X270409Y117594*
Y113656*
X272455Y117594D02*
X272045Y117406D01*
X271773Y116844*
X271636Y115906*
Y115344*
X271773Y114406*
X272045Y113844*
X272455Y113656*
X272727*
X273136Y113844*
X273409Y114406*
X273545Y115344*
Y115906*
X273409Y116844*
X273136Y117406*
X272727Y117594*
X272455*
X274773Y116844D02*
X275045Y117031D01*
X275455Y117594*
Y113656*
X265841Y109844D02*
X266114Y110031D01*
X266523Y110594*
Y106656*
X267750Y108906D02*
X270205D01*
X267750Y107781D02*
X270205D01*
X272250Y110594D02*
X271977Y110406D01*
X271705Y110031*
X271568Y109656*
X271432Y109094*
Y108156*
X271568Y107594*
X271705Y107219*
X271977Y106844*
X272250Y106656*
X272795*
X273068Y106844*
X273341Y107219*
X273477Y107594*
X273614Y108156*
Y109094*
X273477Y109656*
X273341Y110031*
X273068Y110406*
X272795Y110594*
X272250*
X274841D02*
Y106656D01*
Y110594D02*
X276750Y106656D01*
Y110594D02*
Y106656D01*
X278250Y106844D02*
X278114Y106656D01*
X277977Y106844*
X278114Y107031*
X278250Y106844*
Y106469*
X278114Y106094*
X277977Y105906*
X283432Y110594D02*
X283023Y110406D01*
X282750Y109844*
X282614Y108906*
Y108344*
X282750Y107406*
X283023Y106844*
X283432Y106656*
X283705*
X284114Y106844*
X284386Y107406*
X284523Y108344*
Y108906*
X284386Y109844*
X284114Y110406*
X283705Y110594*
X283432*
X285750Y108906D02*
X288205D01*
X285750Y107781D02*
X288205D01*
X290250Y110594D02*
X289977Y110406D01*
X289705Y110031*
X289568Y109656*
X289432Y109094*
Y108156*
X289568Y107594*
X289705Y107219*
X289977Y106844*
X290250Y106656*
X290795*
X291068Y106844*
X291341Y107219*
X291477Y107594*
X291614Y108156*
Y109094*
X291477Y109656*
X291341Y110031*
X291068Y110406*
X290795Y110594*
X290250*
X292841D02*
Y106656D01*
Y110594D02*
X294614D01*
X292841Y108719D02*
X293932D01*
X295841Y110594D02*
Y106656D01*
Y110594D02*
X297614D01*
X295841Y108719D02*
X296932D01*
X280000Y147594D02*
Y143656D01*
Y147594D02*
X281773D01*
X280000Y145719D02*
X281091D01*
X283000Y147594D02*
Y144781D01*
X283136Y144219*
X283409Y143844*
X283818Y143656*
X284091*
X284500Y143844*
X284773Y144219*
X284909Y144781*
Y147594*
X286136D02*
Y143656D01*
X287773*
X289000Y147594D02*
Y143656D01*
X290636*
X280000Y140844D02*
X280273Y141031D01*
X280682Y141594*
Y137656*
X284364Y142344D02*
X281909Y136344D01*
X285727Y140656D02*
Y140844D01*
X285864Y141219*
X286000Y141406*
X286273Y141594*
X286818*
X287091Y141406*
X287227Y141219*
X287364Y140844*
Y140469*
X287227Y140094*
X286955Y139531*
X285591Y137656*
X287500*
X280000Y134844D02*
X280273Y135031D01*
X280682Y135594*
Y131656*
X284364Y136344D02*
X281909Y130344D01*
X286955Y135594D02*
X285591Y132969D01*
X287636*
X286955Y135594D02*
Y131656D01*
X280000Y128844D02*
X280273Y129031D01*
X280682Y129594*
Y125656*
X284364Y130344D02*
X281909Y124344D01*
X286273Y129594D02*
X285864Y129406D01*
X285727Y129031*
Y128656*
X285864Y128281*
X286136Y128094*
X286682Y127906*
X287091Y127719*
X287364Y127344*
X287500Y126969*
Y126406*
X287364Y126031*
X287227Y125844*
X286818Y125656*
X286273*
X285864Y125844*
X285727Y126031*
X285591Y126406*
Y126969*
X285727Y127344*
X286000Y127719*
X286409Y127906*
X286955Y128094*
X287227Y128281*
X287364Y128656*
Y129031*
X287227Y129406*
X286818Y129594*
X286273*
X280000Y122844D02*
X280273Y123031D01*
X280682Y123594*
Y119656*
X284364Y124344D02*
X281909Y118344D01*
X285591Y122844D02*
X285864Y123031D01*
X286273Y123594*
Y119656*
X289136Y123031D02*
X289000Y123406D01*
X288591Y123594*
X288318*
X287909Y123406*
X287636Y122844*
X287500Y121906*
Y120969*
X287636Y120219*
X287909Y119844*
X288318Y119656*
X288455*
X288864Y119844*
X289136Y120219*
X289273Y120781*
Y120969*
X289136Y121531*
X288864Y121906*
X288455Y122094*
X288318*
X287909Y121906*
X287636Y121531*
X287500Y120969*
X280000Y116844D02*
X280273Y117031D01*
X280682Y117594*
Y113656*
X284364Y118344D02*
X281909Y112344D01*
X285864Y117594D02*
X287364D01*
X286545Y116094*
X286955*
X287227Y115906*
X287364Y115719*
X287500Y115156*
Y114781*
X287364Y114219*
X287091Y113844*
X286682Y113656*
X286273*
X285864Y113844*
X285727Y114031*
X285591Y114406*
X288864Y116656D02*
Y116844D01*
X289000Y117219*
X289136Y117406*
X289409Y117594*
X289955*
X290227Y117406*
X290364Y117219*
X290500Y116844*
Y116469*
X290364Y116094*
X290091Y115531*
X288727Y113656*
X290636*
X281909Y153031D02*
X281636Y153406D01*
X281227Y153594*
X280682*
X280273Y153406*
X280000Y153031*
Y152656*
X280136Y152281*
X280273Y152094*
X280545Y151906*
X281364Y151531*
X281636Y151344*
X281773Y151156*
X281909Y150781*
Y150219*
X281636Y149844*
X281227Y149656*
X280682*
X280273Y149844*
X280000Y150219*
X284091Y153594D02*
Y149656D01*
X283136Y153594D02*
X285045D01*
X286273D02*
Y149656D01*
Y153594D02*
X288045D01*
X286273Y151719D02*
X287364D01*
X286273Y149656D02*
X288045D01*
X289273Y153594D02*
Y149656D01*
Y153594D02*
X290500D01*
X290909Y153406*
X291045Y153219*
X291182Y152844*
Y152281*
X291045Y151906*
X290909Y151719*
X290500Y151531*
X289273*
X235173Y290844D02*
X235445Y291031D01*
X235855Y291594*
Y287656*
X237082Y291594D02*
Y287656D01*
X238445Y290281D02*
X237082Y288406D01*
X237627Y289156D02*
X238582Y287656D01*
X240536Y284094D02*
X239173Y281469D01*
X241218*
X240536Y284094D02*
Y280156D01*
X242718Y284094D02*
X244218D01*
X243400Y282594*
X243809*
X244082Y282406*
X244218Y282219*
X244355Y281656*
Y281281*
X244218Y280719*
X243945Y280344*
X243536Y280156*
X243127*
X242718Y280344*
X242582Y280531*
X242445Y280906*
X245582Y284094D02*
Y280156D01*
X246945Y282781D02*
X245582Y280906D01*
X246127Y281656D02*
X247082Y280156D01*
X254173Y282406D02*
Y282594D01*
X254036Y282781*
X253900*
X253764Y282594*
X253627Y282219*
X253355Y281281*
X253082Y280719*
X252809Y280344*
X252536Y280156*
X251991*
X251718Y280344*
X251582Y280531*
X251445Y280906*
Y281281*
X251582Y281656*
X251718Y281844*
X252673Y282594*
X252809Y282781*
X252945Y283156*
Y283531*
X252809Y283906*
X252536Y284094*
X252264Y283906*
X252127Y283531*
Y283156*
X252264Y282594*
X252536Y282031*
X253218Y280719*
X253491Y280344*
X253764Y280156*
X254036*
X254173Y280344*
Y280531*
X259355Y284094D02*
X258945Y283906D01*
X258673Y283344*
X258536Y282406*
Y281844*
X258673Y280906*
X258945Y280344*
X259355Y280156*
X259627*
X260036Y280344*
X260309Y280906*
X260445Y281844*
Y282406*
X260309Y283344*
X260036Y283906*
X259627Y284094*
X259355*
X261809Y280531D02*
X261673Y280344D01*
X261809Y280156*
X261945Y280344*
X261809Y280531*
X263173Y283344D02*
X263445Y283531D01*
X263855Y284094*
Y280156*
X265082Y282781D02*
Y280906D01*
X265218Y280344*
X265491Y280156*
X265900*
X266173Y280344*
X266582Y280906*
Y282781D02*
Y280156D01*
X267809Y284094D02*
Y280156D01*
Y284094D02*
X269582D01*
X267809Y282219D02*
X268900D01*
X163750Y125844D02*
X164023Y126031D01*
X164432Y126594*
Y122656*
X166477Y126594D02*
X166068Y126406D01*
X165795Y125844*
X165659Y124906*
Y124344*
X165795Y123406*
X166068Y122844*
X166477Y122656*
X166750*
X167159Y122844*
X167432Y123406*
X167568Y124344*
Y124906*
X167432Y125844*
X167159Y126406*
X166750Y126594*
X166477*
X169614D02*
X169205Y126406D01*
X168932Y125844*
X168795Y124906*
Y124344*
X168932Y123406*
X169205Y122844*
X169614Y122656*
X169886*
X170295Y122844*
X170568Y123406*
X170705Y124344*
Y124906*
X170568Y125844*
X170295Y126406*
X169886Y126594*
X169614*
X251105Y360844D02*
X251377Y361031D01*
X251786Y361594*
Y357656*
X253832Y361594D02*
X253423Y361406D01*
X253150Y360844*
X253014Y359906*
Y359344*
X253150Y358406*
X253423Y357844*
X253832Y357656*
X254105*
X254514Y357844*
X254786Y358406*
X254923Y359344*
Y359906*
X254786Y360844*
X254514Y361406*
X254105Y361594*
X253832*
X256150D02*
Y357656D01*
X257514Y360281D02*
X256150Y358406D01*
X256695Y359156D02*
X257650Y357656D01*
X144673Y289094D02*
X144264Y288906D01*
X143991Y288344*
X143855Y287406*
Y286844*
X143991Y285906*
X144264Y285344*
X144673Y285156*
X144945*
X145355Y285344*
X145627Y285906*
X145764Y286844*
Y287406*
X145627Y288344*
X145355Y288906*
X144945Y289094*
X144673*
X147127Y285531D02*
X146991Y285344D01*
X147127Y285156*
X147264Y285344*
X147127Y285531*
X148491Y288344D02*
X148764Y288531D01*
X149173Y289094*
Y285156*
X150400Y287781D02*
Y285906D01*
X150536Y285344*
X150809Y285156*
X151218*
X151491Y285344*
X151900Y285906*
Y287781D02*
Y285156D01*
X153127Y289094D02*
Y285156D01*
Y289094D02*
X154900D01*
X153127Y287219D02*
X154218D01*
X373386Y378344D02*
X373659Y378531D01*
X374068Y379094*
Y375156*
X376114Y379094D02*
X375705Y378906D01*
X375432Y378344*
X375295Y377406*
Y376844*
X375432Y375906*
X375705Y375344*
X376114Y375156*
X376386*
X376795Y375344*
X377068Y375906*
X377205Y376844*
Y377406*
X377068Y378344*
X376795Y378906*
X376386Y379094*
X376114*
X379250D02*
X378841Y378906D01*
X378568Y378344*
X378432Y377406*
Y376844*
X378568Y375906*
X378841Y375344*
X379250Y375156*
X379523*
X379932Y375344*
X380205Y375906*
X380341Y376844*
Y377406*
X380205Y378344*
X379932Y378906*
X379523Y379094*
X379250*
X381568Y377781D02*
Y375906D01*
X381705Y375344*
X381977Y375156*
X382386*
X382659Y375344*
X383068Y375906*
Y377781D02*
Y375156D01*
X384295Y379094D02*
Y375156D01*
Y379094D02*
X386068D01*
X384295Y377219D02*
X385386D01*
X373386Y308344D02*
X373659Y308531D01*
X374068Y309094*
Y305156*
X376114Y309094D02*
X375705Y308906D01*
X375432Y308344*
X375295Y307406*
Y306844*
X375432Y305906*
X375705Y305344*
X376114Y305156*
X376386*
X376795Y305344*
X377068Y305906*
X377205Y306844*
Y307406*
X377068Y308344*
X376795Y308906*
X376386Y309094*
X376114*
X379250D02*
X378841Y308906D01*
X378568Y308344*
X378432Y307406*
Y306844*
X378568Y305906*
X378841Y305344*
X379250Y305156*
X379523*
X379932Y305344*
X380205Y305906*
X380341Y306844*
Y307406*
X380205Y308344*
X379932Y308906*
X379523Y309094*
X379250*
X381568Y307781D02*
Y305906D01*
X381705Y305344*
X381977Y305156*
X382386*
X382659Y305344*
X383068Y305906*
Y307781D02*
Y305156D01*
X384295Y309094D02*
Y305156D01*
Y309094D02*
X386068D01*
X384295Y307219D02*
X385386D01*
X373386Y238344D02*
X373659Y238531D01*
X374068Y239094*
Y235156*
X376114Y239094D02*
X375705Y238906D01*
X375432Y238344*
X375295Y237406*
Y236844*
X375432Y235906*
X375705Y235344*
X376114Y235156*
X376386*
X376795Y235344*
X377068Y235906*
X377205Y236844*
Y237406*
X377068Y238344*
X376795Y238906*
X376386Y239094*
X376114*
X379250D02*
X378841Y238906D01*
X378568Y238344*
X378432Y237406*
Y236844*
X378568Y235906*
X378841Y235344*
X379250Y235156*
X379523*
X379932Y235344*
X380205Y235906*
X380341Y236844*
Y237406*
X380205Y238344*
X379932Y238906*
X379523Y239094*
X379250*
X381568Y237781D02*
Y235906D01*
X381705Y235344*
X381977Y235156*
X382386*
X382659Y235344*
X383068Y235906*
Y237781D02*
Y235156D01*
X384295Y239094D02*
Y235156D01*
Y239094D02*
X386068D01*
X384295Y237219D02*
X385386D01*
X373386Y168344D02*
X373659Y168531D01*
X374068Y169094*
Y165156*
X376114Y169094D02*
X375705Y168906D01*
X375432Y168344*
X375295Y167406*
Y166844*
X375432Y165906*
X375705Y165344*
X376114Y165156*
X376386*
X376795Y165344*
X377068Y165906*
X377205Y166844*
Y167406*
X377068Y168344*
X376795Y168906*
X376386Y169094*
X376114*
X379250D02*
X378841Y168906D01*
X378568Y168344*
X378432Y167406*
Y166844*
X378568Y165906*
X378841Y165344*
X379250Y165156*
X379523*
X379932Y165344*
X380205Y165906*
X380341Y166844*
Y167406*
X380205Y168344*
X379932Y168906*
X379523Y169094*
X379250*
X381568Y167781D02*
Y165906D01*
X381705Y165344*
X381977Y165156*
X382386*
X382659Y165344*
X383068Y165906*
Y167781D02*
Y165156D01*
X384295Y169094D02*
Y165156D01*
Y169094D02*
X386068D01*
X384295Y167219D02*
X385386D01*
X373386Y448344D02*
X373659Y448531D01*
X374068Y449094*
Y445156*
X376114Y449094D02*
X375705Y448906D01*
X375432Y448344*
X375295Y447406*
Y446844*
X375432Y445906*
X375705Y445344*
X376114Y445156*
X376386*
X376795Y445344*
X377068Y445906*
X377205Y446844*
Y447406*
X377068Y448344*
X376795Y448906*
X376386Y449094*
X376114*
X379250D02*
X378841Y448906D01*
X378568Y448344*
X378432Y447406*
Y446844*
X378568Y445906*
X378841Y445344*
X379250Y445156*
X379523*
X379932Y445344*
X380205Y445906*
X380341Y446844*
Y447406*
X380205Y448344*
X379932Y448906*
X379523Y449094*
X379250*
X381568Y447781D02*
Y445906D01*
X381705Y445344*
X381977Y445156*
X382386*
X382659Y445344*
X383068Y445906*
Y447781D02*
Y445156D01*
X384295Y449094D02*
Y445156D01*
Y449094D02*
X386068D01*
X384295Y447219D02*
X385386D01*
X163023Y133344D02*
X163295Y133531D01*
X163705Y134094*
Y130156*
X164932Y134094D02*
Y130156D01*
X166295Y132781D02*
X164932Y130906D01*
X165477Y131656D02*
X166432Y130156D01*
X163023Y140844D02*
X163295Y141031D01*
X163705Y141594*
Y137656*
X164932Y141594D02*
Y137656D01*
X166295Y140281D02*
X164932Y138406D01*
X165477Y139156D02*
X166432Y137656D01*
X355022Y283343D02*
X358303D01*
X355022D02*
Y284366D01*
X355178Y284707*
X355334Y284820*
X355647Y284934*
X356116*
X356428Y284820*
X356584Y284707*
X356741Y284366*
Y283343*
X356116Y286525D02*
X356272Y286298D01*
X356584Y286070*
X357053Y285957*
X357366*
X357834Y286070*
X358147Y286298*
X358303Y286525*
Y286866*
X358147Y287093*
X357834Y287320*
X357366Y287434*
X357053*
X356584Y287320*
X356272Y287093*
X356116Y286866*
Y286525*
X355022Y288457D02*
X358303D01*
X356116Y290048D02*
X356272Y289820D01*
X356584Y289593*
X357053Y289480*
X357366*
X357834Y289593*
X358147Y289820*
X358303Y290048*
Y290389*
X358147Y290616*
X357834Y290843*
X357366Y290957*
X357053*
X356584Y290843*
X356272Y290616*
X356116Y290389*
Y290048*
X355022Y291980D02*
X358303D01*
X356116Y293002D02*
X357678D01*
X358147Y293116*
X358303Y293343*
Y293684*
X358147Y293911*
X357678Y294252*
X356116D02*
X358303D01*
X355022Y297889D02*
X358303D01*
X355022D02*
Y298684D01*
X355178Y299025*
X355491Y299252*
X355803Y299366*
X356272Y299480*
X357053*
X357522Y299366*
X357834Y299252*
X358147Y299025*
X358303Y298684*
Y297889*
X355022Y300502D02*
X358303D01*
X355022D02*
Y301525D01*
X355178Y301866*
X355334Y301980*
X355647Y302093*
X355959*
X356272Y301980*
X356428Y301866*
X356584Y301525*
Y300502*
Y301298D02*
X358303Y302093D01*
X355022Y303116D02*
X358303Y304025D01*
X355022Y304934D02*
X358303Y304025D01*
X355022Y306525D02*
X355178Y306184D01*
X355491Y306070*
X355803*
X356116Y306184*
X356272Y306411*
X356428Y306866*
X356584Y307207*
X356897Y307434*
X357209Y307548*
X357678*
X357991Y307434*
X358147Y307320*
X358303Y306980*
Y306525*
X358147Y306184*
X357991Y306070*
X357678Y305957*
X357209*
X356897Y306070*
X356584Y306298*
X356428Y306639*
X356272Y307093*
X356116Y307320*
X355803Y307434*
X355491*
X355178Y307320*
X355022Y306980*
Y306525*
Y309139D02*
X355178Y308798D01*
X355491Y308684*
X355803*
X356116Y308798*
X356272Y309025*
X356428Y309480*
X356584Y309820*
X356897Y310048*
X357209Y310161*
X357678*
X357991Y310048*
X358147Y309934*
X358303Y309593*
Y309139*
X358147Y308798*
X357991Y308684*
X357678Y308570*
X357209*
X356897Y308684*
X356584Y308911*
X356428Y309252*
X356272Y309707*
X356116Y309934*
X355803Y310048*
X355491*
X355178Y309934*
X355022Y309593*
Y309139*
X355803Y311298D02*
X355647D01*
X355334Y311411*
X355178Y311525*
X355022Y311752*
Y312207*
X355178Y312434*
X355334Y312548*
X355647Y312661*
X355959*
X356272Y312548*
X356741Y312320*
X358303Y311184*
Y312775*
X355022Y315275D02*
Y314139D01*
X356428Y314025*
X356272Y314139*
X356116Y314480*
Y314820*
X356272Y315161*
X356584Y315389*
X357053Y315502*
X357366Y315389*
X357834Y315275*
X358147Y315048*
X358303Y314707*
Y314366*
X358147Y314025*
X357991Y313911*
X357678Y313798*
X355022Y353343D02*
X358303D01*
X355022D02*
Y354366D01*
X355178Y354707*
X355334Y354820*
X355647Y354934*
X356116*
X356428Y354820*
X356584Y354707*
X356741Y354366*
Y353343*
X356116Y356525D02*
X356272Y356298D01*
X356584Y356070*
X357053Y355957*
X357366*
X357834Y356070*
X358147Y356298*
X358303Y356525*
Y356866*
X358147Y357093*
X357834Y357320*
X357366Y357434*
X357053*
X356584Y357320*
X356272Y357093*
X356116Y356866*
Y356525*
X355022Y358457D02*
X358303D01*
X356116Y360048D02*
X356272Y359820D01*
X356584Y359593*
X357053Y359480*
X357366*
X357834Y359593*
X358147Y359820*
X358303Y360048*
Y360389*
X358147Y360616*
X357834Y360843*
X357366Y360957*
X357053*
X356584Y360843*
X356272Y360616*
X356116Y360389*
Y360048*
X355022Y361980D02*
X358303D01*
X356116Y363002D02*
X357678D01*
X358147Y363116*
X358303Y363343*
Y363684*
X358147Y363911*
X357678Y364252*
X356116D02*
X358303D01*
X355022Y367889D02*
X358303D01*
X355022D02*
Y368684D01*
X355178Y369025*
X355491Y369252*
X355803Y369366*
X356272Y369480*
X357053*
X357522Y369366*
X357834Y369252*
X358147Y369025*
X358303Y368684*
Y367889*
X355022Y370502D02*
X358303D01*
X355022D02*
Y371525D01*
X355178Y371866*
X355334Y371980*
X355647Y372093*
X355959*
X356272Y371980*
X356428Y371866*
X356584Y371525*
Y370502*
Y371298D02*
X358303Y372093D01*
X355022Y373116D02*
X358303Y374025D01*
X355022Y374934D02*
X358303Y374025D01*
X355022Y376525D02*
X355178Y376184D01*
X355491Y376070*
X355803*
X356116Y376184*
X356272Y376411*
X356428Y376866*
X356584Y377207*
X356897Y377434*
X357209Y377548*
X357678*
X357991Y377434*
X358147Y377320*
X358303Y376980*
Y376525*
X358147Y376184*
X357991Y376070*
X357678Y375957*
X357209*
X356897Y376070*
X356584Y376298*
X356428Y376639*
X356272Y377093*
X356116Y377320*
X355803Y377434*
X355491*
X355178Y377320*
X355022Y376980*
Y376525*
Y379139D02*
X355178Y378798D01*
X355491Y378684*
X355803*
X356116Y378798*
X356272Y379025*
X356428Y379480*
X356584Y379820*
X356897Y380048*
X357209Y380161*
X357678*
X357991Y380048*
X358147Y379934*
X358303Y379593*
Y379139*
X358147Y378798*
X357991Y378684*
X357678Y378570*
X357209*
X356897Y378684*
X356584Y378911*
X356428Y379252*
X356272Y379707*
X356116Y379934*
X355803Y380048*
X355491*
X355178Y379934*
X355022Y379593*
Y379139*
X355803Y381298D02*
X355647D01*
X355334Y381411*
X355178Y381525*
X355022Y381752*
Y382207*
X355178Y382434*
X355334Y382548*
X355647Y382661*
X355959*
X356272Y382548*
X356741Y382320*
X358303Y381184*
Y382775*
X355022Y385275D02*
Y384139D01*
X356428Y384025*
X356272Y384139*
X356116Y384480*
Y384820*
X356272Y385161*
X356584Y385389*
X357053Y385502*
X357366Y385389*
X357834Y385275*
X358147Y385048*
X358303Y384707*
Y384366*
X358147Y384025*
X357991Y383911*
X357678Y383798*
X355022Y423343D02*
X358303D01*
X355022D02*
Y424366D01*
X355178Y424707*
X355334Y424820*
X355647Y424934*
X356116*
X356428Y424820*
X356584Y424707*
X356741Y424366*
Y423343*
X356116Y426525D02*
X356272Y426298D01*
X356584Y426070*
X357053Y425957*
X357366*
X357834Y426070*
X358147Y426298*
X358303Y426525*
Y426866*
X358147Y427093*
X357834Y427320*
X357366Y427434*
X357053*
X356584Y427320*
X356272Y427093*
X356116Y426866*
Y426525*
X355022Y428457D02*
X358303D01*
X356116Y430048D02*
X356272Y429820D01*
X356584Y429593*
X357053Y429480*
X357366*
X357834Y429593*
X358147Y429820*
X358303Y430048*
Y430389*
X358147Y430616*
X357834Y430843*
X357366Y430957*
X357053*
X356584Y430843*
X356272Y430616*
X356116Y430389*
Y430048*
X355022Y431980D02*
X358303D01*
X356116Y433002D02*
X357678D01*
X358147Y433116*
X358303Y433343*
Y433684*
X358147Y433911*
X357678Y434252*
X356116D02*
X358303D01*
X355022Y437889D02*
X358303D01*
X355022D02*
Y438684D01*
X355178Y439025*
X355491Y439252*
X355803Y439366*
X356272Y439480*
X357053*
X357522Y439366*
X357834Y439252*
X358147Y439025*
X358303Y438684*
Y437889*
X355022Y440502D02*
X358303D01*
X355022D02*
Y441525D01*
X355178Y441866*
X355334Y441980*
X355647Y442093*
X355959*
X356272Y441980*
X356428Y441866*
X356584Y441525*
Y440502*
Y441298D02*
X358303Y442093D01*
X355022Y443116D02*
X358303Y444025D01*
X355022Y444934D02*
X358303Y444025D01*
X355022Y446525D02*
X355178Y446184D01*
X355491Y446070*
X355803*
X356116Y446184*
X356272Y446411*
X356428Y446866*
X356584Y447207*
X356897Y447434*
X357209Y447548*
X357678*
X357991Y447434*
X358147Y447320*
X358303Y446980*
Y446525*
X358147Y446184*
X357991Y446070*
X357678Y445957*
X357209*
X356897Y446070*
X356584Y446298*
X356428Y446639*
X356272Y447093*
X356116Y447320*
X355803Y447434*
X355491*
X355178Y447320*
X355022Y446980*
Y446525*
Y449139D02*
X355178Y448798D01*
X355491Y448684*
X355803*
X356116Y448798*
X356272Y449025*
X356428Y449480*
X356584Y449820*
X356897Y450048*
X357209Y450161*
X357678*
X357991Y450048*
X358147Y449934*
X358303Y449593*
Y449139*
X358147Y448798*
X357991Y448684*
X357678Y448570*
X357209*
X356897Y448684*
X356584Y448911*
X356428Y449252*
X356272Y449707*
X356116Y449934*
X355803Y450048*
X355491*
X355178Y449934*
X355022Y449593*
Y449139*
X355803Y451298D02*
X355647D01*
X355334Y451411*
X355178Y451525*
X355022Y451752*
Y452207*
X355178Y452434*
X355334Y452548*
X355647Y452661*
X355959*
X356272Y452548*
X356741Y452320*
X358303Y451184*
Y452775*
X355022Y455275D02*
Y454139D01*
X356428Y454025*
X356272Y454139*
X356116Y454480*
Y454820*
X356272Y455161*
X356584Y455389*
X357053Y455502*
X357366Y455389*
X357834Y455275*
X358147Y455048*
X358303Y454707*
Y454366*
X358147Y454025*
X357991Y453911*
X357678Y453798*
X355022Y213343D02*
X358303D01*
X355022D02*
Y214366D01*
X355178Y214707*
X355334Y214820*
X355647Y214934*
X356116*
X356428Y214820*
X356584Y214707*
X356741Y214366*
Y213343*
X356116Y216525D02*
X356272Y216298D01*
X356584Y216070*
X357053Y215957*
X357366*
X357834Y216070*
X358147Y216298*
X358303Y216525*
Y216866*
X358147Y217093*
X357834Y217320*
X357366Y217434*
X357053*
X356584Y217320*
X356272Y217093*
X356116Y216866*
Y216525*
X355022Y218457D02*
X358303D01*
X356116Y220048D02*
X356272Y219820D01*
X356584Y219593*
X357053Y219480*
X357366*
X357834Y219593*
X358147Y219820*
X358303Y220048*
Y220389*
X358147Y220616*
X357834Y220843*
X357366Y220957*
X357053*
X356584Y220843*
X356272Y220616*
X356116Y220389*
Y220048*
X355022Y221980D02*
X358303D01*
X356116Y223002D02*
X357678D01*
X358147Y223116*
X358303Y223343*
Y223684*
X358147Y223911*
X357678Y224252*
X356116D02*
X358303D01*
X355022Y227889D02*
X358303D01*
X355022D02*
Y228684D01*
X355178Y229025*
X355491Y229252*
X355803Y229366*
X356272Y229480*
X357053*
X357522Y229366*
X357834Y229252*
X358147Y229025*
X358303Y228684*
Y227889*
X355022Y230502D02*
X358303D01*
X355022D02*
Y231525D01*
X355178Y231866*
X355334Y231980*
X355647Y232093*
X355959*
X356272Y231980*
X356428Y231866*
X356584Y231525*
Y230502*
Y231298D02*
X358303Y232093D01*
X355022Y233116D02*
X358303Y234025D01*
X355022Y234934D02*
X358303Y234025D01*
X355022Y236525D02*
X355178Y236184D01*
X355491Y236070*
X355803*
X356116Y236184*
X356272Y236411*
X356428Y236866*
X356584Y237207*
X356897Y237434*
X357209Y237548*
X357678*
X357991Y237434*
X358147Y237320*
X358303Y236980*
Y236525*
X358147Y236184*
X357991Y236070*
X357678Y235957*
X357209*
X356897Y236070*
X356584Y236298*
X356428Y236639*
X356272Y237093*
X356116Y237320*
X355803Y237434*
X355491*
X355178Y237320*
X355022Y236980*
Y236525*
Y239139D02*
X355178Y238798D01*
X355491Y238684*
X355803*
X356116Y238798*
X356272Y239025*
X356428Y239480*
X356584Y239820*
X356897Y240048*
X357209Y240161*
X357678*
X357991Y240048*
X358147Y239934*
X358303Y239593*
Y239139*
X358147Y238798*
X357991Y238684*
X357678Y238570*
X357209*
X356897Y238684*
X356584Y238911*
X356428Y239252*
X356272Y239707*
X356116Y239934*
X355803Y240048*
X355491*
X355178Y239934*
X355022Y239593*
Y239139*
X355803Y241298D02*
X355647D01*
X355334Y241411*
X355178Y241525*
X355022Y241752*
Y242207*
X355178Y242434*
X355334Y242548*
X355647Y242661*
X355959*
X356272Y242548*
X356741Y242320*
X358303Y241184*
Y242775*
X355022Y245275D02*
Y244139D01*
X356428Y244025*
X356272Y244139*
X356116Y244480*
Y244820*
X356272Y245161*
X356584Y245389*
X357053Y245502*
X357366Y245389*
X357834Y245275*
X358147Y245048*
X358303Y244707*
Y244366*
X358147Y244025*
X357991Y243911*
X357678Y243798*
X355022Y143343D02*
X358303D01*
X355022D02*
Y144366D01*
X355178Y144707*
X355334Y144820*
X355647Y144934*
X356116*
X356428Y144820*
X356584Y144707*
X356741Y144366*
Y143343*
X356116Y146525D02*
X356272Y146298D01*
X356584Y146070*
X357053Y145957*
X357366*
X357834Y146070*
X358147Y146298*
X358303Y146525*
Y146866*
X358147Y147093*
X357834Y147320*
X357366Y147434*
X357053*
X356584Y147320*
X356272Y147093*
X356116Y146866*
Y146525*
X355022Y148457D02*
X358303D01*
X356116Y150048D02*
X356272Y149820D01*
X356584Y149593*
X357053Y149480*
X357366*
X357834Y149593*
X358147Y149820*
X358303Y150048*
Y150389*
X358147Y150616*
X357834Y150843*
X357366Y150957*
X357053*
X356584Y150843*
X356272Y150616*
X356116Y150389*
Y150048*
X355022Y151980D02*
X358303D01*
X356116Y153002D02*
X357678D01*
X358147Y153116*
X358303Y153343*
Y153684*
X358147Y153911*
X357678Y154252*
X356116D02*
X358303D01*
X355022Y157889D02*
X358303D01*
X355022D02*
Y158684D01*
X355178Y159025*
X355491Y159252*
X355803Y159366*
X356272Y159480*
X357053*
X357522Y159366*
X357834Y159252*
X358147Y159025*
X358303Y158684*
Y157889*
X355022Y160502D02*
X358303D01*
X355022D02*
Y161525D01*
X355178Y161866*
X355334Y161980*
X355647Y162093*
X355959*
X356272Y161980*
X356428Y161866*
X356584Y161525*
Y160502*
Y161298D02*
X358303Y162093D01*
X355022Y163116D02*
X358303Y164025D01*
X355022Y164934D02*
X358303Y164025D01*
X355022Y166525D02*
X355178Y166184D01*
X355491Y166070*
X355803*
X356116Y166184*
X356272Y166411*
X356428Y166866*
X356584Y167207*
X356897Y167434*
X357209Y167548*
X357678*
X357991Y167434*
X358147Y167320*
X358303Y166980*
Y166525*
X358147Y166184*
X357991Y166070*
X357678Y165957*
X357209*
X356897Y166070*
X356584Y166298*
X356428Y166639*
X356272Y167093*
X356116Y167320*
X355803Y167434*
X355491*
X355178Y167320*
X355022Y166980*
Y166525*
Y169139D02*
X355178Y168798D01*
X355491Y168684*
X355803*
X356116Y168798*
X356272Y169025*
X356428Y169480*
X356584Y169820*
X356897Y170048*
X357209Y170161*
X357678*
X357991Y170048*
X358147Y169934*
X358303Y169593*
Y169139*
X358147Y168798*
X357991Y168684*
X357678Y168570*
X357209*
X356897Y168684*
X356584Y168911*
X356428Y169252*
X356272Y169707*
X356116Y169934*
X355803Y170048*
X355491*
X355178Y169934*
X355022Y169593*
Y169139*
X355803Y171298D02*
X355647D01*
X355334Y171411*
X355178Y171525*
X355022Y171752*
Y172207*
X355178Y172434*
X355334Y172548*
X355647Y172661*
X355959*
X356272Y172548*
X356741Y172320*
X358303Y171184*
Y172775*
X355022Y175275D02*
Y174139D01*
X356428Y174025*
X356272Y174139*
X356116Y174480*
Y174820*
X356272Y175161*
X356584Y175389*
X357053Y175502*
X357366Y175389*
X357834Y175275*
X358147Y175048*
X358303Y174707*
Y174366*
X358147Y174025*
X357991Y173911*
X357678Y173798*
G54D61*
X332648Y463234D02*
X333693Y463953D01*
X335261Y466109*
Y451016*
X330818Y392516D02*
Y393234D01*
X331341Y394672*
X331864Y395391*
X332909Y396109*
X335000*
X336045Y395391*
X336568Y394672*
X337091Y393234*
Y391797*
X336568Y390359*
X335523Y388203*
X330295Y381016*
X337614*
X331341Y326109D02*
X337091D01*
X333955Y320359*
X335523*
X336568Y319641*
X337091Y318922*
X337614Y316766*
Y315328*
X337091Y313172*
X336045Y311734*
X334477Y311016*
X332909*
X331341Y311734*
X330818Y312453*
X330295Y313891*
X335261Y256109D02*
X330034Y246047D01*
X337875*
X335261Y256109D02*
Y241016D01*
X336830Y186109D02*
X331602D01*
X331080Y179641*
X331602Y180359*
X333170Y181078*
X334739*
X336307Y180359*
X337352Y178922*
X337875Y176766*
X337352Y175328*
X336830Y173172*
X335784Y171734*
X334216Y171016*
X332648*
X331080Y171734*
X330557Y172453*
X330034Y173891*
G54D62*
X252500Y447500D02*
X282500D01*
G74*
X0Y0D02*
M02*
