*
*
G04 PADS 9.5 Build Number: 522968 generated Gerber (RS-274-X) file*
G04 PC Version=2.1*
*
%IN "Arm Board r1.pcb"*%
*
%MOIN*%
*
%FSLAX35Y35*%
*
*
*
*
G04 PC Standard Apertures*
*
*
G04 Thermal Relief Aperture macro.*
%AMTER*
1,1,$1,0,0*
1,0,$1-$2,0,0*
21,0,$3,$4,0,0,45*
21,0,$3,$4,0,0,135*
%
*
*
G04 Annular Aperture macro.*
%AMANN*
1,1,$1,0,0*
1,0,$2,0,0*
%
*
*
G04 Odd Aperture macro.*
%AMODD*
1,1,$1,0,0*
1,0,$1-0.005,0,0*
%
*
*
G04 PC Custom Aperture Macros*
*
*
*
*
*
*
G04 PC Aperture Table*
*
%ADD010C,0.001*%
%ADD012C,0.07*%
%ADD013C,0.11417*%
%ADD016C,0.06*%
%ADD017C,0.065*%
%ADD018C,0.01*%
%ADD021C,0.036*%
%ADD022C,0.015*%
%ADD034R,0.07X0.07*%
%ADD038R,0.065X0.065*%
%ADD039C,0.05*%
%ADD040C,0.022*%
%ADD042C,0.026*%
*
*
*
*
G04 PC Circuitry*
G04 Layer Name Arm Board r1.pcb - circuitry*
%LPD*%
*
*
G04 PC Custom Flashes*
G04 Layer Name Arm Board r1.pcb - flashes*
%LPD*%
*
*
G04 PC Circuitry*
G04 Layer Name Arm Board r1.pcb - circuitry*
%LPD*%
*
G54D10*
G54D12*
G01X335000Y425000D03*
Y435000D03*
X305000D03*
Y425000D03*
Y415000D03*
X335000Y355000D03*
Y365000D03*
X305000D03*
Y355000D03*
Y345000D03*
X335000Y285000D03*
Y295000D03*
X305000D03*
Y285000D03*
Y275000D03*
X335000Y215000D03*
Y225000D03*
X305000D03*
Y215000D03*
Y205000D03*
X335000Y145000D03*
Y155000D03*
X305000D03*
Y145000D03*
Y135000D03*
X220000Y130000D03*
X210000D03*
X200000D03*
X190000D03*
G54D13*
X195000Y430000D03*
X173346D03*
G54D16*
X135000Y395000D03*
Y405000D03*
X145000Y395000D03*
Y405000D03*
X155000Y395000D03*
Y405000D03*
X165000Y395000D03*
Y405000D03*
X175000Y395000D03*
Y405000D03*
X185000Y395000D03*
Y405000D03*
X195000Y395000D03*
Y405000D03*
X205000Y395000D03*
Y405000D03*
X215000Y395000D03*
Y405000D03*
X225000Y395000D03*
Y405000D03*
X235000Y395000D03*
Y405000D03*
X245000Y395000D03*
Y405000D03*
X255000Y395000D03*
Y405000D03*
X265000Y395000D03*
Y405000D03*
X135000Y165000D03*
Y175000D03*
X145000Y165000D03*
Y175000D03*
X155000Y165000D03*
Y175000D03*
X165000Y165000D03*
Y175000D03*
X175000Y165000D03*
Y175000D03*
X185000Y165000D03*
Y175000D03*
X195000Y165000D03*
Y175000D03*
X205000Y165000D03*
Y175000D03*
X215000Y165000D03*
Y175000D03*
X225000Y165000D03*
Y175000D03*
X235000Y165000D03*
Y175000D03*
X245000Y165000D03*
Y175000D03*
X255000Y165000D03*
Y175000D03*
X265000Y165000D03*
Y175000D03*
G54D17*
X450000Y375000D03*
X460000D03*
X450000Y365000D03*
X460000D03*
X450000Y355000D03*
X460000D03*
X450000Y345000D03*
X460000D03*
X450000Y335000D03*
X460000D03*
X450000Y325000D03*
X460000D03*
X450000Y315000D03*
X460000D03*
X450000Y305000D03*
X460000D03*
X450000Y295000D03*
X460000D03*
X450000Y285000D03*
X460000D03*
X450000Y275000D03*
X460000D03*
X450000Y265000D03*
X460000D03*
X450000Y255000D03*
X460000D03*
X450000Y245000D03*
X460000D03*
X450000Y235000D03*
X460000D03*
X450000Y225000D03*
X460000D03*
X450000Y215000D03*
X460000D03*
X360000Y415000D03*
X370000D03*
X380000D03*
X390000D03*
X400000D03*
X410000D03*
X420000D03*
Y475000D03*
X410000D03*
X400000D03*
X390000D03*
X380000D03*
X370000D03*
X360000D03*
X350000D03*
X360000Y345000D03*
X370000D03*
X380000D03*
X390000D03*
X400000D03*
X410000D03*
X420000D03*
Y405000D03*
X410000D03*
X400000D03*
X390000D03*
X380000D03*
X370000D03*
X360000D03*
X350000D03*
X360000Y275000D03*
X370000D03*
X380000D03*
X390000D03*
X400000D03*
X410000D03*
X420000D03*
Y335000D03*
X410000D03*
X400000D03*
X390000D03*
X380000D03*
X370000D03*
X360000D03*
X350000D03*
X360000Y205000D03*
X370000D03*
X380000D03*
X390000D03*
X400000D03*
X410000D03*
X420000D03*
Y265000D03*
X410000D03*
X400000D03*
X390000D03*
X380000D03*
X370000D03*
X360000D03*
X350000D03*
X360000Y135000D03*
X370000D03*
X380000D03*
X390000D03*
X400000D03*
X410000D03*
X420000D03*
Y195000D03*
X410000D03*
X400000D03*
X390000D03*
X380000D03*
X370000D03*
X360000D03*
X350000D03*
G54D18*
X335000Y112000D02*
X425500D01*
X474500Y161000*
Y260500*
X460000Y275000*
X335000Y112000D02*
X301000D01*
X269500Y143500*
Y176500*
X241000Y205000*
X335000Y114000D02*
X425000D01*
X472500Y161500*
Y252500*
X460000Y265000*
X335000Y114000D02*
X301500D01*
X271500Y144000*
Y177000*
X241500Y207000*
X335000Y116000D02*
X424500D01*
X470500Y162000*
Y244500*
X460000Y255000*
X335000Y116000D02*
X302000D01*
X273500Y144500*
Y177500*
X242000Y209000*
X335000Y118000D02*
X424000D01*
X468500Y162500*
Y236500*
X460000Y245000*
X335000Y118000D02*
X302500D01*
X275500Y145000*
Y178000*
X242500Y211000*
X170500Y125000D02*
X195000D01*
X200000Y130000*
X305000Y128000D02*
X419500D01*
X439500Y148000*
Y214500*
X450000Y225000*
X305000Y128000D02*
X285500Y147500D01*
Y261500*
X304500Y126000D02*
X420000D01*
X450000Y156000*
Y215000*
X304500Y126000D02*
X283500Y147000D01*
Y261500*
X304500Y124000D02*
X422500D01*
X460000Y161500*
Y215000*
X304500Y124000D02*
X304000D01*
X281500Y146500*
Y239500*
X235500Y285500*
Y319500*
X304500Y122000D02*
X423000D01*
X464500Y163500*
Y217000*
X461500Y220000*
X460500*
X460000Y220500*
Y225000*
X304500Y122000D02*
X303500D01*
X279500Y146000*
Y239000*
X233500Y285000*
Y319500*
X305000Y135000D02*
Y155000D01*
X335000Y120000D02*
X423500D01*
X466500Y163000*
Y228500*
X460000Y235000*
X335000Y120000D02*
X303000D01*
X277500Y145500*
Y178500*
X335000Y130000D02*
X323000D01*
X318000Y135000*
X305000*
X335000Y130000D02*
X381500D01*
X385000Y133500*
Y134500*
X385500Y135000*
X390000*
X400000*
X390000D02*
X365500Y159500D01*
Y197000*
X368500Y200000*
X381500*
X385000Y203500*
Y204500*
X385500Y205000*
X390000*
X156000Y155500D02*
X165500D01*
X175000Y165000*
X305000Y155000D02*
Y205000D01*
X145000Y175000D02*
X160000Y190000D01*
Y295000*
X135000Y175000D02*
X145000D01*
Y165000D02*
X135000D01*
Y175000*
X457500Y162500D02*
Y183000D01*
X277500Y178500D02*
Y180000D01*
X246500Y211000*
Y225000*
X416500Y188500D02*
X421500D01*
X425500Y192500*
Y219000*
X422500Y222000*
X416500Y188500D02*
X410000Y195000D01*
X457500Y183000D02*
Y206000D01*
X455000Y208500*
Y230000*
X450000Y235000*
X242500Y211000D02*
Y229000D01*
X246000Y232500*
X241000Y205000D02*
X235000Y211000D01*
Y244500*
X245500Y255000*
X241500Y207000D02*
X237500Y211000D01*
Y239000*
X246000Y247500*
X242000Y209000D02*
X240000Y211000D01*
Y234000*
X246000Y240000*
X305000Y205000D02*
Y215000D01*
Y225000*
X390000Y205000D02*
Y236000D01*
X365000Y261000*
Y268500*
X366500Y270000*
X385000*
X390000Y275000*
X400000Y205000D02*
X390000D01*
X305000Y225000D02*
Y275000D01*
X450000Y235000D02*
Y245000D01*
Y255000*
Y265000*
X283500Y261500D02*
Y284000D01*
X273500Y294000*
X244000*
X240000Y298000*
Y321500*
X246000Y327500*
X285500Y261500D02*
Y288500D01*
X276500Y297500*
X246000*
X305000Y275000D02*
Y285000D01*
X390000Y275000D02*
Y305500D01*
X365000Y330500*
Y338000*
X367000Y340000*
X385000*
X390000Y345000*
X400000Y275000D02*
X390000D01*
X423500Y259500D02*
X415500D01*
X410000Y265000*
X423500Y259500D02*
X425500Y261500D01*
Y282500*
X422500Y285500*
X450000Y265000D02*
Y275000D01*
X455000Y280000*
X463500*
X468500Y285000*
Y445000*
X438500Y475000*
X420000*
X140000Y295000D02*
Y327500D01*
X132500Y335000*
X160000Y295000D02*
Y327500D01*
X167500Y335000*
X305000Y285000D02*
Y295000D01*
Y345000*
X246500Y312500D02*
X252500Y318500D01*
Y345500*
X250500Y347500*
X132500Y335000D02*
X148500D01*
X196000Y382500*
X242500*
X255000Y395000*
X233500Y319500D02*
Y339000D01*
X242000Y347500*
X250500*
X235500Y319500D02*
Y332000D01*
X246000Y342500*
X421000Y328000D02*
X425500Y332500D01*
Y356500*
X423000Y359000*
X421000Y328000D02*
X417000D01*
X410000Y335000*
X305000Y345000D02*
Y355000D01*
Y365000*
X390000Y345000D02*
Y374000D01*
X365000Y399000*
Y407500*
X367500Y410000*
X385000*
X390000Y415000*
X400000Y345000D02*
X390000D01*
X252000Y373000D02*
X267500D01*
X299000Y404500*
X305000Y365000D02*
Y415000D01*
X255000Y395000D02*
X262000Y388000D01*
X272000*
X299000Y415000*
X305000*
X423000Y397000D02*
X418000D01*
X410000Y405000*
X423000Y397000D02*
X426000Y400000D01*
Y441500*
X423000Y444500*
X305000Y415000D02*
Y425000D01*
X312000Y404500D02*
X334000D01*
X390000Y415000D02*
X400000D01*
X305000Y425000D02*
Y435000D01*
X423000Y468500D02*
X416500D01*
X410000Y475000*
X360000Y484738D02*
X359738Y485000D01*
X477600Y120000D02*
G75*
G03X477600I-7600J0D01*
G01X464350Y285000D02*
G03X464350I-4350J0D01*
G01Y295000D02*
G03X464350I-4350J0D01*
G01X454350Y235000D02*
G03X454350I-4350J0D01*
G01Y245000D02*
G03X454350I-4350J0D01*
G01X414350Y135000D02*
G03X414350I-4350J0D01*
G01Y205000D02*
G03X414350I-4350J0D01*
G01X477600Y470000D02*
G03X477600I-7600J0D01*
G01X364350Y415000D02*
G03X364350I-4350J0D01*
G01Y475000D02*
G03X364350I-4350J0D01*
G01X269100Y395000D02*
G03X269100I-4100J0D01*
G01Y405000D02*
G03X269100I-4100J0D01*
G01X259100D02*
G03X259100I-4100J0D01*
G01X249100Y395000D02*
G03X249100I-4100J0D01*
G01Y405000D02*
G03X249100I-4100J0D01*
G01X239100Y395000D02*
G03X239100I-4100J0D01*
G01Y405000D02*
G03X239100I-4100J0D01*
G01X229100Y395000D02*
G03X229100I-4100J0D01*
G01Y405000D02*
G03X229100I-4100J0D01*
G01X219100Y395000D02*
G03X219100I-4100J0D01*
G01Y405000D02*
G03X219100I-4100J0D01*
G01X209100Y395000D02*
G03X209100I-4100J0D01*
G01Y405000D02*
G03X209100I-4100J0D01*
G01X199100Y395000D02*
G03X199100I-4100J0D01*
G01Y405000D02*
G03X199100I-4100J0D01*
G01X189100Y395000D02*
G03X189100I-4100J0D01*
G01Y405000D02*
G03X189100I-4100J0D01*
G01X201809Y430000D02*
G03X201809I-6809J0D01*
G01X179100Y395000D02*
G03X179100I-4100J0D01*
G01Y405000D02*
G03X179100I-4100J0D01*
G01X169100Y395000D02*
G03X169100I-4100J0D01*
G01Y405000D02*
G03X169100I-4100J0D01*
G01X180155Y430000D02*
G03X180155I-6809J0D01*
G01X159100Y395000D02*
G03X159100I-4100J0D01*
G01Y405000D02*
G03X159100I-4100J0D01*
G01X149100Y395000D02*
G03X149100I-4100J0D01*
G01Y405000D02*
G03X149100I-4100J0D01*
G01X139100Y395000D02*
G03X139100I-4100J0D01*
G01Y405000D02*
G03X139100I-4100J0D01*
G01X151962Y430000D02*
G03X151962I-7356J0D01*
G01X127600Y120000D02*
G03X127600I-7600J0D01*
G01Y470000D02*
G03X127600I-7600J0D01*
G01X259100Y165000D02*
G03X259100I-4100J0D01*
G01Y175000D02*
G03X259100I-4100J0D01*
G01X249100Y165000D02*
G03X249100I-4100J0D01*
G01Y175000D02*
G03X249100I-4100J0D01*
G01X239100Y165000D02*
G03X239100I-4100J0D01*
G01Y175000D02*
G03X239100I-4100J0D01*
G01X229100Y165000D02*
G03X229100I-4100J0D01*
G01Y175000D02*
G03X229100I-4100J0D01*
G01X219100Y165000D02*
G03X219100I-4100J0D01*
G01Y175000D02*
G03X219100I-4100J0D01*
G01X209100Y165000D02*
G03X209100I-4100J0D01*
G01Y175000D02*
G03X209100I-4100J0D01*
G01X199100Y165000D02*
G03X199100I-4100J0D01*
G01Y175000D02*
G03X199100I-4100J0D01*
G01X189100Y165000D02*
G03X189100I-4100J0D01*
G01Y175000D02*
G03X189100I-4100J0D01*
G01X179100D02*
G03X179100I-4100J0D01*
G01X169100Y165000D02*
G03X169100I-4100J0D01*
G01Y175000D02*
G03X169100I-4100J0D01*
G01X159100Y165000D02*
G03X159100I-4100J0D01*
G01Y175000D02*
G03X159100I-4100J0D01*
G01X149100Y165000D02*
G03X149100I-4100J0D01*
G01Y175000D02*
G03X149100I-4100J0D01*
G01X139100Y165000D02*
G03X139100I-4100J0D01*
G01Y175000D02*
G03X139100I-4100J0D01*
G01X364350Y205000D02*
G03X364350I-4350J0D01*
G01Y275000D02*
G03X364350I-4350J0D01*
G01Y345000D02*
G03X364350I-4350J0D01*
G01X414350Y415000D02*
G03X414350I-4350J0D01*
G01Y275000D02*
G03X414350I-4350J0D01*
G01Y345000D02*
G03X414350I-4350J0D01*
G01X487000Y106000D02*
Y486500D01*
G03X486500Y487000I-500J-0*
G01X103500*
G03X103000Y486500I0J-500*
G01Y106000*
G03X103500Y105500I500J0*
G01X486500*
G03X487000Y106000I-0J500*
G01X446282Y321832D02*
G03X446418Y322532I-276J417D01*
G01X446386Y322578D02*
G03X446418Y322532I3614J2422D01*
G01X446386Y322578D02*
G03X445971Y322800I-415J-278D01*
G01X440618*
G03X440265Y322654I0J-500*
G01X422056Y304444*
X420500Y303800D02*
G03X422056Y304444I0J2200D01*
G01X420500Y303800D02*
X399000D01*
X397444Y304444D02*
G03X399000Y303800I1556J1556D01*
G01X397444Y304444D02*
X371293Y330595D01*
G03X370843Y330732I-353J-353*
G01X368013Y331131D02*
G03X370843Y330732I1987J3869D01*
G01X368013Y331131D02*
G03X367431Y330332I-229J-445D01*
G01X391131Y306631*
X391600Y305500D02*
G03X391131Y306631I-1600J0D01*
G01X391600Y305500D02*
Y279372D01*
G03X391884Y278921I500J-0*
G01X393921Y276884D02*
G03X391884Y278921I-3921J-1884D01*
G01X393921Y276884D02*
G03X394372Y276600I451J216D01*
G01X395628*
G03X396079Y276884I0J500*
G01Y273116D02*
G03Y276884I3921J1884D01*
G01Y273116D02*
G03X395628Y273400I-451J-216D01*
G01X394372*
G03X393921Y273116I-0J-500*
G01X388559Y270896D02*
G03X393921Y273116I1441J4104D01*
G01X388559Y270896D02*
G03X388040Y270777I-165J-472D01*
G01X386131Y268869*
X385000Y268400D02*
G03X386131Y268869I0J1600D01*
G01X385000Y268400D02*
X383888D01*
G03X383487Y267601I-0J-500*
G01X384268Y264157D02*
G03X383487Y267601I-4268J843D01*
G01X384268Y264157D02*
G03X384405Y263707I490J-97D01*
G01X385070Y263042*
G03X385895Y263561I353J353*
G01X394268Y264157D02*
G03X385895Y263561I-4268J843D01*
G01X394268Y264157D02*
G03X394405Y263707I490J-97D01*
G01X395070Y263042*
G03X395895Y263561I353J353*
G01X404268Y264157D02*
G03X395895Y263561I-4268J843D01*
G01X404268Y264157D02*
G03X404405Y263707I490J-97D01*
G01X405070Y263042*
G03X405895Y263561I353J353*
G01X414104Y263559D02*
G03X405895Y263561I-4104J1441D01*
G01X414104Y263559D02*
G03X414223Y263040I472J-165D01*
G01X416016Y261246*
G03X416370Y261100I354J354*
G01X416541*
G03X416898Y261951I0J500*
G01X423049Y268102D02*
G03X416898Y261951I-3049J-3102D01*
G01X423049Y268102D02*
G03X423900Y268459I351J357D01*
G01Y271541*
G03X423049Y271898I-500J0*
G01Y278102D02*
G03Y271898I-3049J-3102D01*
G01Y278102D02*
G03X423900Y278459I351J357D01*
G01Y281630*
G03X423754Y281984I-500J0*
G01X422783Y282954*
G03X422441Y283101I-354J-353*
G01X424899Y285559D02*
G03X422441Y283101I-2399J-59D01*
G01X424899Y285559D02*
G03X425046Y285217I500J12D01*
G01X426631Y283631*
X427100Y282500D02*
G03X426631Y283631I-1600J0D01*
G01X427100Y282500D02*
Y261500D01*
X426631Y260369D02*
G03X427100Y261500I-1131J1131D01*
G01X426631Y260369D02*
X426046Y259783D01*
G03X425899Y259441I353J-354*
G01X425645Y258424D02*
G03X425899Y259441I-2145J1076D01*
G01X425645Y258424D02*
G03X426092Y257700I447J-224D01*
G01X426882*
G03X427235Y257846I-0J500*
G01X431154Y261765*
G03X431300Y262118I-354J353*
G01Y306000*
X431944Y307556D02*
G03X431300Y306000I1556J-1556D01*
G01X431944Y307556D02*
X445944Y321556D01*
X446282Y321832D02*
G03X445944Y321556I1218J-1832D01*
G01X443586Y342200D02*
G03X443848Y343126I-0J500D01*
G01X443444Y343444D02*
G03X443848Y343126I1556J1556D01*
G01X443444Y343444D02*
X399735Y387154D01*
G03X399382Y387300I-353J-354*
G01X385000*
X383419Y387970D02*
G03X385000Y387300I1581J1530D01*
G01X383419Y387970D02*
X371221Y400575D01*
G03X370773Y400719I-359J-348*
G01X367399Y401513D02*
G03X370773Y400719I2601J3487D01*
G01X367399Y401513D02*
G03X366600Y401112I-299J-401D01*
G01Y399870*
G03X366746Y399516I500J-0*
G01X391131Y375131*
X391600Y374000D02*
G03X391131Y375131I-1600J0D01*
G01X391600Y374000D02*
Y349372D01*
G03X391884Y348921I500J-0*
G01X393921Y346884D02*
G03X391884Y348921I-3921J-1884D01*
G01X393921Y346884D02*
G03X394372Y346600I451J216D01*
G01X395628*
G03X396079Y346884I0J500*
G01Y343116D02*
G03Y346884I3921J1884D01*
G01Y343116D02*
G03X395628Y343400I-451J-216D01*
G01X394372*
G03X393921Y343116I-0J-500*
G01X388559Y340896D02*
G03X393921Y343116I1441J4104D01*
G01X388559Y340896D02*
G03X388040Y340777I-165J-472D01*
G01X386131Y338869*
X385000Y338400D02*
G03X386131Y338869I0J1600D01*
G01X385000Y338400D02*
X383888D01*
G03X383487Y337601I-0J-500*
G01X384268Y334157D02*
G03X383487Y337601I-4268J843D01*
G01X384268Y334157D02*
G03X384405Y333707I490J-97D01*
G01X385070Y333042*
G03X385895Y333561I353J353*
G01X394268Y334157D02*
G03X385895Y333561I-4268J843D01*
G01X394268Y334157D02*
G03X394405Y333707I490J-97D01*
G01X395070Y333042*
G03X395895Y333561I353J353*
G01X404268Y334157D02*
G03X395895Y333561I-4268J843D01*
G01X404268Y334157D02*
G03X404405Y333707I490J-97D01*
G01X405070Y333042*
G03X405895Y333561I353J353*
G01X414104Y333559D02*
G03X405895Y333561I-4104J1441D01*
G01X414104Y333559D02*
G03X414223Y333040I472J-165D01*
G01X417516Y329746*
G03X417870Y329600I354J354*
G01X419000*
G03X419345Y329738I-0J500*
G01X419462Y329843D02*
G03X419345Y329738I1538J-1843D01*
G01X419462Y329843D02*
G03X419230Y330719I-320J384D01*
G01X423049Y338102D02*
G03X419230Y330719I-3049J-3102D01*
G01X423049Y338102D02*
G03X423900Y338459I351J357D01*
G01Y341541*
G03X423049Y341898I-500J0*
G01Y348102D02*
G03Y341898I-3049J-3102D01*
G01Y348102D02*
G03X423900Y348459I351J357D01*
G01Y355630*
G03X423754Y355984I-500J0*
G01X423283Y356454*
G03X422941Y356601I-354J-353*
G01X425399Y359059D02*
G03X422941Y356601I-2399J-59D01*
G01X425399Y359059D02*
G03X425546Y358717I500J12D01*
G01X426631Y357631*
X427100Y356500D02*
G03X426631Y357631I-1600J0D01*
G01X427100Y356500D02*
Y332500D01*
X427008Y331965D02*
G03X427100Y332500I-1508J535D01*
G01X427008Y331965D02*
G03X427833Y331444I471J-168D01*
G01X437944Y341556*
X439500Y342200D02*
G03X437944Y341556I0J-2200D01*
G01X439500Y342200D02*
X443586D01*
X477600Y120000D02*
G03X477600I-7600J0D01*
G01X476100Y260500D02*
Y161000D01*
X475631Y159869D02*
G03X476100Y161000I-1131J1131D01*
G01X475631Y159869D02*
X426631Y110869D01*
X425500Y110400D02*
G03X426631Y110869I0J1600D01*
G01X425500Y110400D02*
X335000D01*
X301000*
X299869Y110869D02*
G03X301000Y110400I1131J1131D01*
G01X299869Y110869D02*
X268369Y142369D01*
X267900Y143500D02*
G03X268369Y142369I1600J0D01*
G01X267900Y143500D02*
Y161076D01*
G03X267139Y161502I-500J-0*
G01Y168498D02*
G03Y161502I-2139J-3498D01*
G01Y168498D02*
G03X267900Y168924I261J426D01*
G01Y171076*
G03X267139Y171502I-500J-0*
G01X263785Y178916D02*
G03X267139Y171502I1215J-3916D01*
G01X263785Y178916D02*
G03X263990Y179747I-148J477D01*
G01X239869Y203869*
X233869Y209869*
X233400Y211000D02*
G03X233869Y209869I1600J0D01*
G01X233400Y211000D02*
Y244500D01*
X233869Y245631D02*
G03X233400Y244500I1131J-1131D01*
G01X233869Y245631D02*
X242954Y254717D01*
G03X243101Y255059I-353J354*
G01X245559Y252601D02*
G03X243101Y255059I-59J2399D01*
G01X245559Y252601D02*
G03X245217Y252454I12J-500D01*
G01X236746Y243984*
G03X236600Y243630I354J-354*
G01Y241570*
G03X237454Y241216I500J-0*
G01X243454Y247217*
G03X243601Y247559I-353J354*
G01X246059Y245101D02*
G03X243601Y247559I-59J2399D01*
G01X246059Y245101D02*
G03X245717Y244954I12J-500D01*
G01X239246Y238484*
G03X239100Y238130I354J-354*
G01Y236570*
G03X239954Y236216I500J-0*
G01X243454Y239717*
G03X243601Y240059I-353J354*
G01X246059Y237601D02*
G03X243601Y240059I-59J2399D01*
G01X246059Y237601D02*
G03X245717Y237454I12J-500D01*
G01X241746Y233484*
G03X241600Y233130I354J-354*
G01Y231570*
G03X242454Y231216I500J-0*
G01X243454Y232217*
G03X243601Y232559I-353J354*
G01X246059Y230101D02*
G03X243601Y232559I-59J2399D01*
G01X246059Y230101D02*
G03X245717Y229954I12J-500D01*
G01X244246Y228484*
G03X244100Y228130I354J-354*
G01Y227191*
G03X244928Y226813I500J-0*
G01X248238Y223345D02*
G03X244928Y226813I-1738J1655D01*
G01X248238Y223345D02*
G03X248100Y223000I362J-345D01*
G01Y211870*
G03X248246Y211516I500J-0*
G01X277046Y182716*
G03X277900Y183070I354J354*
G01Y238130*
G03X277754Y238484I-500J0*
G01X232369Y283869*
X231900Y285000D02*
G03X232369Y283869I1600J0D01*
G01X231900Y285000D02*
Y319500D01*
Y339000*
X232369Y340131D02*
G03X231900Y339000I1131J-1131D01*
G01X232369Y340131D02*
X240869Y348631D01*
X242000Y349100D02*
G03X240869Y348631I0J-1600D01*
G01X242000Y349100D02*
X250500D01*
X251631Y348631D02*
G03X250500Y349100I-1131J-1131D01*
G01X251631Y348631D02*
X253631Y346631D01*
X254100Y345500D02*
G03X253631Y346631I-1600J0D01*
G01X254100Y345500D02*
Y318500D01*
X253631Y317369D02*
G03X254100Y318500I-1131J1131D01*
G01X253631Y317369D02*
X249046Y312783D01*
G03X248899Y312441I353J-354*
G01X246441Y314899D02*
G03X248899Y312441I59J-2399D01*
G01X246441Y314899D02*
G03X246783Y315046I-12J500D01*
G01X250754Y319016*
G03X250900Y319370I-354J354*
G01Y344630*
G03X250754Y344984I-500J0*
G01X249984Y345754*
G03X249630Y345900I-354J-354*
G01X246016*
G03X246000I-0J-500*
X245984I-16J-500*
G01X242870*
G03X242516Y345754I-0J-500*
G01X235246Y338484*
G03X235100Y338130I354J-354*
G01Y335070*
G03X235954Y334716I500J-0*
G01X243454Y342217*
G03X243601Y342559I-353J354*
G01X245987Y344900D02*
G03X243601Y342559I13J-2400D01*
G01X245987Y344900D02*
G03X246000I-3J500D01*
X246013I16J500*
G01X246059Y340101D02*
G03X246013Y344900I-59J2399D01*
G01X246059Y340101D02*
G03X245717Y339954I12J-500D01*
G01X237246Y331484*
G03X237100Y331130I354J-354*
G01Y319500*
Y286370*
G03X237246Y286016I500J-0*
G01X281046Y242216*
G03X281900Y242570I354J354*
G01Y261500*
Y283130*
G03X281754Y283484I-500J0*
G01X272984Y292254*
G03X272630Y292400I-354J-354*
G01X244000*
X242869Y292869D02*
G03X244000Y292400I1131J1131D01*
G01X242869Y292869D02*
X238869Y296869D01*
X238400Y298000D02*
G03X238869Y296869I1600J0D01*
G01X238400Y298000D02*
Y321500D01*
X238869Y322631D02*
G03X238400Y321500I1131J-1131D01*
G01X238869Y322631D02*
X243454Y327217D01*
G03X243601Y327559I-353J354*
G01X246059Y325101D02*
G03X243601Y327559I-59J2399D01*
G01X246059Y325101D02*
G03X245717Y324954I12J-500D01*
G01X241746Y320984*
G03X241600Y320630I354J-354*
G01Y298870*
G03X241746Y298516I500J-0*
G01X242767Y297495*
G03X243617Y297789I354J354*
G01X247655Y299238D02*
G03X243617Y297789I-1655J-1738D01*
G01X247655Y299238D02*
G03X248000Y299100I345J362D01*
G01X276500*
X277631Y298631D02*
G03X276500Y299100I-1131J-1131D01*
G01X277631Y298631D02*
X286631Y289631D01*
X287100Y288500D02*
G03X286631Y289631I-1600J0D01*
G01X287100Y288500D02*
Y261500D01*
Y148370*
G03X287246Y148016I500J-0*
G01X299641Y135622*
G03X300485Y135880I353J354*
G01X303106Y139192D02*
G03X300485Y135880I1894J-4192D01*
G01X303106Y139192D02*
G03X303400Y139648I-206J456D01*
G01Y140352*
G03X303106Y140808I-500J0*
G01Y149192D02*
G03Y140808I1894J-4192D01*
G01Y149192D02*
G03X303400Y149648I-206J456D01*
G01Y150352*
G03X303106Y150808I-500J0*
G01Y159192D02*
G03Y150808I1894J-4192D01*
G01Y159192D02*
G03X303400Y159648I-206J456D01*
G01Y200352*
G03X303106Y200808I-500J0*
G01Y209192D02*
G03Y200808I1894J-4192D01*
G01Y209192D02*
G03X303400Y209648I-206J456D01*
G01Y210352*
G03X303106Y210808I-500J0*
G01Y219192D02*
G03Y210808I1894J-4192D01*
G01Y219192D02*
G03X303400Y219648I-206J456D01*
G01Y220352*
G03X303106Y220808I-500J0*
G01Y229192D02*
G03Y220808I1894J-4192D01*
G01Y229192D02*
G03X303400Y229648I-206J456D01*
G01Y270352*
G03X303106Y270808I-500J0*
G01Y279192D02*
G03Y270808I1894J-4192D01*
G01Y279192D02*
G03X303400Y279648I-206J456D01*
G01Y280352*
G03X303106Y280808I-500J0*
G01Y289192D02*
G03Y280808I1894J-4192D01*
G01Y289192D02*
G03X303400Y289648I-206J456D01*
G01Y290352*
G03X303106Y290808I-500J0*
G01Y299192D02*
G03Y290808I1894J-4192D01*
G01Y299192D02*
G03X303400Y299648I-206J456D01*
G01Y340352*
G03X303106Y340808I-500J0*
G01Y349192D02*
G03Y340808I1894J-4192D01*
G01Y349192D02*
G03X303400Y349648I-206J456D01*
G01Y350352*
G03X303106Y350808I-500J0*
G01Y359192D02*
G03Y350808I1894J-4192D01*
G01Y359192D02*
G03X303400Y359648I-206J456D01*
G01Y360352*
G03X303106Y360808I-500J0*
G01Y369192D02*
G03Y360808I1894J-4192D01*
G01Y369192D02*
G03X303400Y369648I-206J456D01*
G01Y410352*
G03X303106Y410808I-500J0*
G01X300808Y413106D02*
G03X303106Y410808I4192J1894D01*
G01X300808Y413106D02*
G03X300352Y413400I-456J-206D01*
G01X299870*
G03X299516Y413254I-0J-500*
G01X273131Y386869*
X272000Y386400D02*
G03X273131Y386869I0J1600D01*
G01X272000Y386400D02*
X262000D01*
X260869Y386869D02*
G03X262000Y386400I1131J1131D01*
G01X260869Y386869D02*
X256763Y390975D01*
G03X256256Y391097I-354J-354*
G01X253744D02*
G03X256256I1256J3903D01*
G01X253744D02*
G03X253237Y390975I-153J-476D01*
G01X243631Y381369*
X242500Y380900D02*
G03X243631Y381369I0J1600D01*
G01X242500Y380900D02*
X196870D01*
G03X196516Y380754I-0J-500*
G01X149631Y333869*
X148500Y333400D02*
G03X149631Y333869I0J1600D01*
G01X148500Y333400D02*
X137570D01*
G03X137216Y332546I-0J-500*
G01X141131Y328631*
X141600Y327500D02*
G03X141131Y328631I-1600J0D01*
G01X141600Y327500D02*
Y297000D01*
G03X141738Y296655I500J0*
G01X138262D02*
G03X141738I1738J-1655D01*
G01X138262D02*
G03X138400Y297000I-362J345D01*
G01Y326630*
G03X138254Y326984I-500J0*
G01X132783Y332454*
G03X132441Y332601I-354J-353*
G01X134155Y336738D02*
G03X132441Y332601I-1655J-1738D01*
G01X134155Y336738D02*
G03X134500Y336600I345J362D01*
G01X147630*
G03X147984Y336746I0J500*
G01X194869Y383631*
X196000Y384100D02*
G03X194869Y383631I0J-1600D01*
G01X196000Y384100D02*
X241630D01*
G03X241984Y384246I0J500*
G01X250975Y393237*
G03X251097Y393744I-354J354*
G01X258903D02*
G03X251097I-3903J1256D01*
G01X258903D02*
G03X259025Y393237I476J-153D01*
G01X262516Y389746*
G03X262870Y389600I354J354*
G01X271130*
G03X271484Y389746I0J500*
G01X297869Y416131*
X299000Y416600D02*
G03X297869Y416131I0J-1600D01*
G01X299000Y416600D02*
X300352D01*
G03X300808Y416894I0J500*
G01X303106Y419192D02*
G03X300808Y416894I1894J-4192D01*
G01X303106Y419192D02*
G03X303400Y419648I-206J456D01*
G01Y420352*
G03X303106Y420808I-500J0*
G01Y429192D02*
G03Y420808I1894J-4192D01*
G01Y429192D02*
G03X303400Y429648I-206J456D01*
G01Y430352*
G03X303106Y430808I-500J0*
G01X306894D02*
G03X303106I-1894J4192D01*
G01X306894D02*
G03X306600Y430352I206J-456D01*
G01Y429648*
G03X306894Y429192I500J-0*
G01Y420808D02*
G03Y429192I-1894J4192D01*
G01Y420808D02*
G03X306600Y420352I206J-456D01*
G01Y419648*
G03X306894Y419192I500J-0*
G01Y410808D02*
G03Y419192I-1894J4192D01*
G01Y410808D02*
G03X306600Y410352I206J-456D01*
G01Y369648*
G03X306894Y369192I500J-0*
G01Y360808D02*
G03Y369192I-1894J4192D01*
G01Y360808D02*
G03X306600Y360352I206J-456D01*
G01Y359648*
G03X306894Y359192I500J-0*
G01Y350808D02*
G03Y359192I-1894J4192D01*
G01Y350808D02*
G03X306600Y350352I206J-456D01*
G01Y349648*
G03X306894Y349192I500J-0*
G01Y340808D02*
G03Y349192I-1894J4192D01*
G01Y340808D02*
G03X306600Y340352I206J-456D01*
G01Y299648*
G03X306894Y299192I500J-0*
G01Y290808D02*
G03Y299192I-1894J4192D01*
G01Y290808D02*
G03X306600Y290352I206J-456D01*
G01Y289648*
G03X306894Y289192I500J-0*
G01Y280808D02*
G03Y289192I-1894J4192D01*
G01Y280808D02*
G03X306600Y280352I206J-456D01*
G01Y279648*
G03X306894Y279192I500J-0*
G01Y270808D02*
G03Y279192I-1894J4192D01*
G01Y270808D02*
G03X306600Y270352I206J-456D01*
G01Y229648*
G03X306894Y229192I500J-0*
G01Y220808D02*
G03Y229192I-1894J4192D01*
G01Y220808D02*
G03X306600Y220352I206J-456D01*
G01Y219648*
G03X306894Y219192I500J-0*
G01Y210808D02*
G03Y219192I-1894J4192D01*
G01Y210808D02*
G03X306600Y210352I206J-456D01*
G01Y209648*
G03X306894Y209192I500J-0*
G01Y200808D02*
G03Y209192I-1894J4192D01*
G01Y200808D02*
G03X306600Y200352I206J-456D01*
G01Y159648*
G03X306894Y159192I500J-0*
G01Y150808D02*
G03Y159192I-1894J4192D01*
G01Y150808D02*
G03X306600Y150352I206J-456D01*
G01Y149648*
G03X306894Y149192I500J-0*
G01Y140808D02*
G03Y149192I-1894J4192D01*
G01Y140808D02*
G03X306600Y140352I206J-456D01*
G01Y139648*
G03X306894Y139192I500J-0*
G01X309192Y136894D02*
G03X306894Y139192I-4192J-1894D01*
G01X309192Y136894D02*
G03X309648Y136600I456J206D01*
G01X318000*
X319131Y136131D02*
G03X318000Y136600I-1131J-1131D01*
G01X319131Y136131D02*
X323516Y131746D01*
G03X323870Y131600I354J354*
G01X329900*
G03X330400Y132100I-0J500*
G01Y138500*
X331500Y139600D02*
G03X330400Y138500I0J-1100D01*
G01X331500Y139600D02*
X333586D01*
G03X333724Y140580I-0J500*
G01X334093Y149510D02*
G03X333724Y140580I907J-4510D01*
G01X334093Y149510D02*
G03Y150490I-98J490D01*
G01X335907D02*
G03X334093I-907J4510D01*
G01X335907D02*
G03Y149510I98J-490D01*
G01X336276Y140580D02*
G03X335907Y149510I-1276J4420D01*
G01X336276Y140580D02*
G03X336414Y139600I138J-480D01*
G01X338500*
X339600Y138500D02*
G03X338500Y139600I-1100J0D01*
G01X339600Y138500D02*
Y132100D01*
G03X340100Y131600I500J0*
G01X345150*
G03X345650Y132100I-0J500*
G01Y138250*
X346750Y139350D02*
G03X345650Y138250I0J-1100D01*
G01X346750Y139350D02*
X353250D01*
X354350Y138250D02*
G03X353250Y139350I-1100J0D01*
G01X354350Y138250D02*
Y132100D01*
G03X354850Y131600I500J0*
G01X356112*
G03X356513Y132399I0J500*
G01X363487D02*
G03X356513I-3487J2601D01*
G01X363487D02*
G03X363888Y131600I401J-299D01*
G01X366112*
G03X366513Y132399I0J500*
G01X373487D02*
G03X366513I-3487J2601D01*
G01X373487D02*
G03X373888Y131600I401J-299D01*
G01X376112*
G03X376513Y132399I0J500*
G01X384025Y136650D02*
G03X376513Y132399I-4025J-1650D01*
G01X384025Y136650D02*
G03X384729Y136402I463J190D01*
G01X385113Y136553D02*
G03X384729Y136402I387J-1553D01*
G01X385113Y136553D02*
G03X385346Y137391I-121J485D01*
G01X364369Y158369*
X363900Y159500D02*
G03X364369Y158369I1600J0D01*
G01X363900Y159500D02*
Y191541D01*
G03X363049Y191898I-500J0*
G01X363336Y197792D02*
G03X363049Y191898I-3336J-2792D01*
G01X363336Y197792D02*
G03X364143Y197848I383J321D01*
G01X364369Y198131D02*
G03X364143Y197848I1131J-1131D01*
G01X364369Y198131D02*
X367199Y200962D01*
G03X367171Y201696I-353J354*
G01X373487Y202399D02*
G03X367171Y201696I-3487J2601D01*
G01X373487Y202399D02*
G03X373888Y201600I401J-299D01*
G01X376112*
G03X376513Y202399I0J500*
G01X384025Y206650D02*
G03X376513Y202399I-4025J-1650D01*
G01X384025Y206650D02*
G03X384729Y206402I463J190D01*
G01X385500Y206600D02*
G03X384729Y206402I0J-1600D01*
G01X385500Y206600D02*
X385628D01*
G03X386079Y206884I0J500*
G01X388116Y208921D02*
G03X386079Y206884I1884J-3921D01*
G01X388116Y208921D02*
G03X388400Y209372I-216J451D01*
G01Y235130*
G03X388254Y235484I-500J0*
G01X363869Y259869*
X363400Y261000D02*
G03X363869Y259869I1600J0D01*
G01X363400Y261000D02*
Y261112D01*
G03X362601Y261513I-500J0*
G01X362629Y268465D02*
G03X362601Y261513I-2629J-3465D01*
G01X362629Y268465D02*
G03X363424Y268777I303J399D01*
G01X363869Y269631D02*
G03X363424Y268777I1131J-1131D01*
G01X363869Y269631D02*
X365369Y271131D01*
X366223Y271576D02*
G03X365369Y271131I277J-1576D01*
G01X366223Y271576D02*
G03X366535Y272371I-87J492D01*
G01X373487Y272399D02*
G03X366535Y272371I-3487J2601D01*
G01X373487Y272399D02*
G03X373888Y271600I401J-299D01*
G01X376112*
G03X376513Y272399I0J500*
G01X383487D02*
G03X376513I-3487J2601D01*
G01X383487D02*
G03X383888Y271600I401J-299D01*
G01X384130*
G03X384484Y271746I0J500*
G01X385777Y273040*
G03X385896Y273559I-353J354*
G01X388116Y278921D02*
G03X385896Y273559I1884J-3921D01*
G01X388116Y278921D02*
G03X388400Y279372I-216J451D01*
G01Y304630*
G03X388254Y304984I-500J0*
G01X363869Y329369*
X363400Y330500D02*
G03X363869Y329369I1600J0D01*
G01X363400Y330500D02*
Y331112D01*
G03X362601Y331513I-500J0*
G01X362733Y338384D02*
G03X362601Y331513I-2733J-3384D01*
G01X362733Y338384D02*
G03X363512Y338589I314J389D01*
G01X363869Y339131D02*
G03X363512Y338589I1131J-1131D01*
G01X363869Y339131D02*
X365869Y341131D01*
X366411Y341488D02*
G03X365869Y341131I589J-1488D01*
G01X366411Y341488D02*
G03X366616Y342267I-184J465D01*
G01X373487Y342399D02*
G03X366616Y342267I-3487J2601D01*
G01X373487Y342399D02*
G03X373888Y341600I401J-299D01*
G01X376112*
G03X376513Y342399I0J500*
G01X383487D02*
G03X376513I-3487J2601D01*
G01X383487D02*
G03X383888Y341600I401J-299D01*
G01X384130*
G03X384484Y341746I0J500*
G01X385777Y343040*
G03X385896Y343559I-353J354*
G01X388116Y348921D02*
G03X385896Y343559I1884J-3921D01*
G01X388116Y348921D02*
G03X388400Y349372I-216J451D01*
G01Y373130*
G03X388254Y373484I-500J0*
G01X363869Y397869*
X363400Y399000D02*
G03X363869Y397869I1600J0D01*
G01X363400Y399000D02*
Y401112D01*
G03X362601Y401513I-500J0*
G01X362893Y408249D02*
G03X362601Y401513I-2893J-3249D01*
G01X362893Y408249D02*
G03X363648Y408355I332J373D01*
G01X363869Y408631D02*
G03X363648Y408355I1131J-1131D01*
G01X363869Y408631D02*
X366369Y411131D01*
X366645Y411352D02*
G03X366369Y411131I855J-1352D01*
G01X366645Y411352D02*
G03X366751Y412107I-267J423D01*
G01X373487Y412399D02*
G03X366751Y412107I-3487J2601D01*
G01X373487Y412399D02*
G03X373888Y411600I401J-299D01*
G01X376112*
G03X376513Y412399I0J500*
G01X383487D02*
G03X376513I-3487J2601D01*
G01X383487D02*
G03X383888Y411600I401J-299D01*
G01X384130*
G03X384484Y411746I0J500*
G01X385777Y413040*
G03X385896Y413559I-353J354*
G01X393921Y416884D02*
G03X385896Y413559I-3921J-1884D01*
G01X393921Y416884D02*
G03X394372Y416600I451J216D01*
G01X395628*
G03X396079Y416884I0J500*
G01Y413116D02*
G03Y416884I3921J1884D01*
G01Y413116D02*
G03X395628Y413400I-451J-216D01*
G01X394372*
G03X393921Y413116I-0J-500*
G01X388559Y410896D02*
G03X393921Y413116I1441J4104D01*
G01X388559Y410896D02*
G03X388040Y410777I-165J-472D01*
G01X386131Y408869*
X385000Y408400D02*
G03X386131Y408869I0J1600D01*
G01X385000Y408400D02*
X383888D01*
G03X383487Y407601I-0J-500*
G01X384268Y404157D02*
G03X383487Y407601I-4268J843D01*
G01X384268Y404157D02*
G03X384405Y403707I490J-97D01*
G01X385070Y403042*
G03X385895Y403561I353J353*
G01X394268Y404157D02*
G03X385895Y403561I-4268J843D01*
G01X394268Y404157D02*
G03X394405Y403707I490J-97D01*
G01X395070Y403042*
G03X395895Y403561I353J353*
G01X404268Y404157D02*
G03X395895Y403561I-4268J843D01*
G01X404268Y404157D02*
G03X404405Y403707I490J-97D01*
G01X405070Y403042*
G03X405895Y403561I353J353*
G01X414104Y403559D02*
G03X405895Y403561I-4104J1441D01*
G01X414104Y403559D02*
G03X414223Y403040I472J-165D01*
G01X418516Y398746*
G03X418870Y398600I354J354*
G01X421000*
G03X421345Y398738I-0J500*
G01X422941Y399399D02*
G03X421345Y398738I59J-2399D01*
G01X422941Y399399D02*
G03X423283Y399546I-12J500D01*
G01X424254Y400516*
G03X424400Y400870I-354J354*
G01Y402117*
G03X423498Y402414I-500J-0*
G01Y407586D02*
G03Y402414I-3498J-2586D01*
G01Y407586D02*
G03X424400Y407883I402J297D01*
G01Y412117*
G03X423498Y412414I-500J-0*
G01Y417586D02*
G03Y412414I-3498J-2586D01*
G01Y417586D02*
G03X424400Y417883I402J297D01*
G01Y440630*
G03X424254Y440984I-500J0*
G01X423283Y441954*
G03X422941Y442101I-354J-353*
G01X425399Y444559D02*
G03X422941Y442101I-2399J-59D01*
G01X425399Y444559D02*
G03X425546Y444217I500J12D01*
G01X427131Y442631*
X427600Y441500D02*
G03X427131Y442631I-1600J0D01*
G01X427600Y441500D02*
Y400000D01*
X427131Y398869D02*
G03X427600Y400000I-1131J1131D01*
G01X427131Y398869D02*
X425546Y397283D01*
G03X425399Y396941I353J-354*
G01X421345Y395262D02*
G03X425399Y396941I1655J1738D01*
G01X421345Y395262D02*
G03X421000Y395400I-345J-362D01*
G01X418000*
X416869Y395869D02*
G03X418000Y395400I1131J1131D01*
G01X416869Y395869D02*
X411960Y400777D01*
G03X411441Y400896I-354J-353*
G01X408561Y400895D02*
G03X411441Y400896I1439J4105D01*
G01X408561Y400895D02*
G03X408042Y400070I-166J-472D01*
G01X433446Y374665*
G03X434300Y375018I354J353*
G01Y438882*
G03X434154Y439235I-500J-0*
G01X423235Y450154*
G03X422882Y450300I-353J-354*
G01X392500*
X390944Y450944D02*
G03X392500Y450300I1556J1556D01*
G01X390944Y450944D02*
X371293Y470595D01*
G03X370843Y470732I-353J-353*
G01X374268Y474157D02*
G03X370843Y470732I-4268J843D01*
G01X374268Y474157D02*
G03X374405Y473707I490J-97D01*
G01X375070Y473042*
G03X375895Y473561I353J353*
G01X384268Y474157D02*
G03X375895Y473561I-4268J843D01*
G01X384268Y474157D02*
G03X384405Y473707I490J-97D01*
G01X385070Y473042*
G03X385895Y473561I353J353*
G01X394268Y474157D02*
G03X385895Y473561I-4268J843D01*
G01X394268Y474157D02*
G03X394405Y473707I490J-97D01*
G01X395070Y473042*
G03X395895Y473561I353J353*
G01X404268Y474157D02*
G03X395895Y473561I-4268J843D01*
G01X404268Y474157D02*
G03X404405Y473707I490J-97D01*
G01X405070Y473042*
G03X405895Y473561I353J353*
G01X414104Y473559D02*
G03X405895Y473561I-4104J1441D01*
G01X414104Y473559D02*
G03X414223Y473040I472J-165D01*
G01X417016Y470246*
G03X417370Y470100I354J354*
G01X417960*
G03X418170Y471054I-0J500*
G01X422905Y471762D02*
G03X418170Y471054I-2905J3238D01*
G01X422905Y471762D02*
G03X423198Y470892I334J-372D01*
G01X424462Y466597D02*
G03X423198Y470892I-1462J1903D01*
G01X424462Y466597D02*
G03X424766Y465700I304J-397D01*
G01X435000*
X436556Y465056D02*
G03X435000Y465700I-1556J-1556D01*
G01X436556Y465056D02*
X461556Y440056D01*
X462200Y438500D02*
G03X461556Y440056I-2200J0D01*
G01X462200Y438500D02*
Y379029D01*
G03X462422Y378614I500J-0*
G01X458561Y370895D02*
G03X462422Y378614I1439J4105D01*
G01X458561Y370895D02*
G03X458042Y370070I-166J-472D01*
G01X458707Y369405*
G03X459157Y369268I353J353*
G01X458561Y360895D02*
G03X459157Y369268I1439J4105D01*
G01X458561Y360895D02*
G03X458042Y360070I-166J-472D01*
G01X458707Y359405*
G03X459157Y359268I353J353*
G01X458561Y350895D02*
G03X459157Y359268I1439J4105D01*
G01X458561Y350895D02*
G03X458042Y350070I-166J-472D01*
G01X458707Y349405*
G03X459157Y349268I353J353*
G01X458561Y340895D02*
G03X459157Y349268I1439J4105D01*
G01X458561Y340895D02*
G03X458042Y340070I-166J-472D01*
G01X458707Y339405*
G03X459157Y339268I353J353*
G01X458561Y330895D02*
G03X459157Y339268I1439J4105D01*
G01X458561Y330895D02*
G03X458042Y330070I-166J-472D01*
G01X458707Y329405*
G03X459157Y329268I353J353*
G01X458561Y320895D02*
G03X459157Y329268I1439J4105D01*
G01X458561Y320895D02*
G03X458042Y320070I-166J-472D01*
G01X458707Y319405*
G03X459157Y319268I353J353*
G01X458561Y310895D02*
G03X459157Y319268I1439J4105D01*
G01X458561Y310895D02*
G03X458042Y310070I-166J-472D01*
G01X458707Y309405*
G03X459157Y309268I353J353*
G01X455732Y305843D02*
G03X459157Y309268I4268J-843D01*
G01X455732Y305843D02*
G03X455595Y306293I-490J97D01*
G01X454930Y306958*
G03X454105Y306439I-353J-353*
G01X449157Y300732D02*
G03X454105Y306439I843J4268D01*
G01X449157Y300732D02*
G03X448707Y300595I-97J-490D01*
G01X448042Y299930*
G03X448561Y299105I353J-353*
G01X447489Y291448D02*
G03X448561Y299105I2511J3552D01*
G01X447489Y291448D02*
G03X446700Y291040I-289J-408D01*
G01Y288960*
G03X447489Y288552I500J0*
G01Y281448D02*
G03Y288552I2511J3552D01*
G01Y281448D02*
G03X446700Y281040I-289J-408D01*
G01Y278960*
G03X447489Y278552I500J0*
G01Y271448D02*
G03Y278552I2511J3552D01*
G01Y271448D02*
G03X446700Y271040I-289J-408D01*
G01Y268960*
G03X447489Y268552I500J0*
G01Y261448D02*
G03Y268552I2511J3552D01*
G01Y261448D02*
G03X446700Y261040I-289J-408D01*
G01Y258960*
G03X447489Y258552I500J0*
G01X445754Y254056D02*
G03X447489Y258552I4246J944D01*
G01X445754Y254056D02*
G03X444912Y254301I-488J-109D01*
G01X435056Y244444*
X433500Y243800D02*
G03X435056Y244444I0J2200D01*
G01X433500Y243800D02*
X389000D01*
X387444Y244444D02*
G03X389000Y243800I1556J1556D01*
G01X387444Y244444D02*
X371293Y260595D01*
G03X370843Y260732I-353J-353*
G01X368762Y260830D02*
G03X370843Y260732I1238J4170D01*
G01X368762Y260830D02*
G03X368266Y259997I-143J-479D01*
G01X391131Y237131*
X391600Y236000D02*
G03X391131Y237131I-1600J0D01*
G01X391600Y236000D02*
Y209372D01*
G03X391884Y208921I500J-0*
G01X393921Y206884D02*
G03X391884Y208921I-3921J-1884D01*
G01X393921Y206884D02*
G03X394372Y206600I451J216D01*
G01X395628*
G03X396079Y206884I0J500*
G01Y203116D02*
G03Y206884I3921J1884D01*
G01Y203116D02*
G03X395628Y203400I-451J-216D01*
G01X394372*
G03X393921Y203116I-0J-500*
G01X386696Y202171D02*
G03X393921Y203116I3304J2829D01*
G01X386696Y202171D02*
G03X385962Y202199I-380J-325D01*
G01X382801Y199038*
G03X382829Y198304I353J-354*
G01X384268Y194157D02*
G03X382829Y198304I-4268J843D01*
G01X384268Y194157D02*
G03X384405Y193707I490J-97D01*
G01X385070Y193042*
G03X385895Y193561I353J353*
G01X394268Y194157D02*
G03X385895Y193561I-4268J843D01*
G01X394268Y194157D02*
G03X394405Y193707I490J-97D01*
G01X395070Y193042*
G03X395895Y193561I353J353*
G01X404268Y194157D02*
G03X395895Y193561I-4268J843D01*
G01X404268Y194157D02*
G03X404405Y193707I490J-97D01*
G01X405070Y193042*
G03X405895Y193561I353J353*
G01X414104Y193559D02*
G03X405895Y193561I-4104J1441D01*
G01X414104Y193559D02*
G03X414223Y193040I472J-165D01*
G01X417016Y190246*
G03X417370Y190100I354J354*
G01X417960*
G03X418170Y191054I-0J500*
G01X423049Y198102D02*
G03X418170Y191054I-3049J-3102D01*
G01X423049Y198102D02*
G03X423900Y198459I351J357D01*
G01Y201541*
G03X423049Y201898I-500J0*
G01Y208102D02*
G03Y201898I-3049J-3102D01*
G01Y208102D02*
G03X423900Y208459I351J357D01*
G01Y218130*
G03X423754Y218484I-500J0*
G01X422783Y219454*
G03X422441Y219601I-354J-353*
G01X424899Y222059D02*
G03X422441Y219601I-2399J-59D01*
G01X424899Y222059D02*
G03X425046Y221717I500J12D01*
G01X426631Y220131*
X427100Y219000D02*
G03X426631Y220131I-1600J0D01*
G01X427100Y219000D02*
Y192500D01*
X426631Y191369D02*
G03X427100Y192500I-1131J1131D01*
G01X426631Y191369D02*
X422631Y187369D01*
X422324Y187129D02*
G03X422631Y187369I-824J1371D01*
G01X422324Y187129D02*
G03X422582Y186200I258J-429D01*
G01X428434*
G03X428737Y186303I-0J500*
G01X431865Y181441D02*
G03X428737Y186303I-1365J2559D01*
G01X431865Y181441D02*
G03Y180559I235J-441D01*
G01Y175441D02*
G03Y180559I-1365J2559D01*
G01Y175441D02*
G03Y174559I235J-441D01*
G01Y169441D02*
G03Y174559I-1365J2559D01*
G01Y169441D02*
G03Y168559I235J-441D01*
G01X428737Y163697D02*
G03X431865Y168559I1763J2303D01*
G01X428737Y163697D02*
G03X428434Y163800I-303J-397D01*
G01X399500*
X397944Y164444D02*
G03X399500Y163800I1556J1556D01*
G01X397944Y164444D02*
X371696Y190693D01*
G03X371204Y190820I-354J-354*
G01X367847Y191220D02*
G03X371204Y190820I2153J3780D01*
G01X367847Y191220D02*
G03X367100Y190785I-247J-435D01*
G01Y160370*
G03X367246Y160016I500J-0*
G01X388040Y139223*
G03X388559Y139104I354J353*
G01X393921Y136884D02*
G03X388559Y139104I-3921J-1884D01*
G01X393921Y136884D02*
G03X394372Y136600I451J216D01*
G01X395628*
G03X396079Y136884I0J500*
G01Y133116D02*
G03Y136884I3921J1884D01*
G01Y133116D02*
G03X395628Y133400I-451J-216D01*
G01X394372*
G03X393921Y133116I-0J-500*
G01X386696Y132171D02*
G03X393921Y133116I3304J2829D01*
G01X386696Y132171D02*
G03X385962Y132199I-380J-325D01*
G01X384216Y130454*
G03X384570Y129600I354J-354*
G01X418630*
G03X418984Y129746I0J500*
G01X419178Y129941*
G03X418946Y130780I-353J354*
G01X424220Y136054D02*
G03X418946Y130780I-4220J-1054D01*
G01X424220Y136054D02*
G03X425059Y135822I485J121D01*
G01X437754Y148516*
G03X437900Y148870I-354J354*
G01Y214500*
X438369Y215631D02*
G03X437900Y214500I1131J-1131D01*
G01X438369Y215631D02*
X445777Y223040D01*
G03X445896Y223559I-353J354*
G01X448559Y220896D02*
G03X445896Y223559I1441J4104D01*
G01X448559Y220896D02*
G03X448040Y220777I-165J-472D01*
G01X441246Y213984*
G03X441100Y213630I354J-354*
G01Y150570*
G03X441954Y150216I500J-0*
G01X448254Y156516*
G03X448400Y156870I-354J354*
G01Y210628*
G03X448116Y211079I-500J0*
G01X451884D02*
G03X448116I-1884J3921D01*
G01X451884D02*
G03X451600Y210628I216J-451D01*
G01Y156570*
G03X452454Y156216I500J-0*
G01X458254Y162016*
G03X458400Y162370I-354J354*
G01Y210628*
G03X458116Y211079I-500J0*
G01X458350Y219025D02*
G03X458116Y211079I1650J-4025D01*
G01X458350Y219025D02*
G03X458598Y219729I-190J463D01*
G01X458400Y220500D02*
G03X458598Y219729I1600J0D01*
G01X458400Y220500D02*
Y220628D01*
G03X458116Y221079I-500J0*
G01X463946Y226830D02*
G03X458116Y221079I-3946J-1830D01*
G01X463946Y226830D02*
G03X464900Y227040I454J210D01*
G01Y227630*
G03X464754Y227984I-500J0*
G01X461960Y230777*
G03X461441Y230896I-354J-353*
G01X464104Y233559D02*
G03X461441Y230896I-4104J1441D01*
G01X464104Y233559D02*
G03X464223Y233040I472J-165D01*
G01X466046Y231216*
G03X466900Y231570I354J354*
G01Y235630*
G03X466754Y235984I-500J0*
G01X461960Y240777*
G03X461441Y240896I-354J-353*
G01X464104Y243559D02*
G03X461441Y240896I-4104J1441D01*
G01X464104Y243559D02*
G03X464223Y243040I472J-165D01*
G01X468046Y239216*
G03X468900Y239570I354J354*
G01Y243630*
G03X468754Y243984I-500J0*
G01X461960Y250777*
G03X461441Y250896I-354J-353*
G01X464104Y253559D02*
G03X461441Y250896I-4104J1441D01*
G01X464104Y253559D02*
G03X464223Y253040I472J-165D01*
G01X470046Y247216*
G03X470900Y247570I354J354*
G01Y251630*
G03X470754Y251984I-500J0*
G01X461960Y260777*
G03X461441Y260896I-354J-353*
G01X464104Y263559D02*
G03X461441Y260896I-4104J1441D01*
G01X464104Y263559D02*
G03X464223Y263040I472J-165D01*
G01X472046Y255216*
G03X472900Y255570I354J354*
G01Y259630*
G03X472754Y259984I-500J0*
G01X461960Y270777*
G03X461441Y270896I-354J-353*
G01X464104Y273559D02*
G03X461441Y270896I-4104J1441D01*
G01X464104Y273559D02*
G03X464223Y273040I472J-165D01*
G01X475631Y261631*
X476100Y260500D02*
G03X475631Y261631I-1600J0D01*
G01X414350Y275000D02*
G03X414350I-4350J0D01*
G01Y345000D02*
G03X414350I-4350J0D01*
G01X464350Y285000D02*
G03X464350I-4350J0D01*
G01Y295000D02*
G03X464350I-4350J0D01*
G01X454350Y235000D02*
G03X454350I-4350J0D01*
G01Y245000D02*
G03X454350I-4350J0D01*
G01X414350Y135000D02*
G03X414350I-4350J0D01*
G01Y205000D02*
G03X414350I-4350J0D01*
G01X477600Y470000D02*
G03X477600I-7600J0D01*
G01X364350Y415000D02*
G03X364350I-4350J0D01*
G01Y475000D02*
G03X364350I-4350J0D01*
G01X350957Y470757D02*
G03X345757Y475957I-957J4243D01*
G01X350957Y470757D02*
G03X350714Y470622I110J-488D01*
G01X346746Y466655*
G03X346600Y466302I354J-353*
G01Y419850*
G03X347100Y419350I500J0*
G01X353250*
X354350Y418250D02*
G03X353250Y419350I-1100J0D01*
G01X354350Y418250D02*
Y411750D01*
X353250Y410650D02*
G03X354350Y411750I0J1100D01*
G01X353250Y410650D02*
X347100D01*
G03X346600Y410150I0J-500*
G01Y409100*
G03X347100Y408600I500J0*
G01X347409*
G03X347676Y408677I0J500*
G01Y401323D02*
G03Y408677I2324J3677D01*
G01Y401323D02*
G03X347409Y401400I-267J-423D01*
G01X347100*
G03X346600Y400900I0J-500*
G01Y349850*
G03X347100Y349350I500J0*
G01X353250*
X354350Y348250D02*
G03X353250Y349350I-1100J0D01*
G01X354350Y348250D02*
Y341750D01*
X353250Y340650D02*
G03X354350Y341750I0J1100D01*
G01X353250Y340650D02*
X347100D01*
G03X346600Y340150I0J-500*
G01Y339100*
G03X347100Y338600I500J0*
G01X347409*
G03X347676Y338677I0J500*
G01Y331323D02*
G03Y338677I2324J3677D01*
G01Y331323D02*
G03X347409Y331400I-267J-423D01*
G01X347100*
G03X346600Y330900I0J-500*
G01Y279850*
G03X347100Y279350I500J0*
G01X353250*
X354350Y278250D02*
G03X353250Y279350I-1100J0D01*
G01X354350Y278250D02*
Y271750D01*
X353250Y270650D02*
G03X354350Y271750I0J1100D01*
G01X353250Y270650D02*
X347100D01*
G03X346600Y270150I0J-500*
G01Y269100*
G03X347100Y268600I500J0*
G01X347409*
G03X347676Y268677I0J500*
G01Y261323D02*
G03Y268677I2324J3677D01*
G01Y261323D02*
G03X347409Y261400I-267J-423D01*
G01X347100*
G03X346600Y260900I0J-500*
G01Y209850*
G03X347100Y209350I500J0*
G01X353250*
X354350Y208250D02*
G03X353250Y209350I-1100J0D01*
G01X354350Y208250D02*
Y201750D01*
X353250Y200650D02*
G03X354350Y201750I0J1100D01*
G01X353250Y200650D02*
X347100D01*
G03X346600Y200150I0J-500*
G01Y199100*
G03X347100Y198600I500J0*
G01X347409*
G03X347676Y198677I0J500*
G01Y191323D02*
G03Y198677I2324J3677D01*
G01Y191323D02*
G03X347409Y191400I-267J-423D01*
G01X343500*
X340954Y192454D02*
G03X343500Y191400I2546J2546D01*
G01X340954Y192454D02*
X340454Y192954D01*
X339400Y195500D02*
G03X340454Y192954I3600J0D01*
G01X339400Y195500D02*
Y199951D01*
G03X338775Y200435I-500J-0*
G01X338500Y200400D02*
G03X338775Y200435I0J1100D01*
G01X338500Y200400D02*
X331500D01*
X330400Y201500D02*
G03X331500Y200400I1100J0D01*
G01X330400Y201500D02*
Y208500D01*
X331500Y209600D02*
G03X330400Y208500I0J-1100D01*
G01X331500Y209600D02*
X333586D01*
G03X333724Y210580I-0J500*
G01X334093Y219510D02*
G03X333724Y210580I907J-4510D01*
G01X334093Y219510D02*
G03Y220490I-98J490D01*
G01X338518Y227964D02*
G03X334093Y220490I-3518J-2964D01*
G01X338518Y227964D02*
G03X339400Y228286I382J322D01*
G01Y265000*
Y269951*
G03X338775Y270435I-500J-0*
G01X338500Y270400D02*
G03X338775Y270435I0J1100D01*
G01X338500Y270400D02*
X331500D01*
X330400Y271500D02*
G03X331500Y270400I1100J0D01*
G01X330400Y271500D02*
Y278500D01*
X331500Y279600D02*
G03X330400Y278500I0J-1100D01*
G01X331500Y279600D02*
X333586D01*
G03X333724Y280580I-0J500*
G01X334093Y289510D02*
G03X333724Y280580I907J-4510D01*
G01X334093Y289510D02*
G03Y290490I-98J490D01*
G01X338518Y297964D02*
G03X334093Y290490I-3518J-2964D01*
G01X338518Y297964D02*
G03X339400Y298286I382J322D01*
G01Y335000*
Y339951*
G03X338775Y340435I-500J-0*
G01X338500Y340400D02*
G03X338775Y340435I0J1100D01*
G01X338500Y340400D02*
X331500D01*
X330400Y341500D02*
G03X331500Y340400I1100J0D01*
G01X330400Y341500D02*
Y348500D01*
X331500Y349600D02*
G03X330400Y348500I0J-1100D01*
G01X331500Y349600D02*
X333586D01*
G03X333724Y350580I-0J500*
G01X334093Y359510D02*
G03X333724Y350580I907J-4510D01*
G01X334093Y359510D02*
G03Y360490I-98J490D01*
G01X338518Y367964D02*
G03X334093Y360490I-3518J-2964D01*
G01X338518Y367964D02*
G03X339400Y368286I382J322D01*
G01Y405000*
Y409951*
G03X338775Y410435I-500J-0*
G01X338500Y410400D02*
G03X338775Y410435I0J1100D01*
G01X338500Y410400D02*
X331500D01*
X330400Y411500D02*
G03X331500Y410400I1100J0D01*
G01X330400Y411500D02*
Y418500D01*
X331500Y419600D02*
G03X330400Y418500I0J-1100D01*
G01X331500Y419600D02*
X333586D01*
G03X333724Y420580I-0J500*
G01X334093Y429510D02*
G03X333724Y420580I907J-4510D01*
G01X334093Y429510D02*
G03Y430490I-98J490D01*
G01X338518Y437964D02*
G03X334093Y430490I-3518J-2964D01*
G01X338518Y437964D02*
G03X339400Y438286I382J322D01*
G01Y468000*
X340454Y470546D02*
G03X339400Y468000I2546J-2546D01*
G01X340454Y470546D02*
X345622Y475714D01*
G03X345757Y475957I-353J353*
G01X269100Y395000D02*
G03X269100I-4100J0D01*
G01Y405000D02*
G03X269100I-4100J0D01*
G01X259100D02*
G03X259100I-4100J0D01*
G01X249100Y395000D02*
G03X249100I-4100J0D01*
G01Y405000D02*
G03X249100I-4100J0D01*
G01X239100Y395000D02*
G03X239100I-4100J0D01*
G01Y405000D02*
G03X239100I-4100J0D01*
G01X229100Y395000D02*
G03X229100I-4100J0D01*
G01Y405000D02*
G03X229100I-4100J0D01*
G01X219100Y395000D02*
G03X219100I-4100J0D01*
G01Y405000D02*
G03X219100I-4100J0D01*
G01X209100Y395000D02*
G03X209100I-4100J0D01*
G01Y405000D02*
G03X209100I-4100J0D01*
G01X199100Y395000D02*
G03X199100I-4100J0D01*
G01Y405000D02*
G03X199100I-4100J0D01*
G01X189100Y395000D02*
G03X189100I-4100J0D01*
G01Y405000D02*
G03X189100I-4100J0D01*
G01X201809Y430000D02*
G03X201809I-6809J0D01*
G01X179100Y395000D02*
G03X179100I-4100J0D01*
G01Y405000D02*
G03X179100I-4100J0D01*
G01X169100Y395000D02*
G03X169100I-4100J0D01*
G01Y405000D02*
G03X169100I-4100J0D01*
G01X180155Y430000D02*
G03X180155I-6809J0D01*
G01X159100Y395000D02*
G03X159100I-4100J0D01*
G01Y405000D02*
G03X159100I-4100J0D01*
G01X149100Y395000D02*
G03X149100I-4100J0D01*
G01Y405000D02*
G03X149100I-4100J0D01*
G01X139100Y395000D02*
G03X139100I-4100J0D01*
G01Y405000D02*
G03X139100I-4100J0D01*
G01X151962Y430000D02*
G03X151962I-7356J0D01*
G01X127600Y120000D02*
G03X127600I-7600J0D01*
G01Y470000D02*
G03X127600I-7600J0D01*
G01X259100Y165000D02*
G03X259100I-4100J0D01*
G01Y175000D02*
G03X259100I-4100J0D01*
G01X249100Y165000D02*
G03X249100I-4100J0D01*
G01Y175000D02*
G03X249100I-4100J0D01*
G01X239100Y165000D02*
G03X239100I-4100J0D01*
G01Y175000D02*
G03X239100I-4100J0D01*
G01X299059Y402101D02*
G03X296601Y404559I-59J2399D01*
G01X299059Y402101D02*
G03X298717Y401954I12J-500D01*
G01X268631Y371869*
X267500Y371400D02*
G03X268631Y371869I0J1600D01*
G01X267500Y371400D02*
X254000D01*
G03X253655Y371262I0J-500*
G01Y374738D02*
G03Y371262I-1655J-1738D01*
G01Y374738D02*
G03X254000Y374600I345J362D01*
G01X266630*
G03X266984Y374746I0J500*
G01X296454Y404217*
G03X296601Y404559I-353J354*
G01X215490Y129093D02*
G03Y130907I4510J907D01*
G01Y129093D02*
G03X214510I-490J-98D01*
G01X205490D02*
G03X214510I4510J907D01*
G01X205490D02*
G03X204510I-490J-98D01*
G01X198375Y125696D02*
G03X204510Y129093I1625J4304D01*
G01X198375Y125696D02*
G03X197845Y125582I-176J-467D01*
G01X196131Y123869*
X195000Y123400D02*
G03X196131Y123869I0J1600D01*
G01X195000Y123400D02*
X172500D01*
G03X172155Y123262I0J-500*
G01Y126738D02*
G03Y123262I-1655J-1738D01*
G01Y126738D02*
G03X172500Y126600I345J362D01*
G01X185805*
G03X186216Y127384I-0J500*
G01X194510Y130907D02*
G03X186216Y127384I-4510J-907D01*
G01X194510Y130907D02*
G03X195490I490J98D01*
G01X204510D02*
G03X195490I-4510J-907D01*
G01X204510D02*
G03X205490I490J98D01*
G01X214510D02*
G03X205490I-4510J-907D01*
G01X214510D02*
G03X215490I490J98D01*
G01X229100Y165000D02*
G03X229100I-4100J0D01*
G01Y175000D02*
G03X229100I-4100J0D01*
G01X219100Y165000D02*
G03X219100I-4100J0D01*
G01Y175000D02*
G03X219100I-4100J0D01*
G01X209100Y165000D02*
G03X209100I-4100J0D01*
G01Y175000D02*
G03X209100I-4100J0D01*
G01X199100Y165000D02*
G03X199100I-4100J0D01*
G01Y175000D02*
G03X199100I-4100J0D01*
G01X189100Y165000D02*
G03X189100I-4100J0D01*
G01Y175000D02*
G03X189100I-4100J0D01*
G01X173744Y161097D02*
G03X171097Y163744I1256J3903D01*
G01X173744Y161097D02*
G03X173237Y160975I-153J-476D01*
G01X166631Y154369*
X165500Y153900D02*
G03X166631Y154369I0J1600D01*
G01X165500Y153900D02*
X158000D01*
G03X157655Y153762I0J-500*
G01Y157238D02*
G03Y153762I-1655J-1738D01*
G01Y157238D02*
G03X158000Y157100I345J362D01*
G01X164630*
G03X164984Y157246I0J500*
G01X170975Y163237*
G03X171097Y163744I-354J354*
G01X179100Y175000D02*
G03X179100I-4100J0D01*
G01X169100Y165000D02*
G03X169100I-4100J0D01*
G01Y175000D02*
G03X169100I-4100J0D01*
G01X159100Y165000D02*
G03X159100I-4100J0D01*
G01Y175000D02*
G03X159100I-4100J0D01*
G01X149100Y165000D02*
G03X149100I-4100J0D01*
G01Y175000D02*
G03X149100I-4100J0D01*
G01X139100Y165000D02*
G03X139100I-4100J0D01*
G01Y175000D02*
G03X139100I-4100J0D01*
G01X332345Y402762D02*
G03Y406238I1655J1738D01*
G01Y402762D02*
G03X332000Y402900I-345J-362D01*
G01X314000*
G03X313655Y402762I0J-500*
G01Y406238D02*
G03Y402762I-1655J-1738D01*
G01Y406238D02*
G03X314000Y406100I345J362D01*
G01X332000*
G03X332345Y406238I-0J500*
G01X364350Y205000D02*
G03X364350I-4350J0D01*
G01Y275000D02*
G03X364350I-4350J0D01*
G01Y345000D02*
G03X364350I-4350J0D01*
G01X414350Y415000D02*
G03X414350I-4350J0D01*
G01X427100Y343099D02*
X443887D01*
X427100Y343999D02*
X442890D01*
X427100Y344899D02*
X441990D01*
X427100Y345799D02*
X441090D01*
X427100Y346699D02*
X440190D01*
X427100Y342199D02*
X439423D01*
X427100Y347599D02*
X439290D01*
X427100Y348499D02*
X438390D01*
X427100Y341299D02*
X437687D01*
X427100Y349399D02*
X437490D01*
X427100Y340399D02*
X436787D01*
X427100Y350299D02*
X436590D01*
X427100Y339499D02*
X435887D01*
X427100Y351199D02*
X435690D01*
X427100Y338599D02*
X434987D01*
X427100Y352099D02*
X434790D01*
X427100Y337699D02*
X434087D01*
X427100Y352999D02*
X433890D01*
X427100Y336799D02*
X433187D01*
X427100Y353899D02*
X432990D01*
X427100Y335899D02*
X432287D01*
X427100Y354799D02*
X432090D01*
X427100Y334999D02*
X431387D01*
X427100Y355699D02*
X431190D01*
X427100Y334099D02*
X430487D01*
X427097Y356599D02*
X430290D01*
X427100Y333199D02*
X429587D01*
X426750Y357499D02*
X429390D01*
X427087Y332299D02*
X428687D01*
X425864Y358399D02*
X428490D01*
X427177Y331399D02*
X427781D01*
X425381Y359299D02*
X427590D01*
X425079Y360199D02*
X426690D01*
X424164Y361099D02*
X425790D01*
X391600Y361999D02*
X424890D01*
X391600Y362899D02*
X423990D01*
X391600Y354799D02*
X423900D01*
X391600Y353899D02*
X423900D01*
X391600Y352999D02*
X423900D01*
X391600Y352099D02*
X423900D01*
X391600Y351199D02*
X423900D01*
X391600Y350299D02*
X423900D01*
X391600Y349399D02*
X423900D01*
X422585Y348499D02*
X423900D01*
X422285Y341299D02*
X423900D01*
X387661Y340399D02*
X423900D01*
X386761Y339499D02*
X423900D01*
X422444Y338599D02*
X423900D01*
X391600Y355699D02*
X423895D01*
X391600Y363799D02*
X423090D01*
X391600Y356599D02*
X422976D01*
X391600Y364699D02*
X422190D01*
X391600Y361099D02*
X421836D01*
X391600Y365599D02*
X421290D01*
X391600Y357499D02*
X421128D01*
X391600Y360199D02*
X420921D01*
X391600Y358399D02*
X420677D01*
X391600Y359299D02*
X420619D01*
X391600Y366499D02*
X420390D01*
X416764Y330499D02*
X419561D01*
X391600Y367399D02*
X419490D01*
X391600Y368299D02*
X418590D01*
X412285Y341299D02*
X417715D01*
X391600Y369199D02*
X417690D01*
X415864Y331399D02*
X417560D01*
X412444Y338599D02*
X417556D01*
X412585Y348499D02*
X417415D01*
X391600Y370099D02*
X416790D01*
X413328Y342199D02*
X416672D01*
X414964Y332299D02*
X416590D01*
X413412Y337699D02*
X416588D01*
X413488Y347599D02*
X416512D01*
X413913Y343099D02*
X416087D01*
X414116Y333199D02*
X416040D01*
X413961Y336799D02*
X416039D01*
X414005Y346699D02*
X415995D01*
X391600Y370999D02*
X415890D01*
X414233Y343999D02*
X415767D01*
X414256Y334099D02*
X415744D01*
X414256Y335899D02*
X415744D01*
X414276Y345799D02*
X415724D01*
X414349Y344899D02*
X415651D01*
X414350Y334999D02*
X415650D01*
X391600Y371899D02*
X414990D01*
X391600Y372799D02*
X414090D01*
X391600Y373699D02*
X413190D01*
X391484Y374599D02*
X412290D01*
X390764Y375499D02*
X411390D01*
X389864Y376399D02*
X410490D01*
X388964Y377299D02*
X409590D01*
X388064Y378199D02*
X408690D01*
X387164Y379099D02*
X407790D01*
X402285Y341299D02*
X407715D01*
X402444Y338599D02*
X407556D01*
X402585Y348499D02*
X407415D01*
X386264Y379999D02*
X406890D01*
X403328Y342199D02*
X406672D01*
X403412Y337699D02*
X406588D01*
X403488Y347599D02*
X406512D01*
X403913Y343099D02*
X406087D01*
X403961Y336799D02*
X406039D01*
X404005Y346699D02*
X405995D01*
X385364Y380899D02*
X405990D01*
X404913Y333199D02*
X405883D01*
X404233Y343999D02*
X405767D01*
X404260Y334099D02*
X405744D01*
X404256Y335899D02*
X405744D01*
X404276Y345799D02*
X405724D01*
X404349Y344899D02*
X405651D01*
X404350Y334999D02*
X405650D01*
X384464Y381799D02*
X405090D01*
X383564Y382699D02*
X404190D01*
X382664Y383599D02*
X403290D01*
X381764Y384499D02*
X402390D01*
X380864Y385399D02*
X401490D01*
X379964Y386299D02*
X400590D01*
X379064Y387199D02*
X399683D01*
X392285Y341299D02*
X397715D01*
X392444Y338599D02*
X397556D01*
X392585Y348499D02*
X397415D01*
X393328Y342199D02*
X396672D01*
X393412Y337699D02*
X396588D01*
X393488Y347599D02*
X396512D01*
X393913Y343099D02*
X396087D01*
X393961Y336799D02*
X396039D01*
X394074Y346699D02*
X395926D01*
X394913Y333199D02*
X395883D01*
X394260Y334099D02*
X395744D01*
X394256Y335899D02*
X395744D01*
X394350Y334999D02*
X395650D01*
X385772Y338599D02*
X387556D01*
X383430Y337699D02*
X386588D01*
X383961Y336799D02*
X386039D01*
X384913Y333199D02*
X385883D01*
X384260Y334099D02*
X385744D01*
X384256Y335899D02*
X385744D01*
X384350Y334999D02*
X385650D01*
X378164Y388099D02*
X383295D01*
X377264Y388999D02*
X382424D01*
X376364Y389899D02*
X381553D01*
X375464Y390799D02*
X380682D01*
X374564Y391699D02*
X379811D01*
X373664Y392599D02*
X378940D01*
X372764Y393499D02*
X378069D01*
X371864Y394399D02*
X377198D01*
X370964Y395299D02*
X376327D01*
X370064Y396199D02*
X375456D01*
X369164Y397099D02*
X374585D01*
X368264Y397999D02*
X373714D01*
X367364Y398899D02*
X372843D01*
X366605Y399799D02*
X371972D01*
X370649Y400699D02*
X371028D01*
X366600D02*
X369351D01*
X366983Y401599D02*
X367217D01*
X440010Y322399D02*
X446483D01*
X439110Y321499D02*
X445887D01*
X438210Y320599D02*
X444987D01*
X437310Y319699D02*
X444087D01*
X436410Y318799D02*
X443187D01*
X435510Y317899D02*
X442287D01*
X434610Y316999D02*
X441387D01*
X433710Y316099D02*
X440487D01*
X432810Y315199D02*
X439587D01*
X431910Y314299D02*
X438687D01*
X431010Y313399D02*
X437787D01*
X430110Y312499D02*
X436887D01*
X429210Y311599D02*
X435987D01*
X428310Y310699D02*
X435087D01*
X427410Y309799D02*
X434187D01*
X426510Y308899D02*
X433287D01*
X425610Y307999D02*
X432387D01*
X424710Y307099D02*
X431594D01*
X423810Y306199D02*
X431309D01*
X422910Y305299D02*
X431300D01*
X422009Y304399D02*
X431300D01*
X391600Y303499D02*
X431300D01*
X391600Y302599D02*
X431300D01*
X391600Y301699D02*
X431300D01*
X391600Y300799D02*
X431300D01*
X391600Y299899D02*
X431300D01*
X391600Y298999D02*
X431300D01*
X391600Y298099D02*
X431300D01*
X391600Y297199D02*
X431300D01*
X391600Y296299D02*
X431300D01*
X391600Y295399D02*
X431300D01*
X391600Y294499D02*
X431300D01*
X391600Y293599D02*
X431300D01*
X391600Y292699D02*
X431300D01*
X391600Y291799D02*
X431300D01*
X391600Y290899D02*
X431300D01*
X391600Y289999D02*
X431300D01*
X391600Y289099D02*
X431300D01*
X391600Y288199D02*
X431300D01*
X424089Y287299D02*
X431300D01*
X424725Y286399D02*
X431300D01*
X424904Y285499D02*
X431300D01*
X425664Y284599D02*
X431300D01*
X426564Y283699D02*
X431300D01*
X427072Y282799D02*
X431300D01*
X427100Y281899D02*
X431300D01*
X427100Y280999D02*
X431300D01*
X427100Y280099D02*
X431300D01*
X427100Y279199D02*
X431300D01*
X427100Y278299D02*
X431300D01*
X427100Y277399D02*
X431300D01*
X427100Y276499D02*
X431300D01*
X427100Y275599D02*
X431300D01*
X427100Y274699D02*
X431300D01*
X427100Y273799D02*
X431300D01*
X427100Y272899D02*
X431300D01*
X427100Y271999D02*
X431300D01*
X427100Y271099D02*
X431300D01*
X427100Y270199D02*
X431300D01*
X427100Y269299D02*
X431300D01*
X427100Y268399D02*
X431300D01*
X427100Y267499D02*
X431300D01*
X427100Y266599D02*
X431300D01*
X427100Y265699D02*
X431300D01*
X427100Y264799D02*
X431300D01*
X427100Y263899D02*
X431300D01*
X427100Y262999D02*
X431300D01*
X427100Y262099D02*
X431300D01*
X427071Y261199D02*
X430587D01*
X426561Y260299D02*
X429687D01*
X425898Y259399D02*
X428787D01*
X425681Y258499D02*
X427887D01*
X391600Y280999D02*
X423900D01*
X391600Y280099D02*
X423900D01*
X421137Y279199D02*
X423900D01*
X421924Y271099D02*
X423900D01*
X387461Y270199D02*
X423900D01*
X420666Y269299D02*
X423900D01*
X422715Y268399D02*
X423896D01*
X422836Y278299D02*
X423874D01*
X391600Y281899D02*
X423822D01*
X423198Y271999D02*
X423602D01*
X391600Y282799D02*
X422939D01*
X391600Y283699D02*
X420914D01*
X391600Y287299D02*
X420911D01*
X391600Y284599D02*
X420276D01*
X391600Y286399D02*
X420275D01*
X391600Y285499D02*
X420100D01*
X410666Y269299D02*
X419334D01*
X411137Y279199D02*
X418863D01*
X411924Y271099D02*
X418076D01*
X412715Y268399D02*
X417285D01*
X412836Y278299D02*
X417164D01*
X413149Y271999D02*
X416851D01*
X416072Y261199D02*
X416839D01*
X415164Y262099D02*
X416759D01*
X413561Y267499D02*
X416439D01*
X413629Y277399D02*
X416371D01*
X413809Y272899D02*
X416191D01*
X414264Y262999D02*
X416138D01*
X414046Y266599D02*
X415954D01*
X414084Y276499D02*
X415916D01*
X414181Y273799D02*
X415819D01*
X414208Y263899D02*
X415792D01*
X414294Y265699D02*
X415706D01*
X414309Y275599D02*
X415691D01*
X414340Y274699D02*
X415660D01*
X414345Y264799D02*
X415655D01*
X400666Y269299D02*
X409334D01*
X401137Y279199D02*
X408863D01*
X401924Y271099D02*
X408076D01*
X402715Y268399D02*
X407285D01*
X402836Y278299D02*
X407164D01*
X403149Y271999D02*
X406851D01*
X403561Y267499D02*
X406439D01*
X403629Y277399D02*
X406371D01*
X403809Y272899D02*
X406191D01*
X404046Y266599D02*
X405954D01*
X404084Y276499D02*
X405916D01*
X404181Y273799D02*
X405819D01*
X404285Y263899D02*
X405792D01*
X405119Y262999D02*
X405728D01*
X404294Y265699D02*
X405706D01*
X404309Y275599D02*
X405691D01*
X404340Y274699D02*
X405660D01*
X404345Y264799D02*
X405655D01*
X390666Y269299D02*
X399334D01*
X391631Y279199D02*
X398863D01*
X391924Y271099D02*
X398076D01*
X391600Y304399D02*
X397491D01*
X392715Y268399D02*
X397285D01*
X392836Y278299D02*
X397164D01*
X393149Y271999D02*
X396851D01*
X391600Y305299D02*
X396590D01*
X393561Y267499D02*
X396439D01*
X393629Y277399D02*
X396371D01*
X393809Y272899D02*
X396191D01*
X394046Y266599D02*
X395954D01*
X394285Y263899D02*
X395792D01*
X395119Y262999D02*
X395728D01*
X394294Y265699D02*
X395706D01*
X391439Y306199D02*
X395690D01*
X394345Y264799D02*
X395655D01*
X390664Y307099D02*
X394790D01*
X389764Y307999D02*
X393890D01*
X388864Y308899D02*
X392990D01*
X387964Y309799D02*
X392090D01*
X387064Y310699D02*
X391190D01*
X386164Y311599D02*
X390290D01*
X385264Y312499D02*
X389390D01*
X386561Y269299D02*
X389334D01*
X384364Y313399D02*
X388490D01*
X383464Y314299D02*
X387590D01*
X383852Y268399D02*
X387285D01*
X382564Y315199D02*
X386690D01*
X383561Y267499D02*
X386439D01*
X384046Y266599D02*
X385954D01*
X384285Y263899D02*
X385792D01*
X381664Y316099D02*
X385790D01*
X385119Y262999D02*
X385728D01*
X384294Y265699D02*
X385706D01*
X384345Y264799D02*
X385655D01*
X380764Y316999D02*
X384890D01*
X379864Y317899D02*
X383990D01*
X378964Y318799D02*
X383090D01*
X378064Y319699D02*
X382190D01*
X377164Y320599D02*
X381290D01*
X376264Y321499D02*
X380390D01*
X375364Y322399D02*
X379490D01*
X374464Y323299D02*
X378590D01*
X373564Y324199D02*
X377690D01*
X372664Y325099D02*
X376790D01*
X371764Y325999D02*
X375890D01*
X370864Y326899D02*
X374990D01*
X369964Y327799D02*
X374090D01*
X369064Y328699D02*
X373190D01*
X368164Y329599D02*
X372290D01*
X367320Y330499D02*
X371390D01*
X103000Y486199D02*
X487000D01*
X103000Y485299D02*
X487000D01*
X103000Y484399D02*
X487000D01*
X103000Y483499D02*
X487000D01*
X103000Y482599D02*
X487000D01*
X103000Y481699D02*
X487000D01*
X103000Y480799D02*
X487000D01*
X103000Y479899D02*
X487000D01*
X421713Y478999D02*
X487000D01*
X423053Y478099D02*
X487000D01*
X472437Y477199D02*
X487000D01*
X474253Y476299D02*
X487000D01*
X475349Y475399D02*
X487000D01*
X476126Y474499D02*
X487000D01*
X476694Y473599D02*
X487000D01*
X477105Y472699D02*
X487000D01*
X477384Y471799D02*
X487000D01*
X477547Y470899D02*
X487000D01*
X477600Y469999D02*
X487000D01*
X477546Y469099D02*
X487000D01*
X477383Y468199D02*
X487000D01*
X477104Y467299D02*
X487000D01*
X476693Y466399D02*
X487000D01*
X476124Y465499D02*
X487000D01*
X475347Y464599D02*
X487000D01*
X474249Y463699D02*
X487000D01*
X472429Y462799D02*
X487000D01*
X439713Y461899D02*
X487000D01*
X440613Y460999D02*
X487000D01*
X441513Y460099D02*
X487000D01*
X442413Y459199D02*
X487000D01*
X443313Y458299D02*
X487000D01*
X444213Y457399D02*
X487000D01*
X445113Y456499D02*
X487000D01*
X446013Y455599D02*
X487000D01*
X446913Y454699D02*
X487000D01*
X447813Y453799D02*
X487000D01*
X448713Y452899D02*
X487000D01*
X449613Y451999D02*
X487000D01*
X450513Y451099D02*
X487000D01*
X451413Y450199D02*
X487000D01*
X452313Y449299D02*
X487000D01*
X453213Y448399D02*
X487000D01*
X454113Y447499D02*
X487000D01*
X455013Y446599D02*
X487000D01*
X455913Y445699D02*
X487000D01*
X456813Y444799D02*
X487000D01*
X457713Y443899D02*
X487000D01*
X458613Y442999D02*
X487000D01*
X459513Y442099D02*
X487000D01*
X460413Y441199D02*
X487000D01*
X461313Y440299D02*
X487000D01*
X462008Y439399D02*
X487000D01*
X462200Y438499D02*
X487000D01*
X462200Y437599D02*
X487000D01*
X462200Y436699D02*
X487000D01*
X462200Y435799D02*
X487000D01*
X462200Y434899D02*
X487000D01*
X462200Y433999D02*
X487000D01*
X462200Y433099D02*
X487000D01*
X462200Y432199D02*
X487000D01*
X462200Y431299D02*
X487000D01*
X462200Y430399D02*
X487000D01*
X462200Y429499D02*
X487000D01*
X462200Y428599D02*
X487000D01*
X462200Y427699D02*
X487000D01*
X462200Y426799D02*
X487000D01*
X462200Y425899D02*
X487000D01*
X462200Y424999D02*
X487000D01*
X462200Y424099D02*
X487000D01*
X462200Y423199D02*
X487000D01*
X462200Y422299D02*
X487000D01*
X462200Y421399D02*
X487000D01*
X462200Y420499D02*
X487000D01*
X462200Y419599D02*
X487000D01*
X462200Y418699D02*
X487000D01*
X462200Y417799D02*
X487000D01*
X462200Y416899D02*
X487000D01*
X462200Y415999D02*
X487000D01*
X462200Y415099D02*
X487000D01*
X462200Y414199D02*
X487000D01*
X462200Y413299D02*
X487000D01*
X462200Y412399D02*
X487000D01*
X462200Y411499D02*
X487000D01*
X462200Y410599D02*
X487000D01*
X462200Y409699D02*
X487000D01*
X462200Y408799D02*
X487000D01*
X462200Y407899D02*
X487000D01*
X462200Y406999D02*
X487000D01*
X462200Y406099D02*
X487000D01*
X462200Y405199D02*
X487000D01*
X462200Y404299D02*
X487000D01*
X462200Y403399D02*
X487000D01*
X462200Y402499D02*
X487000D01*
X462200Y401599D02*
X487000D01*
X462200Y400699D02*
X487000D01*
X462200Y399799D02*
X487000D01*
X462200Y398899D02*
X487000D01*
X462200Y397999D02*
X487000D01*
X462200Y397099D02*
X487000D01*
X462200Y396199D02*
X487000D01*
X462200Y395299D02*
X487000D01*
X462200Y394399D02*
X487000D01*
X462200Y393499D02*
X487000D01*
X462200Y392599D02*
X487000D01*
X462200Y391699D02*
X487000D01*
X462200Y390799D02*
X487000D01*
X462200Y389899D02*
X487000D01*
X462200Y388999D02*
X487000D01*
X462200Y388099D02*
X487000D01*
X462200Y387199D02*
X487000D01*
X462200Y386299D02*
X487000D01*
X462200Y385399D02*
X487000D01*
X462200Y384499D02*
X487000D01*
X462200Y383599D02*
X487000D01*
X462200Y382699D02*
X487000D01*
X462200Y381799D02*
X487000D01*
X462200Y380899D02*
X487000D01*
X462200Y379999D02*
X487000D01*
X462200Y379099D02*
X487000D01*
X462948Y378199D02*
X487000D01*
X463693Y377299D02*
X487000D01*
X464119Y376399D02*
X487000D01*
X464321Y375499D02*
X487000D01*
X464331Y374599D02*
X487000D01*
X464151Y373699D02*
X487000D01*
X463752Y372799D02*
X487000D01*
X463050Y371899D02*
X487000D01*
X461707Y370999D02*
X487000D01*
X458015Y370099D02*
X487000D01*
X461137Y369199D02*
X487000D01*
X462836Y368299D02*
X487000D01*
X463629Y367399D02*
X487000D01*
X464084Y366499D02*
X487000D01*
X464309Y365599D02*
X487000D01*
X464340Y364699D02*
X487000D01*
X464181Y363799D02*
X487000D01*
X463809Y362899D02*
X487000D01*
X463149Y361999D02*
X487000D01*
X461924Y361099D02*
X487000D01*
X457948Y360199D02*
X487000D01*
X460666Y359299D02*
X487000D01*
X462715Y358399D02*
X487000D01*
X463561Y357499D02*
X487000D01*
X464046Y356599D02*
X487000D01*
X464294Y355699D02*
X487000D01*
X464345Y354799D02*
X487000D01*
X464208Y353899D02*
X487000D01*
X463862Y352999D02*
X487000D01*
X463241Y352099D02*
X487000D01*
X462115Y351199D02*
X487000D01*
X457911Y350299D02*
X487000D01*
X458713Y349399D02*
X487000D01*
X462585Y348499D02*
X487000D01*
X463488Y347599D02*
X487000D01*
X464005Y346699D02*
X487000D01*
X464276Y345799D02*
X487000D01*
X464349Y344899D02*
X487000D01*
X464233Y343999D02*
X487000D01*
X463913Y343099D02*
X487000D01*
X463328Y342199D02*
X487000D01*
X462285Y341299D02*
X487000D01*
X457896Y340399D02*
X487000D01*
X458613Y339499D02*
X487000D01*
X462444Y338599D02*
X487000D01*
X463412Y337699D02*
X487000D01*
X463961Y336799D02*
X487000D01*
X464256Y335899D02*
X487000D01*
X464350Y334999D02*
X487000D01*
X464256Y334099D02*
X487000D01*
X463960Y333199D02*
X487000D01*
X463410Y332299D02*
X487000D01*
X462440Y331399D02*
X487000D01*
X457901Y330499D02*
X487000D01*
X458513Y329599D02*
X487000D01*
X462290Y328699D02*
X487000D01*
X463330Y327799D02*
X487000D01*
X463914Y326899D02*
X487000D01*
X464234Y325999D02*
X487000D01*
X464349Y325099D02*
X487000D01*
X464276Y324199D02*
X487000D01*
X464004Y323299D02*
X487000D01*
X463487Y322399D02*
X487000D01*
X462581Y321499D02*
X487000D01*
X457927Y320599D02*
X487000D01*
X458413Y319699D02*
X487000D01*
X462120Y318799D02*
X487000D01*
X463244Y317899D02*
X487000D01*
X463864Y316999D02*
X487000D01*
X464209Y316099D02*
X487000D01*
X464345Y315199D02*
X487000D01*
X464293Y314299D02*
X487000D01*
X464045Y313399D02*
X487000D01*
X463559Y312499D02*
X487000D01*
X462712Y311599D02*
X487000D01*
X460649Y310699D02*
X487000D01*
X458313Y309799D02*
X487000D01*
X461929Y308899D02*
X487000D01*
X463151Y307999D02*
X487000D01*
X463810Y307099D02*
X487000D01*
X464182Y306199D02*
X487000D01*
X464340Y305299D02*
X487000D01*
X464308Y304399D02*
X487000D01*
X464083Y303499D02*
X487000D01*
X463627Y302599D02*
X487000D01*
X462833Y301699D02*
X487000D01*
X461128Y300799D02*
X487000D01*
X448013Y299899D02*
X487000D01*
X461713Y298999D02*
X487000D01*
X463053Y298099D02*
X487000D01*
X463753Y297199D02*
X487000D01*
X464152Y296299D02*
X487000D01*
X464332Y295399D02*
X487000D01*
X464321Y294499D02*
X487000D01*
X464118Y293599D02*
X487000D01*
X463691Y292699D02*
X487000D01*
X462945Y291799D02*
X487000D01*
X461450Y290899D02*
X487000D01*
X446700Y289999D02*
X487000D01*
X461457Y289099D02*
X487000D01*
X462948Y288199D02*
X487000D01*
X463693Y287299D02*
X487000D01*
X464119Y286399D02*
X487000D01*
X464321Y285499D02*
X487000D01*
X464331Y284599D02*
X487000D01*
X464151Y283699D02*
X487000D01*
X463752Y282799D02*
X487000D01*
X463050Y281899D02*
X487000D01*
X461707Y280999D02*
X487000D01*
X446700Y280099D02*
X487000D01*
X461137Y279199D02*
X487000D01*
X462836Y278299D02*
X487000D01*
X463629Y277399D02*
X487000D01*
X464084Y276499D02*
X487000D01*
X464309Y275599D02*
X487000D01*
X464340Y274699D02*
X487000D01*
X464181Y273799D02*
X487000D01*
X464364Y272899D02*
X487000D01*
X465264Y271999D02*
X487000D01*
X466164Y271099D02*
X487000D01*
X467064Y270199D02*
X487000D01*
X467964Y269299D02*
X487000D01*
X468864Y268399D02*
X487000D01*
X469764Y267499D02*
X487000D01*
X470664Y266599D02*
X487000D01*
X471564Y265699D02*
X487000D01*
X472464Y264799D02*
X487000D01*
X473364Y263899D02*
X487000D01*
X474264Y262999D02*
X487000D01*
X475164Y262099D02*
X487000D01*
X475939Y261199D02*
X487000D01*
X476100Y260299D02*
X487000D01*
X476100Y259399D02*
X487000D01*
X476100Y258499D02*
X487000D01*
X476100Y257599D02*
X487000D01*
X476100Y256699D02*
X487000D01*
X476100Y255799D02*
X487000D01*
X476100Y254899D02*
X487000D01*
X476100Y253999D02*
X487000D01*
X476100Y253099D02*
X487000D01*
X476100Y252199D02*
X487000D01*
X476100Y251299D02*
X487000D01*
X476100Y250399D02*
X487000D01*
X476100Y249499D02*
X487000D01*
X476100Y248599D02*
X487000D01*
X476100Y247699D02*
X487000D01*
X476100Y246799D02*
X487000D01*
X476100Y245899D02*
X487000D01*
X476100Y244999D02*
X487000D01*
X476100Y244099D02*
X487000D01*
X476100Y243199D02*
X487000D01*
X476100Y242299D02*
X487000D01*
X476100Y241399D02*
X487000D01*
X476100Y240499D02*
X487000D01*
X476100Y239599D02*
X487000D01*
X476100Y238699D02*
X487000D01*
X476100Y237799D02*
X487000D01*
X476100Y236899D02*
X487000D01*
X476100Y235999D02*
X487000D01*
X476100Y235099D02*
X487000D01*
X476100Y234199D02*
X487000D01*
X476100Y233299D02*
X487000D01*
X476100Y232399D02*
X487000D01*
X476100Y231499D02*
X487000D01*
X476100Y230599D02*
X487000D01*
X476100Y229699D02*
X487000D01*
X476100Y228799D02*
X487000D01*
X476100Y227899D02*
X487000D01*
X476100Y226999D02*
X487000D01*
X476100Y226099D02*
X487000D01*
X476100Y225199D02*
X487000D01*
X476100Y224299D02*
X487000D01*
X476100Y223399D02*
X487000D01*
X476100Y222499D02*
X487000D01*
X476100Y221599D02*
X487000D01*
X476100Y220699D02*
X487000D01*
X476100Y219799D02*
X487000D01*
X476100Y218899D02*
X487000D01*
X476100Y217999D02*
X487000D01*
X476100Y217099D02*
X487000D01*
X476100Y216199D02*
X487000D01*
X476100Y215299D02*
X487000D01*
X476100Y214399D02*
X487000D01*
X476100Y213499D02*
X487000D01*
X476100Y212599D02*
X487000D01*
X476100Y211699D02*
X487000D01*
X476100Y210799D02*
X487000D01*
X476100Y209899D02*
X487000D01*
X476100Y208999D02*
X487000D01*
X476100Y208099D02*
X487000D01*
X476100Y207199D02*
X487000D01*
X476100Y206299D02*
X487000D01*
X476100Y205399D02*
X487000D01*
X476100Y204499D02*
X487000D01*
X476100Y203599D02*
X487000D01*
X476100Y202699D02*
X487000D01*
X476100Y201799D02*
X487000D01*
X476100Y200899D02*
X487000D01*
X476100Y199999D02*
X487000D01*
X476100Y199099D02*
X487000D01*
X476100Y198199D02*
X487000D01*
X476100Y197299D02*
X487000D01*
X476100Y196399D02*
X487000D01*
X476100Y195499D02*
X487000D01*
X476100Y194599D02*
X487000D01*
X476100Y193699D02*
X487000D01*
X476100Y192799D02*
X487000D01*
X476100Y191899D02*
X487000D01*
X476100Y190999D02*
X487000D01*
X476100Y190099D02*
X487000D01*
X476100Y189199D02*
X487000D01*
X476100Y188299D02*
X487000D01*
X476100Y187399D02*
X487000D01*
X476100Y186499D02*
X487000D01*
X476100Y185599D02*
X487000D01*
X476100Y184699D02*
X487000D01*
X476100Y183799D02*
X487000D01*
X476100Y182899D02*
X487000D01*
X476100Y181999D02*
X487000D01*
X476100Y181099D02*
X487000D01*
X476100Y180199D02*
X487000D01*
X476100Y179299D02*
X487000D01*
X476100Y178399D02*
X487000D01*
X476100Y177499D02*
X487000D01*
X476100Y176599D02*
X487000D01*
X476100Y175699D02*
X487000D01*
X476100Y174799D02*
X487000D01*
X476100Y173899D02*
X487000D01*
X476100Y172999D02*
X487000D01*
X476100Y172099D02*
X487000D01*
X476100Y171199D02*
X487000D01*
X476100Y170299D02*
X487000D01*
X476100Y169399D02*
X487000D01*
X476100Y168499D02*
X487000D01*
X476100Y167599D02*
X487000D01*
X476100Y166699D02*
X487000D01*
X476100Y165799D02*
X487000D01*
X476100Y164899D02*
X487000D01*
X476100Y163999D02*
X487000D01*
X476100Y163099D02*
X487000D01*
X476100Y162199D02*
X487000D01*
X476100Y161299D02*
X487000D01*
X475983Y160399D02*
X487000D01*
X475261Y159499D02*
X487000D01*
X474361Y158599D02*
X487000D01*
X473461Y157699D02*
X487000D01*
X472561Y156799D02*
X487000D01*
X471661Y155899D02*
X487000D01*
X470761Y154999D02*
X487000D01*
X469861Y154099D02*
X487000D01*
X468961Y153199D02*
X487000D01*
X468061Y152299D02*
X487000D01*
X467161Y151399D02*
X487000D01*
X466261Y150499D02*
X487000D01*
X465361Y149599D02*
X487000D01*
X464461Y148699D02*
X487000D01*
X463561Y147799D02*
X487000D01*
X462661Y146899D02*
X487000D01*
X461761Y145999D02*
X487000D01*
X460861Y145099D02*
X487000D01*
X459961Y144199D02*
X487000D01*
X459061Y143299D02*
X487000D01*
X458161Y142399D02*
X487000D01*
X457261Y141499D02*
X487000D01*
X456361Y140599D02*
X487000D01*
X455461Y139699D02*
X487000D01*
X454561Y138799D02*
X487000D01*
X453661Y137899D02*
X487000D01*
X452761Y136999D02*
X487000D01*
X451861Y136099D02*
X487000D01*
X450961Y135199D02*
X487000D01*
X450061Y134299D02*
X487000D01*
X449161Y133399D02*
X487000D01*
X448261Y132499D02*
X487000D01*
X447361Y131599D02*
X487000D01*
X446461Y130699D02*
X487000D01*
X445561Y129799D02*
X487000D01*
X444661Y128899D02*
X487000D01*
X443761Y127999D02*
X487000D01*
X472715Y127099D02*
X487000D01*
X474397Y126199D02*
X487000D01*
X475448Y125299D02*
X487000D01*
X476198Y124399D02*
X487000D01*
X476747Y123499D02*
X487000D01*
X477142Y122599D02*
X487000D01*
X477408Y121699D02*
X487000D01*
X477558Y120799D02*
X487000D01*
X477599Y119899D02*
X487000D01*
X477534Y118999D02*
X487000D01*
X477358Y118099D02*
X487000D01*
X477065Y117199D02*
X487000D01*
X476638Y116299D02*
X487000D01*
X476049Y115399D02*
X487000D01*
X475244Y114499D02*
X487000D01*
X474097Y113599D02*
X487000D01*
X472110Y112699D02*
X487000D01*
X427561Y111799D02*
X487000D01*
X426661Y110899D02*
X487000D01*
X103000Y109999D02*
X487000D01*
X103000Y109099D02*
X487000D01*
X103000Y108199D02*
X487000D01*
X103000Y107299D02*
X487000D01*
X103000Y106399D02*
X487000D01*
X467864Y259399D02*
X472900D01*
X468764Y258499D02*
X472900D01*
X469664Y257599D02*
X472900D01*
X470564Y256699D02*
X472900D01*
X471464Y255799D02*
X472900D01*
X466964Y260299D02*
X472439D01*
X466064Y261199D02*
X471539D01*
X465964Y251299D02*
X470900D01*
X466864Y250399D02*
X470900D01*
X467764Y249499D02*
X470900D01*
X468664Y248599D02*
X470900D01*
X469564Y247699D02*
X470900D01*
X465164Y262099D02*
X470639D01*
X465064Y252199D02*
X470539D01*
X464264Y262999D02*
X469739D01*
X464173Y253099D02*
X469639D01*
X464116Y243199D02*
X468900D01*
X464964Y242299D02*
X468900D01*
X465864Y241399D02*
X468900D01*
X466764Y240499D02*
X468900D01*
X467664Y239599D02*
X468900D01*
X464208Y263899D02*
X468839D01*
X464233Y253999D02*
X468739D01*
X464256Y244099D02*
X468639D01*
X464345Y264799D02*
X467939D01*
X428461Y112699D02*
X467890D01*
X464349Y254899D02*
X467839D01*
X464350Y244999D02*
X467739D01*
X438813Y462799D02*
X467571D01*
X423753Y477199D02*
X467563D01*
X442861Y127099D02*
X467285D01*
X464294Y265699D02*
X467039D01*
X464276Y255799D02*
X466939D01*
X464349Y235099D02*
X466900D01*
X464276Y234199D02*
X466900D01*
X464085Y233299D02*
X466900D01*
X464864Y232399D02*
X466900D01*
X465764Y231499D02*
X466895D01*
X464256Y245899D02*
X466839D01*
X464234Y235999D02*
X466739D01*
X464046Y266599D02*
X466139D01*
X464005Y256699D02*
X466039D01*
X463961Y246799D02*
X465939D01*
X429361Y113599D02*
X465903D01*
X463914Y236899D02*
X465839D01*
X437913Y463699D02*
X465751D01*
X424152Y476299D02*
X465747D01*
X441961Y126199D02*
X465603D01*
X463561Y267499D02*
X465239D01*
X463488Y257599D02*
X465139D01*
X463412Y247699D02*
X465039D01*
X463330Y237799D02*
X464939D01*
X463864Y226999D02*
X464898D01*
X463244Y227899D02*
X464822D01*
X430261Y114499D02*
X464756D01*
X437013Y464599D02*
X464653D01*
X424332Y475399D02*
X464651D01*
X441061Y125299D02*
X464552D01*
X462715Y268399D02*
X464339D01*
X462585Y258499D02*
X464239D01*
X462444Y248599D02*
X464139D01*
X462290Y238699D02*
X464039D01*
X431161Y115399D02*
X463951D01*
X462120Y228799D02*
X463939D01*
X435919Y465499D02*
X463876D01*
X424321Y474499D02*
X463874D01*
X440161Y124399D02*
X463802D01*
X460666Y269299D02*
X463439D01*
X432061Y116299D02*
X463362D01*
X446700Y259399D02*
X463339D01*
X424308Y466399D02*
X463307D01*
X424118Y473599D02*
X463306D01*
X439261Y123499D02*
X463253D01*
X440110Y249499D02*
X463239D01*
X388664Y239599D02*
X463139D01*
X391600Y229699D02*
X463039D01*
X432961Y117199D02*
X462935D01*
X425078Y467299D02*
X462896D01*
X423691Y472699D02*
X462895D01*
X438361Y122599D02*
X462858D01*
X433861Y118099D02*
X462642D01*
X425381Y468199D02*
X462617D01*
X422945Y471799D02*
X462616D01*
X437461Y121699D02*
X462592D01*
X446700Y270199D02*
X462539D01*
X434761Y118999D02*
X462466D01*
X425324Y469099D02*
X462454D01*
X423147Y470899D02*
X462453D01*
X436561Y120799D02*
X462442D01*
X446700Y260299D02*
X462439D01*
X435661Y119899D02*
X462401D01*
X424875Y469999D02*
X462400D01*
X441010Y250399D02*
X462339D01*
X387764Y240499D02*
X462239D01*
X391600Y230599D02*
X462139D01*
X457978Y310699D02*
X459351D01*
X458863Y359299D02*
X459334D01*
X450666Y269299D02*
X459334D01*
X451128Y300799D02*
X458872D01*
X451137Y279199D02*
X458863D01*
X447061Y219799D02*
X458562D01*
X451450Y290899D02*
X458550D01*
X451457Y289099D02*
X458543D01*
X451600Y209899D02*
X458400D01*
X451600Y208999D02*
X458400D01*
X451600Y208099D02*
X458400D01*
X451600Y207199D02*
X458400D01*
X451600Y206299D02*
X458400D01*
X451600Y205399D02*
X458400D01*
X451600Y204499D02*
X458400D01*
X451600Y203599D02*
X458400D01*
X451600Y202699D02*
X458400D01*
X451600Y201799D02*
X458400D01*
X451600Y200899D02*
X458400D01*
X451600Y199999D02*
X458400D01*
X451600Y199099D02*
X458400D01*
X451600Y198199D02*
X458400D01*
X451600Y197299D02*
X458400D01*
X451600Y196399D02*
X458400D01*
X451600Y195499D02*
X458400D01*
X451600Y194599D02*
X458400D01*
X451600Y193699D02*
X458400D01*
X451600Y192799D02*
X458400D01*
X451600Y191899D02*
X458400D01*
X451600Y190999D02*
X458400D01*
X451600Y190099D02*
X458400D01*
X451600Y189199D02*
X458400D01*
X451600Y188299D02*
X458400D01*
X451600Y187399D02*
X458400D01*
X451600Y186499D02*
X458400D01*
X451600Y185599D02*
X458400D01*
X451600Y184699D02*
X458400D01*
X451600Y183799D02*
X458400D01*
X451600Y182899D02*
X458400D01*
X451600Y181999D02*
X458400D01*
X451600Y181099D02*
X458400D01*
X451600Y180199D02*
X458400D01*
X451600Y179299D02*
X458400D01*
X451600Y178399D02*
X458400D01*
X451600Y177499D02*
X458400D01*
X451600Y176599D02*
X458400D01*
X451600Y175699D02*
X458400D01*
X451600Y174799D02*
X458400D01*
X451600Y173899D02*
X458400D01*
X451600Y172999D02*
X458400D01*
X451600Y172099D02*
X458400D01*
X451600Y171199D02*
X458400D01*
X451600Y170299D02*
X458400D01*
X451600Y169399D02*
X458400D01*
X451600Y168499D02*
X458400D01*
X451600Y167599D02*
X458400D01*
X451600Y166699D02*
X458400D01*
X451600Y165799D02*
X458400D01*
X451600Y164899D02*
X458400D01*
X451600Y163999D02*
X458400D01*
X451600Y163099D02*
X458400D01*
X450649Y220699D02*
X458395D01*
X451630Y210799D02*
X458370D01*
X451600Y162199D02*
X458370D01*
X451707Y280999D02*
X458293D01*
X451713Y298999D02*
X458287D01*
X451924Y271099D02*
X458076D01*
X451929Y218899D02*
X458071D01*
X452115Y261199D02*
X457885D01*
X452120Y228799D02*
X457880D01*
X452285Y251299D02*
X457715D01*
X452290Y238699D02*
X457710D01*
X452440Y241399D02*
X457560D01*
X452444Y248599D02*
X457556D01*
X451600Y161299D02*
X457536D01*
X452581Y231499D02*
X457419D01*
X452585Y258499D02*
X457415D01*
X452712Y221599D02*
X457288D01*
X452715Y268399D02*
X457285D01*
X452833Y301699D02*
X457167D01*
X452833Y211699D02*
X457167D01*
X452836Y278299D02*
X457164D01*
X452945Y291799D02*
X457055D01*
X452948Y288199D02*
X457052D01*
X453050Y281899D02*
X456950D01*
X453053Y298099D02*
X456947D01*
X453149Y271999D02*
X456851D01*
X453151Y217999D02*
X456849D01*
X453241Y262099D02*
X456759D01*
X453244Y227899D02*
X456756D01*
X453328Y252199D02*
X456672D01*
X453330Y237799D02*
X456670D01*
X451600Y160399D02*
X456636D01*
X453410Y242299D02*
X456590D01*
X453412Y247699D02*
X456588D01*
X453487Y232399D02*
X456513D01*
X453488Y257599D02*
X456512D01*
X453559Y222499D02*
X456441D01*
X453561Y267499D02*
X456439D01*
X453627Y302599D02*
X456373D01*
X453627Y212599D02*
X456373D01*
X453629Y277399D02*
X456371D01*
X453691Y292699D02*
X456309D01*
X453693Y287299D02*
X456307D01*
X453752Y282799D02*
X456248D01*
X453753Y297199D02*
X456247D01*
X453809Y272899D02*
X456191D01*
X453810Y217099D02*
X456190D01*
X453862Y262999D02*
X456138D01*
X453864Y226999D02*
X456136D01*
X453913Y253099D02*
X456087D01*
X453914Y236899D02*
X456086D01*
X453960Y243199D02*
X456040D01*
X453961Y246799D02*
X456039D01*
X454004Y233299D02*
X455996D01*
X454005Y256699D02*
X455995D01*
X454045Y223399D02*
X455955D01*
X454046Y266599D02*
X455954D01*
X454083Y303499D02*
X455917D01*
X454083Y213499D02*
X455917D01*
X454084Y276499D02*
X455916D01*
X454118Y293599D02*
X455882D01*
X454119Y286399D02*
X455881D01*
X454151Y283699D02*
X455849D01*
X454152Y296299D02*
X455848D01*
X454181Y273799D02*
X455819D01*
X454182Y216199D02*
X455818D01*
X454208Y263899D02*
X455792D01*
X454209Y226099D02*
X455791D01*
X454233Y253999D02*
X455767D01*
X454234Y235999D02*
X455766D01*
X454256Y244099D02*
X455744D01*
X454256Y245899D02*
X455744D01*
X451600Y159499D02*
X455736D01*
X454276Y234199D02*
X455724D01*
X454276Y255799D02*
X455724D01*
X454293Y224299D02*
X455707D01*
X454294Y265699D02*
X455706D01*
X454308Y304399D02*
X455692D01*
X454308Y214399D02*
X455692D01*
X454309Y275599D02*
X455691D01*
X454321Y294499D02*
X455679D01*
X454321Y285499D02*
X455679D01*
X454182Y306199D02*
X455670D01*
X454331Y284599D02*
X455669D01*
X454332Y295399D02*
X455668D01*
X454340Y274699D02*
X455660D01*
X454340Y305299D02*
X455660D01*
X454340Y215299D02*
X455660D01*
X454345Y264799D02*
X455655D01*
X454345Y225199D02*
X455655D01*
X454349Y254899D02*
X455651D01*
X454349Y235099D02*
X455651D01*
X454350Y244999D02*
X455650D01*
X451600Y158599D02*
X454836D01*
X454499Y307099D02*
X454655D01*
X451600Y157699D02*
X453936D01*
X451600Y156799D02*
X453036D01*
X447961Y220699D02*
X449351D01*
X446700Y269299D02*
X449334D01*
X446700Y279199D02*
X448863D01*
X446700Y290899D02*
X448550D01*
X446700Y289099D02*
X448543D01*
X441100Y209899D02*
X448400D01*
X441100Y208999D02*
X448400D01*
X441100Y208099D02*
X448400D01*
X441100Y207199D02*
X448400D01*
X441100Y206299D02*
X448400D01*
X441100Y205399D02*
X448400D01*
X441100Y204499D02*
X448400D01*
X441100Y203599D02*
X448400D01*
X441100Y202699D02*
X448400D01*
X441100Y201799D02*
X448400D01*
X441100Y200899D02*
X448400D01*
X441100Y199999D02*
X448400D01*
X441100Y199099D02*
X448400D01*
X441100Y198199D02*
X448400D01*
X441100Y197299D02*
X448400D01*
X441100Y196399D02*
X448400D01*
X441100Y195499D02*
X448400D01*
X441100Y194599D02*
X448400D01*
X441100Y193699D02*
X448400D01*
X441100Y192799D02*
X448400D01*
X441100Y191899D02*
X448400D01*
X441100Y190999D02*
X448400D01*
X441100Y190099D02*
X448400D01*
X441100Y189199D02*
X448400D01*
X441100Y188299D02*
X448400D01*
X441100Y187399D02*
X448400D01*
X441100Y186499D02*
X448400D01*
X441100Y185599D02*
X448400D01*
X441100Y184699D02*
X448400D01*
X441100Y183799D02*
X448400D01*
X441100Y182899D02*
X448400D01*
X441100Y181999D02*
X448400D01*
X441100Y181099D02*
X448400D01*
X441100Y180199D02*
X448400D01*
X441100Y179299D02*
X448400D01*
X441100Y178399D02*
X448400D01*
X441100Y177499D02*
X448400D01*
X441100Y176599D02*
X448400D01*
X441100Y175699D02*
X448400D01*
X441100Y174799D02*
X448400D01*
X441100Y173899D02*
X448400D01*
X441100Y172999D02*
X448400D01*
X441100Y172099D02*
X448400D01*
X441100Y171199D02*
X448400D01*
X441100Y170299D02*
X448400D01*
X441100Y169399D02*
X448400D01*
X441100Y168499D02*
X448400D01*
X441100Y167599D02*
X448400D01*
X441100Y166699D02*
X448400D01*
X441100Y165799D02*
X448400D01*
X441100Y164899D02*
X448400D01*
X441100Y163999D02*
X448400D01*
X441100Y163099D02*
X448400D01*
X441100Y162199D02*
X448400D01*
X441100Y161299D02*
X448400D01*
X441100Y160399D02*
X448400D01*
X441100Y159499D02*
X448400D01*
X441100Y158599D02*
X448400D01*
X441100Y157699D02*
X448400D01*
X441100Y156799D02*
X448395D01*
X441100Y210799D02*
X448370D01*
X446700Y280999D02*
X448293D01*
X446703Y271099D02*
X448076D01*
X446161Y218899D02*
X448071D01*
X446726Y261199D02*
X447885D01*
X391600Y228799D02*
X447880D01*
X441910Y251299D02*
X447715D01*
X389564Y238699D02*
X447710D01*
X441100Y155899D02*
X447636D01*
X386864Y241399D02*
X447560D01*
X439210Y248599D02*
X447556D01*
X391600Y231499D02*
X447419D01*
X447008Y258499D02*
X447392D01*
X441100Y211699D02*
X447167D01*
X445261Y217999D02*
X446849D01*
X391600Y227899D02*
X446756D01*
X441100Y154999D02*
X446736D01*
X442810Y252199D02*
X446672D01*
X390464Y237799D02*
X446670D01*
X385964Y242299D02*
X446590D01*
X438310Y247699D02*
X446588D01*
X391600Y232399D02*
X446513D01*
X441100Y212599D02*
X446373D01*
X444361Y217099D02*
X446190D01*
X391600Y226999D02*
X446136D01*
X443710Y253099D02*
X446087D01*
X391324Y236899D02*
X446086D01*
X385064Y243199D02*
X446040D01*
X437410Y246799D02*
X446039D01*
X391600Y233299D02*
X445996D01*
X424450Y223399D02*
X445924D01*
X441100Y213499D02*
X445917D01*
X441100Y154099D02*
X445836D01*
X443461Y216199D02*
X445818D01*
X391600Y226099D02*
X445791D01*
X444610Y253999D02*
X445767D01*
X391600Y235999D02*
X445766D01*
X434607Y244099D02*
X445744D01*
X436510Y245899D02*
X445744D01*
X391600Y234199D02*
X445724D01*
X423190Y224299D02*
X445707D01*
X441661Y214399D02*
X445692D01*
X442561Y215299D02*
X445660D01*
X391600Y225199D02*
X445655D01*
X391600Y235099D02*
X445651D01*
X435610Y244999D02*
X445650D01*
X424848Y222499D02*
X445236D01*
X441100Y153199D02*
X444936D01*
X425164Y221599D02*
X444336D01*
X441100Y152299D02*
X444036D01*
X426064Y220699D02*
X443436D01*
X441100Y151399D02*
X443136D01*
X426886Y219799D02*
X442536D01*
X441105Y150499D02*
X442236D01*
X427100Y218899D02*
X441636D01*
X427100Y217999D02*
X440736D01*
X427100Y217099D02*
X439836D01*
X427100Y216199D02*
X438936D01*
X427100Y215299D02*
X438114D01*
X427100Y214399D02*
X437900D01*
X427100Y213499D02*
X437900D01*
X427100Y212599D02*
X437900D01*
X427100Y211699D02*
X437900D01*
X427100Y210799D02*
X437900D01*
X427100Y209899D02*
X437900D01*
X427100Y208999D02*
X437900D01*
X427100Y208099D02*
X437900D01*
X427100Y207199D02*
X437900D01*
X427100Y206299D02*
X437900D01*
X427100Y205399D02*
X437900D01*
X427100Y204499D02*
X437900D01*
X427100Y203599D02*
X437900D01*
X427100Y202699D02*
X437900D01*
X427100Y201799D02*
X437900D01*
X427100Y200899D02*
X437900D01*
X427100Y199999D02*
X437900D01*
X427100Y199099D02*
X437900D01*
X427100Y198199D02*
X437900D01*
X427100Y197299D02*
X437900D01*
X427100Y196399D02*
X437900D01*
X427100Y195499D02*
X437900D01*
X427100Y194599D02*
X437900D01*
X427100Y193699D02*
X437900D01*
X427100Y192799D02*
X437900D01*
X426983Y191899D02*
X437900D01*
X426261Y190999D02*
X437900D01*
X425361Y190099D02*
X437900D01*
X424461Y189199D02*
X437900D01*
X423561Y188299D02*
X437900D01*
X422661Y187399D02*
X437900D01*
X431972Y186499D02*
X437900D01*
X432920Y185599D02*
X437900D01*
X433315Y184699D02*
X437900D01*
X433393Y183799D02*
X437900D01*
X433183Y182899D02*
X437900D01*
X432599Y181999D02*
X437900D01*
X431610Y181099D02*
X437900D01*
X432391Y180199D02*
X437900D01*
X433093Y179299D02*
X437900D01*
X433372Y178399D02*
X437900D01*
X433356Y177499D02*
X437900D01*
X433039Y176599D02*
X437900D01*
X432265Y175699D02*
X437900D01*
X431642Y174799D02*
X437900D01*
X432692Y173899D02*
X437900D01*
X433223Y172999D02*
X437900D01*
X433398Y172099D02*
X437900D01*
X433287Y171199D02*
X437900D01*
X432849Y170299D02*
X437900D01*
X431798Y169399D02*
X437900D01*
X431972Y168499D02*
X437900D01*
X432920Y167599D02*
X437900D01*
X433315Y166699D02*
X437900D01*
X433393Y165799D02*
X437900D01*
X433183Y164899D02*
X437900D01*
X432599Y163999D02*
X437900D01*
X367100Y163099D02*
X437900D01*
X367100Y162199D02*
X437900D01*
X367100Y161299D02*
X437900D01*
X367100Y160399D02*
X437900D01*
X367764Y159499D02*
X437900D01*
X368664Y158599D02*
X437900D01*
X369564Y157699D02*
X437900D01*
X370464Y156799D02*
X437900D01*
X371364Y155899D02*
X437900D01*
X372264Y154999D02*
X437900D01*
X373164Y154099D02*
X437900D01*
X374064Y153199D02*
X437900D01*
X374964Y152299D02*
X437900D01*
X375864Y151399D02*
X437900D01*
X376764Y150499D02*
X437900D01*
X377664Y149599D02*
X437900D01*
X378564Y148699D02*
X437870D01*
X379464Y147799D02*
X437036D01*
X380364Y146899D02*
X436136D01*
X381264Y145999D02*
X435236D01*
X382164Y145099D02*
X434336D01*
X427600Y438499D02*
X434300D01*
X427600Y437599D02*
X434300D01*
X427600Y436699D02*
X434300D01*
X427600Y435799D02*
X434300D01*
X427600Y434899D02*
X434300D01*
X427600Y433999D02*
X434300D01*
X427600Y433099D02*
X434300D01*
X427600Y432199D02*
X434300D01*
X427600Y431299D02*
X434300D01*
X427600Y430399D02*
X434300D01*
X427600Y429499D02*
X434300D01*
X427600Y428599D02*
X434300D01*
X427600Y427699D02*
X434300D01*
X427600Y426799D02*
X434300D01*
X427600Y425899D02*
X434300D01*
X427600Y424999D02*
X434300D01*
X427600Y424099D02*
X434300D01*
X427600Y423199D02*
X434300D01*
X427600Y422299D02*
X434300D01*
X427600Y421399D02*
X434300D01*
X427600Y420499D02*
X434300D01*
X427600Y419599D02*
X434300D01*
X427600Y418699D02*
X434300D01*
X427600Y417799D02*
X434300D01*
X427600Y416899D02*
X434300D01*
X427600Y415999D02*
X434300D01*
X427600Y415099D02*
X434300D01*
X427600Y414199D02*
X434300D01*
X427600Y413299D02*
X434300D01*
X427600Y412399D02*
X434300D01*
X427600Y411499D02*
X434300D01*
X427600Y410599D02*
X434300D01*
X427600Y409699D02*
X434300D01*
X427600Y408799D02*
X434300D01*
X427600Y407899D02*
X434300D01*
X427600Y406999D02*
X434300D01*
X427600Y406099D02*
X434300D01*
X427600Y405199D02*
X434300D01*
X427600Y404299D02*
X434300D01*
X427600Y403399D02*
X434300D01*
X427600Y402499D02*
X434300D01*
X427600Y401599D02*
X434300D01*
X427600Y400699D02*
X434300D01*
X427587Y399799D02*
X434300D01*
X427161Y398899D02*
X434300D01*
X426261Y397999D02*
X434300D01*
X425429Y397099D02*
X434300D01*
X425262Y396199D02*
X434300D01*
X424693Y395299D02*
X434300D01*
X413713Y394399D02*
X434300D01*
X414613Y393499D02*
X434300D01*
X415513Y392599D02*
X434300D01*
X416413Y391699D02*
X434300D01*
X417313Y390799D02*
X434300D01*
X418213Y389899D02*
X434300D01*
X419113Y388999D02*
X434300D01*
X420013Y388099D02*
X434300D01*
X420913Y387199D02*
X434300D01*
X421813Y386299D02*
X434300D01*
X422713Y385399D02*
X434300D01*
X423613Y384499D02*
X434300D01*
X424513Y383599D02*
X434300D01*
X425413Y382699D02*
X434300D01*
X426313Y381799D02*
X434300D01*
X427213Y380899D02*
X434300D01*
X428113Y379999D02*
X434300D01*
X429013Y379099D02*
X434300D01*
X429913Y378199D02*
X434300D01*
X430813Y377299D02*
X434300D01*
X431713Y376399D02*
X434300D01*
X432613Y375499D02*
X434300D01*
X433528Y374599D02*
X434072D01*
X427600Y439399D02*
X433990D01*
X383064Y144199D02*
X433436D01*
X427600Y440299D02*
X433090D01*
X383964Y143299D02*
X432536D01*
X427600Y441199D02*
X432190D01*
X384864Y142399D02*
X431636D01*
X427484Y442099D02*
X431290D01*
X385764Y141499D02*
X430736D01*
X426764Y442999D02*
X430390D01*
X386664Y140599D02*
X429836D01*
X425864Y443899D02*
X429490D01*
X422124Y186499D02*
X429028D01*
X387564Y139699D02*
X428936D01*
X425381Y444799D02*
X428590D01*
X422120Y138799D02*
X428036D01*
X425079Y445699D02*
X427690D01*
X423244Y137899D02*
X427136D01*
X424164Y446599D02*
X426790D01*
X423864Y136999D02*
X426236D01*
X346600Y447499D02*
X425890D01*
X424209Y136099D02*
X425336D01*
X346600Y448399D02*
X424990D01*
X346600Y440299D02*
X424400D01*
X346600Y439399D02*
X424400D01*
X346600Y438499D02*
X424400D01*
X346600Y437599D02*
X424400D01*
X346600Y436699D02*
X424400D01*
X346600Y435799D02*
X424400D01*
X346600Y434899D02*
X424400D01*
X346600Y433999D02*
X424400D01*
X346600Y433099D02*
X424400D01*
X346600Y432199D02*
X424400D01*
X346600Y431299D02*
X424400D01*
X346600Y430399D02*
X424400D01*
X346600Y429499D02*
X424400D01*
X346600Y428599D02*
X424400D01*
X346600Y427699D02*
X424400D01*
X346600Y426799D02*
X424400D01*
X346600Y425899D02*
X424400D01*
X346600Y424999D02*
X424400D01*
X346600Y424099D02*
X424400D01*
X346600Y423199D02*
X424400D01*
X346600Y422299D02*
X424400D01*
X346600Y421399D02*
X424400D01*
X346600Y420499D02*
X424400D01*
X346668Y419599D02*
X424400D01*
X422290Y418699D02*
X424400D01*
X422581Y411499D02*
X424400D01*
X387861Y410599D02*
X424400D01*
X386961Y409699D02*
X424400D01*
X422120Y408799D02*
X424400D01*
X423244Y407899D02*
X424400D01*
X422712Y401599D02*
X424400D01*
X423330Y417799D02*
X424393D01*
X420649Y400699D02*
X424370D01*
X423487Y412399D02*
X424313D01*
X423577Y402499D02*
X424223D01*
X346600Y449299D02*
X424090D01*
X346600Y441199D02*
X424039D01*
X391600Y217999D02*
X423900D01*
X391600Y217099D02*
X423900D01*
X391600Y216199D02*
X423900D01*
X391600Y215299D02*
X423900D01*
X391600Y214399D02*
X423900D01*
X391600Y213499D02*
X423900D01*
X391600Y212599D02*
X423900D01*
X391600Y211699D02*
X423900D01*
X391600Y210799D02*
X423900D01*
X391600Y209899D02*
X423900D01*
X421713Y208999D02*
X423900D01*
X421450Y200899D02*
X423900D01*
X383761Y199999D02*
X423900D01*
X421457Y199099D02*
X423900D01*
X422945Y201799D02*
X423829D01*
X422948Y198199D02*
X423827D01*
X423053Y208099D02*
X423747D01*
X417464Y399799D02*
X423536D01*
X391600Y218899D02*
X423339D01*
X346600Y450199D02*
X423183D01*
X346600Y442099D02*
X422976D01*
X346600Y446599D02*
X421836D01*
X391600Y224299D02*
X421810D01*
X391600Y219799D02*
X421544D01*
X418364Y398899D02*
X421532D01*
X412813Y395299D02*
X421302D01*
X346600Y442999D02*
X421128D01*
X346600Y445699D02*
X420921D01*
X346600Y443899D02*
X420677D01*
X346600Y444799D02*
X420619D01*
X391600Y223399D02*
X420550D01*
X391600Y220699D02*
X420483D01*
X391600Y222499D02*
X420152D01*
X391600Y221599D02*
X420134D01*
X416564Y400699D02*
X419351D01*
X410649Y130699D02*
X419119D01*
X384171Y129799D02*
X419036D01*
X411450Y200899D02*
X418550D01*
X411457Y199099D02*
X418543D01*
X416364Y470899D02*
X418361D01*
X411713Y478999D02*
X418287D01*
X411713Y208999D02*
X418287D01*
X416264Y190999D02*
X418261D01*
X412120Y408799D02*
X417880D01*
X412120Y138799D02*
X417880D01*
X412290Y418699D02*
X417710D01*
X412581Y411499D02*
X417419D01*
X415664Y401599D02*
X417288D01*
X412712Y131599D02*
X417288D01*
X415464Y471799D02*
X417055D01*
X412945Y201799D02*
X417055D01*
X412948Y198199D02*
X417052D01*
X415364Y191899D02*
X416950D01*
X413053Y478099D02*
X416947D01*
X413053Y208099D02*
X416947D01*
X413244Y407899D02*
X416756D01*
X413244Y137899D02*
X416756D01*
X413330Y417799D02*
X416670D01*
X411913Y396199D02*
X416539D01*
X413487Y412399D02*
X416513D01*
X414764Y402499D02*
X416441D01*
X413559Y132499D02*
X416441D01*
X414564Y472699D02*
X416309D01*
X413691Y202699D02*
X416309D01*
X413693Y197299D02*
X416307D01*
X414464Y192799D02*
X416248D01*
X413753Y477199D02*
X416247D01*
X413753Y207199D02*
X416247D01*
X413864Y406999D02*
X416136D01*
X413864Y136999D02*
X416136D01*
X413914Y416899D02*
X416086D01*
X414004Y413299D02*
X415996D01*
X414076Y403399D02*
X415955D01*
X414045Y133399D02*
X415955D01*
X414118Y473599D02*
X415882D01*
X414118Y203599D02*
X415882D01*
X414119Y196399D02*
X415881D01*
X414151Y193699D02*
X415849D01*
X414152Y476299D02*
X415848D01*
X414152Y206299D02*
X415848D01*
X414209Y406099D02*
X415791D01*
X414209Y136099D02*
X415791D01*
X414234Y415999D02*
X415766D01*
X414276Y414199D02*
X415724D01*
X414293Y404299D02*
X415707D01*
X414293Y134299D02*
X415707D01*
X414321Y474499D02*
X415679D01*
X414321Y204499D02*
X415679D01*
X414321Y195499D02*
X415679D01*
X414331Y194599D02*
X415669D01*
X414332Y475399D02*
X415668D01*
X414332Y205399D02*
X415668D01*
X414345Y405199D02*
X415655D01*
X414345Y135199D02*
X415655D01*
X414349Y415099D02*
X415651D01*
X411013Y397099D02*
X415639D01*
X410113Y397999D02*
X414739D01*
X409213Y398899D02*
X413839D01*
X408313Y399799D02*
X412939D01*
X410649Y400699D02*
X412039D01*
X407978D02*
X409351D01*
X400649Y130699D02*
X409351D01*
X401450Y200899D02*
X408550D01*
X401457Y199099D02*
X408543D01*
X401713Y478999D02*
X408287D01*
X401713Y208999D02*
X408287D01*
X402120Y408799D02*
X407880D01*
X402120Y138799D02*
X407880D01*
X402290Y418699D02*
X407710D01*
X402581Y411499D02*
X407419D01*
X402712Y131599D02*
X407288D01*
X402945Y201799D02*
X407055D01*
X402948Y198199D02*
X407052D01*
X403053Y478099D02*
X406947D01*
X403053Y208099D02*
X406947D01*
X403244Y407899D02*
X406756D01*
X403244Y137899D02*
X406756D01*
X403330Y417799D02*
X406670D01*
X403487Y412399D02*
X406513D01*
X403559Y132499D02*
X406441D01*
X403691Y202699D02*
X406309D01*
X403693Y197299D02*
X406307D01*
X403753Y477199D02*
X406247D01*
X403753Y207199D02*
X406247D01*
X403864Y406999D02*
X406136D01*
X403864Y136999D02*
X406136D01*
X403914Y416899D02*
X406086D01*
X404004Y413299D02*
X405996D01*
X404045Y133399D02*
X405955D01*
X404713Y403399D02*
X405923D01*
X404513Y473599D02*
X405882D01*
X404118Y203599D02*
X405882D01*
X404119Y196399D02*
X405881D01*
X404413Y193699D02*
X405849D01*
X404152Y476299D02*
X405848D01*
X404152Y206299D02*
X405848D01*
X404209Y406099D02*
X405791D01*
X404209Y136099D02*
X405791D01*
X404234Y415999D02*
X405766D01*
X404276Y414199D02*
X405724D01*
X404293Y404299D02*
X405707D01*
X404293Y134299D02*
X405707D01*
X404321Y474499D02*
X405679D01*
X404321Y204499D02*
X405679D01*
X404321Y195499D02*
X405679D01*
X404331Y194599D02*
X405669D01*
X404332Y475399D02*
X405668D01*
X404332Y205399D02*
X405668D01*
X404345Y405199D02*
X405655D01*
X404345Y135199D02*
X405655D01*
X404349Y415099D02*
X405651D01*
X390649Y130699D02*
X399351D01*
X367100Y163999D02*
X398586D01*
X391450Y200899D02*
X398550D01*
X391457Y199099D02*
X398543D01*
X391713Y478999D02*
X398287D01*
X391767Y208999D02*
X398287D01*
X392120Y408799D02*
X397880D01*
X392120Y138799D02*
X397880D01*
X392290Y418699D02*
X397710D01*
X367100Y164899D02*
X397490D01*
X392581Y411499D02*
X397419D01*
X392712Y131599D02*
X397288D01*
X392945Y201799D02*
X397055D01*
X392948Y198199D02*
X397052D01*
X393053Y478099D02*
X396947D01*
X393053Y208099D02*
X396947D01*
X393244Y407899D02*
X396756D01*
X393244Y137899D02*
X396756D01*
X393330Y417799D02*
X396670D01*
X367100Y165799D02*
X396590D01*
X393487Y412399D02*
X396513D01*
X393559Y132499D02*
X396441D01*
X393691Y202699D02*
X396309D01*
X393693Y197299D02*
X396307D01*
X393753Y477199D02*
X396247D01*
X393753Y207199D02*
X396247D01*
X393864Y406999D02*
X396136D01*
X393864Y136999D02*
X396136D01*
X393914Y416899D02*
X396086D01*
X394070Y413299D02*
X395930D01*
X394713Y403399D02*
X395923D01*
X394513Y473599D02*
X395882D01*
X394119Y196399D02*
X395881D01*
X394413Y193699D02*
X395849D01*
X394152Y476299D02*
X395848D01*
X394209Y406099D02*
X395791D01*
X394293Y404299D02*
X395707D01*
X367100Y166699D02*
X395690D01*
X394321Y474499D02*
X395679D01*
X394321Y195499D02*
X395679D01*
X394331Y194599D02*
X395669D01*
X394332Y475399D02*
X395668D01*
X394336Y133399D02*
X395664D01*
X394345Y405199D02*
X395655D01*
X367100Y167599D02*
X394790D01*
X367100Y168499D02*
X393890D01*
X367100Y169399D02*
X392990D01*
X367100Y170299D02*
X392090D01*
X367100Y171199D02*
X391190D01*
X346600Y451099D02*
X390790D01*
X367100Y172099D02*
X390290D01*
X346600Y451999D02*
X389890D01*
X367100Y172999D02*
X389390D01*
X384461Y130699D02*
X389351D01*
X346600Y452899D02*
X388990D01*
X384661Y200899D02*
X388550D01*
X382861Y199099D02*
X388543D01*
X367100Y173899D02*
X388490D01*
X346600Y372799D02*
X388400D01*
X346600Y371899D02*
X388400D01*
X346600Y370999D02*
X388400D01*
X346600Y370099D02*
X388400D01*
X346600Y369199D02*
X388400D01*
X346600Y368299D02*
X388400D01*
X346600Y367399D02*
X388400D01*
X346600Y366499D02*
X388400D01*
X346600Y365599D02*
X388400D01*
X346600Y364699D02*
X388400D01*
X346600Y363799D02*
X388400D01*
X346600Y362899D02*
X388400D01*
X346600Y361999D02*
X388400D01*
X346600Y361099D02*
X388400D01*
X346600Y360199D02*
X388400D01*
X346600Y359299D02*
X388400D01*
X346600Y358399D02*
X388400D01*
X346600Y357499D02*
X388400D01*
X346600Y356599D02*
X388400D01*
X346600Y355699D02*
X388400D01*
X346600Y354799D02*
X388400D01*
X346600Y353899D02*
X388400D01*
X346600Y352999D02*
X388400D01*
X346600Y352099D02*
X388400D01*
X346600Y351199D02*
X388400D01*
X346600Y350299D02*
X388400D01*
X346885Y349399D02*
X388400D01*
X346600Y304399D02*
X388400D01*
X346600Y303499D02*
X388400D01*
X346600Y302599D02*
X388400D01*
X346600Y301699D02*
X388400D01*
X346600Y300799D02*
X388400D01*
X346600Y299899D02*
X388400D01*
X346600Y298999D02*
X388400D01*
X346600Y298099D02*
X388400D01*
X346600Y297199D02*
X388400D01*
X346600Y296299D02*
X388400D01*
X346600Y295399D02*
X388400D01*
X346600Y294499D02*
X388400D01*
X346600Y293599D02*
X388400D01*
X346600Y292699D02*
X388400D01*
X346600Y291799D02*
X388400D01*
X346600Y290899D02*
X388400D01*
X346600Y289999D02*
X388400D01*
X346600Y289099D02*
X388400D01*
X346600Y288199D02*
X388400D01*
X346600Y287299D02*
X388400D01*
X346600Y286399D02*
X388400D01*
X346600Y285499D02*
X388400D01*
X346600Y284599D02*
X388400D01*
X346600Y283699D02*
X388400D01*
X346600Y282799D02*
X388400D01*
X346600Y281899D02*
X388400D01*
X346600Y280999D02*
X388400D01*
X346600Y280099D02*
X388400D01*
X346600Y235099D02*
X388400D01*
X346600Y234199D02*
X388400D01*
X346600Y233299D02*
X388400D01*
X346600Y232399D02*
X388400D01*
X346600Y231499D02*
X388400D01*
X346600Y230599D02*
X388400D01*
X346600Y229699D02*
X388400D01*
X346600Y228799D02*
X388400D01*
X346600Y227899D02*
X388400D01*
X346600Y226999D02*
X388400D01*
X346600Y226099D02*
X388400D01*
X346600Y225199D02*
X388400D01*
X346600Y224299D02*
X388400D01*
X346600Y223399D02*
X388400D01*
X346600Y222499D02*
X388400D01*
X346600Y221599D02*
X388400D01*
X346600Y220699D02*
X388400D01*
X346600Y219799D02*
X388400D01*
X346600Y218899D02*
X388400D01*
X346600Y217999D02*
X388400D01*
X346600Y217099D02*
X388400D01*
X346600Y216199D02*
X388400D01*
X346600Y215299D02*
X388400D01*
X346600Y214399D02*
X388400D01*
X346600Y213499D02*
X388400D01*
X346600Y212599D02*
X388400D01*
X346600Y211699D02*
X388400D01*
X346600Y210799D02*
X388400D01*
X346600Y209899D02*
X388400D01*
X381137Y279199D02*
X388369D01*
X381713Y478999D02*
X388287D01*
X381713Y208999D02*
X388233D01*
X346600Y453799D02*
X388090D01*
X346600Y373699D02*
X388039D01*
X346600Y305299D02*
X387939D01*
X384164Y244099D02*
X387893D01*
X386057Y408799D02*
X387880D01*
X346600Y235999D02*
X387739D01*
X382290Y418699D02*
X387710D01*
X367100Y174799D02*
X387590D01*
X382585Y348499D02*
X387415D01*
X385361Y131599D02*
X387288D01*
X346600Y454699D02*
X387190D01*
X382836Y278299D02*
X387164D01*
X346600Y374599D02*
X387139D01*
X385561Y201799D02*
X387055D01*
X382948Y198199D02*
X387052D01*
X346600Y306199D02*
X387039D01*
X383053Y478099D02*
X386947D01*
X383053Y208099D02*
X386947D01*
X383264Y244999D02*
X386890D01*
X346600Y236899D02*
X386839D01*
X383388Y407899D02*
X386756D01*
X367100Y175699D02*
X386690D01*
X383330Y417799D02*
X386670D01*
X383488Y347599D02*
X386512D01*
X383629Y277399D02*
X386371D01*
X383693Y197299D02*
X386307D01*
X346600Y455599D02*
X386290D01*
X383753Y477199D02*
X386247D01*
X383753Y207199D02*
X386247D01*
X346600Y375499D02*
X386239D01*
X346600Y307099D02*
X386139D01*
X383864Y406999D02*
X386136D01*
X383914Y416899D02*
X386086D01*
X384005Y346699D02*
X385995D01*
X382364Y245899D02*
X385990D01*
X346600Y237799D02*
X385939D01*
X384713Y403399D02*
X385923D01*
X384084Y276499D02*
X385916D01*
X384004Y413299D02*
X385915D01*
X384513Y473599D02*
X385882D01*
X384119Y196399D02*
X385881D01*
X384413Y193699D02*
X385849D01*
X384152Y476299D02*
X385848D01*
X383913Y343099D02*
X385827D01*
X384181Y273799D02*
X385819D01*
X384209Y406099D02*
X385791D01*
X367100Y176599D02*
X385790D01*
X384233Y343999D02*
X385767D01*
X384234Y415999D02*
X385766D01*
X384276Y414199D02*
X385724D01*
X384276Y345799D02*
X385724D01*
X384293Y404299D02*
X385707D01*
X384309Y275599D02*
X385691D01*
X384321Y474499D02*
X385679D01*
X384321Y195499D02*
X385679D01*
X384331Y194599D02*
X385669D01*
X384332Y475399D02*
X385668D01*
X384340Y274699D02*
X385660D01*
X384345Y405199D02*
X385655D01*
X384349Y344899D02*
X385651D01*
X384349Y415099D02*
X385651D01*
X383809Y272899D02*
X385636D01*
X383864Y136999D02*
X385491D01*
X346600Y456499D02*
X385390D01*
X346600Y376399D02*
X385339D01*
X346600Y307999D02*
X385239D01*
X383487Y412399D02*
X385136D01*
X381464Y246799D02*
X385090D01*
X346600Y238699D02*
X385039D01*
X383397Y342199D02*
X384936D01*
X367100Y177499D02*
X384890D01*
X383244Y137899D02*
X384839D01*
X383398Y271999D02*
X384736D01*
X346600Y457399D02*
X384490D01*
X346600Y377299D02*
X384439D01*
X346600Y308899D02*
X384339D01*
X380564Y247699D02*
X384190D01*
X346600Y239599D02*
X384139D01*
X367100Y178399D02*
X383990D01*
X382120Y138799D02*
X383939D01*
X346600Y458299D02*
X383590D01*
X346600Y378199D02*
X383539D01*
X346600Y309799D02*
X383439D01*
X379664Y248599D02*
X383290D01*
X346600Y240499D02*
X383239D01*
X367100Y179299D02*
X383090D01*
X336116Y139699D02*
X383039D01*
X346600Y459199D02*
X382690D01*
X346600Y379099D02*
X382639D01*
X346600Y310699D02*
X382539D01*
X378764Y249499D02*
X382390D01*
X346600Y241399D02*
X382339D01*
X367100Y180199D02*
X382190D01*
X336337Y140599D02*
X382139D01*
X346600Y460099D02*
X381790D01*
X346600Y379999D02*
X381739D01*
X346600Y311599D02*
X381639D01*
X377864Y250399D02*
X381490D01*
X346600Y242299D02*
X381439D01*
X367100Y181099D02*
X381290D01*
X337983Y141499D02*
X381239D01*
X346600Y460999D02*
X380890D01*
X346600Y380899D02*
X380839D01*
X346600Y312499D02*
X380739D01*
X376964Y251299D02*
X380590D01*
X346600Y243199D02*
X380539D01*
X367100Y181999D02*
X380390D01*
X338794Y142399D02*
X380339D01*
X346600Y461899D02*
X379990D01*
X346600Y381799D02*
X379939D01*
X346600Y313399D02*
X379839D01*
X376064Y252199D02*
X379690D01*
X346600Y244099D02*
X379639D01*
X367100Y182899D02*
X379490D01*
X339274Y143299D02*
X379439D01*
X346600Y462799D02*
X379090D01*
X346600Y382699D02*
X379039D01*
X346600Y314299D02*
X378939D01*
X371137Y279199D02*
X378863D01*
X375164Y253099D02*
X378790D01*
X346600Y244999D02*
X378739D01*
X367100Y183799D02*
X378590D01*
X339530Y144199D02*
X378539D01*
X371713Y478999D02*
X378287D01*
X371713Y208999D02*
X378287D01*
X346600Y463699D02*
X378190D01*
X346600Y383599D02*
X378139D01*
X346600Y315199D02*
X378039D01*
X374264Y253999D02*
X377890D01*
X372120Y138799D02*
X377880D01*
X346600Y245899D02*
X377839D01*
X372290Y418699D02*
X377710D01*
X367100Y184699D02*
X377690D01*
X339599Y145099D02*
X377639D01*
X372585Y348499D02*
X377415D01*
X346600Y464599D02*
X377290D01*
X346600Y384499D02*
X377239D01*
X372836Y278299D02*
X377164D01*
X346600Y316099D02*
X377139D01*
X373364Y254899D02*
X376990D01*
X373053Y478099D02*
X376947D01*
X373053Y208099D02*
X376947D01*
X346600Y246799D02*
X376939D01*
X367100Y185599D02*
X376790D01*
X373244Y137899D02*
X376756D01*
X339490Y145999D02*
X376739D01*
X373330Y417799D02*
X376670D01*
X373397Y342199D02*
X376603D01*
X373398Y271999D02*
X376602D01*
X373487Y412399D02*
X376513D01*
X373488Y347599D02*
X376512D01*
X373489Y201799D02*
X376511D01*
X373559Y132499D02*
X376441D01*
X346600Y465499D02*
X376390D01*
X373629Y277399D02*
X376371D01*
X346600Y385399D02*
X376339D01*
X373691Y202699D02*
X376309D01*
X373753Y477199D02*
X376247D01*
X373753Y207199D02*
X376247D01*
X346600Y316999D02*
X376239D01*
X373809Y272899D02*
X376191D01*
X373864Y136999D02*
X376136D01*
X372464Y255799D02*
X376090D01*
X373913Y343099D02*
X376087D01*
X373914Y416899D02*
X376086D01*
X346600Y247699D02*
X376039D01*
X374004Y413299D02*
X375996D01*
X374005Y346699D02*
X375995D01*
X374045Y133399D02*
X375955D01*
X374084Y276499D02*
X375916D01*
X367100Y186499D02*
X375890D01*
X374513Y473599D02*
X375882D01*
X374118Y203599D02*
X375882D01*
X374152Y476299D02*
X375848D01*
X374152Y206299D02*
X375848D01*
X339190Y146899D02*
X375839D01*
X374181Y273799D02*
X375819D01*
X374209Y136099D02*
X375791D01*
X374233Y343999D02*
X375767D01*
X374234Y415999D02*
X375766D01*
X374276Y414199D02*
X375724D01*
X374276Y345799D02*
X375724D01*
X374293Y134299D02*
X375707D01*
X374309Y275599D02*
X375691D01*
X374321Y474499D02*
X375679D01*
X374321Y204499D02*
X375679D01*
X374332Y475399D02*
X375668D01*
X374332Y205399D02*
X375668D01*
X374340Y274699D02*
X375660D01*
X374345Y135199D02*
X375655D01*
X374349Y344899D02*
X375651D01*
X374349Y415099D02*
X375651D01*
X346610Y466399D02*
X375490D01*
X346600Y386299D02*
X375439D01*
X346600Y317899D02*
X375339D01*
X371564Y256699D02*
X375190D01*
X346600Y248599D02*
X375139D01*
X367100Y187399D02*
X374990D01*
X338651Y147799D02*
X374939D01*
X347390Y467299D02*
X374590D01*
X346600Y387199D02*
X374539D01*
X346600Y318799D02*
X374439D01*
X370664Y257599D02*
X374290D01*
X346600Y249499D02*
X374239D01*
X367100Y188299D02*
X374090D01*
X337735Y148699D02*
X374039D01*
X348290Y468199D02*
X373690D01*
X346600Y388099D02*
X373639D01*
X346600Y319699D02*
X373539D01*
X369764Y258499D02*
X373390D01*
X346600Y250399D02*
X373339D01*
X367100Y189199D02*
X373190D01*
X335707Y149599D02*
X373139D01*
X349190Y469099D02*
X372790D01*
X346600Y388999D02*
X372739D01*
X346600Y320599D02*
X372639D01*
X368864Y259399D02*
X372490D01*
X346600Y251299D02*
X372439D01*
X367100Y190099D02*
X372290D01*
X335948Y150499D02*
X372239D01*
X350090Y469999D02*
X371890D01*
X346600Y389899D02*
X371839D01*
X346600Y321499D02*
X371739D01*
X368122Y260299D02*
X371590D01*
X346600Y252199D02*
X371539D01*
X337862Y151399D02*
X371339D01*
X346600Y390799D02*
X370939D01*
X346600Y322399D02*
X370839D01*
X346600Y253099D02*
X370639D01*
X338723Y152299D02*
X370439D01*
X346600Y391699D02*
X370039D01*
X346600Y323299D02*
X369939D01*
X346600Y253999D02*
X369739D01*
X339233Y153199D02*
X369539D01*
X346600Y392599D02*
X369139D01*
X346600Y324199D02*
X369039D01*
X361137Y279199D02*
X368863D01*
X346600Y254899D02*
X368839D01*
X339511Y154099D02*
X368639D01*
X361450Y470899D02*
X368550D01*
X367148Y190999D02*
X368293D01*
X361713Y478999D02*
X368287D01*
X361713Y208999D02*
X368287D01*
X346600Y393499D02*
X368239D01*
X346600Y325099D02*
X368139D01*
X346600Y255799D02*
X367939D01*
X362120Y138799D02*
X367880D01*
X339600Y154999D02*
X367739D01*
X362290Y418699D02*
X367710D01*
X362585Y348499D02*
X367415D01*
X346600Y394399D02*
X367339D01*
X346600Y325999D02*
X367239D01*
X362836Y278299D02*
X367164D01*
X361450Y200899D02*
X367136D01*
X362945Y471799D02*
X367055D01*
X362945Y201799D02*
X367055D01*
X346600Y256699D02*
X367039D01*
X363053Y478099D02*
X366947D01*
X363053Y208099D02*
X366947D01*
X339511Y155899D02*
X366839D01*
X362581Y411499D02*
X366794D01*
X363244Y137899D02*
X366756D01*
X363330Y417799D02*
X366670D01*
X363328Y342199D02*
X366662D01*
X363149Y271999D02*
X366631D01*
X363487Y412399D02*
X366513D01*
X363488Y347599D02*
X366512D01*
X363559Y132499D02*
X366441D01*
X346600Y395299D02*
X366439D01*
X363629Y277399D02*
X366371D01*
X346600Y326899D02*
X366339D01*
X363691Y472699D02*
X366309D01*
X363691Y202699D02*
X366309D01*
X363753Y477199D02*
X366247D01*
X363753Y207199D02*
X366247D01*
X346600Y199999D02*
X366236D01*
X363809Y272899D02*
X366191D01*
X346600Y257599D02*
X366139D01*
X363864Y136999D02*
X366136D01*
X363913Y343099D02*
X366087D01*
X363914Y416899D02*
X366086D01*
X362285Y341299D02*
X366065D01*
X364004Y413299D02*
X365996D01*
X364005Y346699D02*
X365995D01*
X364045Y133399D02*
X365955D01*
X339234Y156799D02*
X365939D01*
X364084Y276499D02*
X365916D01*
X364118Y473599D02*
X365882D01*
X364118Y203599D02*
X365882D01*
X364152Y476299D02*
X365848D01*
X364152Y206299D02*
X365848D01*
X346879Y410599D02*
X365836D01*
X364181Y273799D02*
X365819D01*
X364209Y136099D02*
X365791D01*
X364233Y343999D02*
X365767D01*
X364234Y415999D02*
X365766D01*
X364276Y414199D02*
X365724D01*
X364276Y345799D02*
X365724D01*
X364293Y134299D02*
X365707D01*
X364309Y275599D02*
X365691D01*
X364321Y474499D02*
X365679D01*
X364321Y204499D02*
X365679D01*
X364332Y475399D02*
X365668D01*
X364332Y205399D02*
X365668D01*
X364340Y274699D02*
X365660D01*
X364345Y135199D02*
X365655D01*
X364349Y344899D02*
X365651D01*
X364349Y415099D02*
X365651D01*
X346600Y396199D02*
X365539D01*
X346600Y327799D02*
X365439D01*
X361924Y271099D02*
X365336D01*
X361457Y199099D02*
X365336D01*
X346600Y258499D02*
X365239D01*
X346666Y340399D02*
X365136D01*
X338725Y157699D02*
X365039D01*
X346600Y409699D02*
X364936D01*
X346600Y397099D02*
X364639D01*
X346600Y328699D02*
X364539D01*
X346602Y270199D02*
X364436D01*
X362948Y198199D02*
X364436D01*
X346600Y259399D02*
X364339D01*
X346600Y339499D02*
X364236D01*
X337865Y158599D02*
X364178D01*
X362120Y408799D02*
X364036D01*
X361707Y190999D02*
X363900D01*
X306600Y190099D02*
X363900D01*
X306600Y189199D02*
X363900D01*
X306600Y188299D02*
X363900D01*
X306600Y187399D02*
X363900D01*
X306600Y186499D02*
X363900D01*
X306600Y185599D02*
X363900D01*
X306600Y184699D02*
X363900D01*
X306600Y183799D02*
X363900D01*
X306600Y182899D02*
X363900D01*
X306600Y181999D02*
X363900D01*
X306600Y181099D02*
X363900D01*
X306600Y180199D02*
X363900D01*
X306600Y179299D02*
X363900D01*
X306600Y178399D02*
X363900D01*
X306600Y177499D02*
X363900D01*
X306600Y176599D02*
X363900D01*
X306600Y175699D02*
X363900D01*
X306600Y174799D02*
X363900D01*
X306600Y173899D02*
X363900D01*
X306600Y172999D02*
X363900D01*
X306600Y172099D02*
X363900D01*
X306600Y171199D02*
X363900D01*
X306600Y170299D02*
X363900D01*
X306600Y169399D02*
X363900D01*
X306600Y168499D02*
X363900D01*
X306600Y167599D02*
X363900D01*
X306600Y166699D02*
X363900D01*
X306600Y165799D02*
X363900D01*
X306600Y164899D02*
X363900D01*
X306600Y163999D02*
X363900D01*
X306600Y163099D02*
X363900D01*
X306600Y162199D02*
X363900D01*
X306600Y161299D02*
X363900D01*
X306600Y160399D02*
X363900D01*
X335960Y159499D02*
X363900D01*
X346600Y397999D02*
X363752D01*
X363050Y191899D02*
X363750D01*
X346600Y329599D02*
X363678D01*
X360666Y269299D02*
X363614D01*
X346600Y260299D02*
X363562D01*
X362444Y338599D02*
X363516D01*
X346600Y398899D02*
X363403D01*
X360649Y400699D02*
X363400D01*
X346600Y399799D02*
X363400D01*
X346600Y330499D02*
X363400D01*
X362115Y261199D02*
X363392D01*
X362440Y331399D02*
X363310D01*
X362748Y268399D02*
X363116D01*
X362783Y401599D02*
X363017D01*
X350649Y400699D02*
X359351D01*
X350666Y269299D02*
X359334D01*
X353807Y279199D02*
X358863D01*
X351450Y470899D02*
X358550D01*
X353947Y200899D02*
X358550D01*
X351457Y199099D02*
X358543D01*
X351707Y190999D02*
X358293D01*
X351713Y478999D02*
X358287D01*
X354056Y208999D02*
X358287D01*
X354136Y271099D02*
X358076D01*
X352115Y261199D02*
X357885D01*
X352120Y408799D02*
X357880D01*
X354203Y138799D02*
X357880D01*
X354253Y341299D02*
X357715D01*
X354254Y418699D02*
X357710D01*
X352440Y331399D02*
X357560D01*
X352444Y338599D02*
X357556D01*
X354321Y411499D02*
X357419D01*
X354322Y348499D02*
X357415D01*
X352712Y401599D02*
X357288D01*
X352715Y268399D02*
X357285D01*
X354349Y278299D02*
X357164D01*
X352945Y471799D02*
X357055D01*
X354350Y201799D02*
X357055D01*
X352948Y198199D02*
X357052D01*
X353050Y191899D02*
X356950D01*
X353053Y478099D02*
X356947D01*
X354350Y208099D02*
X356947D01*
X354350Y271999D02*
X356851D01*
X353241Y262099D02*
X356759D01*
X353244Y407899D02*
X356756D01*
X354350Y137899D02*
X356756D01*
X354350Y342199D02*
X356672D01*
X354350Y417799D02*
X356670D01*
X353410Y332299D02*
X356590D01*
X353412Y337699D02*
X356588D01*
X354350Y412399D02*
X356513D01*
X354350Y347599D02*
X356512D01*
X353559Y402499D02*
X356441D01*
X354350Y132499D02*
X356441D01*
X353561Y267499D02*
X356439D01*
X354350Y277399D02*
X356371D01*
X353691Y472699D02*
X356309D01*
X354350Y202699D02*
X356309D01*
X353693Y197299D02*
X356307D01*
X353752Y192799D02*
X356248D01*
X353753Y477199D02*
X356247D01*
X354350Y207199D02*
X356247D01*
X354350Y272899D02*
X356191D01*
X353862Y262999D02*
X356138D01*
X353864Y406999D02*
X356136D01*
X354350Y136999D02*
X356136D01*
X354350Y343099D02*
X356087D01*
X354350Y416899D02*
X356086D01*
X353960Y333199D02*
X356040D01*
X353961Y336799D02*
X356039D01*
X354350Y413299D02*
X355996D01*
X354350Y346699D02*
X355995D01*
X354045Y403399D02*
X355955D01*
X354350Y133399D02*
X355955D01*
X354046Y266599D02*
X355954D01*
X354350Y276499D02*
X355916D01*
X354118Y473599D02*
X355882D01*
X354350Y203599D02*
X355882D01*
X354119Y196399D02*
X355881D01*
X354151Y193699D02*
X355849D01*
X354152Y476299D02*
X355848D01*
X354350Y206299D02*
X355848D01*
X354350Y273799D02*
X355819D01*
X354208Y263899D02*
X355792D01*
X354209Y406099D02*
X355791D01*
X354350Y136099D02*
X355791D01*
X354350Y343999D02*
X355767D01*
X354350Y415999D02*
X355766D01*
X354256Y334099D02*
X355744D01*
X354256Y335899D02*
X355744D01*
X354350Y414199D02*
X355724D01*
X354350Y345799D02*
X355724D01*
X354293Y404299D02*
X355707D01*
X354350Y134299D02*
X355707D01*
X354294Y265699D02*
X355706D01*
X354350Y275599D02*
X355691D01*
X354321Y474499D02*
X355679D01*
X354350Y204499D02*
X355679D01*
X354321Y195499D02*
X355679D01*
X354331Y194599D02*
X355669D01*
X354332Y475399D02*
X355668D01*
X354350Y205399D02*
X355668D01*
X354350Y274699D02*
X355660D01*
X354345Y264799D02*
X355655D01*
X354345Y405199D02*
X355655D01*
X354350Y135199D02*
X355655D01*
X354350Y344899D02*
X355651D01*
X354350Y415099D02*
X355651D01*
X354350Y334999D02*
X355650D01*
X346600Y400699D02*
X349351D01*
X346600Y269299D02*
X349334D01*
X346600Y199099D02*
X348543D01*
X306600Y190999D02*
X348293D01*
X103000Y478999D02*
X348287D01*
X346699Y261199D02*
X347885D01*
X346701Y408799D02*
X347880D01*
X347064Y331399D02*
X347445D01*
X103000Y478099D02*
X346947D01*
X122437Y477199D02*
X346247D01*
X124253Y476299D02*
X345848D01*
X339559Y138799D02*
X345797D01*
X339600Y137899D02*
X345650D01*
X339600Y136999D02*
X345650D01*
X339600Y136099D02*
X345650D01*
X339600Y135199D02*
X345650D01*
X339600Y134299D02*
X345650D01*
X339600Y133399D02*
X345650D01*
X339600Y132499D02*
X345650D01*
X125349Y475399D02*
X345307D01*
X126126Y474499D02*
X344407D01*
X126694Y473599D02*
X343507D01*
X127105Y472699D02*
X342607D01*
X127384Y471799D02*
X341707D01*
X306600Y191899D02*
X341672D01*
X127547Y470899D02*
X340807D01*
X306600Y192799D02*
X340610D01*
X127600Y469999D02*
X340006D01*
X306600Y193699D02*
X339883D01*
X127546Y469099D02*
X339572D01*
X306600Y194599D02*
X339515D01*
X127383Y468199D02*
X339405D01*
X127104Y467299D02*
X339400D01*
X126693Y466399D02*
X339400D01*
X126124Y465499D02*
X339400D01*
X125347Y464599D02*
X339400D01*
X124249Y463699D02*
X339400D01*
X122429Y462799D02*
X339400D01*
X103000Y461899D02*
X339400D01*
X103000Y460999D02*
X339400D01*
X103000Y460099D02*
X339400D01*
X103000Y459199D02*
X339400D01*
X103000Y458299D02*
X339400D01*
X103000Y457399D02*
X339400D01*
X103000Y456499D02*
X339400D01*
X103000Y455599D02*
X339400D01*
X103000Y454699D02*
X339400D01*
X103000Y453799D02*
X339400D01*
X103000Y452899D02*
X339400D01*
X103000Y451999D02*
X339400D01*
X103000Y451099D02*
X339400D01*
X103000Y450199D02*
X339400D01*
X103000Y449299D02*
X339400D01*
X103000Y448399D02*
X339400D01*
X103000Y447499D02*
X339400D01*
X103000Y446599D02*
X339400D01*
X103000Y445699D02*
X339400D01*
X103000Y444799D02*
X339400D01*
X103000Y443899D02*
X339400D01*
X103000Y442999D02*
X339400D01*
X103000Y442099D02*
X339400D01*
X103000Y441199D02*
X339400D01*
X103000Y440299D02*
X339400D01*
X336346Y439399D02*
X339400D01*
X337987Y438499D02*
X339400D01*
X306600Y409699D02*
X339400D01*
X306600Y408799D02*
X339400D01*
X306600Y407899D02*
X339400D01*
X306600Y406999D02*
X339400D01*
X335790Y406099D02*
X339400D01*
X336296Y405199D02*
X339400D01*
X336392Y404299D02*
X339400D01*
X336132Y403399D02*
X339400D01*
X335325Y402499D02*
X339400D01*
X306600Y401599D02*
X339400D01*
X306600Y400699D02*
X339400D01*
X306600Y399799D02*
X339400D01*
X306600Y398899D02*
X339400D01*
X306600Y397999D02*
X339400D01*
X306600Y397099D02*
X339400D01*
X306600Y396199D02*
X339400D01*
X306600Y395299D02*
X339400D01*
X306600Y394399D02*
X339400D01*
X306600Y393499D02*
X339400D01*
X306600Y392599D02*
X339400D01*
X306600Y391699D02*
X339400D01*
X306600Y390799D02*
X339400D01*
X306600Y389899D02*
X339400D01*
X306600Y388999D02*
X339400D01*
X306600Y388099D02*
X339400D01*
X306600Y387199D02*
X339400D01*
X306600Y386299D02*
X339400D01*
X306600Y385399D02*
X339400D01*
X306600Y384499D02*
X339400D01*
X306600Y383599D02*
X339400D01*
X306600Y382699D02*
X339400D01*
X306600Y381799D02*
X339400D01*
X306600Y380899D02*
X339400D01*
X306600Y379999D02*
X339400D01*
X306600Y379099D02*
X339400D01*
X306600Y378199D02*
X339400D01*
X306600Y377299D02*
X339400D01*
X306600Y376399D02*
X339400D01*
X306600Y375499D02*
X339400D01*
X306600Y374599D02*
X339400D01*
X306600Y373699D02*
X339400D01*
X306600Y372799D02*
X339400D01*
X306600Y371899D02*
X339400D01*
X306600Y370999D02*
X339400D01*
X306600Y370099D02*
X339400D01*
X336879Y369199D02*
X339400D01*
X338206Y368299D02*
X339400D01*
X306600Y339499D02*
X339400D01*
X306600Y338599D02*
X339400D01*
X306600Y337699D02*
X339400D01*
X306600Y336799D02*
X339400D01*
X306600Y335899D02*
X339400D01*
X306600Y334999D02*
X339400D01*
X306600Y334099D02*
X339400D01*
X306600Y333199D02*
X339400D01*
X306600Y332299D02*
X339400D01*
X306600Y331399D02*
X339400D01*
X306600Y330499D02*
X339400D01*
X306600Y329599D02*
X339400D01*
X306600Y328699D02*
X339400D01*
X306600Y327799D02*
X339400D01*
X306600Y326899D02*
X339400D01*
X306600Y325999D02*
X339400D01*
X306600Y325099D02*
X339400D01*
X306600Y324199D02*
X339400D01*
X306600Y323299D02*
X339400D01*
X306600Y322399D02*
X339400D01*
X306600Y321499D02*
X339400D01*
X306600Y320599D02*
X339400D01*
X306600Y319699D02*
X339400D01*
X306600Y318799D02*
X339400D01*
X306600Y317899D02*
X339400D01*
X306600Y316999D02*
X339400D01*
X306600Y316099D02*
X339400D01*
X306600Y315199D02*
X339400D01*
X306600Y314299D02*
X339400D01*
X306600Y313399D02*
X339400D01*
X306600Y312499D02*
X339400D01*
X306600Y311599D02*
X339400D01*
X306600Y310699D02*
X339400D01*
X306600Y309799D02*
X339400D01*
X306600Y308899D02*
X339400D01*
X306600Y307999D02*
X339400D01*
X306600Y307099D02*
X339400D01*
X306600Y306199D02*
X339400D01*
X306600Y305299D02*
X339400D01*
X306600Y304399D02*
X339400D01*
X306600Y303499D02*
X339400D01*
X306600Y302599D02*
X339400D01*
X306600Y301699D02*
X339400D01*
X306600Y300799D02*
X339400D01*
X306600Y299899D02*
X339400D01*
X337274Y298999D02*
X339400D01*
X306600Y269299D02*
X339400D01*
X306600Y268399D02*
X339400D01*
X306600Y267499D02*
X339400D01*
X306600Y266599D02*
X339400D01*
X306600Y265699D02*
X339400D01*
X306600Y264799D02*
X339400D01*
X306600Y263899D02*
X339400D01*
X306600Y262999D02*
X339400D01*
X306600Y262099D02*
X339400D01*
X306600Y261199D02*
X339400D01*
X306600Y260299D02*
X339400D01*
X306600Y259399D02*
X339400D01*
X306600Y258499D02*
X339400D01*
X306600Y257599D02*
X339400D01*
X306600Y256699D02*
X339400D01*
X306600Y255799D02*
X339400D01*
X306600Y254899D02*
X339400D01*
X306600Y253999D02*
X339400D01*
X306600Y253099D02*
X339400D01*
X306600Y252199D02*
X339400D01*
X306600Y251299D02*
X339400D01*
X306600Y250399D02*
X339400D01*
X306600Y249499D02*
X339400D01*
X306600Y248599D02*
X339400D01*
X306600Y247699D02*
X339400D01*
X306600Y246799D02*
X339400D01*
X306600Y245899D02*
X339400D01*
X306600Y244999D02*
X339400D01*
X306600Y244099D02*
X339400D01*
X306600Y243199D02*
X339400D01*
X306600Y242299D02*
X339400D01*
X306600Y241399D02*
X339400D01*
X306600Y240499D02*
X339400D01*
X306600Y239599D02*
X339400D01*
X306600Y238699D02*
X339400D01*
X306600Y237799D02*
X339400D01*
X306600Y236899D02*
X339400D01*
X306600Y235999D02*
X339400D01*
X306600Y235099D02*
X339400D01*
X306600Y234199D02*
X339400D01*
X306600Y233299D02*
X339400D01*
X306600Y232399D02*
X339400D01*
X306600Y231499D02*
X339400D01*
X306600Y230599D02*
X339400D01*
X306600Y229699D02*
X339400D01*
X337594Y228799D02*
X339400D01*
X306600Y199099D02*
X339400D01*
X306600Y198199D02*
X339400D01*
X306600Y197299D02*
X339400D01*
X306600Y196399D02*
X339400D01*
X306600Y195499D02*
X339400D01*
X306600Y199999D02*
X339398D01*
X338400Y298099D02*
X339363D01*
X306600Y270199D02*
X339334D01*
X338584Y227899D02*
X339216D01*
X306602Y340399D02*
X339122D01*
X306600Y289999D02*
X334495D01*
X306600Y360199D02*
X334454D01*
X306600Y219799D02*
X334453D01*
X306602Y430399D02*
X334297D01*
X306602Y149599D02*
X334293D01*
X306600Y280099D02*
X334086D01*
X306622Y150499D02*
X334052D01*
X306600Y350299D02*
X334044D01*
X306600Y209899D02*
X334043D01*
X306623Y429499D02*
X334040D01*
X306623Y159499D02*
X334040D01*
X306622Y420499D02*
X333887D01*
X306600Y139699D02*
X333884D01*
X306665Y140599D02*
X333663D01*
X306346Y439399D02*
X333654D01*
X306739Y220699D02*
X333369D01*
X306742Y359299D02*
X333362D01*
X306875Y210799D02*
X333127D01*
X306880Y369199D02*
X333121D01*
X307083Y290899D02*
X332917D01*
X307088Y289099D02*
X332912D01*
X307269Y280999D02*
X332731D01*
X307274Y298999D02*
X332726D01*
X313325Y402499D02*
X332675D01*
X307437Y361099D02*
X332563D01*
X307441Y218899D02*
X332559D01*
X307590Y351199D02*
X332410D01*
X307594Y228799D02*
X332406D01*
X307731Y431299D02*
X332269D01*
X307735Y148699D02*
X332265D01*
X307862Y421399D02*
X332138D01*
X307862Y151399D02*
X332138D01*
X307865Y428599D02*
X332135D01*
X307865Y158599D02*
X332135D01*
X307983Y141499D02*
X332017D01*
X307987Y438499D02*
X332013D01*
X308097Y221599D02*
X331903D01*
X308100Y358399D02*
X331900D01*
X308203Y211699D02*
X331797D01*
X308206Y368299D02*
X331794D01*
X308303Y291799D02*
X331697D01*
X308306Y288199D02*
X331694D01*
X308397Y281899D02*
X331603D01*
X308400Y298099D02*
X331600D01*
X308486Y361999D02*
X331514D01*
X308488Y217999D02*
X331512D01*
X306602Y419599D02*
X331446D01*
X308570Y352099D02*
X331430D01*
X308572Y227899D02*
X331428D01*
X308649Y432199D02*
X331351D01*
X308651Y147799D02*
X331349D01*
X308723Y422299D02*
X331277D01*
X308723Y152299D02*
X331277D01*
X308725Y427699D02*
X331275D01*
X308725Y157699D02*
X331275D01*
X308794Y142399D02*
X331206D01*
X308796Y437599D02*
X331204D01*
X308861Y222499D02*
X331139D01*
X308862Y357499D02*
X331138D01*
X308924Y212599D02*
X331076D01*
X308925Y367399D02*
X331075D01*
X308983Y292699D02*
X331017D01*
X308984Y287299D02*
X331016D01*
X309039Y282799D02*
X330961D01*
X309041Y297199D02*
X330959D01*
X309092Y362899D02*
X330908D01*
X309093Y217099D02*
X330907D01*
X306665Y410599D02*
X330869D01*
X306666Y349399D02*
X330866D01*
X309142Y352999D02*
X330858D01*
X309143Y226999D02*
X330857D01*
X309189Y433099D02*
X330811D01*
X309190Y146899D02*
X330810D01*
X309233Y423199D02*
X330767D01*
X309233Y153199D02*
X330767D01*
X309234Y426799D02*
X330766D01*
X309234Y156799D02*
X330766D01*
X309274Y143299D02*
X330726D01*
X309275Y436699D02*
X330725D01*
X309312Y223399D02*
X330688D01*
X309313Y356599D02*
X330687D01*
X309348Y213499D02*
X330652D01*
X309349Y366499D02*
X330651D01*
X306880Y279199D02*
X330650D01*
X309381Y293599D02*
X330619D01*
X309382Y286399D02*
X330618D01*
X309412Y283699D02*
X330588D01*
X309413Y296299D02*
X330587D01*
X307083Y200899D02*
X330579D01*
X309440Y363799D02*
X330560D01*
X309441Y216199D02*
X330559D01*
X309466Y353899D02*
X330534D01*
X309467Y226099D02*
X330533D01*
X307274Y208999D02*
X330520D01*
X309490Y433999D02*
X330510D01*
X309490Y145999D02*
X330510D01*
X309511Y424099D02*
X330489D01*
X309511Y154099D02*
X330489D01*
X309511Y425899D02*
X330489D01*
X309511Y155899D02*
X330489D01*
X307437Y271099D02*
X330476D01*
X309530Y144199D02*
X330470D01*
X309530Y435799D02*
X330470D01*
X309546Y224299D02*
X330454D01*
X309547Y355699D02*
X330453D01*
X307594Y138799D02*
X330441D01*
X309561Y214399D02*
X330439D01*
X309561Y365599D02*
X330439D01*
X309573Y294499D02*
X330427D01*
X309573Y285499D02*
X330427D01*
X307731Y341299D02*
X330419D01*
X307735Y418699D02*
X330418D01*
X309582Y284599D02*
X330418D01*
X309583Y295399D02*
X330417D01*
X309590Y364699D02*
X330410D01*
X309590Y215299D02*
X330410D01*
X309596Y354799D02*
X330404D01*
X309596Y225199D02*
X330404D01*
X309599Y434899D02*
X330401D01*
X309599Y145099D02*
X330401D01*
X309600Y424999D02*
X330400D01*
X308651Y417799D02*
X330400D01*
X309190Y416899D02*
X330400D01*
X309490Y415999D02*
X330400D01*
X309599Y415099D02*
X330400D01*
X309530Y414199D02*
X330400D01*
X309274Y413299D02*
X330400D01*
X308794Y412399D02*
X330400D01*
X307983Y411499D02*
X330400D01*
X307987Y348499D02*
X330400D01*
X308796Y347599D02*
X330400D01*
X309275Y346699D02*
X330400D01*
X309530Y345799D02*
X330400D01*
X309599Y344899D02*
X330400D01*
X309490Y343999D02*
X330400D01*
X309189Y343099D02*
X330400D01*
X308649Y342199D02*
X330400D01*
X308206Y278299D02*
X330400D01*
X308925Y277399D02*
X330400D01*
X309349Y276499D02*
X330400D01*
X309561Y275599D02*
X330400D01*
X309590Y274699D02*
X330400D01*
X309440Y273799D02*
X330400D01*
X309092Y272899D02*
X330400D01*
X308486Y271999D02*
X330400D01*
X308400Y208099D02*
X330400D01*
X309041Y207199D02*
X330400D01*
X309413Y206299D02*
X330400D01*
X309583Y205399D02*
X330400D01*
X309573Y204499D02*
X330400D01*
X309381Y203599D02*
X330400D01*
X308983Y202699D02*
X330400D01*
X308303Y201799D02*
X330400D01*
X309600Y154999D02*
X330400D01*
X308572Y137899D02*
X330400D01*
X309143Y136999D02*
X330400D01*
X319164Y136099D02*
X330400D01*
X320064Y135199D02*
X330400D01*
X320964Y134299D02*
X330400D01*
X321864Y133399D02*
X330400D01*
X322764Y132499D02*
X330400D01*
X306600Y402499D02*
X310675D01*
X306600Y406099D02*
X310210D01*
X306600Y403399D02*
X309868D01*
X306600Y405199D02*
X309704D01*
X306600Y404299D02*
X309608D01*
X103000Y439399D02*
X303654D01*
X295961Y409699D02*
X303400D01*
X295061Y408799D02*
X303400D01*
X294161Y407899D02*
X303400D01*
X293261Y406999D02*
X303400D01*
X300790Y406099D02*
X303400D01*
X301296Y405199D02*
X303400D01*
X301392Y404299D02*
X303400D01*
X301132Y403399D02*
X303400D01*
X300325Y402499D02*
X303400D01*
X298361Y401599D02*
X303400D01*
X297461Y400699D02*
X303400D01*
X296561Y399799D02*
X303400D01*
X295661Y398899D02*
X303400D01*
X294761Y397999D02*
X303400D01*
X293861Y397099D02*
X303400D01*
X292961Y396199D02*
X303400D01*
X292061Y395299D02*
X303400D01*
X291161Y394399D02*
X303400D01*
X290261Y393499D02*
X303400D01*
X289361Y392599D02*
X303400D01*
X288461Y391699D02*
X303400D01*
X287561Y390799D02*
X303400D01*
X286661Y389899D02*
X303400D01*
X285761Y388999D02*
X303400D01*
X284861Y388099D02*
X303400D01*
X283961Y387199D02*
X303400D01*
X283061Y386299D02*
X303400D01*
X282161Y385399D02*
X303400D01*
X281261Y384499D02*
X303400D01*
X280361Y383599D02*
X303400D01*
X279461Y382699D02*
X303400D01*
X278561Y381799D02*
X303400D01*
X277661Y380899D02*
X303400D01*
X276761Y379999D02*
X303400D01*
X275861Y379099D02*
X303400D01*
X274961Y378199D02*
X303400D01*
X274061Y377299D02*
X303400D01*
X273161Y376399D02*
X303400D01*
X272261Y375499D02*
X303400D01*
X271361Y374599D02*
X303400D01*
X270461Y373699D02*
X303400D01*
X269561Y372799D02*
X303400D01*
X268661Y371899D02*
X303400D01*
X253325Y370999D02*
X303400D01*
X185861Y370099D02*
X303400D01*
X175961Y360199D02*
X303400D01*
X166061Y350299D02*
X303400D01*
X254100Y339499D02*
X303400D01*
X254100Y338599D02*
X303400D01*
X254100Y337699D02*
X303400D01*
X254100Y336799D02*
X303400D01*
X254100Y335899D02*
X303400D01*
X254100Y334999D02*
X303400D01*
X254100Y334099D02*
X303400D01*
X254100Y333199D02*
X303400D01*
X254100Y332299D02*
X303400D01*
X254100Y331399D02*
X303400D01*
X254100Y330499D02*
X303400D01*
X254100Y329599D02*
X303400D01*
X254100Y328699D02*
X303400D01*
X254100Y327799D02*
X303400D01*
X254100Y326899D02*
X303400D01*
X254100Y325999D02*
X303400D01*
X254100Y325099D02*
X303400D01*
X254100Y324199D02*
X303400D01*
X254100Y323299D02*
X303400D01*
X254100Y322399D02*
X303400D01*
X254100Y321499D02*
X303400D01*
X254100Y320599D02*
X303400D01*
X254100Y319699D02*
X303400D01*
X254100Y318799D02*
X303400D01*
X253983Y317899D02*
X303400D01*
X253261Y316999D02*
X303400D01*
X252361Y316099D02*
X303400D01*
X251461Y315199D02*
X303400D01*
X250561Y314299D02*
X303400D01*
X249661Y313399D02*
X303400D01*
X248904Y312499D02*
X303400D01*
X248724Y311599D02*
X303400D01*
X248086Y310699D02*
X303400D01*
X241600Y309799D02*
X303400D01*
X241600Y308899D02*
X303400D01*
X241600Y307999D02*
X303400D01*
X241600Y307099D02*
X303400D01*
X241600Y306199D02*
X303400D01*
X241600Y305299D02*
X303400D01*
X241600Y304399D02*
X303400D01*
X241600Y303499D02*
X303400D01*
X241600Y302599D02*
X303400D01*
X241600Y301699D02*
X303400D01*
X241600Y300799D02*
X303400D01*
X246080Y299899D02*
X303400D01*
X286264Y289999D02*
X303400D01*
X287100Y280099D02*
X303400D01*
X287100Y270199D02*
X303400D01*
X287100Y269299D02*
X303400D01*
X287100Y268399D02*
X303400D01*
X287100Y267499D02*
X303400D01*
X287100Y266599D02*
X303400D01*
X287100Y265699D02*
X303400D01*
X287100Y264799D02*
X303400D01*
X287100Y263899D02*
X303400D01*
X287100Y262999D02*
X303400D01*
X287100Y262099D02*
X303400D01*
X287100Y261199D02*
X303400D01*
X287100Y260299D02*
X303400D01*
X287100Y259399D02*
X303400D01*
X287100Y258499D02*
X303400D01*
X287100Y257599D02*
X303400D01*
X287100Y256699D02*
X303400D01*
X287100Y255799D02*
X303400D01*
X287100Y254899D02*
X303400D01*
X287100Y253999D02*
X303400D01*
X287100Y253099D02*
X303400D01*
X287100Y252199D02*
X303400D01*
X287100Y251299D02*
X303400D01*
X287100Y250399D02*
X303400D01*
X287100Y249499D02*
X303400D01*
X287100Y248599D02*
X303400D01*
X287100Y247699D02*
X303400D01*
X287100Y246799D02*
X303400D01*
X287100Y245899D02*
X303400D01*
X287100Y244999D02*
X303400D01*
X287100Y244099D02*
X303400D01*
X287100Y243199D02*
X303400D01*
X287100Y242299D02*
X303400D01*
X287100Y241399D02*
X303400D01*
X287100Y240499D02*
X303400D01*
X287100Y239599D02*
X303400D01*
X287100Y238699D02*
X303400D01*
X287100Y237799D02*
X303400D01*
X287100Y236899D02*
X303400D01*
X287100Y235999D02*
X303400D01*
X287100Y235099D02*
X303400D01*
X287100Y234199D02*
X303400D01*
X287100Y233299D02*
X303400D01*
X287100Y232399D02*
X303400D01*
X287100Y231499D02*
X303400D01*
X287100Y230599D02*
X303400D01*
X287100Y229699D02*
X303400D01*
X287100Y219799D02*
X303400D01*
X287100Y209899D02*
X303400D01*
X287100Y199999D02*
X303400D01*
X287100Y199099D02*
X303400D01*
X287100Y198199D02*
X303400D01*
X287100Y197299D02*
X303400D01*
X287100Y196399D02*
X303400D01*
X287100Y195499D02*
X303400D01*
X287100Y194599D02*
X303400D01*
X287100Y193699D02*
X303400D01*
X287100Y192799D02*
X303400D01*
X287100Y191899D02*
X303400D01*
X287100Y190999D02*
X303400D01*
X287100Y190099D02*
X303400D01*
X287100Y189199D02*
X303400D01*
X287100Y188299D02*
X303400D01*
X287100Y187399D02*
X303400D01*
X287100Y186499D02*
X303400D01*
X287100Y185599D02*
X303400D01*
X287100Y184699D02*
X303400D01*
X287100Y183799D02*
X303400D01*
X287100Y182899D02*
X303400D01*
X287100Y181999D02*
X303400D01*
X287100Y181099D02*
X303400D01*
X287100Y180199D02*
X303400D01*
X287100Y179299D02*
X303400D01*
X287100Y178399D02*
X303400D01*
X287100Y177499D02*
X303400D01*
X287100Y176599D02*
X303400D01*
X287100Y175699D02*
X303400D01*
X287100Y174799D02*
X303400D01*
X287100Y173899D02*
X303400D01*
X287100Y172999D02*
X303400D01*
X287100Y172099D02*
X303400D01*
X287100Y171199D02*
X303400D01*
X287100Y170299D02*
X303400D01*
X287100Y169399D02*
X303400D01*
X287100Y168499D02*
X303400D01*
X287100Y167599D02*
X303400D01*
X287100Y166699D02*
X303400D01*
X287100Y165799D02*
X303400D01*
X287100Y164899D02*
X303400D01*
X287100Y163999D02*
X303400D01*
X287100Y163099D02*
X303400D01*
X287100Y162199D02*
X303400D01*
X287100Y161299D02*
X303400D01*
X287100Y160399D02*
X303400D01*
X295564Y139699D02*
X303400D01*
X201797Y430399D02*
X303398D01*
X254100Y340399D02*
X303398D01*
X103000Y419599D02*
X303398D01*
X287100Y149599D02*
X303398D01*
X103000Y420499D02*
X303378D01*
X287100Y150499D02*
X303378D01*
X201790Y429499D02*
X303377D01*
X287100Y159499D02*
X303377D01*
X296861Y410599D02*
X303335D01*
X294664Y140599D02*
X303335D01*
X165161Y349399D02*
X303334D01*
X287100Y220699D02*
X303261D01*
X175061Y359299D02*
X303258D01*
X287100Y210799D02*
X303125D01*
X184961Y369199D02*
X303120D01*
X287100Y279199D02*
X303120D01*
X285364Y290899D02*
X302917D01*
X287100Y200899D02*
X302917D01*
X286984Y289099D02*
X302912D01*
X287100Y280999D02*
X302731D01*
X277060Y298999D02*
X302726D01*
X287100Y208999D02*
X302726D01*
X176861Y361099D02*
X302563D01*
X287100Y271099D02*
X302563D01*
X287100Y218899D02*
X302559D01*
X166961Y351199D02*
X302410D01*
X287100Y228799D02*
X302406D01*
X296464Y138799D02*
X302406D01*
X201684Y431299D02*
X302269D01*
X254100Y341299D02*
X302269D01*
X103000Y418699D02*
X302265D01*
X287100Y148699D02*
X302265D01*
X103000Y421399D02*
X302138D01*
X287100Y151399D02*
X302138D01*
X201663Y428599D02*
X302135D01*
X287100Y158599D02*
X302135D01*
X297761Y411499D02*
X302017D01*
X293764Y141499D02*
X302017D01*
X103000Y438499D02*
X302013D01*
X251764Y348499D02*
X302013D01*
X287100Y221599D02*
X301903D01*
X174161Y358399D02*
X301900D01*
X287100Y211699D02*
X301797D01*
X184061Y368299D02*
X301794D01*
X287100Y278299D02*
X301794D01*
X284464Y291799D02*
X301697D01*
X287100Y201799D02*
X301697D01*
X287100Y288199D02*
X301694D01*
X287100Y281899D02*
X301603D01*
X278164Y298099D02*
X301600D01*
X287100Y208099D02*
X301600D01*
X177761Y361999D02*
X301514D01*
X287100Y271999D02*
X301514D01*
X287100Y217999D02*
X301512D01*
X167861Y352099D02*
X301430D01*
X287100Y227899D02*
X301428D01*
X297364Y137899D02*
X301428D01*
X201444Y432199D02*
X301351D01*
X254100Y342199D02*
X301351D01*
X103000Y417799D02*
X301349D01*
X287464Y147799D02*
X301349D01*
X103000Y422299D02*
X301277D01*
X287100Y152299D02*
X301277D01*
X201408Y427699D02*
X301275D01*
X287100Y157699D02*
X301275D01*
X298661Y412399D02*
X301206D01*
X292864Y142399D02*
X301206D01*
X103000Y437599D02*
X301204D01*
X252664Y347599D02*
X301204D01*
X287100Y222499D02*
X301139D01*
X173261Y357499D02*
X301138D01*
X287100Y212599D02*
X301076D01*
X183161Y367399D02*
X301075D01*
X287100Y277399D02*
X301075D01*
X283564Y292699D02*
X301017D01*
X287100Y202699D02*
X301017D01*
X287100Y287299D02*
X301016D01*
X287100Y282799D02*
X300961D01*
X279064Y297199D02*
X300959D01*
X287100Y207199D02*
X300959D01*
X178661Y362899D02*
X300908D01*
X287100Y272899D02*
X300908D01*
X287100Y217099D02*
X300907D01*
X168761Y352999D02*
X300858D01*
X287100Y226999D02*
X300857D01*
X298264Y136999D02*
X300857D01*
X201063Y433099D02*
X300811D01*
X254100Y343099D02*
X300811D01*
X103000Y416899D02*
X300810D01*
X288364Y146899D02*
X300810D01*
X195317Y423199D02*
X300767D01*
X287100Y153199D02*
X300767D01*
X201009Y426799D02*
X300766D01*
X287100Y156799D02*
X300766D01*
X291964Y143299D02*
X300726D01*
X196219Y436699D02*
X300725D01*
X253564Y346699D02*
X300725D01*
X287100Y223399D02*
X300688D01*
X172361Y356599D02*
X300687D01*
X299568Y413299D02*
X300654D01*
X287100Y213499D02*
X300652D01*
X182261Y366499D02*
X300651D01*
X287100Y276499D02*
X300651D01*
X282664Y293599D02*
X300619D01*
X287100Y203599D02*
X300619D01*
X287100Y286399D02*
X300618D01*
X287100Y283699D02*
X300588D01*
X279964Y296299D02*
X300587D01*
X287100Y206299D02*
X300587D01*
X179561Y363799D02*
X300560D01*
X287100Y273799D02*
X300560D01*
X287100Y216199D02*
X300559D01*
X169661Y353899D02*
X300534D01*
X287100Y226099D02*
X300533D01*
X299164Y136099D02*
X300533D01*
X200511Y433999D02*
X300510D01*
X254100Y343999D02*
X300510D01*
X289264Y145999D02*
X300510D01*
X198396Y424099D02*
X300489D01*
X287100Y154099D02*
X300489D01*
X200435Y425899D02*
X300489D01*
X287100Y155899D02*
X300489D01*
X291064Y144199D02*
X300470D01*
X198568Y435799D02*
X300470D01*
X254072Y345799D02*
X300470D01*
X287100Y224299D02*
X300454D01*
X171461Y355699D02*
X300453D01*
X287100Y214399D02*
X300439D01*
X181361Y365599D02*
X300439D01*
X287100Y275599D02*
X300439D01*
X281764Y294499D02*
X300427D01*
X287100Y204499D02*
X300427D01*
X287100Y285499D02*
X300427D01*
X287100Y284599D02*
X300418D01*
X280864Y295399D02*
X300417D01*
X287100Y205399D02*
X300417D01*
X180461Y364699D02*
X300410D01*
X287100Y274699D02*
X300410D01*
X287100Y215299D02*
X300410D01*
X170561Y354799D02*
X300404D01*
X287100Y225199D02*
X300404D01*
X199729Y434899D02*
X300401D01*
X254100Y344899D02*
X300401D01*
X290164Y145099D02*
X300401D01*
X199620Y424999D02*
X300400D01*
X287100Y154999D02*
X300400D01*
X103000Y110899D02*
X299839D01*
X103000Y111799D02*
X298939D01*
X122110Y112699D02*
X298039D01*
X103000Y415999D02*
X297736D01*
X292361Y406099D02*
X297210D01*
X124097Y113599D02*
X297139D01*
X103000Y415099D02*
X296836D01*
X291461Y405199D02*
X296704D01*
X290561Y404299D02*
X296520D01*
X125244Y114499D02*
X296239D01*
X103000Y414199D02*
X295936D01*
X289661Y403399D02*
X295636D01*
X126049Y115399D02*
X295339D01*
X103000Y413299D02*
X295036D01*
X288761Y402499D02*
X294736D01*
X126638Y116299D02*
X294439D01*
X103000Y412399D02*
X294136D01*
X287861Y401599D02*
X293836D01*
X127065Y117199D02*
X293539D01*
X103000Y411499D02*
X293236D01*
X286961Y400699D02*
X292936D01*
X127358Y118099D02*
X292639D01*
X103000Y410599D02*
X292336D01*
X286061Y399799D02*
X292036D01*
X127534Y118999D02*
X291739D01*
X103000Y409699D02*
X291436D01*
X285161Y398899D02*
X291136D01*
X127599Y119899D02*
X290839D01*
X266543Y408799D02*
X290536D01*
X284261Y397999D02*
X290236D01*
X127558Y120799D02*
X289939D01*
X267900Y407899D02*
X289636D01*
X283361Y397099D02*
X289336D01*
X127408Y121699D02*
X289039D01*
X268580Y406999D02*
X288736D01*
X282461Y396199D02*
X288436D01*
X127142Y122599D02*
X288139D01*
X268950Y406099D02*
X287836D01*
X281561Y395299D02*
X287536D01*
X195553Y123499D02*
X287239D01*
X269095Y405199D02*
X286936D01*
X280661Y394399D02*
X286636D01*
X196661Y124399D02*
X286339D01*
X269040Y404299D02*
X286036D01*
X279761Y393499D02*
X285736D01*
X197561Y125299D02*
X285439D01*
X268774Y403399D02*
X285136D01*
X278861Y392599D02*
X284836D01*
X222590Y126199D02*
X284539D01*
X268249Y402499D02*
X284236D01*
X277961Y391699D02*
X283936D01*
X223570Y127099D02*
X283639D01*
X267289Y401599D02*
X283336D01*
X277061Y390799D02*
X283036D01*
X224142Y127999D02*
X282739D01*
X103000Y400699D02*
X282436D01*
X276161Y389899D02*
X282136D01*
X240464Y282799D02*
X281900D01*
X241364Y281899D02*
X281900D01*
X242264Y280999D02*
X281900D01*
X243164Y280099D02*
X281900D01*
X244064Y279199D02*
X281900D01*
X244964Y278299D02*
X281900D01*
X245864Y277399D02*
X281900D01*
X246764Y276499D02*
X281900D01*
X247664Y275599D02*
X281900D01*
X248564Y274699D02*
X281900D01*
X249464Y273799D02*
X281900D01*
X250364Y272899D02*
X281900D01*
X251264Y271999D02*
X281900D01*
X252164Y271099D02*
X281900D01*
X253064Y270199D02*
X281900D01*
X253964Y269299D02*
X281900D01*
X254864Y268399D02*
X281900D01*
X255764Y267499D02*
X281900D01*
X256664Y266599D02*
X281900D01*
X257564Y265699D02*
X281900D01*
X258464Y264799D02*
X281900D01*
X259364Y263899D02*
X281900D01*
X260264Y262999D02*
X281900D01*
X261164Y262099D02*
X281900D01*
X262064Y261199D02*
X281900D01*
X262964Y260299D02*
X281900D01*
X263864Y259399D02*
X281900D01*
X264764Y258499D02*
X281900D01*
X265664Y257599D02*
X281900D01*
X266564Y256699D02*
X281900D01*
X267464Y255799D02*
X281900D01*
X268364Y254899D02*
X281900D01*
X269264Y253999D02*
X281900D01*
X270164Y253099D02*
X281900D01*
X271064Y252199D02*
X281900D01*
X271964Y251299D02*
X281900D01*
X272864Y250399D02*
X281900D01*
X273764Y249499D02*
X281900D01*
X274664Y248599D02*
X281900D01*
X275564Y247699D02*
X281900D01*
X276464Y246799D02*
X281900D01*
X277364Y245899D02*
X281900D01*
X278264Y244999D02*
X281900D01*
X279164Y244099D02*
X281900D01*
X280064Y243199D02*
X281900D01*
X224466Y128899D02*
X281839D01*
X280964Y242299D02*
X281820D01*
X239564Y283699D02*
X281539D01*
X103000Y399799D02*
X281536D01*
X275261Y388999D02*
X281236D01*
X224596Y129799D02*
X280939D01*
X238664Y284599D02*
X280639D01*
X266269Y398899D02*
X280636D01*
X274361Y388099D02*
X280336D01*
X224547Y130699D02*
X280039D01*
X237764Y285499D02*
X279739D01*
X267796Y397999D02*
X279736D01*
X273461Y387199D02*
X279436D01*
X224313Y131599D02*
X279139D01*
X237100Y286399D02*
X278839D01*
X268522Y397099D02*
X278836D01*
X248561Y386299D02*
X278536D01*
X223862Y132499D02*
X278239D01*
X237100Y287299D02*
X277939D01*
X268921Y396199D02*
X277936D01*
X246956Y237799D02*
X277900D01*
X245161Y236899D02*
X277900D01*
X244261Y235999D02*
X277900D01*
X243361Y235099D02*
X277900D01*
X247695Y234199D02*
X277900D01*
X248263Y233299D02*
X277900D01*
X248398Y232399D02*
X277900D01*
X248181Y231499D02*
X277900D01*
X247465Y230599D02*
X277900D01*
X245461Y229699D02*
X277900D01*
X244561Y228799D02*
X277900D01*
X244100Y227899D02*
X277900D01*
X247829Y226999D02*
X277900D01*
X248634Y226099D02*
X277900D01*
X248892Y225199D02*
X277900D01*
X248795Y224299D02*
X277900D01*
X248288Y223399D02*
X277900D01*
X248100Y222499D02*
X277900D01*
X248100Y221599D02*
X277900D01*
X248100Y220699D02*
X277900D01*
X248100Y219799D02*
X277900D01*
X248100Y218899D02*
X277900D01*
X248100Y217999D02*
X277900D01*
X248100Y217099D02*
X277900D01*
X248100Y216199D02*
X277900D01*
X248100Y215299D02*
X277900D01*
X248100Y214399D02*
X277900D01*
X248100Y213499D02*
X277900D01*
X248100Y212599D02*
X277900D01*
X248130Y211699D02*
X277900D01*
X248964Y210799D02*
X277900D01*
X249864Y209899D02*
X277900D01*
X250764Y208999D02*
X277900D01*
X251664Y208099D02*
X277900D01*
X252564Y207199D02*
X277900D01*
X253464Y206299D02*
X277900D01*
X254364Y205399D02*
X277900D01*
X255264Y204499D02*
X277900D01*
X256164Y203599D02*
X277900D01*
X257064Y202699D02*
X277900D01*
X257964Y201799D02*
X277900D01*
X258864Y200899D02*
X277900D01*
X259764Y199999D02*
X277900D01*
X260664Y199099D02*
X277900D01*
X261564Y198199D02*
X277900D01*
X262464Y197299D02*
X277900D01*
X263364Y196399D02*
X277900D01*
X264264Y195499D02*
X277900D01*
X265164Y194599D02*
X277900D01*
X266064Y193699D02*
X277900D01*
X266964Y192799D02*
X277900D01*
X267864Y191899D02*
X277900D01*
X268764Y190999D02*
X277900D01*
X269664Y190099D02*
X277900D01*
X270564Y189199D02*
X277900D01*
X271464Y188299D02*
X277900D01*
X272364Y187399D02*
X277900D01*
X273264Y186499D02*
X277900D01*
X274164Y185599D02*
X277900D01*
X275064Y184699D02*
X277900D01*
X275964Y183799D02*
X277900D01*
X276864Y182899D02*
X277870D01*
X247661Y385399D02*
X277636D01*
X248017Y238699D02*
X277539D01*
X223100Y133399D02*
X277339D01*
X237100Y288199D02*
X277039D01*
X269089Y395299D02*
X277036D01*
X246761Y384499D02*
X276736D01*
X248366Y239599D02*
X276639D01*
X221638Y134299D02*
X276439D01*
X237100Y289099D02*
X276139D01*
X269056Y394399D02*
X276136D01*
X245861Y383599D02*
X275836D01*
X248348Y240499D02*
X275739D01*
X103000Y135199D02*
X275539D01*
X237100Y289999D02*
X275239D01*
X268815Y393499D02*
X275236D01*
X244961Y382699D02*
X274936D01*
X247950Y241399D02*
X274839D01*
X103000Y136099D02*
X274639D01*
X237100Y290899D02*
X274339D01*
X268323Y392599D02*
X274336D01*
X244061Y381799D02*
X274036D01*
X246690Y242299D02*
X273939D01*
X103000Y136999D02*
X273739D01*
X237100Y291799D02*
X273439D01*
X267431Y391699D02*
X273436D01*
X196834Y380899D02*
X273136D01*
X243961Y243199D02*
X273039D01*
X103000Y137899D02*
X272839D01*
X261464Y390799D02*
X272536D01*
X195761Y379999D02*
X272236D01*
X244861Y244099D02*
X272139D01*
X103000Y138799D02*
X271939D01*
X262364Y389899D02*
X271636D01*
X194861Y379099D02*
X271336D01*
X245768Y244999D02*
X271239D01*
X103000Y139699D02*
X271039D01*
X193961Y378199D02*
X270436D01*
X247788Y245899D02*
X270339D01*
X103000Y140599D02*
X270139D01*
X193061Y377299D02*
X269536D01*
X248295Y246799D02*
X269439D01*
X103000Y141499D02*
X269239D01*
X192161Y376399D02*
X268636D01*
X248392Y247699D02*
X268539D01*
X103000Y142399D02*
X268339D01*
X103000Y143299D02*
X267913D01*
X103000Y170299D02*
X267900D01*
X103000Y169399D02*
X267900D01*
X172661Y160399D02*
X267900D01*
X171761Y159499D02*
X267900D01*
X170861Y158599D02*
X267900D01*
X169961Y157699D02*
X267900D01*
X169061Y156799D02*
X267900D01*
X168161Y155899D02*
X267900D01*
X167261Y154999D02*
X267900D01*
X166272Y154099D02*
X267900D01*
X156681Y153199D02*
X267900D01*
X103000Y152299D02*
X267900D01*
X103000Y151399D02*
X267900D01*
X103000Y150499D02*
X267900D01*
X103000Y149599D02*
X267900D01*
X103000Y148699D02*
X267900D01*
X103000Y147799D02*
X267900D01*
X103000Y146899D02*
X267900D01*
X103000Y145999D02*
X267900D01*
X103000Y145099D02*
X267900D01*
X103000Y144199D02*
X267900D01*
X266536Y171199D02*
X267885D01*
X266764Y161299D02*
X267847D01*
X191261Y375499D02*
X267736D01*
X267138Y168499D02*
X267662D01*
X248134Y248599D02*
X267639D01*
X247329Y249499D02*
X266739D01*
X243161Y250399D02*
X265839D01*
X244061Y251299D02*
X264939D01*
X103000Y179299D02*
X264128D01*
X244961Y252199D02*
X264039D01*
X256269Y398899D02*
X263731D01*
X103000Y180199D02*
X263539D01*
X256536Y171199D02*
X263464D01*
X256543Y408799D02*
X263457D01*
X256764Y161299D02*
X263236D01*
X246965Y253099D02*
X263139D01*
X257138Y168499D02*
X262862D01*
X257289Y401599D02*
X262711D01*
X257293Y178399D02*
X262707D01*
X103000Y181099D02*
X262639D01*
X260564Y391699D02*
X262569D01*
X247681Y253999D02*
X262239D01*
X257796Y397999D02*
X262204D01*
X257897Y172099D02*
X262103D01*
X257900Y407899D02*
X262100D01*
X257994Y162199D02*
X262006D01*
X258171Y167599D02*
X261829D01*
X258249Y402499D02*
X261751D01*
X258251Y177499D02*
X261749D01*
X103000Y181999D02*
X261739D01*
X259664Y392599D02*
X261677D01*
X258522Y397099D02*
X261478D01*
X258578Y172999D02*
X261422D01*
X258580Y406999D02*
X261420D01*
X258633Y163099D02*
X261367D01*
X247898Y254899D02*
X261339D01*
X258732Y166699D02*
X261268D01*
X258774Y403399D02*
X261226D01*
X258775Y176599D02*
X261225D01*
X258887Y393499D02*
X261185D01*
X258921Y396199D02*
X261079D01*
X258949Y173899D02*
X261051D01*
X258950Y406099D02*
X261050D01*
X258976Y163999D02*
X261024D01*
X259021Y165799D02*
X260979D01*
X259040Y404299D02*
X260960D01*
X259040Y175699D02*
X260960D01*
X259056Y394399D02*
X260944D01*
X259089Y395299D02*
X260911D01*
X259095Y174799D02*
X260905D01*
X259095Y405199D02*
X260905D01*
X259099Y164899D02*
X260901D01*
X103000Y182899D02*
X260839D01*
X249461Y387199D02*
X260539D01*
X247763Y255799D02*
X260439D01*
X103000Y183799D02*
X259939D01*
X250361Y388099D02*
X259639D01*
X247195Y256699D02*
X259539D01*
X103000Y184699D02*
X259039D01*
X251261Y388999D02*
X258739D01*
X103000Y257599D02*
X258639D01*
X103000Y185599D02*
X258139D01*
X252161Y389899D02*
X257839D01*
X103000Y258499D02*
X257739D01*
X103000Y186499D02*
X257239D01*
X253061Y390799D02*
X256939D01*
X103000Y259399D02*
X256839D01*
X103000Y187399D02*
X256339D01*
X103000Y260299D02*
X255939D01*
X103000Y188299D02*
X255439D01*
X103000Y261199D02*
X255039D01*
X103000Y189199D02*
X254539D01*
X103000Y262099D02*
X254139D01*
X246269Y398899D02*
X253731D01*
X103000Y190099D02*
X253639D01*
X246536Y171199D02*
X253464D01*
X246543Y408799D02*
X253457D01*
X103000Y262999D02*
X253239D01*
X246764Y161299D02*
X253236D01*
X247138Y168499D02*
X252862D01*
X103000Y190999D02*
X252739D01*
X247289Y401599D02*
X252711D01*
X247293Y178399D02*
X252707D01*
X103000Y263899D02*
X252339D01*
X247796Y397999D02*
X252204D01*
X247897Y172099D02*
X252103D01*
X247900Y407899D02*
X252100D01*
X247994Y162199D02*
X252006D01*
X103000Y191899D02*
X251839D01*
X248171Y167599D02*
X251829D01*
X248249Y402499D02*
X251751D01*
X248251Y177499D02*
X251749D01*
X248522Y397099D02*
X251478D01*
X103000Y264799D02*
X251439D01*
X248578Y172999D02*
X251422D01*
X248580Y406999D02*
X251420D01*
X248633Y163099D02*
X251367D01*
X248732Y166699D02*
X251268D01*
X248774Y403399D02*
X251226D01*
X248775Y176599D02*
X251225D01*
X248815Y393499D02*
X251113D01*
X248921Y396199D02*
X251079D01*
X248949Y173899D02*
X251051D01*
X248950Y406099D02*
X251050D01*
X248976Y163999D02*
X251024D01*
X249021Y165799D02*
X250979D01*
X249040Y404299D02*
X250960D01*
X249040Y175699D02*
X250960D01*
X249056Y394399D02*
X250944D01*
X103000Y192799D02*
X250939D01*
X249089Y395299D02*
X250911D01*
X249095Y174799D02*
X250905D01*
X249095Y405199D02*
X250905D01*
X249099Y164899D02*
X250901D01*
X247875Y343999D02*
X250900D01*
X248324Y343099D02*
X250900D01*
X248381Y342199D02*
X250900D01*
X248078Y341299D02*
X250900D01*
X247160Y340399D02*
X250900D01*
X245261Y339499D02*
X250900D01*
X244361Y338599D02*
X250900D01*
X243461Y337699D02*
X250900D01*
X242561Y336799D02*
X250900D01*
X241661Y335899D02*
X250900D01*
X240761Y334999D02*
X250900D01*
X239861Y334099D02*
X250900D01*
X238961Y333199D02*
X250900D01*
X238061Y332299D02*
X250900D01*
X237178Y331399D02*
X250900D01*
X237100Y330499D02*
X250900D01*
X247164Y329599D02*
X250900D01*
X248079Y328699D02*
X250900D01*
X248381Y327799D02*
X250900D01*
X248323Y326899D02*
X250900D01*
X247872Y325999D02*
X250900D01*
X246024Y325099D02*
X250900D01*
X244961Y324199D02*
X250900D01*
X244061Y323299D02*
X250900D01*
X243161Y322399D02*
X250900D01*
X242261Y321499D02*
X250900D01*
X241600Y320599D02*
X250900D01*
X241600Y319699D02*
X250900D01*
X246080Y344899D02*
X250822D01*
X186761Y370999D02*
X250675D01*
X103000Y265699D02*
X250539D01*
X241600Y318799D02*
X250536D01*
X248323Y392599D02*
X250336D01*
X190361Y374599D02*
X250210D01*
X103000Y193699D02*
X250039D01*
X242568Y345799D02*
X249932D01*
X187661Y371899D02*
X249868D01*
X189461Y373699D02*
X249704D01*
X103000Y266599D02*
X249639D01*
X241600Y317899D02*
X249636D01*
X188561Y372799D02*
X249608D01*
X247431Y391699D02*
X249436D01*
X103000Y194599D02*
X249139D01*
X103000Y267499D02*
X248739D01*
X241600Y316999D02*
X248736D01*
X103000Y390799D02*
X248536D01*
X103000Y195499D02*
X248239D01*
X103000Y268399D02*
X247839D01*
X241600Y316099D02*
X247836D01*
X103000Y389899D02*
X247636D01*
X103000Y196399D02*
X247339D01*
X103000Y269299D02*
X246939D01*
X241600Y315199D02*
X246936D01*
X103000Y388999D02*
X246736D01*
X103000Y197299D02*
X246439D01*
X103000Y270199D02*
X246039D01*
X241661Y344899D02*
X245920D01*
X241600Y299899D02*
X245920D01*
X103000Y388099D02*
X245836D01*
X103000Y198199D02*
X245539D01*
X243061Y242299D02*
X245310D01*
X244138Y226999D02*
X245171D01*
X103000Y271099D02*
X245139D01*
X103000Y387199D02*
X244936D01*
X241600Y310699D02*
X244914D01*
X241600Y314299D02*
X244911D01*
X237100Y329599D02*
X244836D01*
X242261Y249499D02*
X244671D01*
X103000Y199099D02*
X244639D01*
X242461Y234199D02*
X244305D01*
X241600Y311599D02*
X244276D01*
X241600Y313399D02*
X244275D01*
X103000Y271999D02*
X244239D01*
X240761Y343999D02*
X244125D01*
X241600Y298999D02*
X244125D01*
X241600Y312499D02*
X244100D01*
X242161Y241399D02*
X244050D01*
X103000Y386299D02*
X244036D01*
X237100Y328699D02*
X243921D01*
X241361Y248599D02*
X243866D01*
X103000Y256699D02*
X243805D01*
X103000Y199999D02*
X243739D01*
X241629Y233299D02*
X243737D01*
X236269Y398899D02*
X243731D01*
X239861Y343099D02*
X243676D01*
X242164Y298099D02*
X243676D01*
X241261Y240499D02*
X243652D01*
X237100Y327799D02*
X243619D01*
X240461Y247699D02*
X243608D01*
X241600Y232399D02*
X243570D01*
X236536Y171199D02*
X243464D01*
X236543Y408799D02*
X243457D01*
X238961Y342199D02*
X243436D01*
X103000Y272899D02*
X243339D01*
X240361Y239599D02*
X243336D01*
X103000Y255799D02*
X243237D01*
X236764Y161299D02*
X243236D01*
X103000Y385399D02*
X243136D01*
X237100Y326899D02*
X243136D01*
X103000Y254899D02*
X243070D01*
X237100Y292699D02*
X243069D01*
X239561Y246799D02*
X243036D01*
X237138Y168499D02*
X242862D01*
X103000Y200899D02*
X242839D01*
X241605Y231499D02*
X242736D01*
X237289Y401599D02*
X242711D01*
X237293Y178399D02*
X242707D01*
X237431Y391699D02*
X242569D01*
X238061Y341299D02*
X242536D01*
X103000Y273799D02*
X242439D01*
X239461Y238699D02*
X242436D01*
X103000Y384499D02*
X242236D01*
X237100Y325999D02*
X242236D01*
X103000Y253999D02*
X242236D01*
X237796Y397999D02*
X242204D01*
X237100Y293599D02*
X242139D01*
X238661Y245899D02*
X242136D01*
X237897Y172099D02*
X242103D01*
X237900Y407899D02*
X242100D01*
X237994Y162199D02*
X242006D01*
X103000Y201799D02*
X241939D01*
X238171Y167599D02*
X241829D01*
X238249Y402499D02*
X241751D01*
X238251Y177499D02*
X241749D01*
X238323Y392599D02*
X241677D01*
X237161Y340399D02*
X241636D01*
X103000Y274699D02*
X241539D01*
X239100Y237799D02*
X241536D01*
X238522Y397099D02*
X241478D01*
X238578Y172999D02*
X241422D01*
X238580Y406999D02*
X241420D01*
X238633Y163099D02*
X241367D01*
X237100Y325099D02*
X241336D01*
X103000Y253099D02*
X241336D01*
X238732Y166699D02*
X241268D01*
X237100Y294499D02*
X241239D01*
X237761Y244999D02*
X241236D01*
X238774Y403399D02*
X241226D01*
X238775Y176599D02*
X241225D01*
X238815Y393499D02*
X241185D01*
X238921Y396199D02*
X241079D01*
X238949Y173899D02*
X241051D01*
X238950Y406099D02*
X241050D01*
X103000Y202699D02*
X241039D01*
X238976Y163999D02*
X241024D01*
X239021Y165799D02*
X240979D01*
X239040Y404299D02*
X240960D01*
X239040Y175699D02*
X240960D01*
X239056Y394399D02*
X240944D01*
X239089Y395299D02*
X240911D01*
X239095Y174799D02*
X240905D01*
X239095Y405199D02*
X240905D01*
X239099Y164899D02*
X240901D01*
X164261Y348499D02*
X240736D01*
X236261Y339499D02*
X240736D01*
X103000Y275599D02*
X240639D01*
X239100Y236899D02*
X240636D01*
X237100Y324199D02*
X240436D01*
X103000Y252199D02*
X240436D01*
X237100Y295399D02*
X240339D01*
X236861Y244099D02*
X240336D01*
X103000Y203599D02*
X240139D01*
X163361Y347599D02*
X239836D01*
X235361Y338599D02*
X239836D01*
X103000Y276499D02*
X239739D01*
X237100Y323299D02*
X239536D01*
X103000Y251299D02*
X239536D01*
X237100Y296299D02*
X239439D01*
X236600Y243199D02*
X239436D01*
X103000Y204499D02*
X239239D01*
X162461Y346699D02*
X238936D01*
X235100Y337699D02*
X238936D01*
X103000Y277399D02*
X238839D01*
X237100Y322399D02*
X238676D01*
X103000Y250399D02*
X238636D01*
X237100Y297199D02*
X238615D01*
X236600Y242299D02*
X238536D01*
X237100Y321499D02*
X238400D01*
X237100Y320599D02*
X238400D01*
X237100Y319699D02*
X238400D01*
X237100Y318799D02*
X238400D01*
X237100Y317899D02*
X238400D01*
X237100Y316999D02*
X238400D01*
X237100Y316099D02*
X238400D01*
X237100Y315199D02*
X238400D01*
X237100Y314299D02*
X238400D01*
X237100Y313399D02*
X238400D01*
X237100Y312499D02*
X238400D01*
X237100Y311599D02*
X238400D01*
X237100Y310699D02*
X238400D01*
X237100Y309799D02*
X238400D01*
X237100Y308899D02*
X238400D01*
X237100Y307999D02*
X238400D01*
X237100Y307099D02*
X238400D01*
X237100Y306199D02*
X238400D01*
X237100Y305299D02*
X238400D01*
X237100Y304399D02*
X238400D01*
X237100Y303499D02*
X238400D01*
X237100Y302599D02*
X238400D01*
X237100Y301699D02*
X238400D01*
X237100Y300799D02*
X238400D01*
X237100Y299899D02*
X238400D01*
X237100Y298999D02*
X238400D01*
X237100Y298099D02*
X238400D01*
X103000Y205399D02*
X238339D01*
X161561Y345799D02*
X238036D01*
X235100Y336799D02*
X238036D01*
X103000Y278299D02*
X237939D01*
X103000Y249499D02*
X237736D01*
X236630Y241399D02*
X237636D01*
X103000Y206299D02*
X237439D01*
X160661Y344899D02*
X237136D01*
X235100Y335899D02*
X237136D01*
X103000Y279199D02*
X237039D01*
X103000Y248599D02*
X236836D01*
X103000Y207199D02*
X236539D01*
X159761Y343999D02*
X236236D01*
X235105Y334999D02*
X236236D01*
X103000Y280099D02*
X236139D01*
X103000Y247699D02*
X235936D01*
X103000Y208099D02*
X235639D01*
X158861Y343099D02*
X235336D01*
X103000Y280999D02*
X235239D01*
X103000Y246799D02*
X235036D01*
X103000Y208999D02*
X234739D01*
X157961Y342199D02*
X234436D01*
X103000Y281899D02*
X234339D01*
X103000Y245899D02*
X234136D01*
X103000Y209899D02*
X233839D01*
X226269Y398899D02*
X233731D01*
X157061Y341299D02*
X233536D01*
X103000Y244999D02*
X233480D01*
X226536Y171199D02*
X233464D01*
X226543Y408799D02*
X233457D01*
X103000Y282799D02*
X233439D01*
X103000Y210799D02*
X233413D01*
X103000Y244099D02*
X233400D01*
X103000Y243199D02*
X233400D01*
X103000Y242299D02*
X233400D01*
X103000Y241399D02*
X233400D01*
X103000Y240499D02*
X233400D01*
X103000Y239599D02*
X233400D01*
X103000Y238699D02*
X233400D01*
X103000Y237799D02*
X233400D01*
X103000Y236899D02*
X233400D01*
X103000Y235999D02*
X233400D01*
X103000Y235099D02*
X233400D01*
X103000Y234199D02*
X233400D01*
X103000Y233299D02*
X233400D01*
X103000Y232399D02*
X233400D01*
X103000Y231499D02*
X233400D01*
X103000Y230599D02*
X233400D01*
X103000Y229699D02*
X233400D01*
X103000Y228799D02*
X233400D01*
X103000Y227899D02*
X233400D01*
X103000Y226999D02*
X233400D01*
X103000Y226099D02*
X233400D01*
X103000Y225199D02*
X233400D01*
X103000Y224299D02*
X233400D01*
X103000Y223399D02*
X233400D01*
X103000Y222499D02*
X233400D01*
X103000Y221599D02*
X233400D01*
X103000Y220699D02*
X233400D01*
X103000Y219799D02*
X233400D01*
X103000Y218899D02*
X233400D01*
X103000Y217999D02*
X233400D01*
X103000Y217099D02*
X233400D01*
X103000Y216199D02*
X233400D01*
X103000Y215299D02*
X233400D01*
X103000Y214399D02*
X233400D01*
X103000Y213499D02*
X233400D01*
X103000Y212599D02*
X233400D01*
X103000Y211699D02*
X233400D01*
X226764Y161299D02*
X233236D01*
X227138Y168499D02*
X232862D01*
X227289Y401599D02*
X232711D01*
X227293Y178399D02*
X232707D01*
X156161Y340399D02*
X232636D01*
X227431Y391699D02*
X232569D01*
X103000Y283699D02*
X232539D01*
X227796Y397999D02*
X232204D01*
X227897Y172099D02*
X232103D01*
X227900Y407899D02*
X232100D01*
X227994Y162199D02*
X232006D01*
X155261Y339499D02*
X231980D01*
X103000Y284599D02*
X231951D01*
X154361Y338599D02*
X231900D01*
X153461Y337699D02*
X231900D01*
X152561Y336799D02*
X231900D01*
X151661Y335899D02*
X231900D01*
X150761Y334999D02*
X231900D01*
X149861Y334099D02*
X231900D01*
X137169Y333199D02*
X231900D01*
X137464Y332299D02*
X231900D01*
X138364Y331399D02*
X231900D01*
X139264Y330499D02*
X231900D01*
X140164Y329599D02*
X231900D01*
X141064Y328699D02*
X231900D01*
X141572Y327799D02*
X231900D01*
X141600Y326899D02*
X231900D01*
X141600Y325999D02*
X231900D01*
X141600Y325099D02*
X231900D01*
X141600Y324199D02*
X231900D01*
X141600Y323299D02*
X231900D01*
X141600Y322399D02*
X231900D01*
X141600Y321499D02*
X231900D01*
X141600Y320599D02*
X231900D01*
X141600Y319699D02*
X231900D01*
X141600Y318799D02*
X231900D01*
X141600Y317899D02*
X231900D01*
X141600Y316999D02*
X231900D01*
X141600Y316099D02*
X231900D01*
X141600Y315199D02*
X231900D01*
X141600Y314299D02*
X231900D01*
X141600Y313399D02*
X231900D01*
X141600Y312499D02*
X231900D01*
X141600Y311599D02*
X231900D01*
X141600Y310699D02*
X231900D01*
X141600Y309799D02*
X231900D01*
X141600Y308899D02*
X231900D01*
X141600Y307999D02*
X231900D01*
X141600Y307099D02*
X231900D01*
X141600Y306199D02*
X231900D01*
X141600Y305299D02*
X231900D01*
X141600Y304399D02*
X231900D01*
X141600Y303499D02*
X231900D01*
X141600Y302599D02*
X231900D01*
X141600Y301699D02*
X231900D01*
X141600Y300799D02*
X231900D01*
X141600Y299899D02*
X231900D01*
X141600Y298999D02*
X231900D01*
X141600Y298099D02*
X231900D01*
X141600Y297199D02*
X231900D01*
X142018Y296299D02*
X231900D01*
X142367Y295399D02*
X231900D01*
X142347Y294499D02*
X231900D01*
X141948Y293599D02*
X231900D01*
X140681Y292699D02*
X231900D01*
X103000Y291799D02*
X231900D01*
X103000Y290899D02*
X231900D01*
X103000Y289999D02*
X231900D01*
X103000Y289099D02*
X231900D01*
X103000Y288199D02*
X231900D01*
X103000Y287299D02*
X231900D01*
X103000Y286399D02*
X231900D01*
X103000Y285499D02*
X231900D01*
X228171Y167599D02*
X231829D01*
X228249Y402499D02*
X231751D01*
X228251Y177499D02*
X231749D01*
X228323Y392599D02*
X231677D01*
X228522Y397099D02*
X231478D01*
X228578Y172999D02*
X231422D01*
X228580Y406999D02*
X231420D01*
X228633Y163099D02*
X231367D01*
X228732Y166699D02*
X231268D01*
X228774Y403399D02*
X231226D01*
X228775Y176599D02*
X231225D01*
X228815Y393499D02*
X231185D01*
X228921Y396199D02*
X231079D01*
X228949Y173899D02*
X231051D01*
X228950Y406099D02*
X231050D01*
X228976Y163999D02*
X231024D01*
X229021Y165799D02*
X230979D01*
X229040Y404299D02*
X230960D01*
X229040Y175699D02*
X230960D01*
X229056Y394399D02*
X230944D01*
X229089Y395299D02*
X230911D01*
X229095Y174799D02*
X230905D01*
X229095Y405199D02*
X230905D01*
X229099Y164899D02*
X230901D01*
X216269Y398899D02*
X223731D01*
X216536Y171199D02*
X223464D01*
X216543Y408799D02*
X223457D01*
X216764Y161299D02*
X223236D01*
X217138Y168499D02*
X222862D01*
X217289Y401599D02*
X222711D01*
X217293Y178399D02*
X222707D01*
X217431Y391699D02*
X222569D01*
X217796Y397999D02*
X222204D01*
X217897Y172099D02*
X222103D01*
X217900Y407899D02*
X222100D01*
X217994Y162199D02*
X222006D01*
X218171Y167599D02*
X221829D01*
X218249Y402499D02*
X221751D01*
X218251Y177499D02*
X221749D01*
X218323Y392599D02*
X221677D01*
X218522Y397099D02*
X221478D01*
X218578Y172999D02*
X221422D01*
X218580Y406999D02*
X221420D01*
X218633Y163099D02*
X221367D01*
X218732Y166699D02*
X221268D01*
X218774Y403399D02*
X221226D01*
X218775Y176599D02*
X221225D01*
X218815Y393499D02*
X221185D01*
X218921Y396199D02*
X221079D01*
X218949Y173899D02*
X221051D01*
X218950Y406099D02*
X221050D01*
X218976Y163999D02*
X221024D01*
X219021Y165799D02*
X220979D01*
X219040Y404299D02*
X220960D01*
X219040Y175699D02*
X220960D01*
X219056Y394399D02*
X220944D01*
X219089Y395299D02*
X220911D01*
X219095Y174799D02*
X220905D01*
X219095Y405199D02*
X220905D01*
X219099Y164899D02*
X220901D01*
X211638Y134299D02*
X218362D01*
X212590Y126199D02*
X217410D01*
X213100Y133399D02*
X216900D01*
X213570Y127099D02*
X216430D01*
X213862Y132499D02*
X216138D01*
X214142Y127999D02*
X215858D01*
X214313Y131599D02*
X215687D01*
X214466Y128899D02*
X215534D01*
X214605Y130699D02*
X215395D01*
X206269Y398899D02*
X213731D01*
X206536Y171199D02*
X213464D01*
X206543Y408799D02*
X213457D01*
X206764Y161299D02*
X213236D01*
X207138Y168499D02*
X212862D01*
X207289Y401599D02*
X212711D01*
X207293Y178399D02*
X212707D01*
X207431Y391699D02*
X212569D01*
X207796Y397999D02*
X212204D01*
X207897Y172099D02*
X212103D01*
X207900Y407899D02*
X212100D01*
X207994Y162199D02*
X212006D01*
X208171Y167599D02*
X211829D01*
X208249Y402499D02*
X211751D01*
X208251Y177499D02*
X211749D01*
X208323Y392599D02*
X211677D01*
X208522Y397099D02*
X211478D01*
X208578Y172999D02*
X211422D01*
X208580Y406999D02*
X211420D01*
X208633Y163099D02*
X211367D01*
X208732Y166699D02*
X211268D01*
X208774Y403399D02*
X211226D01*
X208775Y176599D02*
X211225D01*
X208815Y393499D02*
X211185D01*
X208921Y396199D02*
X211079D01*
X208949Y173899D02*
X211051D01*
X208950Y406099D02*
X211050D01*
X208976Y163999D02*
X211024D01*
X209021Y165799D02*
X210979D01*
X209040Y404299D02*
X210960D01*
X209040Y175699D02*
X210960D01*
X209056Y394399D02*
X210944D01*
X209089Y395299D02*
X210911D01*
X209095Y174799D02*
X210905D01*
X209095Y405199D02*
X210905D01*
X209099Y164899D02*
X210901D01*
X201638Y134299D02*
X208362D01*
X202590Y126199D02*
X207410D01*
X203100Y133399D02*
X206900D01*
X203570Y127099D02*
X206430D01*
X203862Y132499D02*
X206138D01*
X204142Y127999D02*
X205858D01*
X204313Y131599D02*
X205687D01*
X204466Y128899D02*
X205534D01*
X204605Y130699D02*
X205395D01*
X196269Y398899D02*
X203731D01*
X196536Y171199D02*
X203464D01*
X196543Y408799D02*
X203457D01*
X196764Y161299D02*
X203236D01*
X197138Y168499D02*
X202862D01*
X197289Y401599D02*
X202711D01*
X197293Y178399D02*
X202707D01*
X197431Y391699D02*
X202569D01*
X197796Y397999D02*
X202204D01*
X197897Y172099D02*
X202103D01*
X197900Y407899D02*
X202100D01*
X197994Y162199D02*
X202006D01*
X198171Y167599D02*
X201829D01*
X198249Y402499D02*
X201751D01*
X198251Y177499D02*
X201749D01*
X198323Y392599D02*
X201677D01*
X198522Y397099D02*
X201478D01*
X198578Y172999D02*
X201422D01*
X198580Y406999D02*
X201420D01*
X198633Y163099D02*
X201367D01*
X198732Y166699D02*
X201268D01*
X198774Y403399D02*
X201226D01*
X198775Y176599D02*
X201225D01*
X198815Y393499D02*
X201185D01*
X198921Y396199D02*
X201079D01*
X198949Y173899D02*
X201051D01*
X198950Y406099D02*
X201050D01*
X198976Y163999D02*
X201024D01*
X199021Y165799D02*
X200979D01*
X199040Y404299D02*
X200960D01*
X199040Y175699D02*
X200960D01*
X199056Y394399D02*
X200944D01*
X199089Y395299D02*
X200911D01*
X199095Y174799D02*
X200905D01*
X199095Y405199D02*
X200905D01*
X199099Y164899D02*
X200901D01*
X191638Y134299D02*
X198362D01*
X193100Y133399D02*
X196900D01*
X193862Y132499D02*
X196138D01*
X194313Y131599D02*
X195687D01*
X194605Y130699D02*
X195395D01*
X103000Y383599D02*
X194836D01*
X173663Y423199D02*
X194683D01*
X103000Y382699D02*
X193936D01*
X174565Y436699D02*
X193781D01*
X186269Y398899D02*
X193731D01*
X186536Y171199D02*
X193464D01*
X186543Y408799D02*
X193457D01*
X186764Y161299D02*
X193236D01*
X103000Y381799D02*
X193036D01*
X187138Y168499D02*
X192862D01*
X187289Y401599D02*
X192711D01*
X187293Y178399D02*
X192707D01*
X187431Y391699D02*
X192569D01*
X187796Y397999D02*
X192204D01*
X103000Y380899D02*
X192136D01*
X187897Y172099D02*
X192103D01*
X187900Y407899D02*
X192100D01*
X187994Y162199D02*
X192006D01*
X188171Y167599D02*
X191829D01*
X188249Y402499D02*
X191751D01*
X188251Y177499D02*
X191749D01*
X188323Y392599D02*
X191677D01*
X176742Y424099D02*
X191604D01*
X188522Y397099D02*
X191478D01*
X176915Y435799D02*
X191432D01*
X188578Y172999D02*
X191422D01*
X188580Y406999D02*
X191420D01*
X188633Y163099D02*
X191367D01*
X188732Y166699D02*
X191268D01*
X103000Y379999D02*
X191236D01*
X188774Y403399D02*
X191226D01*
X188775Y176599D02*
X191225D01*
X188815Y393499D02*
X191185D01*
X188921Y396199D02*
X191079D01*
X188949Y173899D02*
X191051D01*
X188950Y406099D02*
X191050D01*
X188976Y163999D02*
X191024D01*
X189021Y165799D02*
X190979D01*
X189040Y404299D02*
X190960D01*
X189040Y175699D02*
X190960D01*
X189056Y394399D02*
X190944D01*
X189089Y395299D02*
X190911D01*
X189095Y174799D02*
X190905D01*
X189095Y405199D02*
X190905D01*
X189099Y164899D02*
X190901D01*
X177967Y424999D02*
X190380D01*
X103000Y379099D02*
X190336D01*
X178075Y434899D02*
X190271D01*
X178781Y425899D02*
X189565D01*
X178857Y433999D02*
X189489D01*
X103000Y378199D02*
X189436D01*
X179356Y426799D02*
X188991D01*
X179409Y433099D02*
X188937D01*
X179754Y427699D02*
X188592D01*
X179790Y432199D02*
X188556D01*
X103000Y377299D02*
X188536D01*
X103000Y134299D02*
X188362D01*
X180009Y428599D02*
X188337D01*
X180030Y431299D02*
X188316D01*
X180137Y429499D02*
X188210D01*
X180143Y430399D02*
X188203D01*
X103000Y376399D02*
X187636D01*
X103000Y133399D02*
X186900D01*
X103000Y375499D02*
X186736D01*
X171664Y127099D02*
X186305D01*
X103000Y132499D02*
X186138D01*
X103000Y127999D02*
X185858D01*
X103000Y374599D02*
X185836D01*
X103000Y131599D02*
X185687D01*
X103000Y128899D02*
X185534D01*
X103000Y130699D02*
X185453D01*
X103000Y129799D02*
X185404D01*
X103000Y373699D02*
X184936D01*
X103000Y372799D02*
X184036D01*
X176269Y398899D02*
X183731D01*
X176536Y171199D02*
X183464D01*
X176543Y408799D02*
X183457D01*
X176764Y161299D02*
X183236D01*
X103000Y371899D02*
X183136D01*
X177138Y168499D02*
X182862D01*
X177289Y401599D02*
X182711D01*
X177293Y178399D02*
X182707D01*
X177431Y391699D02*
X182569D01*
X103000Y370999D02*
X182236D01*
X177796Y397999D02*
X182204D01*
X177897Y172099D02*
X182103D01*
X177900Y407899D02*
X182100D01*
X177994Y162199D02*
X182006D01*
X178171Y167599D02*
X181829D01*
X178249Y402499D02*
X181751D01*
X178251Y177499D02*
X181749D01*
X178323Y392599D02*
X181677D01*
X178522Y397099D02*
X181478D01*
X178578Y172999D02*
X181422D01*
X178580Y406999D02*
X181420D01*
X178633Y163099D02*
X181367D01*
X103000Y370099D02*
X181336D01*
X178732Y166699D02*
X181268D01*
X178774Y403399D02*
X181226D01*
X178775Y176599D02*
X181225D01*
X178815Y393499D02*
X181185D01*
X178921Y396199D02*
X181079D01*
X178949Y173899D02*
X181051D01*
X178950Y406099D02*
X181050D01*
X178976Y163999D02*
X181024D01*
X179021Y165799D02*
X180979D01*
X179040Y404299D02*
X180960D01*
X179040Y175699D02*
X180960D01*
X179056Y394399D02*
X180944D01*
X179089Y395299D02*
X180911D01*
X179095Y174799D02*
X180905D01*
X179095Y405199D02*
X180905D01*
X179099Y164899D02*
X180901D01*
X103000Y369199D02*
X180436D01*
X103000Y368299D02*
X179536D01*
X103000Y367399D02*
X178636D01*
X103000Y366499D02*
X177736D01*
X103000Y365599D02*
X176836D01*
X103000Y364699D02*
X175936D01*
X103000Y363799D02*
X175036D01*
X103000Y362899D02*
X174136D01*
X166269Y398899D02*
X173731D01*
X166536Y171199D02*
X173464D01*
X166543Y408799D02*
X173457D01*
X103000Y361999D02*
X173236D01*
X147407Y423199D02*
X173030D01*
X167138Y168499D02*
X172862D01*
X167289Y401599D02*
X172711D01*
X167293Y178399D02*
X172707D01*
X167431Y391699D02*
X172569D01*
X103000Y361099D02*
X172336D01*
X167796Y397999D02*
X172204D01*
X147645Y436699D02*
X172128D01*
X167897Y172099D02*
X172103D01*
X167900Y407899D02*
X172100D01*
X168171Y167599D02*
X171829D01*
X168249Y402499D02*
X171751D01*
X168251Y177499D02*
X171749D01*
X168323Y392599D02*
X171677D01*
X168522Y397099D02*
X171478D01*
X103000Y360199D02*
X171436D01*
X168578Y172999D02*
X171422D01*
X168580Y406999D02*
X171420D01*
X168732Y166699D02*
X171268D01*
X168774Y403399D02*
X171226D01*
X168775Y176599D02*
X171225D01*
X168815Y393499D02*
X171185D01*
X168921Y396199D02*
X171079D01*
X168949Y173899D02*
X171051D01*
X168950Y406099D02*
X171050D01*
X168976Y163999D02*
X171024D01*
X169021Y165799D02*
X170979D01*
X169040Y404299D02*
X170960D01*
X169040Y175699D02*
X170960D01*
X169056Y394399D02*
X170944D01*
X169089Y395299D02*
X170911D01*
X169095Y174799D02*
X170905D01*
X169095Y405199D02*
X170905D01*
X169099Y164899D02*
X170901D01*
X168633Y163099D02*
X170836D01*
X103000Y359299D02*
X170536D01*
X148997Y424099D02*
X169950D01*
X167994Y162199D02*
X169936D01*
X149132Y435799D02*
X169778D01*
X103000Y358399D02*
X169636D01*
X122715Y127099D02*
X169336D01*
X166764Y161299D02*
X169036D01*
X103000Y357499D02*
X168736D01*
X150000Y424999D02*
X168726D01*
X126747Y123499D02*
X168628D01*
X150093Y434899D02*
X168618D01*
X124397Y126199D02*
X168421D01*
X126198Y124399D02*
X168177D01*
X103000Y160399D02*
X168136D01*
X125448Y125299D02*
X168119D01*
X150712Y425899D02*
X167912D01*
X103000Y356599D02*
X167836D01*
X150780Y433999D02*
X167836D01*
X151229Y426799D02*
X167337D01*
X151277Y433099D02*
X167284D01*
X103000Y159499D02*
X167236D01*
X151593Y427699D02*
X166938D01*
X103000Y355699D02*
X166936D01*
X151626Y432199D02*
X166903D01*
X151827Y428599D02*
X166684D01*
X151846Y431299D02*
X166663D01*
X151945Y429499D02*
X166556D01*
X151951Y430399D02*
X166549D01*
X103000Y158599D02*
X166336D01*
X103000Y354799D02*
X166036D01*
X156962Y157699D02*
X165436D01*
X103000Y353899D02*
X165136D01*
X103000Y352999D02*
X164236D01*
X156269Y398899D02*
X163731D01*
X156536Y171199D02*
X163464D01*
X156543Y408799D02*
X163457D01*
X103000Y352099D02*
X163336D01*
X156764Y161299D02*
X163236D01*
X157138Y168499D02*
X162862D01*
X157289Y401599D02*
X162711D01*
X157293Y178399D02*
X162707D01*
X157431Y391699D02*
X162569D01*
X103000Y351199D02*
X162436D01*
X157796Y397999D02*
X162204D01*
X157897Y172099D02*
X162103D01*
X157900Y407899D02*
X162100D01*
X157994Y162199D02*
X162006D01*
X158171Y167599D02*
X161829D01*
X158249Y402499D02*
X161751D01*
X158251Y177499D02*
X161749D01*
X158323Y392599D02*
X161677D01*
X103000Y350299D02*
X161536D01*
X158522Y397099D02*
X161478D01*
X158578Y172999D02*
X161422D01*
X158580Y406999D02*
X161420D01*
X158633Y163099D02*
X161367D01*
X158732Y166699D02*
X161268D01*
X158774Y403399D02*
X161226D01*
X158775Y176599D02*
X161225D01*
X158815Y393499D02*
X161185D01*
X158921Y396199D02*
X161079D01*
X158949Y173899D02*
X161051D01*
X158950Y406099D02*
X161050D01*
X158976Y163999D02*
X161024D01*
X159021Y165799D02*
X160979D01*
X159040Y404299D02*
X160960D01*
X159040Y175699D02*
X160960D01*
X159056Y394399D02*
X160944D01*
X159089Y395299D02*
X160911D01*
X159095Y174799D02*
X160905D01*
X159095Y405199D02*
X160905D01*
X159099Y164899D02*
X160901D01*
X103000Y349399D02*
X160636D01*
X103000Y348499D02*
X159736D01*
X103000Y347599D02*
X158836D01*
X103000Y346699D02*
X157936D01*
X103000Y345799D02*
X157036D01*
X103000Y344899D02*
X156136D01*
X103000Y153199D02*
X155319D01*
X103000Y343999D02*
X155236D01*
X103000Y157699D02*
X155038D01*
X103000Y343099D02*
X154336D01*
X103000Y154099D02*
X154052D01*
X103000Y156799D02*
X153982D01*
X146269Y398899D02*
X153731D01*
X103000Y154999D02*
X153653D01*
X103000Y155899D02*
X153633D01*
X146536Y171199D02*
X153464D01*
X146543Y408799D02*
X153457D01*
X103000Y342199D02*
X153436D01*
X146764Y161299D02*
X153236D01*
X147138Y168499D02*
X152862D01*
X147289Y401599D02*
X152711D01*
X147293Y178399D02*
X152707D01*
X147431Y391699D02*
X152569D01*
X103000Y341299D02*
X152536D01*
X147796Y397999D02*
X152204D01*
X147897Y172099D02*
X152103D01*
X147900Y407899D02*
X152100D01*
X147994Y162199D02*
X152006D01*
X148171Y167599D02*
X151829D01*
X148249Y402499D02*
X151751D01*
X148251Y177499D02*
X151749D01*
X148323Y392599D02*
X151677D01*
X103000Y340399D02*
X151636D01*
X148522Y397099D02*
X151478D01*
X148578Y172999D02*
X151422D01*
X148580Y406999D02*
X151420D01*
X148633Y163099D02*
X151367D01*
X148732Y166699D02*
X151268D01*
X148774Y403399D02*
X151226D01*
X148775Y176599D02*
X151225D01*
X148815Y393499D02*
X151185D01*
X148921Y396199D02*
X151079D01*
X148949Y173899D02*
X151051D01*
X148950Y406099D02*
X151050D01*
X148976Y163999D02*
X151024D01*
X149021Y165799D02*
X150979D01*
X149040Y404299D02*
X150960D01*
X149040Y175699D02*
X150960D01*
X149056Y394399D02*
X150944D01*
X149089Y395299D02*
X150911D01*
X149095Y174799D02*
X150905D01*
X149095Y405199D02*
X150905D01*
X149099Y164899D02*
X150901D01*
X103000Y339499D02*
X150736D01*
X103000Y338599D02*
X149836D01*
X103000Y337699D02*
X148936D01*
X134089Y336799D02*
X148036D01*
X136269Y398899D02*
X143731D01*
X136536Y171199D02*
X143464D01*
X136543Y408799D02*
X143457D01*
X136764Y161299D02*
X143236D01*
X137138Y168499D02*
X142862D01*
X137289Y401599D02*
X142711D01*
X137293Y178399D02*
X142707D01*
X137431Y391699D02*
X142569D01*
X137796Y397999D02*
X142204D01*
X137897Y172099D02*
X142103D01*
X137900Y407899D02*
X142100D01*
X137994Y162199D02*
X142006D01*
X138171Y167599D02*
X141829D01*
X103000Y423199D02*
X141805D01*
X138249Y402499D02*
X141751D01*
X138251Y177499D02*
X141749D01*
X138323Y392599D02*
X141677D01*
X103000Y436699D02*
X141568D01*
X138522Y397099D02*
X141478D01*
X138578Y172999D02*
X141422D01*
X138580Y406999D02*
X141420D01*
X138633Y163099D02*
X141367D01*
X138732Y166699D02*
X141268D01*
X138774Y403399D02*
X141226D01*
X138775Y176599D02*
X141225D01*
X138815Y393499D02*
X141185D01*
X138921Y396199D02*
X141079D01*
X138949Y173899D02*
X141051D01*
X138950Y406099D02*
X141050D01*
X138976Y163999D02*
X141024D01*
X139021Y165799D02*
X140979D01*
X139040Y404299D02*
X140960D01*
X139040Y175699D02*
X140960D01*
X139056Y394399D02*
X140944D01*
X139089Y395299D02*
X140911D01*
X139095Y174799D02*
X140905D01*
X139095Y405199D02*
X140905D01*
X139099Y164899D02*
X140901D01*
X103000Y424099D02*
X140216D01*
X103000Y435799D02*
X140081D01*
X103000Y292699D02*
X139319D01*
X103000Y424999D02*
X139213D01*
X103000Y434899D02*
X139119D01*
X103000Y425899D02*
X138500D01*
X103000Y433999D02*
X138433D01*
X103000Y325999D02*
X138400D01*
X103000Y325099D02*
X138400D01*
X103000Y324199D02*
X138400D01*
X103000Y323299D02*
X138400D01*
X103000Y322399D02*
X138400D01*
X103000Y321499D02*
X138400D01*
X103000Y320599D02*
X138400D01*
X103000Y319699D02*
X138400D01*
X103000Y318799D02*
X138400D01*
X103000Y317899D02*
X138400D01*
X103000Y316999D02*
X138400D01*
X103000Y316099D02*
X138400D01*
X103000Y315199D02*
X138400D01*
X103000Y314299D02*
X138400D01*
X103000Y313399D02*
X138400D01*
X103000Y312499D02*
X138400D01*
X103000Y311599D02*
X138400D01*
X103000Y310699D02*
X138400D01*
X103000Y309799D02*
X138400D01*
X103000Y308899D02*
X138400D01*
X103000Y307999D02*
X138400D01*
X103000Y307099D02*
X138400D01*
X103000Y306199D02*
X138400D01*
X103000Y305299D02*
X138400D01*
X103000Y304399D02*
X138400D01*
X103000Y303499D02*
X138400D01*
X103000Y302599D02*
X138400D01*
X103000Y301699D02*
X138400D01*
X103000Y300799D02*
X138400D01*
X103000Y299899D02*
X138400D01*
X103000Y298999D02*
X138400D01*
X103000Y298099D02*
X138400D01*
X103000Y297199D02*
X138400D01*
X103000Y326899D02*
X138322D01*
X103000Y293599D02*
X138052D01*
X103000Y426799D02*
X137984D01*
X103000Y296299D02*
X137982D01*
X103000Y433099D02*
X137935D01*
X103000Y294499D02*
X137653D01*
X103000Y295399D02*
X137633D01*
X103000Y427699D02*
X137620D01*
X103000Y432199D02*
X137587D01*
X103000Y327799D02*
X137439D01*
X103000Y428599D02*
X137385D01*
X103000Y431299D02*
X137366D01*
X103000Y429499D02*
X137268D01*
X103000Y430399D02*
X137262D01*
X103000Y328699D02*
X136539D01*
X103000Y329599D02*
X135639D01*
X103000Y330499D02*
X134739D01*
X103000Y331399D02*
X133839D01*
X103000Y398899D02*
X133731D01*
X103000Y171199D02*
X133464D01*
X103000Y408799D02*
X133457D01*
X103000Y161299D02*
X133236D01*
X103000Y332299D02*
X132939D01*
X103000Y168499D02*
X132862D01*
X103000Y401599D02*
X132711D01*
X103000Y178399D02*
X132707D01*
X103000Y391699D02*
X132569D01*
X103000Y397999D02*
X132204D01*
X103000Y172099D02*
X132103D01*
X103000Y407899D02*
X132100D01*
X103000Y162199D02*
X132006D01*
X103000Y167599D02*
X131829D01*
X103000Y402499D02*
X131751D01*
X103000Y177499D02*
X131749D01*
X103000Y392599D02*
X131677D01*
X103000Y397099D02*
X131478D01*
X103000Y172999D02*
X131422D01*
X103000Y406999D02*
X131420D01*
X103000Y163099D02*
X131367D01*
X103000Y166699D02*
X131268D01*
X103000Y403399D02*
X131226D01*
X103000Y176599D02*
X131225D01*
X103000Y393499D02*
X131185D01*
X103000Y396199D02*
X131079D01*
X103000Y173899D02*
X131051D01*
X103000Y406099D02*
X131050D01*
X103000Y163999D02*
X131024D01*
X103000Y165799D02*
X130979D01*
X103000Y404299D02*
X130960D01*
X103000Y175699D02*
X130960D01*
X103000Y394399D02*
X130944D01*
X103000Y333199D02*
X130914D01*
X103000Y336799D02*
X130911D01*
X103000Y395299D02*
X130911D01*
X103000Y174799D02*
X130905D01*
X103000Y405199D02*
X130905D01*
X103000Y164899D02*
X130901D01*
X103000Y334099D02*
X130276D01*
X103000Y335899D02*
X130275D01*
X103000Y334999D02*
X130100D01*
X103000Y112699D02*
X117890D01*
X103000Y462799D02*
X117571D01*
X103000Y477199D02*
X117563D01*
X103000Y127099D02*
X117285D01*
X103000Y113599D02*
X115903D01*
X103000Y463699D02*
X115751D01*
X103000Y476299D02*
X115747D01*
X103000Y126199D02*
X115603D01*
X103000Y114499D02*
X114756D01*
X103000Y464599D02*
X114653D01*
X103000Y475399D02*
X114651D01*
X103000Y125299D02*
X114552D01*
X103000Y115399D02*
X113951D01*
X103000Y465499D02*
X113876D01*
X103000Y474499D02*
X113874D01*
X103000Y124399D02*
X113802D01*
X103000Y116299D02*
X113362D01*
X103000Y466399D02*
X113307D01*
X103000Y473599D02*
X113306D01*
X103000Y123499D02*
X113253D01*
X103000Y117199D02*
X112935D01*
X103000Y467299D02*
X112896D01*
X103000Y472699D02*
X112895D01*
X103000Y122599D02*
X112858D01*
X103000Y118099D02*
X112642D01*
X103000Y468199D02*
X112617D01*
X103000Y471799D02*
X112616D01*
X103000Y121699D02*
X112592D01*
X103000Y118999D02*
X112466D01*
X103000Y469099D02*
X112454D01*
X103000Y470899D02*
X112453D01*
X103000Y120799D02*
X112442D01*
X103000Y119899D02*
X112401D01*
X103000Y469999D02*
X112400D01*
G54D21*
X430500Y172000D03*
Y178000D03*
Y166000D03*
Y184000D03*
G54D22*
X186747Y133253D02*
X187525Y132475D01*
X193253Y133253D02*
X192475Y132475D01*
X137899Y167899D02*
X137121Y167121D01*
X132101Y167899D02*
X132879Y167121D01*
X132101Y162101D02*
X132879Y162879D01*
X137899Y162101D02*
X137121Y162879D01*
X416924Y478076D02*
X417702Y477298D01*
X416924Y471924D02*
X417702Y472702D01*
X423076Y471924D02*
X422298Y472702D01*
X423076Y478076D02*
X422298Y477298D01*
X137899Y177899D02*
X137121Y177121D01*
X132101Y177899D02*
X132879Y177121D01*
X132101Y172101D02*
X132879Y172879D01*
X137899Y172101D02*
X137121Y172879D01*
X190186Y434814D02*
X190963Y434037D01*
X190186Y425186D02*
X190963Y425963D01*
X199814Y425186D02*
X199037Y425963D01*
X199814Y434814D02*
X199037Y434037D01*
X147899Y177899D02*
X147121Y177121D01*
X142101Y177899D02*
X142879Y177121D01*
X142101Y172101D02*
X142879Y172879D01*
X147899Y172101D02*
X147121Y172879D01*
X453076Y238076D02*
X452298Y237298D01*
X446924Y238076D02*
X447702Y237298D01*
X446924Y231924D02*
X447702Y232702D01*
X453076Y231924D02*
X452298Y232702D01*
X356924Y198076D02*
X357702Y197298D01*
X356924Y191924D02*
X357702Y192702D01*
X363076Y191924D02*
X362298Y192702D01*
X363076Y198076D02*
X362298Y197298D01*
X356924Y268076D02*
X357702Y267298D01*
X356924Y261924D02*
X357702Y262702D01*
X363076Y261924D02*
X362298Y262702D01*
X363076Y268076D02*
X362298Y267298D01*
X356924Y338076D02*
X357702Y337298D01*
X356924Y331924D02*
X357702Y332702D01*
X363076Y331924D02*
X362298Y332702D01*
X363076Y338076D02*
X362298Y337298D01*
X356924Y408076D02*
X357702Y407298D01*
X356924Y401924D02*
X357702Y402702D01*
X363076Y401924D02*
X362298Y402702D01*
X363076Y408076D02*
X362298Y407298D01*
X416924Y408076D02*
X417702Y407298D01*
X416924Y401924D02*
X417702Y402702D01*
X423076Y401924D02*
X422298Y402702D01*
X423076Y408076D02*
X422298Y407298D01*
X356924Y478076D02*
X357702Y477298D01*
X356924Y471924D02*
X357702Y472702D01*
X363076Y471924D02*
X362298Y472702D01*
X363076Y478076D02*
X362298Y477298D01*
X416924Y338076D02*
X417702Y337298D01*
X416924Y331924D02*
X417702Y332702D01*
X423076Y338076D02*
X422298Y337298D01*
X416924Y268076D02*
X417702Y267298D01*
X416924Y261924D02*
X417702Y262702D01*
X423076Y268076D02*
X422298Y267298D01*
X416924Y198076D02*
X417702Y197298D01*
X416924Y191924D02*
X417702Y192702D01*
X423076Y198076D02*
X422298Y197298D01*
X147899Y167899D02*
X147121Y167121D01*
X142101Y167899D02*
X142879Y167121D01*
X142101Y162101D02*
X142879Y162879D01*
X147899Y162101D02*
X147121Y162879D01*
X453076Y248076D02*
X452298Y247298D01*
X446924Y248076D02*
X447702Y247298D01*
X446924Y241924D02*
X447702Y242702D01*
X453076Y241924D02*
X452298Y242702D01*
X453076Y268076D02*
X452298Y267298D01*
X453076Y261924D02*
X452298Y262702D01*
X453076Y258076D02*
X452298Y257298D01*
X446924Y251924D02*
X447702Y252702D01*
X453076Y251924D02*
X452298Y252702D01*
X453076Y278076D02*
X452298Y277298D01*
X453076Y271924D02*
X452298Y272702D01*
G54D34*
X335000Y415000D03*
Y345000D03*
Y275000D03*
Y205000D03*
Y135000D03*
G54D38*
X350000Y415000D03*
Y345000D03*
Y275000D03*
Y205000D03*
Y135000D03*
G54D39*
Y195000D02*
X343500D01*
X343000Y195500*
Y265000*
Y335000*
Y265000D02*
X350000D01*
X343000Y405000D02*
Y335000D01*
X350000*
X343000Y405000D02*
Y468000D01*
X350000Y475000*
X343000Y405000D02*
X350000D01*
X195000Y430000D02*
Y446500D01*
X233500Y485000*
X359738*
X360000Y475000D02*
Y484738D01*
X420000Y475000D02*
Y481000D01*
X416000Y485000*
X360000*
X359738*
G54D40*
X430500Y172000D02*
X403000D01*
X380000Y195000*
X430500Y178000D02*
X407000D01*
X390000Y195000*
X430500Y166000D02*
X399500D01*
X370500Y195000*
X370000*
X430500Y184000D02*
X411000D01*
X400000Y195000*
X389000Y246000D02*
X433500D01*
X444500Y257000*
Y299500*
X450000Y305000*
X389000Y246000D02*
X370000Y265000D01*
X402500Y252500D02*
X431000D01*
X437000Y258500*
Y303500*
X448500Y315000*
X450000*
X402500Y252500D02*
X390000Y265000D01*
X396000Y249000D02*
X432000D01*
X440500Y257500*
Y303000*
X447500Y310000*
X450000*
X396000Y249000D02*
X380000Y265000D01*
X409500Y255500D02*
X428000D01*
X433500Y261000*
Y306000*
X447500Y320000*
X450000*
X409500Y255500D02*
X400000Y265000D01*
X409000Y316000D02*
X420500D01*
X439500Y335000*
X450000*
X409000Y316000D02*
X390000Y335000D01*
X404000Y311000D02*
X420500D01*
X439500Y330000*
X450000*
X404000Y311000D02*
X380000Y335000D01*
X399000Y306000D02*
X420500D01*
X439500Y325000*
X450000*
X399000Y306000D02*
X370000Y335000D01*
X460000Y305000D02*
X455000Y310000D01*
X450000*
X460000Y315000D02*
X455000Y320000D01*
X450000*
X414000Y321000D02*
X420500D01*
X439500Y340000*
X450000*
X414000Y321000D02*
X400000Y335000D01*
X460000Y325000D02*
X455000Y330000D01*
X450000*
X460000Y335000D02*
X455000Y340000D01*
X450000*
Y345000D02*
X445000D01*
X400500Y389500*
X385000*
X370000Y405000*
X450000Y355000D02*
X445000D01*
X402000Y398000*
X397000*
X390500Y404500*
X390000Y405000*
X460000Y345000D02*
X455000Y350000D01*
X445000*
X401000Y394000*
X391000*
X380000Y405000*
X460000Y355000D02*
X455000Y360000D01*
X445000*
X400000Y405000*
X450000Y365000D02*
X444500D01*
X438500Y371000*
X436500Y373000*
Y440000*
X424000Y452500*
X392500*
X370000Y475000*
X450000Y375000D02*
Y440500D01*
X430000Y460500*
X404500*
X390000Y475000*
X460000Y365000D02*
X455000Y370000D01*
X446300*
X441500Y374800*
Y440000*
X425000Y456500*
X398500*
X380000Y475000*
X460000Y375000D02*
Y438500D01*
X435000Y463500*
X411500*
X400000Y475000*
G54D42*
X170500Y125000D03*
X156000Y155500D03*
X457500Y162500D03*
Y183000D03*
X246500Y225000D03*
X246000Y232500D03*
X422500Y222000D03*
X245500Y255000D03*
X246000Y247500D03*
Y240000D03*
X423500Y259500D03*
X140000Y295000D03*
X160000D03*
X246000Y297500D03*
X422500Y285500D03*
X246500Y312500D03*
X132500Y335000D03*
X167500D03*
X246000Y327500D03*
X421000Y328000D03*
X246000Y342500D03*
X252000Y373000D03*
X423000Y359000D03*
Y397000D03*
X299000Y404500D03*
X312000D03*
X334000D03*
X423000Y444500D03*
Y468500D03*
G74*
X0Y0D02*
M02*
