*
*
G04 PADS 9.5 Build Number: 522968 generated Gerber (RS-274-X) file*
G04 PC Version=2.1*
*
%IN "Arm Board r1.pcb"*%
*
%MOIN*%
*
%FSLAX35Y35*%
*
*
*
*
G04 PC Standard Apertures*
*
*
G04 Thermal Relief Aperture macro.*
%AMTER*
1,1,$1,0,0*
1,0,$1-$2,0,0*
21,0,$3,$4,0,0,45*
21,0,$3,$4,0,0,135*
%
*
*
G04 Annular Aperture macro.*
%AMANN*
1,1,$1,0,0*
1,0,$2,0,0*
%
*
*
G04 Odd Aperture macro.*
%AMODD*
1,1,$1,0,0*
1,0,$1-0.005,0,0*
%
*
*
G04 PC Custom Aperture Macros*
*
*
*
*
*
*
G04 PC Aperture Table*
*
%ADD010C,0.001*%
%ADD018C,0.01*%
*
*
*
*
G04 PC Circuitry*
G04 Layer Name Arm Board r1.pcb - circuitry*
%LPD*%
*
*
G04 PC Custom Flashes*
G04 Layer Name Arm Board r1.pcb - flashes*
%LPD*%
*
*
G04 PC Circuitry*
G04 Layer Name Arm Board r1.pcb - circuitry*
%LPD*%
*
G54D10*
G54D18*
G01X335000Y469063D02*
Y462500D01*
Y469063D02*
X331818Y462500D01*
Y469063D02*
Y462500D01*
X329773Y469063D02*
X329545Y468750D01*
X329318Y469063*
X329318D02*
X329545Y469375D01*
X329773Y469063*
X329545Y466875D02*
Y462500D01*
X324545Y465938D02*
X325000Y466563D01*
X325000D02*
X325455Y466875D01*
X326136*
X326591Y466563*
X326591D02*
X327045Y465938D01*
X327045D02*
X327273Y465000D01*
Y464375*
X327045Y463438*
X327045D02*
X326591Y462813D01*
X326591D02*
X326136Y462500D01*
X325455*
X325000Y462813*
X325000D02*
X324545Y463438D01*
X322500Y469063D02*
Y462500D01*
X320227Y466875D02*
X322500Y463750D01*
X321591Y465000D02*
X320000Y462500D01*
X310909Y469063D02*
X312727Y462500D01*
X310909Y469063D02*
X309091Y462500D01*
X312045Y464688D02*
X309773D01*
X307045Y466875D02*
Y462500D01*
Y465625D02*
X306364Y466563D01*
X306364D02*
X305909Y466875D01*
X305227*
X304773Y466563*
X304773D02*
X304545Y465625D01*
Y462500*
Y465625D02*
X303864Y466563D01*
X303864D02*
X303409Y466875D01*
X302727*
X302273Y466563*
X302273D02*
X302045Y465625D01*
Y462500*
X300000Y465000D02*
X297273D01*
Y465625*
X297500Y466250*
X297727Y466563*
X297727D02*
X298182Y466875D01*
X298864*
X299318Y466563*
X299318D02*
X299773Y465938D01*
X299773D02*
X300000Y465000D01*
Y464375*
X299773Y463438*
X299773D02*
X299318Y462813D01*
X299318D02*
X298864Y462500D01*
X298182*
X297727Y462813*
X297727D02*
X297273Y463438D01*
X292727Y465938D02*
X292955Y466563D01*
X292955D02*
X293636Y466875D01*
X294318*
X295000Y466563*
X295000D02*
X295227Y465938D01*
X295227D02*
X295000Y465313D01*
X295000D02*
X294545Y465000D01*
X293409Y464688*
X293409D02*
X292955Y464375D01*
X292727Y463750*
Y463438*
X292727D02*
X292955Y462813D01*
X292955D02*
X293636Y462500D01*
X294318*
X295000Y462813*
X295000D02*
X295227Y463438D01*
X285227Y467500D02*
Y467813D01*
X285227D02*
X285000Y468438D01*
X285000D02*
X284773Y468750D01*
X284318Y469063*
X284318D02*
X283409D01*
X283409D02*
X282955Y468750D01*
X282727Y468438*
X282727D02*
X282500Y467813D01*
X282500D02*
Y467188D01*
X282500D02*
X282727Y466563D01*
X282727D02*
X283182Y465625D01*
X285455Y462500*
X282273*
X278864Y469063D02*
X279545Y468750D01*
X280000Y467813*
X280000D02*
X280227Y466250D01*
Y465313*
X280227D02*
X280000Y463750D01*
X279545Y462813*
X279545D02*
X278864Y462500D01*
X278409*
X277727Y462813*
X277727D02*
X277273Y463750D01*
X277045Y465313*
X277045D02*
Y466250D01*
X277273Y467813*
X277273D02*
X277727Y468750D01*
X278409Y469063*
X278409D02*
X278864D01*
X275000Y467813D02*
X274545Y468125D01*
X273864Y469063*
X273864D02*
Y462500D01*
X269545Y469063D02*
X271818Y464688D01*
X271818D02*
X268409D01*
X269545Y469063D02*
Y462500D01*
X333636Y481563D02*
X334091Y481250D01*
X334545Y480625*
X334773Y480000*
X335000Y479063*
X335000D02*
Y477500D01*
X334773Y476563*
X334773D02*
X334545Y475938D01*
X334545D02*
X334091Y475313D01*
X334091D02*
X333636Y475000D01*
X332727*
X332273Y475313*
X332273D02*
X331818Y475938D01*
X331818D02*
X331591Y476563D01*
X331591D02*
X331364Y477500D01*
Y479063*
X331364D02*
X331591Y480000D01*
X331818Y480625*
X332273Y481250*
X332727Y481563*
X332727D02*
X333636D01*
X326136Y480625D02*
X326591Y481250D01*
X327273Y481563*
X327273D02*
X328182D01*
X328182D02*
X328864Y481250D01*
X329318Y480625*
Y480000*
X329091Y479375*
X328864Y479063*
X328864D02*
X328409Y478750D01*
X327045Y478125*
X326591Y477813*
X326591D02*
X326364Y477500D01*
X326136Y476875*
Y475938*
X326136D02*
X326591Y475313D01*
X326591D02*
X327273Y475000D01*
X328182*
X328864Y475313*
X328864D02*
X329318Y475938D01*
X324091Y481563D02*
Y476875D01*
X323864Y475938*
X323864D02*
X323409Y475313D01*
X323409D02*
X322727Y475000D01*
X322273*
X321591Y475313*
X321591D02*
X321136Y475938D01*
X321136D02*
X320909Y476875D01*
Y481563*
X318864D02*
Y475000D01*
Y481563D02*
X316818D01*
X316818D02*
X316136Y481250D01*
X315909Y480938*
X315909D02*
X315682Y480313D01*
X315682D02*
Y479688D01*
X315682D02*
X315909Y479063D01*
X315909D02*
X316136Y478750D01*
X316818Y478438*
X316818D02*
X318864D01*
X317273D02*
X315682Y475000D01*
X310227Y480000D02*
X310455Y480625D01*
X310909Y481250*
X311364Y481563*
X311364D02*
X312273D01*
X312273D02*
X312727Y481250D01*
X313182Y480625*
X313409Y480000*
X313636Y479063*
X313636D02*
Y477500D01*
X313409Y476563*
X313409D02*
X313182Y475938D01*
X313182D02*
X312727Y475313D01*
X312727D02*
X312273Y475000D01*
X311364*
X310909Y475313*
X310909D02*
X310455Y475938D01*
X310455D02*
X310227Y476563D01*
X302955Y481563D02*
Y475000D01*
Y481563D02*
X300909D01*
X300909D02*
X300227Y481250D01*
X300000Y480938*
X300000D02*
X299773Y480313D01*
X299773D02*
Y479688D01*
X299773D02*
X300000Y479063D01*
X300000D02*
X300227Y478750D01*
X300909Y478438*
X300909D02*
X302955D01*
X301364D02*
X299773Y475000D01*
X296591Y479375D02*
X297045Y479063D01*
X297045D02*
X297500Y478438D01*
X297500D02*
X297727Y477500D01*
Y476875*
X297500Y475938*
X297500D02*
X297045Y475313D01*
X297045D02*
X296591Y475000D01*
X295909*
X295455Y475313*
X295455D02*
X295000Y475938D01*
X295000D02*
X294773Y476875D01*
Y477500*
X295000Y478438*
X295000D02*
X295455Y479063D01*
X295455D02*
X295909Y479375D01*
X296591*
X292727D02*
X291364Y475000D01*
X290000Y479375D02*
X291364Y475000D01*
X287955Y477500D02*
X285227D01*
Y478125*
X285455Y478750*
X285682Y479063*
X285682D02*
X286136Y479375D01*
X286818*
X287273Y479063*
X287273D02*
X287727Y478438D01*
X287727D02*
X287955Y477500D01*
Y476875*
X287727Y475938*
X287727D02*
X287273Y475313D01*
X287273D02*
X286818Y475000D01*
X286136*
X285682Y475313*
X285682D02*
X285227Y475938D01*
X283182Y479375D02*
Y475000D01*
Y477500D02*
X282955Y478438D01*
X282955D02*
X282500Y479063D01*
X282500D02*
X282045Y479375D01*
X281364*
X273864Y480000D02*
Y480313D01*
X273864D02*
X273636Y480938D01*
X273636D02*
X273409Y481250D01*
X272955Y481563*
X272955D02*
X272045D01*
X272045D02*
X271591Y481250D01*
X271364Y480938*
X271364D02*
X271136Y480313D01*
X271136D02*
Y479688D01*
X271136D02*
X271364Y479063D01*
X271364D02*
X271818Y478125D01*
X274091Y475000*
X270909*
X267500Y481563D02*
X268182Y481250D01*
X268636Y480313*
X268636D02*
X268864Y478750D01*
Y477813*
X268864D02*
X268636Y476250D01*
X268182Y475313*
X268182D02*
X267500Y475000D01*
X267045*
X266364Y475313*
X266364D02*
X265909Y476250D01*
X265682Y477813*
X265682D02*
Y478750D01*
X265909Y480313*
X265909D02*
X266364Y481250D01*
X267045Y481563*
X267045D02*
X267500D01*
X263636Y480313D02*
X263182Y480625D01*
X262500Y481563*
X262500D02*
Y475000D01*
X257500Y481563D02*
X259773D01*
X259773D02*
X260000Y478750D01*
X259773Y479063*
X259773D02*
X259091Y479375D01*
X258409*
X257727Y479063*
X257727D02*
X257273Y478438D01*
X257273D02*
X257045Y477500D01*
X257273Y476875*
X257500Y475938*
X257500D02*
X257955Y475313D01*
X257955D02*
X258636Y475000D01*
X259318*
X260000Y475313*
X260000D02*
X260227Y475625D01*
X260455Y476250*
X247955Y481563D02*
X249773Y475000D01*
X247955Y481563D02*
X246136Y475000D01*
X249091Y477188D02*
X246818D01*
X244091Y479375D02*
Y475000D01*
Y477500D02*
X243864Y478438D01*
X243864D02*
X243409Y479063D01*
X243409D02*
X242955Y479375D01*
X242273*
X240227D02*
Y475000D01*
Y478125D02*
X239545Y479063D01*
X239545D02*
X239091Y479375D01*
X238409*
X237955Y479063*
X237955D02*
X237727Y478125D01*
Y475000*
Y478125D02*
X237045Y479063D01*
X237045D02*
X236591Y479375D01*
X235909*
X235455Y479063*
X235455D02*
X235227Y478125D01*
Y475000*
X227955Y481563D02*
Y475000D01*
Y481563D02*
X226364D01*
X226364D02*
X225682Y481250D01*
X225227Y480625*
X225000Y480000*
X224773Y479063*
X224773D02*
Y477500D01*
X225000Y476563*
X225000D02*
X225227Y475938D01*
X225227D02*
X225682Y475313D01*
X225682D02*
X226364Y475000D01*
X227955*
X220000Y479375D02*
Y475000D01*
Y478438D02*
X220455Y479063D01*
X220455D02*
X220909Y479375D01*
X221591*
X222045Y479063*
X222045D02*
X222500Y478438D01*
X222500D02*
X222727Y477500D01*
Y476875*
X222500Y475938*
X222500D02*
X222045Y475313D01*
X222045D02*
X221591Y475000D01*
X220909*
X220455Y475313*
X220455D02*
X220000Y475938D01*
X217955Y479375D02*
Y476250D01*
X217727Y475313*
X217727D02*
X217273Y475000D01*
X216591*
X216136Y475313*
X216136D02*
X215455Y476250D01*
Y479375D02*
Y475000D01*
X210682Y479375D02*
Y474375D01*
X210909Y473437*
X210909D02*
X211136Y473125D01*
X211591Y472812*
X211591D02*
X212273D01*
X212273D02*
X212727Y473125D01*
X210682Y478438D02*
X211136Y479063D01*
X211136D02*
X211591Y479375D01*
X212273*
X212727Y479063*
X212727D02*
X213182Y478438D01*
X213182D02*
X213409Y477500D01*
Y476875*
X213182Y475938*
X213182D02*
X212727Y475313D01*
X212727D02*
X212273Y475000D01*
X211591*
X211136Y475313*
X211136D02*
X210682Y475938D01*
X208636Y481563D02*
Y475000D01*
Y478125D02*
X207955Y479063D01*
X207955D02*
X207500Y479375D01*
X206818*
X206364Y479063*
X206364D02*
X206136Y478125D01*
Y475000*
X203409Y481563D02*
Y476250D01*
X203182Y475313*
X203182D02*
X202727Y475000D01*
X202273*
X204091Y479375D02*
X202500D01*
X200227Y477500D02*
X197500D01*
Y478125*
X197727Y478750*
X197955Y479063*
X197955D02*
X198409Y479375D01*
X199091*
X199545Y479063*
X199545D02*
X200000Y478438D01*
X200000D02*
X200227Y477500D01*
Y476875*
X200000Y475938*
X200000D02*
X199545Y475313D01*
X199545D02*
X199091Y475000D01*
X198409*
X197955Y475313*
X197955D02*
X197500Y475938D01*
X195455Y479375D02*
Y475000D01*
Y477500D02*
X195227Y478438D01*
X195227D02*
X194773Y479063D01*
X194773D02*
X194318Y479375D01*
X193636*
X191591Y481563D02*
Y475000D01*
Y478438D02*
X191136Y479063D01*
X191136D02*
X190682Y479375D01*
X190000*
X189545Y479063*
X189545D02*
X189091Y478438D01*
X189091D02*
X188864Y477500D01*
Y476875*
X189091Y475938*
X189091D02*
X189545Y475313D01*
X189545D02*
X190000Y475000D01*
X190682*
X191136Y475313*
X191136D02*
X191591Y475938D01*
X185682Y479375D02*
X186136Y479063D01*
X186136D02*
X186591Y478438D01*
X186591D02*
X186818Y477500D01*
Y476875*
X186591Y475938*
X186591D02*
X186136Y475313D01*
X186136D02*
X185682Y475000D01*
X185000*
X184545Y475313*
X184545D02*
X184091Y475938D01*
X184091D02*
X183864Y476875D01*
Y477500*
X184091Y478438*
X184091D02*
X184545Y479063D01*
X184545D02*
X185000Y479375D01*
X185682*
X179091D02*
Y475000D01*
Y478438D02*
X179545Y479063D01*
X179545D02*
X180000Y479375D01*
X180682*
X181136Y479063*
X181136D02*
X181591Y478438D01*
X181591D02*
X181818Y477500D01*
Y476875*
X181591Y475938*
X181591D02*
X181136Y475313D01*
X181136D02*
X180682Y475000D01*
X180000*
X179545Y475313*
X179545D02*
X179091Y475938D01*
X177045Y479375D02*
Y475000D01*
Y477500D02*
X176818Y478438D01*
X176818D02*
X176364Y479063D01*
X176364D02*
X175909Y479375D01*
X175227*
X170455Y481563D02*
Y475000D01*
Y478438D02*
X170909Y479063D01*
X170909D02*
X171364Y479375D01*
X172045*
X172500Y479063*
X172500D02*
X172955Y478438D01*
X172955D02*
X173182Y477500D01*
Y476875*
X172955Y475938*
X172955D02*
X172500Y475313D01*
X172500D02*
X172045Y475000D01*
X171364*
X170909Y475313*
X170909D02*
X170455Y475938D01*
X163182Y479375D02*
Y475000D01*
Y477500D02*
X162955Y478438D01*
X162955D02*
X162500Y479063D01*
X162500D02*
X162045Y479375D01*
X161364*
X159318Y480313D02*
X158864Y480625D01*
X158182Y481563*
X158182D02*
Y475000D01*
X0Y0D02*
M02*
